<?xml version="1.0" standalone="no"?>
<!DOCTYPE svg PUBLIC "-//W3C//DTD SVG 1.1//EN" "http://www.w3.org/Graphics/SVG/1.1/DTD/svg11.dtd" >
<svg xmlns="http://www.w3.org/2000/svg" width="100%" height="100%">
<metadata>
Created by FontXChange 20110222 at Tue May 19 22:38:09 2015
 By NO
(c) 2012, 2013, 2014 by Stawix Ruecha &#38; Foundry. All rights reserved.
</metadata>
<defs>
<font id="RleudCondensed-ExtraLight" horiz-adv-x="348" >
  <font-face 
    font-family="RleudCondensed"
    font-weight="400"
    font-stretch="ultra-condensed"
    units-per-em="1000"
    panose-1="2 11 5 3 0 0 0 2 0 4"
    ascent="774"
    descent="-226"
    x-height="500"
    cap-height="700"
    bbox="-89 -221 2186 952"
    underline-thickness="35"
    underline-position="-106"
    unicode-range="U+000D-FB02"
  />
<missing-glyph horiz-adv-x="520" 
d="M10 700h500v-700h-500v700zM430 650h-340l170 -255zM460 95v510l-170 -255zM430 50l-170 255l-170 -255h340zM60 95l170 255l-170 255v-510z" />
    <glyph glyph-name="fi" unicode="fi" horiz-adv-x="312" 
d="M257 0h-35v468h-124v-468h-35v468h-53v32h53v46q0 72 24 116.5t80 44.5q11 0 24.5 -2t23.5 -6v-32q-21 7 -44 7q-41 0 -57 -34t-16 -95v-45h159v-500z" />
    <glyph glyph-name="fl" unicode="fl" horiz-adv-x="314" 
d="M164 500v-32h-66v-468h-35v468h-53v32h53v46q0 78 27 119.5t90 41.5q21 0 42 -3t37 -8v-696h-36v668q-18 6 -40 6q-48 0 -66.5 -31.5t-18.5 -97.5v-45h66z" />
    <glyph glyph-name="f_b" unicode="fb" horiz-adv-x="507" 
d="M260 111q-3 -28 -3.5 -55.5t-2.5 -55.5h-31v668q-18 6 -40 6q-48 0 -66.5 -31.5t-18.5 -97.5v-45h66v-32h-66v-468h-35v468h-53v32h53v29q0 42 5.5 75.5t19 56t36 34.5t56.5 12q21 0 42 -3t37 -8v-193l-3 -113h2q11 54 35.5 85.5t66.5 31.5q58 0 85.5 -65.5t27.5 -188.5
v-6q0 -127 -29 -190.5t-83 -63.5q-44 0 -68.5 32t-32.5 86zM437 253q0 106 -18 164t-63 58q-24 0 -42 -16t-30.5 -42.5t-18.5 -60t-6 -67.5v-64q0 -38 6 -74t18 -64t30 -45t42 -17q45 0 63.5 57t18.5 165v6z" />
    <glyph glyph-name="f_f" unicode="ff" horiz-adv-x="365" 
d="M98 0h-35v468h-53v32h53v68q0 31 4 56.5t14 43.5t25.5 28t39.5 10q12 0 22.5 -2.5t18.5 -5.5v-31q-10 3 -19 4t-17 1q-32 0 -42.5 -28t-10.5 -79v-65h125v59q0 72 20 110t72 38q27 0 48 -8v-31q-11 4 -21 5t-22 1q-36 0 -48.5 -28.5t-12.5 -89.5v-56h89v-32h-89v-468h-36
v468h-125v-468z" />
    <glyph glyph-name="f_h" unicode="fh" horiz-adv-x="520" 
d="M432 315q0 75 -13.5 117t-54.5 42q-26 0 -45.5 -15.5t-32.5 -42.5t-20 -62t-7 -74v-280h-36v668q-18 6 -40 6q-48 0 -66.5 -31.5t-18.5 -97.5v-45h66v-32h-66v-468h-35v468h-53v32h53v46q0 78 27 119.5t90 41.5q21 0 42 -3t37 -8v-192l-2 -126h1q8 60 37.5 94.5
t74.5 34.5q55 0 76.5 -50.5t21.5 -138.5v-318h-36v315z" />
    <glyph glyph-name="f_j" unicode="fj" horiz-adv-x="312" 
d="M177 -174q27 0 36 22t9 77v543h-124v-468h-35v468h-53v32h53v46q0 72 24 116.5t80 44.5q11 0 24.5 -2t23.5 -6v-32q-21 7 -44 7q-41 0 -57 -34t-16 -95v-45h159v-576q0 -71 -17.5 -101t-56.5 -30q-28 0 -47 8v32q11 -3 20.5 -5t20.5 -2z" />
    <glyph glyph-name="f_k" unicode="fk" horiz-adv-x="469" 
d="M336 297l121 -297h-35l-107 260l-56 -97v-163h-36v668q-18 6 -40 6q-48 0 -66.5 -31.5t-18.5 -97.5v-45h66v-32h-66v-468h-35v468h-53v32h53v46q0 78 27 119.5t90 41.5q21 0 42 -3t37 -8v-469l154 273h39z" />
    <glyph glyph-name="t_t" unicode="tt" horiz-adv-x="383" 
d="M98 130q0 -56 9 -80t41 -24q13 0 22.5 1t20.5 5v-30q-19 -8 -47 -8q-49 0 -65 32t-16 100v342h-53v32h54l5 172h29v-172h141l6 172h28v-172h95v-32h-95v-338q0 -56 11.5 -80t43.5 -24q26 0 46 7v-30q-21 -9 -51 -9q-49 0 -67 32t-18 100v342h-140v-338z" />
    <glyph glyph-name="f_t" unicode="ft" horiz-adv-x="371" 
d="M98 500h128l6 126h29v-126h95v-32h-95v-338q0 -56 11 -80t43 -24q26 0 46 7v-30q-20 -9 -50 -9q-49 0 -67 32t-18 100v342h-128v-468h-35v468h-53v32h53v68q0 31 4 56.5t14 43.5t25.5 28t39.5 10q12 0 22.5 -2.5t18.5 -5.5v-31q-10 3 -19 4t-17 1q-32 0 -42.5 -28
t-10.5 -79v-65z" />
    <glyph glyph-name="f_f_j" unicode="ffj" horiz-adv-x="473" 
d="M223 551q0 72 22.5 114t74.5 42q14 0 27 -1.5t23 -6.5v-31q-11 4 -22 5t-24 1q-38 0 -51.5 -32t-13.5 -93v-49h159v-549q0 -86 -15.5 -122t-58.5 -36q-28 0 -47 8v32q11 -3 20.5 -5t20.5 -2q15 0 23.5 6.5t13 21t6 38.5t1.5 59v517h-123v-468h-36v468h-125v-468h-35v468
h-53v32h53v68q0 31 4 56.5t14 43.5t25.5 28t39.5 10q12 0 22.5 -2.5t18.5 -5.5v-31q-10 3 -19 4t-17 1q-32 0 -42.5 -28t-10.5 -79v-65h125v51z" />
    <glyph glyph-name="f_f_t" unicode="fft" horiz-adv-x="532" 
d="M223 546q0 36 3.5 65.5t12.5 50.5t25.5 32.5t42.5 11.5q12 0 22.5 -2.5t18.5 -5.5v-31q-10 3 -19 4t-17 1q-32 0 -42.5 -28t-10.5 -79v-65h128l6 126h29v-126h95v-32h-95v-338q0 -56 11 -80t43 -24q26 0 46 7v-30q-20 -9 -50 -9q-49 0 -67.5 32t-18.5 100v342h-127v-468
h-36v468h-125v-468h-35v468h-53v32h53v68q0 31 4 56.5t14 43.5t25.5 28t39.5 10q12 0 22.5 -2.5t18.5 -5.5v-31q-10 3 -19 4t-17 1q-32 0 -42.5 -28t-10.5 -79v-65h125v46z" />
    <glyph glyph-name="f_f_i" unicode="ffi" horiz-adv-x="473" 
d="M223 546q0 72 24.5 116.5t80.5 44.5q11 0 24.5 -2t23.5 -6v-32q-21 7 -44 7q-41 0 -57 -34t-16 -95v-45h159v-500h-36v468h-123v-468h-36v468h-125v-468h-35v468h-53v32h53v68q0 31 4 56.5t14 43.5t25.5 28t39.5 10q12 0 22.5 -2.5t18.5 -5.5v-31q-10 3 -19 4t-17 1
q-32 0 -42.5 -28t-10.5 -79v-65h125v46z" />
    <glyph glyph-name="f_f_l" unicode="ffl" horiz-adv-x="474" 
d="M223 546q0 78 27.5 119.5t90.5 41.5q21 0 42 -3t37 -8v-696h-36v668q-18 6 -41 6q-48 0 -66 -31.5t-18 -97.5v-45h66v-32h-66v-468h-36v468h-125v-468h-35v468h-53v32h53v68q0 31 4 56.5t14 43.5t25.5 28t39.5 10q12 0 22.5 -2.5t18.5 -5.5v-31q-10 3 -19 4t-17 1
q-32 0 -42.5 -28t-10.5 -79v-65h125v46z" />
    <glyph glyph-name="f_f_b" unicode="ffb" horiz-adv-x="668" 
d="M223 546q0 78 27.5 119.5t90.5 41.5q21 0 42 -3t37 -8v-193l-3 -113h2q11 54 35.5 85.5t66.5 31.5q57 0 85 -65.5t28 -188.5v-6q0 -127 -29.5 -190.5t-83.5 -63.5q-43 0 -67.5 32t-32.5 86h-1l-5 -111h-31v668q-18 6 -41 6q-48 0 -66 -31.5t-18 -97.5v-45h66v-32h-66
v-468h-36v468h-125v-468h-35v468h-53v32h53v68q0 31 4 56.5t14 43.5t25.5 28t39.5 10q12 0 22.5 -2.5t18.5 -5.5v-31q-10 3 -19 4t-17 1q-32 0 -42.5 -28t-10.5 -79v-65h125v46zM598 253q0 106 -18 164t-63 58q-24 0 -42 -16t-30.5 -42.5t-18.5 -60t-6 -67.5v-64
q0 -38 6 -74t18 -64t30 -45t42 -17q45 0 63.5 57t18.5 165v6z" />
    <glyph glyph-name="f_f_h" unicode="ffh" horiz-adv-x="680" 
d="M223 546q0 78 27.5 119.5t90.5 41.5q21 0 42 -3t37 -8v-192l-2 -126h1q8 60 37.5 94.5t73.5 34.5q56 0 77.5 -50.5t21.5 -138.5v-318h-36v315q0 75 -14 117t-54 42q-26 0 -45.5 -15.5t-32.5 -42.5t-20 -62t-7 -74v-280h-36v668q-18 6 -41 6q-48 0 -66 -31.5t-18 -97.5
v-45h66v-32h-66v-468h-36v468h-125v-468h-35v468h-53v32h53v68q0 31 4 56.5t14 43.5t25.5 28t39.5 10q12 0 22.5 -2.5t18.5 -5.5v-31q-10 3 -19 4t-17 1q-32 0 -42.5 -28t-10.5 -79v-65h125v46z" />
    <glyph glyph-name="f_f_k" unicode="ffk" horiz-adv-x="629" 
d="M223 546q0 78 27.5 119.5t90.5 41.5q21 0 42 -3t37 -8v-469l154 273h39l-116 -203l121 -297h-35l-107 260l-56 -97v-163h-36v668q-18 6 -41 6q-48 0 -66 -31.5t-18 -97.5v-45h66v-32h-66v-468h-36v468h-125v-468h-35v468h-53v32h53v68q0 31 4 56.5t14 43.5t25.5 28
t39.5 10q12 0 22.5 -2.5t18.5 -5.5v-31q-10 3 -19 4t-17 1q-32 0 -42.5 -28t-10.5 -79v-65h125v46z" />
    <glyph glyph-name=".notdef" horiz-adv-x="520" 
d="M10 700h500v-700h-500v700zM430 650h-340l170 -255zM460 95v510l-170 -255zM430 50l-170 255l-170 -255h340zM60 95l170 255l-170 255v-510z" />
    <glyph glyph-name=".null" horiz-adv-x="0" 
 />
    <glyph glyph-name=".null" horiz-adv-x="0" 
 />
    <glyph glyph-name="nonmarkingreturn" unicode="&#xd;" horiz-adv-x="107" 
 />
    <glyph glyph-name="space" unicode=" " horiz-adv-x="191" 
 />
    <glyph glyph-name="exclam" unicode="!" horiz-adv-x="152" 
d="M95 700l-5 -528h-29l-5 528h39zM76 -4q-14 0 -20 9t-6 21q0 11 6 20.5t20 9.5q15 0 21 -9.5t6 -20.5q0 -12 -6 -21t-21 -9z" />
    <glyph glyph-name="quotedbl" unicode="&#x22;" horiz-adv-x="183" 
d="M66 700l-4 -245h-25l-5 245h34zM150 700l-4 -245h-25l-4 245h33z" />
    <glyph glyph-name="numbersign" unicode="#" 
d="M49 503h59l21 197h32l-21 -197h101l21 197h32l-22 -197h55v-33h-58l-26 -240h57v-33h-61l-21 -197h-31l21 197h-101l-21 -197h-32l21 197h-54v33h58l26 240h-56v33zM110 230h101l26 240h-101z" />
    <glyph glyph-name="dollar" unicode="$" 
d="M157 -6q-62 5 -91 52.5t-29 121.5h37q0 -62 23 -102t76 -40t76 37.5t23 96.5q0 36 -9.5 63.5t-25 50t-36 41t-41.5 38.5q-24 21 -45.5 42t-38 44.5t-26 52.5t-9.5 67q0 65 25.5 104.5t90.5 43.5v103h35v-104q59 -6 84 -48t25 -106h-37q0 54 -20 88t-73 34q-54 0 -74 -32
t-20 -83q0 -31 8 -55t22 -45t34 -40t43 -40q23 -20 45.5 -41.5t40 -47.5t28.5 -57.5t11 -72.5q0 -70 -28 -115t-89 -51v-104h-35v104z" />
    <glyph glyph-name="percent" unicode="%" horiz-adv-x="382" 
d="M88 0h-33l239 700h34zM22 540q0 75 17.5 119.5t60.5 44.5q42 0 59.5 -44.5t17.5 -119.5q0 -76 -17.5 -120.5t-59.5 -44.5q-43 0 -60.5 44.5t-17.5 120.5zM144 540q0 29 -2 54t-6.5 43t-13.5 28.5t-22 10.5q-14 0 -22.5 -10.5t-13.5 -28.5t-7 -43t-2 -54q0 -30 2 -55
t7 -43t13.5 -28.5t22.5 -10.5q13 0 22 10.5t13.5 28.5t6.5 43t2 55zM206 160q0 76 17 120.5t60 44.5q42 0 59.5 -44.5t17.5 -120.5q0 -75 -17.5 -119.5t-59.5 -44.5q-43 0 -60 44.5t-17 119.5zM327 160q0 30 -2 55t-6.5 43t-13.5 28.5t-22 10.5q-14 0 -22.5 -10.5
t-13.5 -28.5t-7 -43t-2 -55q0 -29 2 -54t7 -43t13.5 -28.5t22.5 -10.5q13 0 22 10.5t13.5 28.5t6.5 43t2 54z" />
    <glyph glyph-name="ampersand" unicode="&#x26;" horiz-adv-x="370" 
d="M145 386q-33 -24 -51.5 -68.5t-18.5 -126.5q0 -78 24 -121t79 -43q27 0 52 10v-33q-22 -11 -52 -11q-138 0 -138 198q0 49 7 86t19.5 64t29 45t36.5 30q-16 32 -28 69.5t-12 85.5q0 61 23 98.5t76 37.5q27 0 46 -10.5t30.5 -29t16.5 -44t5 -55.5q0 -50 -12 -87t-26 -57
h82v-29h-113v27q14 22 24 59.5t10 86.5q0 44 -13 74.5t-50 30.5q-35 0 -49.5 -27.5t-14.5 -74.5t10 -80.5t28 -72.5l191 -418h-34z" />
    <glyph glyph-name="quotesingle" unicode="'" horiz-adv-x="107" 
d="M70 700l-4 -245h-25l-5 245h34z" />
    <glyph glyph-name="parenleft" unicode="(" horiz-adv-x="156" 
d="M47 278q0 132 22.5 237.5t61.5 197.5l19 -11q-38 -103 -52.5 -208t-14.5 -216t14.5 -216t52.5 -207l-19 -11q-39 92 -61.5 197t-22.5 237z" />
    <glyph glyph-name="parenright" unicode=")" horiz-adv-x="156" 
d="M109 278q0 -132 -22.5 -237t-61.5 -197l-19 11q38 102 52.5 207t14.5 216t-14.5 216t-52.5 208l19 11q39 -92 61.5 -197.5t22.5 -237.5z" />
    <glyph glyph-name="asterisk" unicode="*" horiz-adv-x="263" 
d="M143 546l73 52l12 -32l-80 -47l56 -119l-24 -22l-48 125l-48 -125l-25 22l56 119l-80 47l12 32l74 -52l-5 154h31z" />
    <glyph glyph-name="plus" unicode="+" horiz-adv-x="274" 
d="M252 330v-34h-97v-193h-35v193h-98v34h98v193h35v-193h97z" />
    <glyph glyph-name="comma" unicode="," horiz-adv-x="127" 
d="M48 60l42 -8l-34 -179l-26 10z" />
    <glyph glyph-name="hyphen" unicode="-" horiz-adv-x="206" 
d="M21 312v34h164v-34h-164z" />
    <glyph glyph-name="period" unicode="." horiz-adv-x="127" 
d="M63 -4q-14 0 -20 9t-6 21q0 11 6 20.5t20 9.5q15 0 21 -9.5t6 -20.5q0 -12 -6 -21t-21 -9z" />
    <glyph glyph-name="slash" unicode="/" horiz-adv-x="176" 
d="M41 -20h-32l126 740h32z" />
    <glyph glyph-name="zero" unicode="0" horiz-adv-x="363" 
d="M75 350q0 -89 7.5 -151t21.5 -100t33.5 -55t43.5 -17t43.5 17t34 55t22 100t7.5 151t-7.5 150.5t-22 100t-34 55.5t-43.5 17t-43.5 -17t-33.5 -55.5t-21.5 -100t-7.5 -150.5zM37 350q0 99 10.5 167t29.5 110.5t45.5 61t58.5 18.5t58.5 -18.5t45.5 -61t29.5 -110.5
t10.5 -167t-10.5 -167t-29.5 -110.5t-45.5 -61t-58.5 -18.5t-58.5 18.5t-45.5 61t-29.5 110.5t-10.5 167z" />
    <glyph glyph-name="one" unicode="1" horiz-adv-x="210" 
d="M106 700h37v-700h-37v653l-86 -71v38z" />
    <glyph glyph-name="two" unicode="2" horiz-adv-x="312" 
d="M141 673q-29 0 -49.5 -5.5t-40.5 -13.5v34q17 8 40 13.5t54 5.5q59 0 92.5 -35.5t33.5 -124.5q0 -36 -6.5 -69.5t-16.5 -63.5t-21.5 -56t-21.5 -47l-135 -277h207v-34h-247v32l144 298q9 18 19.5 42t19.5 52.5t15 59.5t6 63q0 36 -6.5 60.5t-18.5 39t-29 20.5t-39 6z" />
    <glyph glyph-name="three" unicode="3" horiz-adv-x="304" 
d="M120 27q52 0 80.5 41t28.5 125q0 49 -7.5 80t-20.5 48.5t-31 24t-39 6.5h-38v33h37q42 0 66 33.5t24 112.5q0 72 -23 107t-73 35q-26 0 -48 -5.5t-43 -15.5v35q20 9 41.5 14.5t53.5 5.5q67 0 98 -45t31 -131q0 -43 -7 -72t-18 -47.5t-23.5 -28t-22.5 -13.5
q15 -5 29.5 -16t26 -31.5t18 -52t6.5 -77.5q0 -103 -37.5 -151.5t-108.5 -48.5q-30 0 -53.5 5.5t-43.5 16.5v35q46 -23 97 -23z" />
    <glyph glyph-name="four" unicode="4" horiz-adv-x="333" 
d="M232 148h-209v29l138 523h39l-136 -518h168v264h37v-264h52v-34h-52v-148h-37v148z" />
    <glyph glyph-name="five" unicode="5" horiz-adv-x="325" 
d="M132 27q60 0 90 44t30 151q0 49 -6.5 82.5t-19 54t-30 29.5t-39.5 9q-31 0 -52.5 -11.5t-36.5 -28.5h-32l15 343h208v-34h-173l-12 -268q14 12 35 22.5t53 10.5q29 0 52.5 -11.5t40 -36.5t25.5 -64.5t9 -96.5q0 -62 -10.5 -105.5t-30 -71t-48 -40t-64.5 -12.5
q-30 0 -56 6t-46 16v35q23 -11 47.5 -17t50.5 -6z" />
    <glyph glyph-name="six" unicode="6" horiz-adv-x="344" 
d="M184 401q-33 0 -62.5 -24t-48.5 -56q1 -141 29 -218t79 -77q43 0 67.5 50t24.5 141t-20 137.5t-69 46.5zM198 674q-65 0 -93.5 -81.5t-30.5 -231.5q8 13 19.5 26.5t26 24t31.5 17t37 6.5q122 0 122 -218q0 -107 -36.5 -165.5t-92.5 -58.5q-69 0 -106.5 87t-37.5 248
q0 197 39 288t120 91q25 0 43 -5.5t32 -13.5v-34q-35 20 -73 20z" />
    <glyph glyph-name="seven" unicode="7" horiz-adv-x="306" 
d="M21 700h253v-33l-160 -667h-39l160 666h-214v34z" />
    <glyph glyph-name="eight" unicode="8" horiz-adv-x="340" 
d="M173 386q45 0 67 39.5t22 106.5q0 66 -21 105t-71 39t-71.5 -39t-21.5 -105q0 -67 22.5 -106.5t66.5 -39.5h7zM170 707q66 0 97.5 -47.5t31.5 -125.5q0 -38 -6.5 -66t-17.5 -47.5t-25.5 -31.5t-29.5 -18q34 -14 59 -58t25 -127q0 -99 -36 -146t-98 -47t-98.5 47
t-36.5 146q0 83 25 127t60 58q-16 6 -30.5 18t-25.5 31.5t-17.5 47.5t-6.5 66q0 78 32 125.5t98 47.5zM166 355q-43 0 -68.5 -43.5t-25.5 -124.5q0 -163 98 -163q97 0 97 163q0 81 -25 124.5t-69 43.5h-7z" />
    <glyph glyph-name="nine" unicode="9" horiz-adv-x="344" 
d="M163 299q33 0 61.5 22.5t46.5 57.5q-1 141 -29 218t-79 77q-42 0 -67 -50t-25 -141t21.5 -137.5t70.5 -46.5zM146 26q34 0 57.5 21t38 60.5t21 98t7.5 133.5q-16 -29 -44.5 -51.5t-67.5 -22.5q-124 0 -124 218q0 107 36.5 165.5t92.5 58.5q69 0 106.5 -87t37.5 -248
q0 -197 -37 -288t-122 -91q-26 0 -45.5 5t-32.5 13v34q32 -19 76 -19z" />
    <glyph glyph-name="colon" unicode=":" horiz-adv-x="153" 
d="M76 -4q-14 0 -20 9.5t-6 20.5t6 21t20 10t20 -10t6 -21t-6 -20.5t-20 -9.5zM76 443q-14 0 -20 10t-6 21t6 20.5t20 9.5t20 -9.5t6 -20.5t-6 -21t-20 -10z" />
    <glyph glyph-name="semicolon" unicode=";" horiz-adv-x="153" 
d="M76 443q-14 0 -20 10t-6 21t6 20.5t20 9.5t20 -9.5t6 -20.5t-6 -21t-20 -10zM59 60l43 -9l-37 -185l-25 9z" />
    <glyph glyph-name="less" unicode="&#x3c;" horiz-adv-x="274" 
d="M240 524v-42l-192 -200l192 -200v-42l-219 229v26z" />
    <glyph glyph-name="equal" unicode="=" horiz-adv-x="274" 
d="M246 357v-33h-218v33h218zM246 224v-34h-218v34h218z" />
    <glyph glyph-name="greater" unicode="&#x3e;" horiz-adv-x="274" 
d="M253 295v-26l-219 -229v42l192 200l-192 200v42z" />
    <glyph glyph-name="question" unicode="?" horiz-adv-x="298" 
d="M126 707q36 0 61.5 -11.5t41.5 -32.5t23.5 -50t7.5 -63q0 -57 -16.5 -98t-36 -76.5t-36 -70t-16.5 -78.5v-52h-36v52q0 48 16 85t35.5 73t35.5 74.5t16 89.5q0 55 -22.5 90t-76.5 35q-23 0 -46.5 -5.5t-45.5 -14.5v33q21 10 44 15t51 5zM138 -4q-14 0 -20 9.5t-6 20.5
t6 21t20 10t20 -10t6 -21t-6 -20.5t-20 -9.5z" />
    <glyph glyph-name="at" unicode="@" horiz-adv-x="577" 
d="M446 -5q-32 0 -47 35t-17 95q-6 -60 -30.5 -96t-67.5 -36q-58 0 -86 64t-28 178v26q0 55 6.5 100.5t20.5 77.5t37.5 50t58.5 18q30 0 52 -15.5t36 -41.5t21 -60t7 -72v-171q0 -57 8.5 -88.5t28.5 -31.5q24 0 40.5 58t16.5 171q0 90 -10.5 167t-35 133t-65 88t-100.5 32
t-101.5 -32t-67.5 -88t-37.5 -133t-11.5 -167q0 -83 14.5 -158.5t42.5 -137.5l-26 -19q-29 63 -46 145t-17 170q0 97 13.5 179.5t43 143t77 94.5t116.5 34q67 0 114 -34t75.5 -94.5t41.5 -143t13 -179.5q0 -128 -25.5 -194.5t-64.5 -66.5zM206 235q0 -96 17.5 -153t62.5 -57
q24 0 40.5 16t27 43.5t15 65.5t4.5 82v86q0 33 -4.5 61.5t-14.5 49.5t-24.5 33.5t-35.5 12.5q-26 0 -43 -16t-27 -44.5t-14 -68t-4 -85.5v-26z" />
    <glyph glyph-name="A" unicode="A" horiz-adv-x="365" 
d="M216 480q-8 43 -16.5 86.5t-16.5 91.5h-2q-8 -48 -16 -91.5t-16 -86.5l-49 -238h164zM93 208l-43 -208h-38l148 700h45l148 -700h-38l-43 208h-179z" />
    <glyph glyph-name="B" unicode="B" horiz-adv-x="366" 
d="M56 700h124q73 0 106.5 -41.5t33.5 -132.5q0 -45 -7 -76t-19 -50.5t-26.5 -29t-29.5 -13.5v-1q19 -3 36 -13t30 -29.5t20.5 -50t7.5 -75.5q0 -53 -10.5 -89t-30 -58t-47.5 -31.5t-64 -9.5h-124v700zM178 34q29 0 50.5 7.5t36 25.5t22 47.5t7.5 73.5q0 43 -7.5 72
t-21.5 46.5t-34.5 24.5t-47.5 7h-89v-304h84zM283 526q0 76 -23.5 108t-80.5 32h-85v-293h90q23 0 41.5 8t31 26t19.5 47t7 72z" />
    <glyph glyph-name="C" unicode="C" horiz-adv-x="310" 
d="M203 707q47 0 77 -16v-33q-18 8 -35 11.5t-39 3.5q-40 0 -65 -23t-39.5 -65t-20 -100.5t-5.5 -130.5v-8q0 -72 6 -131t20.5 -101t39.5 -65t64 -23q23 0 41 4t37 14v-33q-30 -18 -80 -18q-47 0 -79 24t-51.5 70t-28 111t-8.5 148v8q0 83 8.5 148.5t28 111t51 69.5t78.5 24
z" />
    <glyph glyph-name="D" unicode="D" horiz-adv-x="383" 
d="M158 34q44 0 73 21t46.5 61t24.5 98.5t7 133.5v8q0 75 -7 133t-24 97.5t-46 59.5t-72 20h-66v-632h64zM56 0v700h104q103 0 145 -86t42 -258v-8q0 -173 -42.5 -260.5t-146.5 -87.5h-102z" />
    <glyph glyph-name="E" unicode="E" horiz-adv-x="311" 
d="M274 666h-180v-297h174v-34h-174v-301h184v-34h-222v700h218v-34z" />
    <glyph glyph-name="F" unicode="F" horiz-adv-x="293" 
d="M263 666h-169v-300h164v-35h-164v-331h-38v700h207v-34z" />
    <glyph glyph-name="G" unicode="G" horiz-adv-x="344" 
d="M210 707q52 0 81 -17v-32q-17 8 -36 11.5t-42 3.5q-41 0 -67.5 -23t-42 -65t-21.5 -100.5t-6 -130.5v-8q0 -72 6.5 -131t22 -101t42 -65t66.5 -23q26 0 47 7v304h-88v35h124v-363q-16 -8 -38.5 -12t-46.5 -4q-48 0 -81.5 24t-54 70t-29.5 111t-9 148v8q0 83 9 148.5
t29.5 111t53.5 69.5t81 24z" />
    <glyph glyph-name="H" unicode="H" horiz-adv-x="391" 
d="M335 0h-38v335h-203v-335h-38v700h38v-331h203v331h38v-700z" />
    <glyph glyph-name="I" unicode="I" horiz-adv-x="154" 
d="M96 0h-38v700h38v-700z" />
    <glyph glyph-name="J" unicode="J" horiz-adv-x="269" 
d="M94 27q24 0 40 7.5t25.5 26.5t13.5 50t4 78v477h-74v34h112v-516q0 -55 -6.5 -92t-21 -59t-37 -31t-53.5 -9q-22 0 -42 4.5t-35 12.5v32q34 -15 74 -15z" />
    <glyph glyph-name="K" unicode="K" horiz-adv-x="357" 
d="M198 422l146 -422h-39l-130 377l-81 -163v-214h-38v700h38v-412l202 412h39z" />
    <glyph glyph-name="L" unicode="L" horiz-adv-x="280" 
d="M260 0h-204v700h38v-666h166v-34z" />
    <glyph glyph-name="M" unicode="M" horiz-adv-x="463" 
d="M218 208l-96 306q-4 13 -7.5 25t-7 25.5t-7.5 29t-9 35.5h-1q2 -43 3 -73.5t1 -50.5v-505h-38v700h41l135 -433l134 433h41v-700h-37v505q0 20 0.5 50.5t3.5 73.5h-2q-5 -20 -9 -35.5t-7.5 -29t-7 -25.5t-7.5 -25l-96 -306h-27z" />
    <glyph glyph-name="N" unicode="N" horiz-adv-x="404" 
d="M144 463q-15 43 -27.5 81t-25.5 84h-2q4 -63 4.5 -119.5t0.5 -97.5v-411h-38v700h39l165 -463q14 -43 27 -81t26 -84h2q-4 63 -4.5 119.5t-0.5 97.5v411h38v-700h-40z" />
    <glyph glyph-name="O" unicode="O" horiz-adv-x="399" 
d="M200 707q87 0 124.5 -92t37.5 -261v-8q0 -169 -37.5 -261t-124.5 -92q-44 0 -75 23.5t-50.5 68.5t-28.5 111t-9 150v8q0 84 9 150t28.5 111t50.5 68.5t75 23.5zM200 26q34 0 57.5 22.5t38.5 64.5t21.5 101t6.5 132v8q0 73 -6.5 132t-21.5 101t-38.5 64.5t-57.5 22.5
q-35 0 -58.5 -22.5t-38 -64.5t-21 -101t-6.5 -132v-8q0 -73 6.5 -132t21 -101t38 -64.5t58.5 -22.5z" />
    <glyph glyph-name="P" unicode="P" horiz-adv-x="356" 
d="M94 258v-258h-38v700h116q73 0 113.5 -51.5t40.5 -167.5q0 -117 -41 -170t-114 -53h-77zM288 481q0 100 -29.5 142.5t-86.5 42.5h-78v-374h77q57 0 87 44t30 145z" />
    <glyph glyph-name="Q" unicode="Q" horiz-adv-x="399" 
d="M121 -58q55 -17 102.5 -43.5t89.5 -67.5l-16 -32q-74 79 -183 110zM200 707q87 0 124.5 -92t37.5 -261v-8q0 -169 -37.5 -261t-124.5 -92q-44 0 -75 23.5t-50.5 68.5t-28.5 111t-9 150v8q0 84 9 150t28.5 111t50.5 68.5t75 23.5zM200 26q34 0 57.5 22.5t38.5 64.5
t21.5 101t6.5 132v8q0 73 -6.5 132t-21.5 101t-38.5 64.5t-57.5 22.5q-35 0 -58.5 -22.5t-38 -64.5t-21 -101t-6.5 -132v-8q0 -73 6.5 -132t21 -101t38 -64.5t58.5 -22.5z" />
    <glyph glyph-name="R" unicode="R" horiz-adv-x="366" 
d="M94 291v-291h-38v700h129q70 0 106.5 -49.5t36.5 -154.5q0 -52 -8.5 -88.5t-23.5 -60.5t-36 -37t-46 -18l117 -292h-38l-116 291h-83zM290 496q0 90 -26 130t-81 40h-89v-340h91q55 0 80 41.5t25 128.5z" />
    <glyph glyph-name="S" unicode="S" horiz-adv-x="297" 
d="M228 161q0 48 -14.5 83t-37 63t-48 53t-48 53t-37 62.5t-14.5 82.5q0 67 29.5 108t100.5 41q26 0 46 -4.5t37 -11.5v-33q-38 16 -81 16q-54 0 -74.5 -32.5t-20.5 -83.5q0 -40 14.5 -70.5t37 -57t48 -52.5t48 -56.5t37 -69.5t14.5 -91q0 -75 -32.5 -121.5t-103.5 -46.5
q-34 0 -57.5 5.5t-44.5 16.5v33q23 -11 46 -16.5t56 -5.5q52 0 75.5 38t23.5 97z" />
    <glyph glyph-name="T" unicode="T" horiz-adv-x="314" 
d="M300 666h-124v-666h-38v666h-124v34h286v-34z" />
    <glyph glyph-name="U" unicode="U" horiz-adv-x="382" 
d="M191 -7q-77 0 -106.5 64t-29.5 192v451h37v-450q0 -114 20.5 -168.5t78.5 -54.5t78.5 54.5t20.5 168.5v450h37v-451q0 -128 -29.5 -192t-106.5 -64z" />
    <glyph glyph-name="V" unicode="V" horiz-adv-x="350" 
d="M299 700h38l-140 -700h-43l-141 700h38l94 -480q8 -43 15.5 -85t13.5 -90h2q7 48 14 90t15 85z" />
    <glyph glyph-name="W" unicode="W" horiz-adv-x="528" 
d="M359 251q5 -29 9 -55t7 -50t6 -48.5t5 -50.5h1q2 26 4.5 50.5t5 48.5t6 50t7.5 55l63 449h37l-102 -700h-42l-81 504q-8 45 -13 84.5t-7 75.5h-2q-3 -36 -7.5 -75.5t-12.5 -84.5l-81 -504h-42l-102 700h37l63 -449q8 -59 13 -105t10 -99h1q2 26 5 50.5t6 48.5t7 50t9 55
l71 449h47z" />
    <glyph glyph-name="X" unicode="X" horiz-adv-x="338" 
d="M169 408l108 292h38l-128 -337l138 -363h-37l-119 319l-119 -319h-38l138 363l-127 337h37z" />
    <glyph glyph-name="Y" unicode="Y" horiz-adv-x="355" 
d="M177 316q3 6 8 22.5t11 37t12.5 41t11.5 34.5l84 249h37l-145 -421v-279h-37v279l-145 421h37l84 -249q14 -39 24.5 -72.5t17.5 -62.5z" />
    <glyph glyph-name="Z" unicode="Z" horiz-adv-x="325" 
d="M28 0v32l220 634h-208v34h247v-32l-221 -634h227v-34h-265z" />
    <glyph glyph-name="bracketleft" unicode="[" horiz-adv-x="156" 
d="M62 715h80v-30h-46v-816h46v-30h-80v876z" />
    <glyph glyph-name="backslash" unicode="\" horiz-adv-x="176" 
d="M9 720h32l126 -740h-32z" />
    <glyph glyph-name="bracketright" unicode="]" horiz-adv-x="156" 
d="M95 -161h-81v30h46v816h-46v30h81v-876z" />
    <glyph glyph-name="asciicircum" unicode="^" horiz-adv-x="292" 
d="M269 319h-34l-88 328l-90 -328h-33l109 381h26z" />
    <glyph glyph-name="underscore" unicode="_" horiz-adv-x="220" 
d="M0 -90v31h220v-31h-220z" />
    <glyph glyph-name="grave" unicode="`" horiz-adv-x="186" 
d="M164 575l-10 -20l-133 64l15 33z" />
    <glyph glyph-name="a" unicode="a" horiz-adv-x="313" 
d="M141 476q-25 0 -44.5 -5t-37.5 -13v31q17 8 37.5 13t48.5 5q63 0 89.5 -39t26.5 -124v-344h-30l-5 111h-1q-2 -21 -8.5 -42t-17.5 -38t-27.5 -28t-39.5 -11q-44 0 -71.5 35.5t-27.5 113.5q0 80 27.5 116t90.5 36q22 0 40 -4t34 -11v62q0 72 -17 104t-67 32zM68 141
q0 -62 17.5 -90.5t49.5 -28.5q21 0 37.5 15t28 40.5t18 58t6.5 68.5v45q-15 6 -33 9.5t-37 3.5q-51 0 -69 -28.5t-18 -92.5z" />
    <glyph glyph-name="b" unicode="b" horiz-adv-x="338" 
d="M91 111q-3 -28 -3.5 -55.5t-2.5 -55.5h-31v700h36v-197l-3 -113h2q11 54 35.5 85.5t66.5 31.5q57 0 85 -65.5t28 -188.5v-6q0 -127 -29 -190.5t-84 -63.5q-43 0 -67.5 32t-32.5 86zM268 253q0 106 -18 164t-63 58q-24 0 -42 -16t-30.5 -42.5t-18.5 -60t-6 -67.5v-64
q0 -38 6 -74t18 -64t30 -45t42 -17q45 0 63.5 57t18.5 165v6z" />
    <glyph glyph-name="c" unicode="c" horiz-adv-x="259" 
d="M166 476q-28 0 -46.5 -16t-29.5 -45t-15.5 -70t-4.5 -92v-6q0 -51 4.5 -92t15.5 -70t29.5 -45t46.5 -16q17 0 33.5 3.5t33.5 12.5v-31q-17 -9 -33 -12.5t-35 -3.5q-38 0 -63 18t-40 51t-21.5 80t-6.5 105v6q0 57 6.5 104t22 80.5t40.5 51.5t61 18q37 0 64 -15v-31
q-15 8 -29.5 11.5t-32.5 3.5z" />
    <glyph glyph-name="d" unicode="d" horiz-adv-x="338" 
d="M248 111q-10 -54 -33 -86t-66 -32q-56 0 -85.5 63.5t-29.5 190.5v6q0 123 28.5 188.5t86.5 65.5q42 0 66 -31.5t34 -85.5h2l-3 113v197h36v-700h-31q-2 28 -2.5 55.5t-2.5 55.5zM70 247q0 -108 19.5 -165t64.5 -57q23 0 40.5 17t29.5 45t18 64t6 74v64q0 34 -5.5 67.5
t-17.5 60t-30 42.5t-42 16q-45 0 -64 -58t-19 -164v-6z" />
    <glyph glyph-name="e" unicode="e" horiz-adv-x="303" 
d="M173 24q20 0 39 4.5t39 15.5v-31q-18 -11 -37.5 -15.5t-41.5 -4.5q-39 0 -65.5 18t-42.5 51t-23 80t-7 105v6q0 57 6.5 104t21.5 80.5t38 51.5t56 18q34 0 56 -19.5t35 -51.5t18 -73.5t5 -84.5v-53h-201q1 -46 6 -83t16.5 -63.5t31.5 -40.5t50 -14zM156 476
q-24 0 -40.5 -15.5t-27 -44t-15 -68.5t-4.5 -89v-4h167v23q0 39 -3 75t-11.5 63t-24.5 43.5t-41 16.5z" />
    <glyph glyph-name="f" unicode="f" horiz-adv-x="205" 
d="M10 500h53v59q0 72 19.5 110t72.5 38q26 0 47 -8v-31q-11 4 -21 5t-22 1q-36 0 -48.5 -28.5t-12.5 -89.5v-56h89v-32h-89v-468h-35v468h-53v32z" />
    <glyph glyph-name="g" unicode="g" horiz-adv-x="313" 
d="M288 500v-27q-13 -1 -33 -1.5t-29 -2.5q21 -14 32.5 -51t11.5 -91v-3q0 -90 -27.5 -132t-88.5 -42q-38 0 -62 19l-28 -53q3 -52 51 -52h54q59 0 85 -35.5t26 -96.5q0 -66 -29.5 -102.5t-93.5 -36.5q-60 0 -93.5 31t-33.5 103q0 44 17 73t36 43q-16 6 -32.5 22t-17.5 56
l37 65q-16 21 -24 57t-8 81v3q0 86 26.5 129.5t89.5 43.5h134zM154 182q47 0 64 34.5t17 107.5v3q0 71 -17.5 106t-63.5 35q-45 0 -63 -34t-18 -107v-3q0 -75 16.5 -108.5t64.5 -33.5zM65 -73q0 -54 21.5 -78.5t71.5 -24.5q48 0 68 28.5t20 79.5q0 48 -18 74.5t-60 26.5h-53
q-23 -15 -36.5 -41.5t-13.5 -64.5z" />
    <glyph glyph-name="h" unicode="h" horiz-adv-x="350" 
d="M263 315q0 75 -13.5 117t-54.5 42q-26 0 -45.5 -15.5t-32.5 -42.5t-20 -62t-7 -74v-280h-36v700h36v-196l-2 -126h1q8 60 37.5 94.5t73.5 34.5q56 0 77.5 -50.5t21.5 -138.5v-318h-36v315z" />
    <glyph glyph-name="i" unicode="i" horiz-adv-x="144" 
d="M90 0h-36v500h36v-500zM72 588q-14 0 -20.5 10t-6.5 21t6.5 21t20.5 10t20.5 -10t6.5 -21t-6.5 -21t-20.5 -10z" />
    <glyph glyph-name="j" unicode="j" horiz-adv-x="153" 
d="M18 -174q27 0 35.5 22t8.5 77v543h-41v32h77v-549q0 -86 -15.5 -122t-58.5 -36q-28 0 -47 8v32q11 -3 20.5 -5t20.5 -2zM80 588q-14 0 -20.5 10t-6.5 21t6.5 21t20.5 10t20.5 -10t6.5 -21t-6.5 -21t-20.5 -10z" />
    <glyph glyph-name="k" unicode="k" horiz-adv-x="299" 
d="M167 297l121 -297h-35l-107 260l-56 -97v-163h-36v700h36v-473l154 273h39z" />
    <glyph glyph-name="l" unicode="l" horiz-adv-x="144" 
d="M90 0h-36v700h36v-700z" />
    <glyph glyph-name="m" unicode="m" horiz-adv-x="503" 
d="M416 346q0 71 -11 99t-45 28q-24 0 -41.5 -13t-28 -34.5t-15.5 -48t-5 -53.5v-324h-36v341q0 71 -10.5 101.5t-43.5 30.5q-25 0 -42 -16t-28 -42t-16 -59t-5 -67v-289h-36v500h31l2 -121h2q6 59 31.5 93.5t67.5 34.5q19 0 33 -8.5t23 -22.5t13 -33t5 -40h1
q9 47 36.5 75.5t67.5 28.5q46 0 65.5 -36.5t19.5 -120.5v-350h-35v346z" />
    <glyph glyph-name="n" unicode="n" horiz-adv-x="347" 
d="M259 315q0 75 -13 117t-53 42q-26 0 -45 -15.5t-32.5 -42.5t-20 -62t-6.5 -74v-280h-36v500h31l3 -122h1q8 60 37 94.5t73 34.5q55 0 76 -50.5t21 -138.5v-318h-36v315z" />
    <glyph glyph-name="o" unicode="o" horiz-adv-x="318" 
d="M159 507q34 0 58 -18t39 -51.5t21.5 -80.5t6.5 -104v-6q0 -57 -6.5 -104t-21.5 -80.5t-39 -51.5t-58 -18t-58 18t-39 51.5t-21.5 80.5t-6.5 104v6q0 57 6.5 104t21.5 80.5t39 51.5t58 18zM159 24q25 0 42 16t27.5 45t15 70t4.5 92v6q0 51 -4.5 92t-15 70t-27.5 45t-42 16
q-24 0 -41 -16t-27.5 -45t-15.5 -70t-5 -92v-6q0 -51 5 -92t15.5 -70t27.5 -45t41 -16z" />
    <glyph glyph-name="p" unicode="p" horiz-adv-x="337" 
d="M88 111q1 -29 1 -55.5v-55.5v-200h-36v700h30q0 -10 0.5 -25.5t1 -31.5t1.5 -30.5t2 -22.5q11 54 35.5 85.5t66.5 31.5q58 0 85.5 -65.5t27.5 -188.5v-6q0 -127 -29 -190.5t-83 -63.5q-44 0 -69 32t-33 86h-1zM267 253q0 106 -18 164t-63 58q-24 0 -42 -16t-30.5 -42.5
t-18.5 -60t-6 -67.5v-64q0 -38 6 -74t18 -64t30 -45t42 -17q45 0 63.5 57t18.5 165v6z" />
    <glyph glyph-name="q" unicode="q" horiz-adv-x="337" 
d="M249 111q-10 -54 -33.5 -86t-67.5 -32q-55 0 -84.5 63.5t-29.5 190.5v6q0 123 28.5 188.5t86.5 65.5q42 0 66 -31.5t34 -85.5q1 8 2 22.5t1.5 30.5t1 31.5t0.5 25.5h30v-700h-36v200q0 28 0.5 55.5t0.5 55.5zM70 247q0 -108 19 -165t64 -57q24 0 41.5 17t29.5 45t18 64
t6 74v64q0 34 -5.5 67.5t-17.5 60t-30 42.5t-42 16q-45 0 -64 -58t-19 -164v-6z" />
    <glyph glyph-name="r" unicode="r" horiz-adv-x="211" 
d="M198 461h-4q-27 0 -47 -16.5t-33 -46t-19 -69t-6 -85.5v-244h-36v500h30q0 -12 0.5 -30.5t1 -37.5t1.5 -36.5t2 -26.5q6 57 32.5 96t72.5 39h5v-43z" />
    <glyph glyph-name="s" unicode="s" horiz-adv-x="257" 
d="M114 24q33 0 55.5 23t22.5 68q0 25 -6 44.5t-15.5 34.5t-22.5 27t-27 24q-16 13 -32.5 27t-30.5 32t-23 41t-9 55q0 54 27.5 80.5t75.5 26.5q47 0 79 -17v-30q-18 8 -36 12t-41 4q-34 0 -52 -18t-18 -58q0 -25 7.5 -44t18.5 -33.5t24.5 -26t25.5 -21.5q18 -15 34.5 -30
t29 -33t19.5 -41.5t7 -55.5q0 -63 -31.5 -92.5t-78.5 -29.5q-51 0 -82 18v30q33 -17 79 -17z" />
    <glyph glyph-name="t" unicode="t" horiz-adv-x="208" 
d="M98 130q0 -56 11 -80t43 -24q26 0 46 7v-30q-20 -9 -50 -9q-27 0 -43.5 9.5t-25.5 28.5t-12.5 48t-3.5 68v320h-53v32h54l5 172h29v-172h95v-32h-95v-338z" />
    <glyph glyph-name="u" unicode="u" horiz-adv-x="337" 
d="M88 162q0 -68 14 -101.5t54 -33.5q23 0 40 14.5t28.5 40t17.5 59t6 72.5v287h36v-500h-30l-4 111h-1q-3 -24 -10.5 -45t-19.5 -37.5t-29.5 -26t-39.5 -9.5q-54 0 -76 43t-22 124v340h36v-338z" />
    <glyph glyph-name="v" unicode="v" horiz-adv-x="278" 
d="M120 0l-110 500h37l66 -314q8 -35 14 -73t11 -72h2q5 34 11 72t14 73l66 314h37l-110 -500h-38z" />
    <glyph glyph-name="w" unicode="w" horiz-adv-x="423" 
d="M287 181q5 -32 10 -68t8 -70h2q2 34 5.5 70t8.5 68l50 319h35l-81 -500h-36l-59 324q-6 32 -11 66t-7 67h-2q-2 -33 -7 -67t-10 -66l-60 -324h-35l-82 500h36l49 -319q5 -32 9 -68t6 -70h2q3 34 7.5 70t10.5 68l58 319h35z" />
    <glyph glyph-name="x" unicode="x" horiz-adv-x="277" 
d="M156 263l111 -263h-37l-92 224l-91 -224h-37l110 263l-99 237h36l81 -199l82 199h36z" />
    <glyph glyph-name="y" unicode="y" horiz-adv-x="278" 
d="M143 -99q-11 -53 -29.5 -80.5t-57.5 -27.5q-15 0 -26 2t-20 6v33q16 -9 41 -9q28 0 39 22t19 63l17 87l-116 503h36l70 -314q8 -35 14.5 -73.5t11.5 -72.5h2q4 34 10.5 72.5t14.5 73.5l62 314h37z" />
    <glyph glyph-name="z" unicode="z" horiz-adv-x="260" 
d="M25 29l166 440l-158 -1v32h195v-29l-166 -440l170 1v-32h-207v29z" />
    <glyph glyph-name="braceleft" unicode="{" horiz-adv-x="156" 
d="M30 291q26 12 36.5 43t10.5 71q0 25 -4 48t-8.5 45t-8.5 44.5t-4 46.5q0 68 22.5 94.5t63.5 26.5v-29q-26 0 -39 -22t-13 -70q0 -23 3.5 -45.5t7.5 -45t7.5 -45t3.5 -46.5q0 -47 -12.5 -82t-32.5 -47v-2q20 -12 32.5 -47t12.5 -82q0 -24 -3.5 -46.5t-7.5 -45t-7.5 -45
t-3.5 -45.5q0 -48 13 -70t39 -22v-29q-41 0 -63.5 26.5t-22.5 94.5q0 24 4 46.5t8.5 44.5t8.5 45t4 48q0 40 -10.5 71t-36.5 43v28z" />
    <glyph glyph-name="bar" unicode="|" horiz-adv-x="161" 
d="M98 -154h-34v862h34v-862z" />
    <glyph glyph-name="braceright" unicode="}" horiz-adv-x="156" 
d="M126 263q-26 -12 -36.5 -43t-10.5 -71q0 -25 4 -48t8.5 -45t8.5 -44.5t4 -46.5q0 -68 -22.5 -94.5t-63.5 -26.5v29q26 0 39 22t13 70q0 23 -3.5 45.5t-7.5 45t-7.5 45t-3.5 46.5q0 47 12.5 82t32.5 47v2q-20 12 -32.5 47t-12.5 82q0 24 3.5 46.5t7.5 45t7.5 45t3.5 45.5
q0 48 -13 70t-39 22v29q41 0 63.5 -26.5t22.5 -94.5q0 -24 -4 -46.5t-8.5 -44.5t-8.5 -45t-4 -48q0 -40 10.5 -71t36.5 -43v-28z" />
    <glyph glyph-name="asciitilde" unicode="~" horiz-adv-x="307" 
d="M204 266q-18 0 -31.5 9t-25.5 20.5t-23 20.5t-24 9q-36 0 -57 -57l-19 14q12 32 31.5 53t47.5 21q18 0 31.5 -9t25 -20.5t23 -20.5t24.5 -9q36 0 56 57l19 -13q-11 -32 -30.5 -53.5t-47.5 -21.5z" />
    <glyph glyph-name="uni00A0" unicode="&#xa0;" horiz-adv-x="0" 
 />
    <glyph glyph-name="exclamdown" unicode="&#xa1;" horiz-adv-x="152" 
d="M57 -198l5 528h29l5 -528h-39zM76 506q15 0 21 -9.5t6 -20.5t-6 -21t-21 -10q-14 0 -20 10t-6 21t6 20.5t20 9.5z" />
    <glyph glyph-name="cent" unicode="&#xa2;" 
d="M191 610h33v-103q36 -3 64 -17v-31q-15 8 -35.5 12.5t-40.5 4.5q-30 0 -51 -16t-34.5 -45t-19.5 -70t-6 -92v-6q0 -51 6 -92t19.5 -70t35 -45t52.5 -16q20 0 39 4.5t36 13.5v-31q-14 -8 -31 -12t-34 -6v-103h-33v104q-34 4 -58 24t-39 53t-22 77.5t-7 98.5v6q0 54 7 99
t22 78t39 52.5t58 23.5v104z" />
    <glyph glyph-name="sterling" unicode="&#xa3;" 
d="M198 673q-29 0 -48 -11t-30.5 -30t-16 -43t-4.5 -50q0 -28 3.5 -50.5t8 -42t9.5 -37.5t8 -36h111v-33h-103q6 -27 9.5 -56.5t3.5 -57.5q0 -75 -20 -123t-48 -69h136q17 0 29.5 3.5t20.5 12.5t12 25.5t4 42.5v36h36v-36q0 -66 -24.5 -92t-75.5 -26h-187v31q15 6 29 21.5
t25 38t18 52t7 64.5q0 33 -2 67t-8 66h-60v33h52q-4 18 -9.5 36t-10.5 37.5t-8.5 42t-3.5 50.5q0 34 7.5 64.5t23.5 53.5t42 37t63 14q23 0 42 -4t36 -12v-33q-20 8 -37.5 11t-39.5 3z" />
    <glyph glyph-name="currency" unicode="&#xa4;" horiz-adv-x="358" 
d="M179 128q52 0 74 48t22 126t-22 126t-74 48q-53 0 -74.5 -48t-21.5 -126t21.5 -126t74.5 -48zM179 98q-53 0 -82 37l-34 -57l-21 30l33 54q-12 26 -18 62t-6 78t6.5 79t18.5 63l-34 55l21 30l35 -59q14 17 34.5 27t46.5 10t46.5 -10t34.5 -27l34 59l22 -30l-34 -55
q12 -26 18 -63t6 -79t-6 -78t-18 -62l34 -54l-22 -30l-33 57q-31 -37 -82 -37z" />
    <glyph glyph-name="yen" unicode="&#xa5;" 
d="M173 324q4 8 8 22t8.5 30t8.5 31t8 26l83 267h38l-124 -380h98v-31h-108v-84h108v-31h-108v-174h-38v174h-109v31h109v84h-109v31h98l-123 380h38l79 -251q10 -34 18.5 -63t16.5 -62z" />
    <glyph glyph-name="brokenbar" unicode="&#xa6;" horiz-adv-x="161" 
d="M98 -154h-34v362h34v-362zM98 346h-34v362h34v-362z" />
    <glyph glyph-name="section" unicode="&#xa7;" 
d="M87 276q0 -32 8 -56t23.5 -42.5t38 -33.5t51.5 -28q24 8 41 36t17 79q0 41 -13 68.5t-31.5 46t-39 29t-35.5 18.5q-25 -8 -42.5 -38t-17.5 -79zM78 -48q0 -67 28 -96.5t71 -29.5q42 0 67 29t25 93q0 33 -7.5 57t-20.5 40.5t-29.5 28t-34.5 20.5q-24 12 -47 27t-40 35.5
t-27.5 49t-10.5 69.5q0 51 19 86.5t46 49.5q-21 20 -39 53t-18 92q0 78 32.5 114.5t89.5 36.5q55 0 88 -35.5t33 -117.5h-36q0 67 -23.5 93t-61.5 26q-43 0 -65 -27.5t-22 -89.5q0 -33 7.5 -56.5t19.5 -39.5t27 -27t31 -20q24 -14 46 -28.5t38.5 -35.5t26.5 -49.5t10 -69.5
q0 -50 -19.5 -85t-42.5 -49q14 -11 26 -24.5t21 -30.5t14 -40t5 -53q0 -81 -35.5 -118t-92.5 -37q-29 0 -53.5 9.5t-42.5 29t-28.5 49.5t-10.5 71h36z" />
    <glyph glyph-name="dieresis" unicode="&#xa8;" horiz-adv-x="188" 
d="M39 620q14 0 19.5 -9t5.5 -20t-5.5 -20t-19.5 -9t-19.5 9t-5.5 20t5.5 20t19.5 9zM149 620q14 0 19.5 -9t5.5 -20t-5.5 -20t-19.5 -9t-20 9t-6 20t6 20t20 9z" />
    <glyph glyph-name="copyright" unicode="&#xa9;" horiz-adv-x="557" 
d="M278 707q61 0 105.5 -25.5t74 -72.5t44 -113t14.5 -146t-14.5 -146t-44 -113t-74 -72.5t-105.5 -25.5t-105.5 25.5t-74 72.5t-44 113t-14.5 146t14.5 146t44 113t74 72.5t105.5 25.5zM278 22q53 0 92 23.5t64.5 66.5t37.5 103.5t12 134.5t-12 134.5t-37.5 103.5
t-64.5 66.5t-92 23.5t-91.5 -23.5t-64 -66.5t-37.5 -103.5t-12 -134.5t12 -134.5t37.5 -103.5t64 -66.5t91.5 -23.5zM166 353q0 45 7.5 83t23.5 65.5t41.5 43t61.5 15.5q20 0 35 -4t29 -11v-33q-14 6 -29 10t-30 4q-30 0 -49.5 -13.5t-30 -36.5t-14.5 -54.5t-4 -68.5v-6
q0 -37 4 -68.5t15 -55t30.5 -36.5t49.5 -13q15 0 30.5 4t29.5 10v-33q-14 -7 -29.5 -11t-35.5 -4q-36 0 -62 15.5t-42 43t-23.5 65.5t-7.5 83v6z" />
    <glyph glyph-name="ordfeminine" unicode="&#xaa;" horiz-adv-x="217" 
d="M179 378h-26l-2 63q-7 -29 -23.5 -48t-42.5 -19q-27 0 -45 22t-18 74q0 100 79 100q14 0 26.5 -3.5t22.5 -8.5v34q0 42 -10 64t-43 22q-32 0 -57 -14v27q11 8 27 11t33 3q46 0 62.5 -28t16.5 -83v-216zM51 471q0 -70 42 -70q21 0 39 27t18 78v27q-10 5 -21 7.5t-25 2.5
q-26 0 -39.5 -17t-13.5 -55z" />
    <glyph glyph-name="guillemotleft" unicode="&#xab;" horiz-adv-x="271" 
d="M23 331l74 190h36l-75 -190l75 -190h-36zM125 331l74 190h35l-74 -190l74 -190h-35z" />
    <glyph glyph-name="logicalnot" unicode="&#xac;" horiz-adv-x="284" 
d="M250 366v-191h-37v156h-188v35h225z" />
    <glyph glyph-name="uni00AD" unicode="&#xad;" horiz-adv-x="211" 
d="M20 312v34h170v-34h-170z" />
    <glyph glyph-name="registered" unicode="&#xae;" horiz-adv-x="396" 
d="M168 325h-28v266h67q32 0 48.5 -21t16.5 -60q0 -35 -12.5 -53.5t-29.5 -23.5l47 -108h-29l-44 104h-36v-104zM211 456q14 0 24 12.5t10 41.5q0 54 -39 54h-38v-108h43zM198 707q82 0 123.5 -66t41.5 -187q0 -122 -41.5 -188t-123.5 -66q-83 0 -124.5 66t-41.5 188
q0 121 41.5 187t124.5 66zM198 225q72 0 105 59.5t33 169.5t-33 169t-105 59q-73 0 -105.5 -59t-32.5 -169t32.5 -169.5t105.5 -59.5z" />
    <glyph glyph-name="macron" unicode="&#xaf;" horiz-adv-x="186" 
d="M175 595v-28h-164v28h164z" />
    <glyph glyph-name="degree" unicode="&#xb0;" horiz-adv-x="225" 
d="M112 703q41 0 61.5 -35.5t20.5 -98.5t-20.5 -98.5t-61.5 -35.5t-61.5 35.5t-20.5 98.5t20.5 98.5t61.5 35.5zM112 460q29 0 42 29t13 80t-13 79.5t-42 28.5t-42 -28.5t-13 -79.5t13 -80t42 -29z" />
    <glyph glyph-name="plusminus" unicode="&#xb1;" horiz-adv-x="274" 
d="M22 0v27h230v-27h-230zM252 339v-34h-97v-193h-35v193h-98v34h98v193h35v-193h97z" />
    <glyph glyph-name="twosuperior" unicode="&#xb2;" horiz-adv-x="182" 
d="M22 498v25l65 120q12 22 23 47.5t11 55.5q0 29 -10.5 40t-30.5 11q-26 0 -48 -12v27q11 5 23.5 9t28.5 4q33 0 50.5 -18.5t17.5 -60.5q0 -36 -13 -64t-27 -54l-54 -101h97v-29h-133z" />
    <glyph glyph-name="threesuperior" unicode="&#xb3;" horiz-adv-x="172" 
d="M69 520q24 0 35.5 18t11.5 50q0 39 -12 52t-32 13h-21v27h22q14 0 26 13.5t12 45.5q0 29 -10 43.5t-34 14.5q-11 0 -24 -2.5t-25 -7.5v27q13 5 26 8t28 3q35 0 52 -22t17 -62q0 -32 -12.5 -50t-26.5 -24q20 -5 32.5 -23.5t12.5 -55.5q0 -96 -77 -96q-15 0 -28 3t-27 8v28
q25 -11 54 -11z" />
    <glyph glyph-name="acute" unicode="&#xb4;" horiz-adv-x="186" 
d="M150 652l14 -33l-132 -64l-11 20z" />
    <glyph glyph-name="mu" unicode="&#xb5;" horiz-adv-x="337" 
d="M249 500h36v-340q0 -81 -22 -124t-76 -43q-23 0 -39.5 9.5t-28.5 26t-19.5 37.5t-11.5 45h-1l2 -111v-200h-36v700h36v-287q0 -39 6 -72.5t17.5 -59t28.5 -40t40 -14.5q40 0 54 33.5t14 101.5v338z" />
    <glyph glyph-name="paragraph" unicode="&#xb6;" horiz-adv-x="240" 
d="M21 527q0 87 34.5 130t87.5 43h76v-33h-29q-20 0 -26 -11.5t-6 -39.5v-688h-36v410q-49 4 -75 54t-26 135z" />
    <glyph glyph-name="periodcentered" unicode="&#xb7;" horiz-adv-x="135" 
d="M68 246q-15 0 -21 9.5t-6 20.5t6 21t21 10q14 0 20 -10t6 -21t-6 -20.5t-20 -9.5z" />
    <glyph glyph-name="cedilla" unicode="&#xb8;" horiz-adv-x="186" 
d="M152 -102q0 -35 -16.5 -48.5t-40.5 -13.5q-23 0 -41 9v22q10 -3 19 -4t17 -1q15 0 23.5 7.5t8.5 28.5t-9 29.5t-30 8.5h-17v22l25 45h20l-18 -43q25 -1 42 -14.5t17 -47.5z" />
    <glyph glyph-name="onesuperior" unicode="&#xb9;" horiz-adv-x="133" 
d="M67 820h26v-322h-32v282l-41 -22l-10 21z" />
    <glyph glyph-name="ordmasculine" unicode="&#xba;" horiz-adv-x="226" 
d="M113 705q23 0 39 -12.5t26.5 -34.5t15 -52t4.5 -65v-3q0 -35 -4.5 -65t-15 -52t-26.5 -34.5t-39 -12.5t-39 12.5t-26.5 34.5t-15 52t-4.5 65v3q0 35 4.5 65t15 52t26.5 34.5t39 12.5zM113 679q-15 0 -25.5 -11t-17 -30t-9.5 -44t-3 -53v-3q0 -29 3 -54t9.5 -43.5
t17 -29.5t25.5 -11q16 0 26.5 11t17 29.5t9 43.5t2.5 54v3q0 28 -2.5 53t-9 44t-17 30t-26.5 11z" />
    <glyph glyph-name="guillemotright" unicode="&#xbb;" horiz-adv-x="271" 
d="M72 141h-36l75 190l-75 190h36l74 -190zM173 141h-35l74 190l-74 190h35l74 -190z" />
    <glyph glyph-name="onequarter" unicode="&#xbc;" horiz-adv-x="395" 
d="M315 63h-97v25l65 236h32l-64 -232h64v116h31v-116h27v-29h-27v-63h-31v63zM84 700h26v-322h-32v282l-41 -22l-10 21zM94 0h-33l239 700h34z" />
    <glyph glyph-name="onehalf" unicode="&#xbd;" horiz-adv-x="386" 
d="M227 0v25l64 120q12 22 23 47.5t11 55.5q0 29 -10 40t-30 11q-26 0 -48 -12v27q11 5 23.5 9t28.5 4q33 0 50.5 -18.5t17.5 -60.5q0 -36 -13 -64t-27 -54l-54 -101h97v-29h-133zM84 700h26v-322h-32v282l-41 -22l-10 21zM91 0h-34l240 700h33z" />
    <glyph glyph-name="threequarters" unicode="&#xbe;" horiz-adv-x="395" 
d="M75 400q23 0 35 18t12 50q0 39 -12.5 52t-31.5 13h-22v27h22q15 0 27 13.5t12 45.5q0 29 -10 43.5t-34 14.5q-11 0 -24 -2.5t-25 -7.5v27q13 5 25.5 8t28.5 3q35 0 52 -22t17 -62q0 -32 -12.5 -50t-26.5 -24q20 -5 32.5 -23.5t12.5 -55.5q0 -49 -20 -72.5t-58 -23.5
q-27 0 -54 11v28q14 -6 25.5 -8.5t28.5 -2.5zM315 63h-97l4 38l61 223h32l-64 -232h64v116h31v-116h27v-29h-27v-63h-31v63zM94 0h-33l239 700h34z" />
    <glyph glyph-name="questiondown" unicode="&#xbf;" horiz-adv-x="294" 
d="M170 -206q-36 0 -61.5 11.5t-41.5 32.5t-23.5 50t-7.5 63q0 57 16.5 98.5t36 76.5t36 70t16.5 79v51h36v-51q0 -48 -16 -85.5t-35.5 -73t-35.5 -74.5t-16 -90q0 -54 22.5 -89t76.5 -35q47 0 92 20v-33q-21 -10 -44 -15.5t-51 -5.5zM158 506q14 0 20 -10t6 -21t-6 -21
t-20 -10t-20 10t-6 21t6 21t20 10z" />
    <glyph glyph-name="Agrave" unicode="&#xc0;" horiz-adv-x="365" 
d="M216 480q-8 43 -16.5 86.5t-16.5 91.5h-2q-8 -48 -16 -91.5t-16 -86.5l-49 -238h164zM93 208l-43 -208h-38l148 700h45l148 -700h-38l-43 208h-179zM254 775l-10 -20l-133 64l15 33z" />
    <glyph glyph-name="Aacute" unicode="&#xc1;" horiz-adv-x="365" 
d="M216 480q-8 43 -16.5 86.5t-16.5 91.5h-2q-8 -48 -16 -91.5t-16 -86.5l-49 -238h164zM93 208l-43 -208h-38l148 700h45l148 -700h-38l-43 208h-179zM240 852l14 -33l-132 -64l-11 20z" />
    <glyph glyph-name="Acircumflex" unicode="&#xc2;" horiz-adv-x="365" 
d="M216 480q-8 43 -16.5 86.5t-16.5 91.5h-2q-8 -48 -16 -91.5t-16 -86.5l-49 -238h164zM93 208l-43 -208h-38l148 700h45l148 -700h-38l-43 208h-179zM268 761h-26l-59 67l-59 -67h-26l73 102h23z" />
    <glyph glyph-name="Atilde" unicode="&#xc3;" horiz-adv-x="365" 
d="M216 480q-8 43 -16.5 86.5t-16.5 91.5h-2q-8 -48 -16 -91.5t-16 -86.5l-49 -238h164zM93 208l-43 -208h-38l148 700h45l148 -700h-38l-43 208h-179zM225 761q-14 0 -25 11t-21.5 23.5t-19.5 23.5t-18 11q-14 0 -21 -19t-8 -48h-22q1 44 13 71.5t38 27.5q13 0 24.5 -11
t21.5 -23.5t19.5 -23.5t18.5 -11q13 0 20 19t8 48h22q-1 -43 -13 -71t-37 -28z" />
    <glyph glyph-name="Adieresis" unicode="&#xc4;" horiz-adv-x="365" 
d="M216 480q-8 43 -16.5 86.5t-16.5 91.5h-2q-8 -48 -16 -91.5t-16 -86.5l-49 -238h164zM93 208l-43 -208h-38l148 700h45l148 -700h-38l-43 208h-179zM127 820q14 0 19.5 -9t5.5 -20t-5.5 -20t-19.5 -9t-19.5 9t-5.5 20t5.5 20t19.5 9zM237 820q14 0 19.5 -9t5.5 -20
t-5.5 -20t-19.5 -9t-20 9t-6 20t6 20t20 9z" />
    <glyph glyph-name="Aring" unicode="&#xc5;" horiz-adv-x="365" 
d="M122 759q0 45 18.5 63.5t42.5 18.5t42.5 -18.5t18.5 -63.5q0 -32 -10 -51t-25 -27l144 -681h-38l-43 208h-179l-43 -208h-38l144 682q-15 8 -24.5 26.5t-9.5 50.5zM216 480q-8 43 -16.5 86.5t-16.5 91.5h-2q-8 -48 -16 -91.5t-16 -86.5l-49 -238h164zM217 759
q0 31 -9.5 44.5t-24.5 13.5t-24.5 -13.5t-9.5 -44.5q0 -32 9.5 -45t24.5 -13t24.5 13t9.5 45z" />
    <glyph glyph-name="AE" unicode="&#xc6;" horiz-adv-x="507" 
d="M470 666h-167v-297h162v-34h-162v-301h171v-34h-209v197h-155l-69 -197h-39l246 700h222v-34zM265 231v420h-3q-12 -45 -25 -86t-27 -79l-89 -255h144z" />
    <glyph glyph-name="Ccedilla" unicode="&#xc7;" horiz-adv-x="310" 
d="M260 -102q0 -35 -16.5 -48.5t-40.5 -13.5q-23 0 -41 9v22q10 -3 19 -4t17 -1q15 0 23.5 7.5t8.5 28.5t-9 29.5t-30 8.5h-17v22l19 35q-44 3 -73.5 28t-48 70.5t-26.5 110t-8 144.5v8q0 83 8.5 148.5t28 111t51 69.5t78.5 24t77 -16v-33q-18 8 -35 11.5t-39 3.5
q-40 0 -65 -23t-39.5 -65t-20 -100.5t-5.5 -130.5v-8q0 -72 6 -131t20.5 -101t39.5 -65t64 -23q23 0 41 4t37 14v-33q-27 -17 -69 -18l-14 -33q25 -1 42 -14.5t17 -47.5z" />
    <glyph glyph-name="Egrave" unicode="&#xc8;" horiz-adv-x="311" 
d="M274 666h-180v-297h174v-34h-174v-301h184v-34h-222v700h218v-34zM232 775l-10 -20l-133 64l15 33z" />
    <glyph glyph-name="Eacute" unicode="&#xc9;" horiz-adv-x="311" 
d="M274 666h-180v-297h174v-34h-174v-301h184v-34h-222v700h218v-34zM227 852l14 -33l-132 -64l-11 20z" />
    <glyph glyph-name="Ecircumflex" unicode="&#xca;" horiz-adv-x="311" 
d="M274 666h-180v-297h174v-34h-174v-301h184v-34h-222v700h218v-34zM246 761h-26l-59 67l-59 -67h-26l73 102h23z" />
    <glyph glyph-name="Edieresis" unicode="&#xcb;" horiz-adv-x="311" 
d="M274 666h-180v-297h174v-34h-174v-301h184v-34h-222v700h218v-34zM106 820q14 0 19.5 -9t5.5 -20t-5.5 -20t-19.5 -9t-19.5 9t-5.5 20t5.5 20t19.5 9zM216 820q14 0 19.5 -9t5.5 -20t-5.5 -20t-19.5 -9t-20 9t-6 20t6 20t20 9z" />
    <glyph glyph-name="Igrave" unicode="&#xcc;" horiz-adv-x="154" 
d="M96 0h-38v700h38v-700zM149 775l-10 -20l-133 64l15 33z" />
    <glyph glyph-name="Iacute" unicode="&#xcd;" horiz-adv-x="154" 
d="M96 0h-38v700h38v-700zM135 852l14 -33l-132 -64l-11 20z" />
    <glyph glyph-name="Icircumflex" unicode="&#xce;" horiz-adv-x="154" 
d="M96 0h-38v700h38v-700zM163 761h-26l-59 67l-59 -67h-26l73 102h23z" />
    <glyph glyph-name="Idieresis" unicode="&#xcf;" horiz-adv-x="154" 
d="M96 0h-38v700h38v-700zM22 820q14 0 19.5 -9t5.5 -20t-5.5 -20t-19.5 -9t-19.5 9t-5.5 20t5.5 20t19.5 9zM132 820q14 0 19.5 -9t5.5 -20t-5.5 -20t-19.5 -9t-20 9t-6 20t6 20t20 9z" />
    <glyph glyph-name="Eth" unicode="&#xd0;" horiz-adv-x="383" 
d="M56 0v324h-49v33h49v343h104q103 0 145 -86t42 -258v-8q0 -173 -42.5 -260.5t-146.5 -87.5h-102zM158 34q44 0 73 21t46.5 61t24.5 98.5t7 133.5v8q0 75 -7 133t-24 97.5t-46 59.5t-72 20h-66v-309h97v-33h-97v-290h64z" />
    <glyph glyph-name="Ntilde" unicode="&#xd1;" horiz-adv-x="405" 
d="M144 463q-15 43 -27.5 81t-25.5 84h-2q4 -63 4.5 -119.5t0.5 -97.5v-411h-38v700h39l165 -463q14 -43 27 -81t26 -84h2q-4 63 -4.5 119.5t-0.5 97.5v411h38v-700h-40zM245 761q-14 0 -25 11t-21.5 23.5t-19.5 23.5t-18 11q-14 0 -21 -19t-8 -48h-22q1 44 13 71.5t38 27.5
q13 0 24.5 -11t21.5 -23.5t19.5 -23.5t18.5 -11q13 0 20 19t8 48h22q-1 -43 -13 -71t-37 -28z" />
    <glyph glyph-name="Ograve" unicode="&#xd2;" horiz-adv-x="399" 
d="M200 707q87 0 124.5 -92t37.5 -261v-8q0 -169 -37.5 -261t-124.5 -92q-44 0 -75 23.5t-50.5 68.5t-28.5 111t-9 150v8q0 84 9 150t28.5 111t50.5 68.5t75 23.5zM200 26q34 0 57.5 22.5t38.5 64.5t21.5 101t6.5 132v8q0 73 -6.5 132t-21.5 101t-38.5 64.5t-57.5 22.5
q-35 0 -58.5 -22.5t-38 -64.5t-21 -101t-6.5 -132v-8q0 -73 6.5 -132t21 -101t38 -64.5t58.5 -22.5zM271 775l-10 -20l-133 64l15 33z" />
    <glyph glyph-name="Oacute" unicode="&#xd3;" horiz-adv-x="399" 
d="M200 707q87 0 124.5 -92t37.5 -261v-8q0 -169 -37.5 -261t-124.5 -92q-44 0 -75 23.5t-50.5 68.5t-28.5 111t-9 150v8q0 84 9 150t28.5 111t50.5 68.5t75 23.5zM200 26q34 0 57.5 22.5t38.5 64.5t21.5 101t6.5 132v8q0 73 -6.5 132t-21.5 101t-38.5 64.5t-57.5 22.5
q-35 0 -58.5 -22.5t-38 -64.5t-21 -101t-6.5 -132v-8q0 -73 6.5 -132t21 -101t38 -64.5t58.5 -22.5zM257 852l14 -33l-132 -64l-11 20z" />
    <glyph glyph-name="Ocircumflex" unicode="&#xd4;" horiz-adv-x="399" 
d="M200 707q87 0 124.5 -92t37.5 -261v-8q0 -169 -37.5 -261t-124.5 -92q-44 0 -75 23.5t-50.5 68.5t-28.5 111t-9 150v8q0 84 9 150t28.5 111t50.5 68.5t75 23.5zM200 26q34 0 57.5 22.5t38.5 64.5t21.5 101t6.5 132v8q0 73 -6.5 132t-21.5 101t-38.5 64.5t-57.5 22.5
q-35 0 -58.5 -22.5t-38 -64.5t-21 -101t-6.5 -132v-8q0 -73 6.5 -132t21 -101t38 -64.5t58.5 -22.5zM285 761h-26l-59 67l-59 -67h-26l73 102h23z" />
    <glyph glyph-name="Otilde" unicode="&#xd5;" horiz-adv-x="399" 
d="M200 707q87 0 124.5 -92t37.5 -261v-8q0 -169 -37.5 -261t-124.5 -92q-44 0 -75 23.5t-50.5 68.5t-28.5 111t-9 150v8q0 84 9 150t28.5 111t50.5 68.5t75 23.5zM200 26q34 0 57.5 22.5t38.5 64.5t21.5 101t6.5 132v8q0 73 -6.5 132t-21.5 101t-38.5 64.5t-57.5 22.5
q-35 0 -58.5 -22.5t-38 -64.5t-21 -101t-6.5 -132v-8q0 -73 6.5 -132t21 -101t38 -64.5t58.5 -22.5zM242 761q-14 0 -25 11t-21.5 23.5t-19.5 23.5t-18 11q-14 0 -21 -19t-8 -48h-22q1 44 13 71.5t38 27.5q13 0 24.5 -11t21.5 -23.5t19.5 -23.5t18.5 -11q13 0 20 19t8 48h22
q-1 -43 -13 -71t-37 -28z" />
    <glyph glyph-name="Odieresis" unicode="&#xd6;" horiz-adv-x="399" 
d="M200 707q87 0 124.5 -92t37.5 -261v-8q0 -169 -37.5 -261t-124.5 -92q-44 0 -75 23.5t-50.5 68.5t-28.5 111t-9 150v8q0 84 9 150t28.5 111t50.5 68.5t75 23.5zM200 26q34 0 57.5 22.5t38.5 64.5t21.5 101t6.5 132v8q0 73 -6.5 132t-21.5 101t-38.5 64.5t-57.5 22.5
q-35 0 -58.5 -22.5t-38 -64.5t-21 -101t-6.5 -132v-8q0 -73 6.5 -132t21 -101t38 -64.5t58.5 -22.5zM145 820q14 0 19.5 -9t5.5 -20t-5.5 -20t-19.5 -9t-19.5 9t-5.5 20t5.5 20t19.5 9zM255 820q14 0 19.5 -9t5.5 -20t-5.5 -20t-19.5 -9t-20 9t-6 20t6 20t20 9z" />
    <glyph glyph-name="multiply" unicode="&#xd7;" horiz-adv-x="274" 
d="M55 124l-25 24l89 161l-89 162l25 23l82 -155l83 155l24 -23l-88 -162l88 -161l-24 -24l-83 156z" />
    <glyph glyph-name="Oslash" unicode="&#xd8;" horiz-adv-x="399" 
d="M200 707q30 0 53.5 -11.5t42.5 -33.5l20 58h29l-30 -85q24 -45 35.5 -116t11.5 -165v-8q0 -169 -37.5 -261t-124.5 -92q-59 0 -95 42l-21 -65h-30l32 91q-26 45 -37.5 116.5t-11.5 168.5v8q0 84 9 150t28.5 111t50.5 68.5t75 23.5zM76 346q0 -75 6.5 -134t22.5 -99
l176 508q-31 53 -81 53q-35 0 -58.5 -22.5t-38 -64.5t-21 -101t-6.5 -132v-8zM200 26q34 0 57.5 22.5t38.5 64.5t21.5 101t6.5 132v8q0 72 -7 129.5t-22 97.5l-175 -506q31 -49 80 -49z" />
    <glyph glyph-name="Ugrave" unicode="&#xd9;" horiz-adv-x="382" 
d="M191 -7q-77 0 -106.5 64t-29.5 192v451h37v-450q0 -114 20.5 -168.5t78.5 -54.5t78.5 54.5t20.5 168.5v450h37v-451q0 -128 -29.5 -192t-106.5 -64zM262 775l-10 -20l-133 64l15 33z" />
    <glyph glyph-name="Uacute" unicode="&#xda;" horiz-adv-x="382" 
d="M191 -7q-77 0 -106.5 64t-29.5 192v451h37v-450q0 -114 20.5 -168.5t78.5 -54.5t78.5 54.5t20.5 168.5v450h37v-451q0 -128 -29.5 -192t-106.5 -64zM248 852l14 -33l-132 -64l-11 20z" />
    <glyph glyph-name="Ucircumflex" unicode="&#xdb;" horiz-adv-x="382" 
d="M191 -7q-77 0 -106.5 64t-29.5 192v451h37v-450q0 -114 20.5 -168.5t78.5 -54.5t78.5 54.5t20.5 168.5v450h37v-451q0 -128 -29.5 -192t-106.5 -64zM276 761h-26l-59 67l-59 -67h-26l73 102h23z" />
    <glyph glyph-name="Udieresis" unicode="&#xdc;" horiz-adv-x="382" 
d="M191 -7q-77 0 -106.5 64t-29.5 192v451h37v-450q0 -114 20.5 -168.5t78.5 -54.5t78.5 54.5t20.5 168.5v450h37v-451q0 -128 -29.5 -192t-106.5 -64zM136 820q14 0 19.5 -9t5.5 -20t-5.5 -20t-19.5 -9t-19.5 9t-5.5 20t5.5 20t19.5 9zM246 820q14 0 19.5 -9t5.5 -20
t-5.5 -20t-19.5 -9t-20 9t-6 20t6 20t20 9z" />
    <glyph glyph-name="Yacute" unicode="&#xdd;" horiz-adv-x="355" 
d="M177 316q3 6 8 22.5t11 37t12.5 41t11.5 34.5l84 249h37l-145 -421v-279h-37v279l-145 421h37l84 -249q14 -39 24.5 -72.5t17.5 -62.5zM234 852l14 -33l-132 -64l-11 20z" />
    <glyph glyph-name="Thorn" unicode="&#xde;" 
d="M94 149v-149h-38v700h38v-139h73q73 0 111.5 -48t38.5 -156q0 -109 -39 -158.5t-112 -49.5h-72zM279 357q0 92 -27.5 131t-84.5 39h-73v-344h72q57 0 85 40.5t28 133.5z" />
    <glyph glyph-name="germandbls" unicode="&#xdf;" horiz-adv-x="380" 
d="M213 24q50 0 74 36t24 129q0 90 -28.5 130t-82.5 40h-33v31h37q39 0 62.5 37t23.5 104q0 69 -23 107t-72 38q-57 0 -81 -50.5t-24 -150.5v-475h-36v477q0 114 32.5 172t108.5 58q68 0 99.5 -47t31.5 -129q0 -69 -23 -106.5t-54 -48.5q22 -6 40 -19t30.5 -35t19.5 -55
t7 -79q0 -54 -8 -91.5t-24.5 -60.5t-41 -33t-57.5 -10q-18 0 -34 2t-31 10v30q16 -8 31.5 -9.5t31.5 -1.5z" />
    <glyph glyph-name="agrave" unicode="&#xe0;" horiz-adv-x="313" 
d="M141 476q-25 0 -44.5 -5t-37.5 -13v31q17 8 37.5 13t48.5 5q63 0 89.5 -39t26.5 -124v-344h-30l-5 111h-1q-2 -21 -8.5 -42t-17.5 -38t-27.5 -28t-39.5 -11q-44 0 -71.5 35.5t-27.5 113.5q0 80 27.5 116t90.5 36q22 0 40 -4t34 -11v62q0 72 -17 104t-67 32zM68 141
q0 -62 17.5 -90.5t49.5 -28.5q21 0 37.5 15t28 40.5t18 58t6.5 68.5v45q-15 6 -33 9.5t-37 3.5q-51 0 -69 -28.5t-18 -92.5zM227 575l-10 -20l-133 64l15 33z" />
    <glyph glyph-name="aacute" unicode="&#xe1;" horiz-adv-x="313" 
d="M141 476q-25 0 -44.5 -5t-37.5 -13v31q17 8 37.5 13t48.5 5q63 0 89.5 -39t26.5 -124v-344h-30l-5 111h-1q-2 -21 -8.5 -42t-17.5 -38t-27.5 -28t-39.5 -11q-44 0 -71.5 35.5t-27.5 113.5q0 80 27.5 116t90.5 36q22 0 40 -4t34 -11v62q0 72 -17 104t-67 32zM68 141
q0 -62 17.5 -90.5t49.5 -28.5q21 0 37.5 15t28 40.5t18 58t6.5 68.5v45q-15 6 -33 9.5t-37 3.5q-51 0 -69 -28.5t-18 -92.5zM213 652l14 -33l-132 -64l-11 20z" />
    <glyph glyph-name="acircumflex" unicode="&#xe2;" horiz-adv-x="313" 
d="M141 476q-25 0 -44.5 -5t-37.5 -13v31q17 8 37.5 13t48.5 5q63 0 89.5 -39t26.5 -124v-344h-30l-5 111h-1q-2 -21 -8.5 -42t-17.5 -38t-27.5 -28t-39.5 -11q-44 0 -71.5 35.5t-27.5 113.5q0 80 27.5 116t90.5 36q22 0 40 -4t34 -11v62q0 72 -17 104t-67 32zM68 141
q0 -62 17.5 -90.5t49.5 -28.5q21 0 37.5 15t28 40.5t18 58t6.5 68.5v45q-15 6 -33 9.5t-37 3.5q-51 0 -69 -28.5t-18 -92.5zM241 561h-26l-59 67l-59 -67h-26l73 102h23z" />
    <glyph glyph-name="atilde" unicode="&#xe3;" horiz-adv-x="313" 
d="M141 476q-25 0 -44.5 -5t-37.5 -13v31q17 8 37.5 13t48.5 5q63 0 89.5 -39t26.5 -124v-344h-30l-5 111h-1q-2 -21 -8.5 -42t-17.5 -38t-27.5 -28t-39.5 -11q-44 0 -71.5 35.5t-27.5 113.5q0 80 27.5 116t90.5 36q22 0 40 -4t34 -11v62q0 72 -17 104t-67 32zM68 141
q0 -62 17.5 -90.5t49.5 -28.5q21 0 37.5 15t28 40.5t18 58t6.5 68.5v45q-15 6 -33 9.5t-37 3.5q-51 0 -69 -28.5t-18 -92.5zM198 561q-14 0 -25 11t-21.5 23.5t-19.5 23.5t-18 11q-14 0 -21 -19t-8 -48h-22q1 44 13 71.5t38 27.5q13 0 24.5 -11t21.5 -23.5t19.5 -23.5
t18.5 -11q13 0 20 19t8 48h22q-1 -43 -13 -71t-37 -28z" />
    <glyph glyph-name="adieresis" unicode="&#xe4;" horiz-adv-x="313" 
d="M141 476q-25 0 -44.5 -5t-37.5 -13v31q17 8 37.5 13t48.5 5q63 0 89.5 -39t26.5 -124v-344h-30l-5 111h-1q-2 -21 -8.5 -42t-17.5 -38t-27.5 -28t-39.5 -11q-44 0 -71.5 35.5t-27.5 113.5q0 80 27.5 116t90.5 36q22 0 40 -4t34 -11v62q0 72 -17 104t-67 32zM68 141
q0 -62 17.5 -90.5t49.5 -28.5q21 0 37.5 15t28 40.5t18 58t6.5 68.5v45q-15 6 -33 9.5t-37 3.5q-51 0 -69 -28.5t-18 -92.5zM101 620q14 0 19.5 -9t5.5 -20t-5.5 -20t-19.5 -9t-19.5 9t-5.5 20t5.5 20t19.5 9zM211 620q14 0 19.5 -9t5.5 -20t-5.5 -20t-19.5 -9t-20 9t-6 20
t6 20t20 9z" />
    <glyph glyph-name="aring" unicode="&#xe5;" horiz-adv-x="313" 
d="M141 476q-25 0 -44.5 -5t-37.5 -13v31q17 8 37.5 13t48.5 5q63 0 89.5 -39t26.5 -124v-344h-30l-5 111h-1q-2 -21 -8.5 -42t-17.5 -38t-27.5 -28t-39.5 -11q-44 0 -71.5 35.5t-27.5 113.5q0 80 27.5 116t90.5 36q22 0 40 -4t34 -11v62q0 72 -17 104t-67 32zM68 141
q0 -62 17.5 -90.5t49.5 -28.5q21 0 37.5 15t28 40.5t18 58t6.5 68.5v45q-15 6 -33 9.5t-37 3.5q-51 0 -69 -28.5t-18 -92.5zM95 646q0 45 18.5 63.5t42.5 18.5t42.5 -18.5t18.5 -63.5t-18.5 -64t-42.5 -19t-42.5 19t-18.5 64zM190 646q0 31 -9.5 44.5t-24.5 13.5
t-24.5 -13.5t-9.5 -44.5q0 -32 9.5 -45t24.5 -13t24.5 13t9.5 45z" />
    <glyph glyph-name="ae" unicode="&#xe6;" horiz-adv-x="503" 
d="M373 24q20 0 39 4.5t39 15.5v-31q-19 -11 -38 -15.5t-41 -4.5q-55 0 -83 38.5t-36 101.5h-2q-7 -64 -32 -102t-72 -38q-35 0 -57 20t-34.5 52.5t-17.5 74t-5 84.5v41h201q-1 48 -6 86.5t-16.5 66.5t-31.5 43t-50 15q-19 0 -38.5 -4.5t-39.5 -15.5v31q19 11 38 15.5
t42 4.5q54 0 82.5 -38.5t35.5 -101.5h2q6 65 31.5 102.5t73.5 37.5q34 0 56 -19.5t34.5 -51.5t17.5 -73t5 -84v-44h-201q1 -48 6 -86.5t16.5 -66.5t31.5 -43t50 -15zM356 476q-24 0 -40.5 -15t-27 -42t-15 -65.5t-4.5 -86.5v-2h168v14q0 39 -3 74.5t-12 62.5t-25 43.5
t-41 16.5zM148 24q24 0 40 15t26.5 42t15 65.5t4.5 86.5v2h-168v-11q0 -39 3 -75t12 -64t25 -44.5t42 -16.5z" />
    <glyph glyph-name="ccedilla" unicode="&#xe7;" horiz-adv-x="259" 
d="M215 -102q0 -35 -16.5 -48.5t-40.5 -13.5q-23 0 -41 9v22q10 -3 19 -4t17 -1q15 0 23.5 7.5t8.5 28.5t-9 29.5t-30 8.5h-17v22l20 36q-33 3 -55 22.5t-35.5 52.5t-19 78t-5.5 100v6q0 57 6.5 104t22 80.5t40.5 51.5t61 18q37 0 64 -15v-31q-15 8 -29.5 11.5t-32.5 3.5
q-28 0 -46.5 -16t-29.5 -45t-15.5 -70t-4.5 -92v-6q0 -51 4.5 -92t15.5 -70t29.5 -45t46.5 -16q17 0 33.5 3.5t33.5 12.5v-31q-16 -8 -31 -11.5t-32 -4.5l-14 -33q25 -1 42 -14.5t17 -47.5z" />
    <glyph glyph-name="egrave" unicode="&#xe8;" horiz-adv-x="303" 
d="M173 24q20 0 39 4.5t39 15.5v-31q-18 -11 -37.5 -15.5t-41.5 -4.5q-39 0 -65.5 18t-42.5 51t-23 80t-7 105v6q0 57 6.5 104t21.5 80.5t38 51.5t56 18q34 0 56 -19.5t35 -51.5t18 -73.5t5 -84.5v-53h-201q1 -46 6 -83t16.5 -63.5t31.5 -40.5t50 -14zM156 476
q-24 0 -40.5 -15.5t-27 -44t-15 -68.5t-4.5 -89v-4h167v23q0 39 -3 75t-11.5 63t-24.5 43.5t-41 16.5zM223 575l-10 -20l-133 64l15 33z" />
    <glyph glyph-name="eacute" unicode="&#xe9;" horiz-adv-x="303" 
d="M173 24q20 0 39 4.5t39 15.5v-31q-18 -11 -37.5 -15.5t-41.5 -4.5q-39 0 -65.5 18t-42.5 51t-23 80t-7 105v6q0 57 6.5 104t21.5 80.5t38 51.5t56 18q34 0 56 -19.5t35 -51.5t18 -73.5t5 -84.5v-53h-201q1 -46 6 -83t16.5 -63.5t31.5 -40.5t50 -14zM156 476
q-24 0 -40.5 -15.5t-27 -44t-15 -68.5t-4.5 -89v-4h167v23q0 39 -3 75t-11.5 63t-24.5 43.5t-41 16.5zM209 652l14 -33l-132 -64l-11 20z" />
    <glyph glyph-name="ecircumflex" unicode="&#xea;" horiz-adv-x="303" 
d="M173 24q20 0 39 4.5t39 15.5v-31q-18 -11 -37.5 -15.5t-41.5 -4.5q-39 0 -65.5 18t-42.5 51t-23 80t-7 105v6q0 57 6.5 104t21.5 80.5t38 51.5t56 18q34 0 56 -19.5t35 -51.5t18 -73.5t5 -84.5v-53h-201q1 -46 6 -83t16.5 -63.5t31.5 -40.5t50 -14zM156 476
q-24 0 -40.5 -15.5t-27 -44t-15 -68.5t-4.5 -89v-4h167v23q0 39 -3 75t-11.5 63t-24.5 43.5t-41 16.5zM237 561h-26l-59 67l-59 -67h-26l73 102h23z" />
    <glyph glyph-name="edieresis" unicode="&#xeb;" horiz-adv-x="303" 
d="M173 24q20 0 39 4.5t39 15.5v-31q-18 -11 -37.5 -15.5t-41.5 -4.5q-39 0 -65.5 18t-42.5 51t-23 80t-7 105v6q0 57 6.5 104t21.5 80.5t38 51.5t56 18q34 0 56 -19.5t35 -51.5t18 -73.5t5 -84.5v-53h-201q1 -46 6 -83t16.5 -63.5t31.5 -40.5t50 -14zM156 476
q-24 0 -40.5 -15.5t-27 -44t-15 -68.5t-4.5 -89v-4h167v23q0 39 -3 75t-11.5 63t-24.5 43.5t-41 16.5zM97 620q14 0 19.5 -9t5.5 -20t-5.5 -20t-19.5 -9t-19.5 9t-5.5 20t5.5 20t19.5 9zM207 620q14 0 19.5 -9t5.5 -20t-5.5 -20t-19.5 -9t-20 9t-6 20t6 20t20 9z" />
    <glyph glyph-name="igrave" unicode="&#xec;" horiz-adv-x="144" 
d="M144 575l-10 -20l-133 64l15 33zM90 0h-36v500h36v-500z" />
    <glyph glyph-name="iacute" unicode="&#xed;" horiz-adv-x="144" 
d="M130 652l14 -33l-132 -64l-11 20zM90 0h-36v500h36v-500z" />
    <glyph glyph-name="icircumflex" unicode="&#xee;" horiz-adv-x="144" 
d="M90 0h-36v500h36v-500zM158 561h-26l-59 67l-59 -67h-26l73 102h23z" />
    <glyph glyph-name="idieresis" unicode="&#xef;" horiz-adv-x="144" 
d="M18 620q14 0 19.5 -9t5.5 -20t-5.5 -20t-19.5 -9t-19.5 9t-5.5 20t5.5 20t19.5 9zM128 620q14 0 19.5 -9t5.5 -20t-5.5 -20t-19.5 -9t-20 9t-6 20t6 20t20 9zM90 0h-36v500h36v-500z" />
    <glyph glyph-name="eth" unicode="&#xf0;" horiz-adv-x="318" 
d="M173 609q-14 21 -30 41t-33 38l20 21q41 -44 71 -92l53 14l7 -25l-46 -13q35 -65 52 -143t17 -180v-23q0 -57 -6.5 -104t-21.5 -80.5t-39 -51.5t-58 -18t-58 18t-39 51.5t-21.5 80.5t-6.5 104v6q0 57 6.5 104t21.5 80.5t38.5 51.5t57.5 18q29 0 53 -20.5t36 -55.5
q-8 38 -23 77.5t-37 77.5l-66 -18l-8 25zM159 24q25 0 42 16t27.5 45t15 70t4.5 92v6q0 51 -4.5 92t-15 70t-27.5 45t-42 16q-24 0 -41 -16t-27.5 -45t-15.5 -70t-5 -92v-6q0 -51 5 -92t15.5 -70t27.5 -45t41 -16z" />
    <glyph glyph-name="ntilde" unicode="&#xf1;" horiz-adv-x="347" 
d="M259 315q0 75 -13 117t-53 42q-26 0 -45 -15.5t-32.5 -42.5t-20 -62t-6.5 -74v-280h-36v500h31l3 -122h1q8 60 37 94.5t73 34.5q55 0 76 -50.5t21 -138.5v-318h-36v315zM215 561q-14 0 -25 11t-21.5 23.5t-19.5 23.5t-18 11q-14 0 -21 -19t-8 -48h-22q1 44 13 71.5
t38 27.5q13 0 24.5 -11t21.5 -23.5t19.5 -23.5t18.5 -11q13 0 20 19t8 48h22q-1 -43 -13 -71t-37 -28z" />
    <glyph glyph-name="ograve" unicode="&#xf2;" horiz-adv-x="318" 
d="M159 507q34 0 58 -18t39 -51.5t21.5 -80.5t6.5 -104v-6q0 -57 -6.5 -104t-21.5 -80.5t-39 -51.5t-58 -18t-58 18t-39 51.5t-21.5 80.5t-6.5 104v6q0 57 6.5 104t21.5 80.5t39 51.5t58 18zM159 24q25 0 42 16t27.5 45t15 70t4.5 92v6q0 51 -4.5 92t-15 70t-27.5 45t-42 16
q-24 0 -41 -16t-27.5 -45t-15.5 -70t-5 -92v-6q0 -51 5 -92t15.5 -70t27.5 -45t41 -16zM230 575l-10 -20l-133 64l15 33z" />
    <glyph glyph-name="oacute" unicode="&#xf3;" horiz-adv-x="318" 
d="M159 507q34 0 58 -18t39 -51.5t21.5 -80.5t6.5 -104v-6q0 -57 -6.5 -104t-21.5 -80.5t-39 -51.5t-58 -18t-58 18t-39 51.5t-21.5 80.5t-6.5 104v6q0 57 6.5 104t21.5 80.5t39 51.5t58 18zM159 24q25 0 42 16t27.5 45t15 70t4.5 92v6q0 51 -4.5 92t-15 70t-27.5 45t-42 16
q-24 0 -41 -16t-27.5 -45t-15.5 -70t-5 -92v-6q0 -51 5 -92t15.5 -70t27.5 -45t41 -16zM216 652l14 -33l-132 -64l-11 20z" />
    <glyph glyph-name="ocircumflex" unicode="&#xf4;" horiz-adv-x="318" 
d="M159 507q34 0 58 -18t39 -51.5t21.5 -80.5t6.5 -104v-6q0 -57 -6.5 -104t-21.5 -80.5t-39 -51.5t-58 -18t-58 18t-39 51.5t-21.5 80.5t-6.5 104v6q0 57 6.5 104t21.5 80.5t39 51.5t58 18zM159 24q25 0 42 16t27.5 45t15 70t4.5 92v6q0 51 -4.5 92t-15 70t-27.5 45t-42 16
q-24 0 -41 -16t-27.5 -45t-15.5 -70t-5 -92v-6q0 -51 5 -92t15.5 -70t27.5 -45t41 -16zM244 561h-26l-59 67l-59 -67h-26l73 102h23z" />
    <glyph glyph-name="otilde" unicode="&#xf5;" horiz-adv-x="318" 
d="M159 507q34 0 58 -18t39 -51.5t21.5 -80.5t6.5 -104v-6q0 -57 -6.5 -104t-21.5 -80.5t-39 -51.5t-58 -18t-58 18t-39 51.5t-21.5 80.5t-6.5 104v6q0 57 6.5 104t21.5 80.5t39 51.5t58 18zM159 24q25 0 42 16t27.5 45t15 70t4.5 92v6q0 51 -4.5 92t-15 70t-27.5 45t-42 16
q-24 0 -41 -16t-27.5 -45t-15.5 -70t-5 -92v-6q0 -51 5 -92t15.5 -70t27.5 -45t41 -16zM201 561q-14 0 -25 11t-21.5 23.5t-19.5 23.5t-18 11q-14 0 -21 -19t-8 -48h-22q1 44 13 71.5t38 27.5q13 0 24.5 -11t21.5 -23.5t19.5 -23.5t18.5 -11q13 0 20 19t8 48h22
q-1 -43 -13 -71t-37 -28z" />
    <glyph glyph-name="odieresis" unicode="&#xf6;" horiz-adv-x="318" 
d="M159 507q34 0 58 -18t39 -51.5t21.5 -80.5t6.5 -104v-6q0 -57 -6.5 -104t-21.5 -80.5t-39 -51.5t-58 -18t-58 18t-39 51.5t-21.5 80.5t-6.5 104v6q0 57 6.5 104t21.5 80.5t39 51.5t58 18zM159 24q25 0 42 16t27.5 45t15 70t4.5 92v6q0 51 -4.5 92t-15 70t-27.5 45t-42 16
q-24 0 -41 -16t-27.5 -45t-15.5 -70t-5 -92v-6q0 -51 5 -92t15.5 -70t27.5 -45t41 -16zM104 620q14 0 19.5 -9t5.5 -20t-5.5 -20t-19.5 -9t-19.5 9t-5.5 20t5.5 20t19.5 9zM214 620q14 0 19.5 -9t5.5 -20t-5.5 -20t-19.5 -9t-20 9t-6 20t6 20t20 9z" />
    <glyph glyph-name="divide" unicode="&#xf7;" horiz-adv-x="274" 
d="M247 330v-34h-220v34h220zM136 150q-14 0 -20 9.5t-6 20.5t6 21t20 10t20 -10t6 -21t-6 -20.5t-20 -9.5zM136 415q-14 0 -20 10t-6 21t6 20.5t20 9.5t20 -9.5t6 -20.5t-6 -21t-20 -10z" />
    <glyph glyph-name="oslash" unicode="&#xf8;" horiz-adv-x="318" 
d="M159 507q43 0 70 -30l19 53h24l-26 -74q20 -33 29 -85t9 -118v-6q0 -57 -6.5 -104t-21.5 -80.5t-39 -51.5t-58 -18q-43 0 -70 29l-19 -52h-24l26 73q-20 34 -29 85.5t-9 118.5v6q0 57 6.5 104t21.5 80.5t39 51.5t58 18zM70 247q0 -49 4.5 -88.5t14.5 -67.5l126 350
q-20 35 -56 35q-24 0 -41 -16t-27.5 -45t-15.5 -70t-5 -92v-6zM159 24q25 0 42 16t27.5 45t15 70t4.5 92v6q0 49 -4.5 88t-15.5 68l-126 -350q21 -35 57 -35z" />
    <glyph glyph-name="ugrave" unicode="&#xf9;" horiz-adv-x="337" 
d="M88 162q0 -68 14 -101.5t54 -33.5q23 0 40 14.5t28.5 40t17.5 59t6 72.5v287h36v-500h-30l-4 111h-1q-3 -24 -10.5 -45t-19.5 -37.5t-29.5 -26t-39.5 -9.5q-54 0 -76 43t-22 124v340h36v-338zM240 575l-10 -20l-133 64l15 33z" />
    <glyph glyph-name="uacute" unicode="&#xfa;" horiz-adv-x="337" 
d="M88 162q0 -68 14 -101.5t54 -33.5q23 0 40 14.5t28.5 40t17.5 59t6 72.5v287h36v-500h-30l-4 111h-1q-3 -24 -10.5 -45t-19.5 -37.5t-29.5 -26t-39.5 -9.5q-54 0 -76 43t-22 124v340h36v-338zM226 652l14 -33l-132 -64l-11 20z" />
    <glyph glyph-name="ucircumflex" unicode="&#xfb;" horiz-adv-x="337" 
d="M88 162q0 -68 14 -101.5t54 -33.5q23 0 40 14.5t28.5 40t17.5 59t6 72.5v287h36v-500h-30l-4 111h-1q-3 -24 -10.5 -45t-19.5 -37.5t-29.5 -26t-39.5 -9.5q-54 0 -76 43t-22 124v340h36v-338zM254 561h-26l-59 67l-59 -67h-26l73 102h23z" />
    <glyph glyph-name="udieresis" unicode="&#xfc;" horiz-adv-x="337" 
d="M88 162q0 -68 14 -101.5t54 -33.5q23 0 40 14.5t28.5 40t17.5 59t6 72.5v287h36v-500h-30l-4 111h-1q-3 -24 -10.5 -45t-19.5 -37.5t-29.5 -26t-39.5 -9.5q-54 0 -76 43t-22 124v340h36v-338zM113 620q14 0 19.5 -9t5.5 -20t-5.5 -20t-19.5 -9t-19.5 9t-5.5 20t5.5 20
t19.5 9zM223 620q14 0 19.5 -9t5.5 -20t-5.5 -20t-19.5 -9t-20 9t-6 20t6 20t20 9z" />
    <glyph glyph-name="yacute" unicode="&#xfd;" horiz-adv-x="278" 
d="M143 -99q-11 -53 -29.5 -80.5t-57.5 -27.5q-15 0 -26 2t-20 6v33q16 -9 41 -9q28 0 39 22t19 63l17 87l-116 503h36l70 -314q8 -35 14.5 -73.5t11.5 -72.5h2q4 34 10.5 72.5t14.5 73.5l62 314h37zM196 652l14 -33l-132 -64l-11 20z" />
    <glyph glyph-name="thorn" unicode="&#xfe;" horiz-adv-x="337" 
d="M88 111q1 -29 1 -55.5v-55.5v-200h-36v900h36v-200l-3 -110h2q11 54 35.5 85.5t66.5 31.5q58 0 85.5 -65.5t27.5 -188.5v-6q0 -127 -29 -190.5t-83 -63.5q-44 0 -69 32t-33 86h-1zM267 253q0 106 -18 164t-63 58q-24 0 -42 -16t-30.5 -42.5t-18.5 -60t-6 -67.5v-64
q0 -38 6 -74t18 -64t30 -45t42 -17q45 0 63.5 57t18.5 165v6z" />
    <glyph glyph-name="ydieresis" unicode="&#xff;" horiz-adv-x="278" 
d="M143 -99q-11 -53 -29.5 -80.5t-57.5 -27.5q-15 0 -26 2t-20 6v33q16 -9 41 -9q28 0 39 22t19 63l17 87l-116 503h36l70 -314q8 -35 14.5 -73.5t11.5 -72.5h2q4 34 10.5 72.5t14.5 73.5l62 314h37zM84 620q14 0 19.5 -9t5.5 -20t-5.5 -20t-19.5 -9t-19.5 9t-5.5 20t5.5 20
t19.5 9zM194 620q14 0 19.5 -9t5.5 -20t-5.5 -20t-19.5 -9t-20 9t-6 20t6 20t20 9z" />
    <glyph glyph-name="Amacron" unicode="&#x100;" horiz-adv-x="365" 
d="M216 480q-8 43 -16.5 86.5t-16.5 91.5h-2q-8 -48 -16 -91.5t-16 -86.5l-49 -238h164zM93 208l-43 -208h-38l148 700h45l148 -700h-38l-43 208h-179zM265 795v-28h-164v28h164z" />
    <glyph glyph-name="amacron" unicode="&#x101;" horiz-adv-x="313" 
d="M141 476q-25 0 -44.5 -5t-37.5 -13v31q17 8 37.5 13t48.5 5q63 0 89.5 -39t26.5 -124v-344h-30l-5 111h-1q-2 -21 -8.5 -42t-17.5 -38t-27.5 -28t-39.5 -11q-44 0 -71.5 35.5t-27.5 113.5q0 80 27.5 116t90.5 36q22 0 40 -4t34 -11v62q0 72 -17 104t-67 32zM68 141
q0 -62 17.5 -90.5t49.5 -28.5q21 0 37.5 15t28 40.5t18 58t6.5 68.5v45q-15 6 -33 9.5t-37 3.5q-51 0 -69 -28.5t-18 -92.5zM238 595v-28h-164v28h164z" />
    <glyph glyph-name="Abreve" unicode="&#x102;" horiz-adv-x="365" 
d="M216 480q-8 43 -16.5 86.5t-16.5 91.5h-2q-8 -48 -16 -91.5t-16 -86.5l-49 -238h164zM93 208l-43 -208h-38l148 700h45l148 -700h-38l-43 208h-179zM183 761q-33 0 -54.5 22.5t-23.5 79.5h26q2 -40 15.5 -56.5t36.5 -16.5t36.5 16.5t15.5 56.5h26q-2 -57 -23.5 -79.5
t-54.5 -22.5z" />
    <glyph glyph-name="abreve" unicode="&#x103;" horiz-adv-x="313" 
d="M141 476q-25 0 -44.5 -5t-37.5 -13v31q17 8 37.5 13t48.5 5q63 0 89.5 -39t26.5 -124v-344h-30l-5 111h-1q-2 -21 -8.5 -42t-17.5 -38t-27.5 -28t-39.5 -11q-44 0 -71.5 35.5t-27.5 113.5q0 80 27.5 116t90.5 36q22 0 40 -4t34 -11v62q0 72 -17 104t-67 32zM68 141
q0 -62 17.5 -90.5t49.5 -28.5q21 0 37.5 15t28 40.5t18 58t6.5 68.5v45q-15 6 -33 9.5t-37 3.5q-51 0 -69 -28.5t-18 -92.5zM156 561q-33 0 -54.5 22.5t-23.5 79.5h26q2 -40 15.5 -56.5t36.5 -16.5t36.5 16.5t15.5 56.5h26q-2 -57 -23.5 -79.5t-54.5 -22.5z" />
    <glyph glyph-name="Aogonek" unicode="&#x104;" horiz-adv-x="365" 
d="M93 208l-43 -208h-38l148 700h45l148 -700h-1q-23 -14 -35 -39t-12 -50q0 -22 10.5 -30t25.5 -8q19 0 35 8v-28q-19 -11 -44 -11q-10 0 -20 3t-18.5 10t-14 19t-5.5 30q0 34 15.5 58t32.5 38h-7l-43 208h-179zM216 480q-8 43 -16.5 86.5t-16.5 91.5h-2q-8 -48 -16 -91.5
t-16 -86.5l-49 -238h164z" />
    <glyph glyph-name="aogonek" unicode="&#x105;" horiz-adv-x="313" 
d="M141 476q-25 0 -44.5 -5t-37.5 -13v31q17 8 37.5 13t48.5 5q63 0 89.5 -39t26.5 -124v-344h-1q-23 -14 -35 -39t-12 -50q0 -22 10.5 -30t25.5 -8q19 0 35 8v-28q-19 -11 -44 -11q-10 0 -20 3t-18.5 10t-14 19t-5.5 30q0 34 16 58.5t33 37.5l-5 111h-1q-2 -21 -8.5 -42
t-17.5 -38t-27.5 -28t-39.5 -11q-44 0 -71.5 35.5t-27.5 113.5q0 80 27.5 116t90.5 36q22 0 40 -4t34 -11v62q0 72 -17 104t-67 32zM68 141q0 -62 17.5 -90.5t49.5 -28.5q21 0 37.5 15t28 40.5t18 58t6.5 68.5v45q-15 6 -33 9.5t-37 3.5q-51 0 -69 -28.5t-18 -92.5z" />
    <glyph glyph-name="Cacute" unicode="&#x106;" horiz-adv-x="310" 
d="M203 707q47 0 77 -16v-33q-18 8 -35 11.5t-39 3.5q-40 0 -65 -23t-39.5 -65t-20 -100.5t-5.5 -130.5v-8q0 -72 6 -131t20.5 -101t39.5 -65t64 -23q23 0 41 4t37 14v-33q-30 -18 -80 -18q-47 0 -79 24t-51.5 70t-28 111t-8.5 148v8q0 83 8.5 148.5t28 111t51 69.5t78.5 24
zM242 852l14 -33l-132 -64l-11 20z" />
    <glyph glyph-name="cacute" unicode="&#x107;" horiz-adv-x="259" 
d="M166 476q-28 0 -46.5 -16t-29.5 -45t-15.5 -70t-4.5 -92v-6q0 -51 4.5 -92t15.5 -70t29.5 -45t46.5 -16q17 0 33.5 3.5t33.5 12.5v-31q-17 -9 -33 -12.5t-35 -3.5q-38 0 -63 18t-40 51t-21.5 80t-6.5 105v6q0 57 6.5 104t22 80.5t40.5 51.5t61 18q37 0 64 -15v-31
q-15 8 -29.5 11.5t-32.5 3.5zM206 652l14 -33l-132 -64l-11 20z" />
    <glyph glyph-name="Ccircumflex" unicode="&#x108;" horiz-adv-x="310" 
d="M203 707q47 0 77 -16v-33q-18 8 -35 11.5t-39 3.5q-40 0 -65 -23t-39.5 -65t-20 -100.5t-5.5 -130.5v-8q0 -72 6 -131t20.5 -101t39.5 -65t64 -23q23 0 41 4t37 14v-33q-30 -18 -80 -18q-47 0 -79 24t-51.5 70t-28 111t-8.5 148v8q0 83 8.5 148.5t28 111t51 69.5t78.5 24
zM270 761h-26l-59 67l-59 -67h-26l73 102h23z" />
    <glyph glyph-name="ccircumflex" unicode="&#x109;" horiz-adv-x="259" 
d="M166 476q-28 0 -46.5 -16t-29.5 -45t-15.5 -70t-4.5 -92v-6q0 -51 4.5 -92t15.5 -70t29.5 -45t46.5 -16q17 0 33.5 3.5t33.5 12.5v-31q-17 -9 -33 -12.5t-35 -3.5q-38 0 -63 18t-40 51t-21.5 80t-6.5 105v6q0 57 6.5 104t22 80.5t40.5 51.5t61 18q37 0 64 -15v-31
q-15 8 -29.5 11.5t-32.5 3.5zM234 561h-26l-59 67l-59 -67h-26l73 102h23z" />
    <glyph glyph-name="Cdotaccent" unicode="&#x10a;" horiz-adv-x="310" 
d="M203 707q47 0 77 -16v-33q-18 8 -35 11.5t-39 3.5q-40 0 -65 -23t-39.5 -65t-20 -100.5t-5.5 -130.5v-8q0 -72 6 -131t20.5 -101t39.5 -65t64 -23q23 0 41 4t37 14v-33q-30 -18 -80 -18q-47 0 -79 24t-51.5 70t-28 111t-8.5 148v8q0 83 8.5 148.5t28 111t51 69.5t78.5 24
zM185 783q-14 0 -20.5 10t-6.5 21t6.5 20.5t20.5 9.5t20.5 -9.5t6.5 -20.5t-6.5 -21t-20.5 -10z" />
    <glyph glyph-name="cdotaccent" unicode="&#x10b;" horiz-adv-x="259" 
d="M166 476q-28 0 -46.5 -16t-29.5 -45t-15.5 -70t-4.5 -92v-6q0 -51 4.5 -92t15.5 -70t29.5 -45t46.5 -16q17 0 33.5 3.5t33.5 12.5v-31q-17 -9 -33 -12.5t-35 -3.5q-38 0 -63 18t-40 51t-21.5 80t-6.5 105v6q0 57 6.5 104t22 80.5t40.5 51.5t61 18q37 0 64 -15v-31
q-15 8 -29.5 11.5t-32.5 3.5zM149 583q-14 0 -20.5 10t-6.5 21t6.5 20.5t20.5 9.5t20.5 -9.5t6.5 -20.5t-6.5 -21t-20.5 -10z" />
    <glyph glyph-name="Ccaron" unicode="&#x10c;" horiz-adv-x="310" 
d="M203 707q47 0 77 -16v-33q-18 8 -35 11.5t-39 3.5q-40 0 -65 -23t-39.5 -65t-20 -100.5t-5.5 -130.5v-8q0 -72 6 -131t20.5 -101t39.5 -65t64 -23q23 0 41 4t37 14v-33q-30 -18 -80 -18q-47 0 -79 24t-51.5 70t-28 111t-8.5 148v8q0 83 8.5 148.5t28 111t51 69.5t78.5 24
zM196 760h-23l-73 102h26l59 -67l59 67h26z" />
    <glyph glyph-name="ccaron" unicode="&#x10d;" horiz-adv-x="259" 
d="M166 476q-28 0 -46.5 -16t-29.5 -45t-15.5 -70t-4.5 -92v-6q0 -51 4.5 -92t15.5 -70t29.5 -45t46.5 -16q17 0 33.5 3.5t33.5 12.5v-31q-17 -9 -33 -12.5t-35 -3.5q-38 0 -63 18t-40 51t-21.5 80t-6.5 105v6q0 57 6.5 104t22 80.5t40.5 51.5t61 18q37 0 64 -15v-31
q-15 8 -29.5 11.5t-32.5 3.5zM160 560h-23l-73 102h26l59 -67l59 67h26z" />
    <glyph glyph-name="Dcaron" unicode="&#x10e;" horiz-adv-x="383" 
d="M158 34q44 0 73 21t46.5 61t24.5 98.5t7 133.5v8q0 75 -7 133t-24 97.5t-46 59.5t-72 20h-66v-632h64zM56 0v700h104q103 0 145 -86t42 -258v-8q0 -173 -42.5 -260.5t-146.5 -87.5h-102zM200 760h-23l-73 102h26l59 -67l59 67h26z" />
    <glyph glyph-name="dcaron" unicode="&#x10f;" horiz-adv-x="362" 
d="M248 111q-10 -54 -33 -86t-66 -32q-56 0 -85.5 63.5t-29.5 190.5v6q0 123 28.5 188.5t86.5 65.5q42 0 66 -31.5t34 -85.5h2l-3 113v197h36v-700h-31q-2 28 -2.5 55.5t-2.5 55.5zM70 247q0 -108 19.5 -165t64.5 -57q23 0 40.5 17t29.5 45t18 64t6 74v64q0 34 -5.5 67.5
t-17.5 60t-30 42.5t-42 16q-45 0 -64 -58t-19 -164v-6zM351 716l37 -8l-33 -157l-22 6z" />
    <glyph glyph-name="Dcroat" unicode="&#x110;" horiz-adv-x="383" 
d="M56 0v324h-49v33h49v343h104q103 0 145 -86t42 -258v-8q0 -173 -42.5 -260.5t-146.5 -87.5h-102zM158 34q44 0 73 21t46.5 61t24.5 98.5t7 133.5v8q0 75 -7 133t-24 97.5t-46 59.5t-72 20h-66v-309h97v-33h-97v-290h64z" />
    <glyph glyph-name="dcroat" unicode="&#x111;" horiz-adv-x="338" 
d="M248 111q-10 -54 -33 -86t-66 -32q-56 0 -85.5 64t-29.5 191v5q0 123 28.5 188.5t86.5 65.5q42 0 66 -31.5t34 -85.5h2l-3 113v17v64h-70v29h70v87h36v-87h35v-29h-35v-584h-31q-2 28 -2.5 55.5t-2.5 55.5zM70 247q0 -108 19.5 -165t64.5 -57q23 0 40.5 17t29.5 45t18 64
t6 74v64q0 34 -5.5 67.5t-17.5 60t-30 42.5t-42 16q-45 0 -64 -58t-19 -164v-6z" />
    <glyph glyph-name="Emacron" unicode="&#x112;" horiz-adv-x="311" 
d="M274 666h-180v-297h174v-34h-174v-301h184v-34h-222v700h218v-34zM253 795v-28h-164v28h164z" />
    <glyph glyph-name="emacron" unicode="&#x113;" horiz-adv-x="303" 
d="M173 24q20 0 39 4.5t39 15.5v-31q-18 -11 -37.5 -15.5t-41.5 -4.5q-39 0 -65.5 18t-42.5 51t-23 80t-7 105v6q0 57 6.5 104t21.5 80.5t38 51.5t56 18q34 0 56 -19.5t35 -51.5t18 -73.5t5 -84.5v-53h-201q1 -46 6 -83t16.5 -63.5t31.5 -40.5t50 -14zM156 476
q-24 0 -40.5 -15.5t-27 -44t-15 -68.5t-4.5 -89v-4h167v23q0 39 -3 75t-11.5 63t-24.5 43.5t-41 16.5zM234 595v-28h-164v28h164z" />
    <glyph glyph-name="Ebreve" unicode="&#x114;" horiz-adv-x="311" 
d="M274 666h-180v-297h174v-34h-174v-301h184v-34h-222v700h218v-34zM171 761q-33 0 -54.5 22.5t-23.5 79.5h26q2 -40 15.5 -56.5t36.5 -16.5t36.5 16.5t15.5 56.5h26q-2 -57 -23.5 -79.5t-54.5 -22.5z" />
    <glyph glyph-name="ebreve" unicode="&#x115;" horiz-adv-x="303" 
d="M173 24q20 0 39 4.5t39 15.5v-31q-18 -11 -37.5 -15.5t-41.5 -4.5q-39 0 -65.5 18t-42.5 51t-23 80t-7 105v6q0 57 6.5 104t21.5 80.5t38 51.5t56 18q34 0 56 -19.5t35 -51.5t18 -73.5t5 -84.5v-53h-201q1 -46 6 -83t16.5 -63.5t31.5 -40.5t50 -14zM156 476
q-24 0 -40.5 -15.5t-27 -44t-15 -68.5t-4.5 -89v-4h167v23q0 39 -3 75t-11.5 63t-24.5 43.5t-41 16.5zM152 561q-33 0 -54.5 22.5t-23.5 79.5h26q2 -40 15.5 -56.5t36.5 -16.5t36.5 16.5t15.5 56.5h26q-2 -57 -23.5 -79.5t-54.5 -22.5z" />
    <glyph glyph-name="Edotaccent" unicode="&#x116;" horiz-adv-x="311" 
d="M274 666h-180v-297h174v-34h-174v-301h184v-34h-222v700h218v-34zM171 783q-14 0 -20.5 10t-6.5 21t6.5 20.5t20.5 9.5t20.5 -9.5t6.5 -20.5t-6.5 -21t-20.5 -10z" />
    <glyph glyph-name="edotaccent" unicode="&#x117;" horiz-adv-x="303" 
d="M173 24q20 0 39 4.5t39 15.5v-31q-18 -11 -37.5 -15.5t-41.5 -4.5q-39 0 -65.5 18t-42.5 51t-23 80t-7 105v6q0 57 6.5 104t21.5 80.5t38 51.5t56 18q34 0 56 -19.5t35 -51.5t18 -73.5t5 -84.5v-53h-201q1 -46 6 -83t16.5 -63.5t31.5 -40.5t50 -14zM156 476
q-24 0 -40.5 -15.5t-27 -44t-15 -68.5t-4.5 -89v-4h167v23q0 39 -3 75t-11.5 63t-24.5 43.5t-41 16.5zM152 583q-14 0 -20.5 10t-6.5 21t6.5 20.5t20.5 9.5t20.5 -9.5t6.5 -20.5t-6.5 -21t-20.5 -10z" />
    <glyph glyph-name="Eogonek" unicode="&#x118;" horiz-adv-x="311" 
d="M274 666h-180v-297h174v-34h-174v-301h184v-34h-30q-23 -14 -35 -39t-12 -50q0 -22 10.5 -30t25.5 -8q19 0 35 8v-28q-19 -11 -44 -11q-10 0 -20 3t-18.5 10t-14 19t-5.5 30q0 34 15.5 58t32.5 38h-162v700h218v-34z" />
    <glyph glyph-name="eogonek" unicode="&#x119;" horiz-adv-x="303" 
d="M173 24q20 0 39 4.5t39 15.5v-31q-12 -8 -24.5 -12t-26.5 -6q-20 -15 -29.5 -38t-9.5 -46q0 -22 10.5 -30t25.5 -8q19 0 35 8v-28q-19 -11 -44 -11q-10 0 -20 3t-18.5 10t-14 19t-5.5 30q0 29 12 52t28 37q-39 1 -65 19t-42 51t-22.5 79.5t-6.5 104.5v6q0 57 6.5 104
t21.5 80.5t38 51.5t56 18q34 0 56 -19.5t35 -51.5t18 -73.5t5 -84.5v-53h-201q1 -46 6 -83t16.5 -63.5t31.5 -40.5t50 -14zM156 476q-24 0 -40.5 -15.5t-27 -44t-15 -68.5t-4.5 -89v-4h167v23q0 39 -3 75t-11.5 63t-24.5 43.5t-41 16.5z" />
    <glyph glyph-name="Ecaron" unicode="&#x11a;" horiz-adv-x="311" 
d="M274 666h-180v-297h174v-34h-174v-301h184v-34h-222v700h218v-34zM182 760h-23l-73 102h26l59 -67l59 67h26z" />
    <glyph glyph-name="ecaron" unicode="&#x11b;" horiz-adv-x="303" 
d="M173 24q20 0 39 4.5t39 15.5v-31q-18 -11 -37.5 -15.5t-41.5 -4.5q-39 0 -65.5 18t-42.5 51t-23 80t-7 105v6q0 57 6.5 104t21.5 80.5t38 51.5t56 18q34 0 56 -19.5t35 -51.5t18 -73.5t5 -84.5v-53h-201q1 -46 6 -83t16.5 -63.5t31.5 -40.5t50 -14zM156 476
q-24 0 -40.5 -15.5t-27 -44t-15 -68.5t-4.5 -89v-4h167v23q0 39 -3 75t-11.5 63t-24.5 43.5t-41 16.5zM163 560h-23l-73 102h26l59 -67l59 67h26z" />
    <glyph glyph-name="Gcircumflex" unicode="&#x11c;" horiz-adv-x="344" 
d="M210 707q52 0 81 -17v-32q-17 8 -36 11.5t-42 3.5q-41 0 -67.5 -23t-42 -65t-21.5 -100.5t-6 -130.5v-8q0 -72 6.5 -131t22 -101t42 -65t66.5 -23q26 0 47 7v304h-88v35h124v-363q-16 -8 -38.5 -12t-46.5 -4q-48 0 -81.5 24t-54 70t-29.5 111t-9 148v8q0 83 9 148.5
t29.5 111t53.5 69.5t81 24zM277 761h-26l-59 67l-59 -67h-26l73 102h23z" />
    <glyph glyph-name="gcircumflex" unicode="&#x11d;" horiz-adv-x="313" 
d="M288 500v-27q-13 -1 -33 -1.5t-29 -2.5q21 -14 32.5 -51t11.5 -91v-3q0 -90 -27.5 -132t-88.5 -42q-38 0 -62 19l-28 -53q3 -52 51 -52h54q59 0 85 -35.5t26 -96.5q0 -66 -29.5 -102.5t-93.5 -36.5q-60 0 -93.5 31t-33.5 103q0 44 17 73t36 43q-16 6 -32.5 22t-17.5 56
l37 65q-16 21 -24 57t-8 81v3q0 86 26.5 129.5t89.5 43.5h134zM154 182q47 0 64 34.5t17 107.5v3q0 71 -17.5 106t-63.5 35q-45 0 -63 -34t-18 -107v-3q0 -75 16.5 -108.5t64.5 -33.5zM65 -73q0 -54 21.5 -78.5t71.5 -24.5q48 0 68 28.5t20 79.5q0 48 -18 74.5t-60 26.5h-53
q-23 -15 -36.5 -41.5t-13.5 -64.5zM242 561h-26l-59 67l-59 -67h-26l73 102h23z" />
    <glyph glyph-name="Gbreve" unicode="&#x11e;" horiz-adv-x="344" 
d="M210 707q52 0 81 -17v-32q-17 8 -36 11.5t-42 3.5q-41 0 -67.5 -23t-42 -65t-21.5 -100.5t-6 -130.5v-8q0 -72 6.5 -131t22 -101t42 -65t66.5 -23q26 0 47 7v304h-88v35h124v-363q-16 -8 -38.5 -12t-46.5 -4q-48 0 -81.5 24t-54 70t-29.5 111t-9 148v8q0 83 9 148.5
t29.5 111t53.5 69.5t81 24zM192 761q-33 0 -54.5 22.5t-23.5 79.5h26q2 -40 15.5 -56.5t36.5 -16.5t36.5 16.5t15.5 56.5h26q-2 -57 -23.5 -79.5t-54.5 -22.5z" />
    <glyph glyph-name="gbreve" unicode="&#x11f;" horiz-adv-x="313" 
d="M288 500v-27q-13 -1 -33 -1.5t-29 -2.5q21 -14 32.5 -51t11.5 -91v-3q0 -90 -27.5 -132t-88.5 -42q-38 0 -62 19l-28 -53q3 -52 51 -52h54q59 0 85 -35.5t26 -96.5q0 -66 -29.5 -102.5t-93.5 -36.5q-60 0 -93.5 31t-33.5 103q0 44 17 73t36 43q-16 6 -32.5 22t-17.5 56
l37 65q-16 21 -24 57t-8 81v3q0 86 26.5 129.5t89.5 43.5h134zM154 182q47 0 64 34.5t17 107.5v3q0 71 -17.5 106t-63.5 35q-45 0 -63 -34t-18 -107v-3q0 -75 16.5 -108.5t64.5 -33.5zM65 -73q0 -54 21.5 -78.5t71.5 -24.5q48 0 68 28.5t20 79.5q0 48 -18 74.5t-60 26.5h-53
q-23 -15 -36.5 -41.5t-13.5 -64.5zM157 561q-33 0 -54.5 22.5t-23.5 79.5h26q2 -40 15.5 -56.5t36.5 -16.5t36.5 16.5t15.5 56.5h26q-2 -57 -23.5 -79.5t-54.5 -22.5z" />
    <glyph glyph-name="Gdotaccent" unicode="&#x120;" horiz-adv-x="344" 
d="M210 707q52 0 81 -17v-32q-17 8 -36 11.5t-42 3.5q-41 0 -67.5 -23t-42 -65t-21.5 -100.5t-6 -130.5v-8q0 -72 6.5 -131t22 -101t42 -65t66.5 -23q26 0 47 7v304h-88v35h124v-363q-16 -8 -38.5 -12t-46.5 -4q-48 0 -81.5 24t-54 70t-29.5 111t-9 148v8q0 83 9 148.5
t29.5 111t53.5 69.5t81 24zM192 783q-14 0 -20.5 10t-6.5 21t6.5 20.5t20.5 9.5t20.5 -9.5t6.5 -20.5t-6.5 -21t-20.5 -10z" />
    <glyph glyph-name="gdotaccent" unicode="&#x121;" horiz-adv-x="313" 
d="M288 500v-27q-13 -1 -33 -1.5t-29 -2.5q21 -14 32.5 -51t11.5 -91v-3q0 -90 -27.5 -132t-88.5 -42q-38 0 -62 19l-28 -53q3 -52 51 -52h54q59 0 85 -35.5t26 -96.5q0 -66 -29.5 -102.5t-93.5 -36.5q-60 0 -93.5 31t-33.5 103q0 44 17 73t36 43q-16 6 -32.5 22t-17.5 56
l37 65q-16 21 -24 57t-8 81v3q0 86 26.5 129.5t89.5 43.5h134zM154 182q47 0 64 34.5t17 107.5v3q0 71 -17.5 106t-63.5 35q-45 0 -63 -34t-18 -107v-3q0 -75 16.5 -108.5t64.5 -33.5zM65 -73q0 -54 21.5 -78.5t71.5 -24.5q48 0 68 28.5t20 79.5q0 48 -18 74.5t-60 26.5h-53
q-23 -15 -36.5 -41.5t-13.5 -64.5zM157 583q-14 0 -20.5 10t-6.5 21t6.5 20.5t20.5 9.5t20.5 -9.5t6.5 -20.5t-6.5 -21t-20.5 -10z" />
    <glyph glyph-name="Gcommaaccent" unicode="&#x122;" horiz-adv-x="344" 
d="M210 707q52 0 81 -17v-32q-17 8 -36 11.5t-42 3.5q-41 0 -67.5 -23t-42 -65t-21.5 -100.5t-6 -130.5v-8q0 -72 6.5 -131t22 -101t42 -65t66.5 -23q26 0 47 7v304h-88v35h124v-363q-16 -8 -38.5 -12t-46.5 -4q-48 0 -81.5 24t-54 70t-29.5 111t-9 148v8q0 83 9 148.5
t29.5 111t53.5 69.5t81 24zM182 -56l37 -8l-33 -157l-22 6z" />
    <glyph glyph-name="gcommaaccent" unicode="&#x123;" horiz-adv-x="313" 
d="M288 500v-27q-13 -1 -33 -1.5t-29 -2.5q21 -14 32.5 -51t11.5 -91v-3q0 -90 -27.5 -132t-88.5 -42q-38 0 -62 19l-28 -53q3 -52 51 -52h54q59 0 85 -35.5t26 -96.5q0 -66 -29.5 -102.5t-93.5 -36.5q-60 0 -93.5 31t-33.5 103q0 44 17 73t36 43q-16 6 -32.5 22t-17.5 56
l37 65q-16 21 -24 57t-8 81v3q0 86 26.5 129.5t89.5 43.5h134zM154 182q47 0 64 34.5t17 107.5v3q0 71 -17.5 106t-63.5 35q-45 0 -63 -34t-18 -107v-3q0 -75 16.5 -108.5t64.5 -33.5zM65 -73q0 -54 21.5 -78.5t71.5 -24.5q48 0 68 28.5t20 79.5q0 48 -18 74.5t-60 26.5h-53
q-23 -15 -36.5 -41.5t-13.5 -64.5zM175.005 575.996l-36.998 8l32.998 156.99l21.999 -5.99902z" />
    <glyph glyph-name="Hcircumflex" unicode="&#x124;" horiz-adv-x="391" 
d="M335 0h-38v335h-203v-335h-38v700h38v-331h203v331h38v-700zM281 761h-26l-59 67l-59 -67h-26l73 102h23z" />
    <glyph glyph-name="hcircumflex" unicode="&#x125;" horiz-adv-x="350" 
d="M263 315q0 75 -13.5 117t-54.5 42q-26 0 -45.5 -15.5t-32.5 -42.5t-20 -62t-7 -74v-280h-36v700h36v-196l-2 -126h1q8 60 37.5 94.5t73.5 34.5q56 0 77.5 -50.5t21.5 -138.5v-318h-36v315zM260 761h-26l-59 67l-59 -67h-26l73 102h23z" />
    <glyph glyph-name="Hbar" unicode="&#x126;" horiz-adv-x="391" 
d="M56 613v87h38v-87h203v87h38v-87h40v-29h-40v-584h-38v335h-203v-335h-38v584h-40v29h40zM297 369v215h-203v-215h203z" />
    <glyph glyph-name="hbar" unicode="&#x127;" horiz-adv-x="350" 
d="M90 504q0 -32 -1 -63t-1 -63h1q8 60 37.5 94.5t73.5 34.5q56 0 77.5 -50.5t21.5 -138.5v-318h-36v315q0 75 -13.5 117t-54.5 42q-26 0 -45.5 -15.5t-32.5 -42.5t-20 -62t-7 -74v-280h-36v584h-35v29h35v87h36v-87h70v-29h-70v-80z" />
    <glyph glyph-name="Itilde" unicode="&#x128;" horiz-adv-x="154" 
d="M96 0h-38v700h38v-700zM120 761q-14 0 -25 11t-21.5 23.5t-19.5 23.5t-18 11q-14 0 -21 -19t-8 -48h-22q1 44 13 71.5t38 27.5q13 0 24.5 -11t21.5 -23.5t19.5 -23.5t18.5 -11q13 0 20 19t8 48h22q-1 -43 -13 -71t-37 -28z" />
    <glyph glyph-name="itilde" unicode="&#x129;" horiz-adv-x="144" 
d="M115 561q-14 0 -25 11t-21.5 23.5t-19.5 23.5t-18 11q-14 0 -21 -19t-8 -48h-22q1 44 13 71.5t38 27.5q13 0 24.5 -11t21.5 -23.5t19.5 -23.5t18.5 -11q13 0 20 19t8 48h22q-1 -43 -13 -71t-37 -28zM90 0h-36v500h36v-500z" />
    <glyph glyph-name="Imacron" unicode="&#x12a;" horiz-adv-x="154" 
d="M96 0h-38v700h38v-700zM160 795v-28h-164v28h164z" />
    <glyph glyph-name="imacron" unicode="&#x12b;" horiz-adv-x="144" 
d="M155 595v-28h-164v28h164zM90 0h-36v500h36v-500z" />
    <glyph glyph-name="Ibreve" unicode="&#x12c;" horiz-adv-x="154" 
d="M96 0h-38v700h38v-700zM78 761q-33 0 -54.5 22.5t-23.5 79.5h26q2 -40 15.5 -56.5t36.5 -16.5t36.5 16.5t15.5 56.5h26q-2 -57 -23.5 -79.5t-54.5 -22.5z" />
    <glyph glyph-name="ibreve" unicode="&#x12d;" horiz-adv-x="144" 
d="M73 561q-33 0 -54.5 22.5t-23.5 79.5h26q2 -40 15.5 -56.5t36.5 -16.5t36.5 16.5t15.5 56.5h26q-2 -57 -23.5 -79.5t-54.5 -22.5zM90 0h-36v500h36v-500z" />
    <glyph glyph-name="Iogonek" unicode="&#x12e;" horiz-adv-x="154" 
d="M96 0q-23 -14 -35 -39t-12 -50q0 -22 10.5 -30t25.5 -8q19 0 35 8v-28q-19 -11 -44 -11q-10 0 -20 3t-18.5 10t-14 19t-5.5 30q0 34 15.5 58t32.5 38h-8v700h38v-700z" />
    <glyph glyph-name="iogonek" unicode="&#x12f;" horiz-adv-x="144" 
d="M90 0q-23 -14 -35 -39t-12 -50q0 -22 10.5 -30t25.5 -8q19 0 35 8v-28q-19 -11 -44 -11q-10 0 -20 3t-18.5 10t-14 19t-5.5 30q0 34 15.5 58t32.5 38h-6v500h36v-500zM72 588q-14 0 -20.5 10t-6.5 21t6.5 21t20.5 10t20.5 -10t6.5 -21t-6.5 -21t-20.5 -10z" />
    <glyph glyph-name="Idotaccent" unicode="&#x130;" horiz-adv-x="154" 
d="M96 0h-38v700h38v-700zM78 783q-14 0 -20.5 10t-6.5 21t6.5 20.5t20.5 9.5t20.5 -9.5t6.5 -20.5t-6.5 -21t-20.5 -10z" />
    <glyph glyph-name="dotlessi" unicode="&#x131;" horiz-adv-x="144" 
d="M90 0h-36v500h36v-500z" />
    <glyph glyph-name="IJ" unicode="&#x132;" horiz-adv-x="335" 
d="M281 184q0 -55 -8.5 -92t-25 -59t-41 -31t-56.5 -9q-28 0 -52 6.5t-40 14.5v33q17 -9 41 -15t50 -6q24 0 41.5 8t29.5 26.5t17.5 50t5.5 78.5v477h-64v34h102v-516zM96 190h-38v510h38v-510z" />
    <glyph glyph-name="ij" unicode="&#x133;" horiz-adv-x="287" 
d="M90 0h-36v500h36v-500zM72 588q-14 0 -20.5 10t-6.5 21t6.5 21t20.5 10t20.5 -10t6.5 -21t-6.5 -21t-20.5 -10zM122 -174q41 0 58 28.5t17 88.5v525h-42v32h78v-532q0 -89 -23.5 -132t-83.5 -43q-20 0 -39.5 3t-32.5 9v32q30 -11 68 -11zM215 588q-15 0 -21.5 10t-6.5 21
t6.5 21t21.5 10q14 0 20.5 -10t6.5 -21t-6.5 -21t-20.5 -10z" />
    <glyph glyph-name="Jcircumflex" unicode="&#x134;" horiz-adv-x="269" 
d="M94 27q24 0 40 7.5t25.5 26.5t13.5 50t4 78v477h-74v34h112v-516q0 -55 -6.5 -92t-21 -59t-37 -31t-53.5 -9q-22 0 -42 4.5t-35 12.5v32q34 -15 74 -15zM219 761h-26l-59 67l-59 -67h-26l73 102h23z" />
    <glyph glyph-name="jcircumflex" unicode="&#x135;" horiz-adv-x="153" 
d="M18 -174q27 0 35.5 22t8.5 77v543h-41v32h77v-576q0 -71 -17.5 -101t-56.5 -30q-28 0 -47 8v32q11 -3 20.5 -5t20.5 -2zM158 561h-26l-59 67l-59 -67h-26l73 102h23z" />
    <glyph glyph-name="Kcommaaccent" unicode="&#x136;" horiz-adv-x="357" 
d="M198 422l146 -422h-39l-130 377l-81 -163v-214h-38v700h38v-412l202 412h39zM179 -56l37 -8l-33 -157l-22 6z" />
    <glyph glyph-name="kcommaaccent" unicode="&#x137;" horiz-adv-x="299" 
d="M167 297l121 -297h-35l-107 260l-56 -97v-163h-36v700h36v-473l154 273h39zM150 -56l37 -8l-33 -157l-22 6z" />
    <glyph glyph-name="kgreenlandic" unicode="&#x138;" horiz-adv-x="299" 
d="M167 297l121 -297h-35l-107 260l-56 -97v-163h-36v500h36v-273l154 273h39z" />
    <glyph glyph-name="Lacute" unicode="&#x139;" horiz-adv-x="280" 
d="M260 0h-204v700h38v-666h166v-34zM197 852l14 -33l-132 -64l-11 20z" />
    <glyph glyph-name="lacute" unicode="&#x13a;" horiz-adv-x="144" 
d="M90 0h-36v700h36v-700zM129 852l14 -33l-132 -64l-11 20z" />
    <glyph glyph-name="Lcommaaccent" unicode="&#x13b;" horiz-adv-x="280" 
d="M260 0h-204v700h38v-666h166v-34zM146 -56l37 -8l-33 -157l-22 6z" />
    <glyph glyph-name="lcommaaccent" unicode="&#x13c;" horiz-adv-x="144" 
d="M90 0h-36v700h36v-700zM53 -56l37 -8l-33 -157l-22 6z" />
    <glyph glyph-name="Lcaron" unicode="&#x13d;" horiz-adv-x="280" 
d="M260 0h-204v700h38v-666h166v-34zM179 716l37 -8l-33 -157l-22 6z" />
    <glyph glyph-name="lcaron" unicode="&#x13e;" horiz-adv-x="172" 
d="M92 0h-36v700h36v-700zM161 716l37 -8l-33 -157l-22 6z" />
    <glyph glyph-name="Ldot" unicode="&#x13f;" horiz-adv-x="280" 
d="M260 0h-204v700h38v-666h166v-34zM194 252q-15 0 -21 9.5t-6 20.5t6 21t21 10q14 0 20 -10t6 -21t-6 -20.5t-20 -9.5z" />
    <glyph glyph-name="ldot" unicode="&#x140;" horiz-adv-x="171" 
d="M92 0h-36v700h36v-700zM161 246q-15 0 -21 9.5t-6 20.5t6 21t21 10q14 0 20 -10t6 -21t-6 -20.5t-20 -9.5z" />
    <glyph glyph-name="Lslash" unicode="&#x141;" horiz-adv-x="280" 
d="M260 0h-204v309l-44 -38v40l44 37v352h38v-320l95 82v-40l-95 -81v-307h166v-34z" />
    <glyph glyph-name="lslash" unicode="&#x142;" horiz-adv-x="148" 
d="M56 371v329h36v-299l44 38v-40l-44 -38v-361h-36v331l-44 -37v39z" />
    <glyph glyph-name="Nacute" unicode="&#x143;" horiz-adv-x="405" 
d="M144 463q-15 43 -27.5 81t-25.5 84h-2q4 -63 4.5 -119.5t0.5 -97.5v-411h-38v700h39l165 -463q14 -43 27 -81t26 -84h2q-4 63 -4.5 119.5t-0.5 97.5v411h38v-700h-40zM260 852l14 -33l-132 -64l-11 20z" />
    <glyph glyph-name="nacute" unicode="&#x144;" horiz-adv-x="347" 
d="M259 315q0 75 -13 117t-53 42q-26 0 -45 -15.5t-32.5 -42.5t-20 -62t-6.5 -74v-280h-36v500h31l3 -122h1q8 60 37 94.5t73 34.5q55 0 76 -50.5t21 -138.5v-318h-36v315zM230 652l14 -33l-132 -64l-11 20z" />
    <glyph glyph-name="Ncommaaccent" unicode="&#x145;" horiz-adv-x="405" 
d="M144 463q-15 43 -27.5 81t-25.5 84h-2q4 -63 4.5 -119.5t0.5 -97.5v-411h-38v700h39l165 -463q14 -43 27 -81t26 -84h2q-4 63 -4.5 119.5t-0.5 97.5v411h38v-700h-40zM193 -56l37 -8l-33 -157l-22 6z" />
    <glyph glyph-name="ncommaaccent" unicode="&#x146;" horiz-adv-x="347" 
d="M259 315q0 75 -13 117t-53 42q-26 0 -45 -15.5t-32.5 -42.5t-20 -62t-6.5 -74v-280h-36v500h31l3 -122h1q8 60 37 94.5t73 34.5q55 0 76 -50.5t21 -138.5v-318h-36v315zM164 -56l37 -8l-33 -157l-22 6z" />
    <glyph glyph-name="Ncaron" unicode="&#x147;" horiz-adv-x="405" 
d="M144 463q-15 43 -27.5 81t-25.5 84h-2q4 -63 4.5 -119.5t0.5 -97.5v-411h-38v700h39l165 -463q14 -43 27 -81t26 -84h2q-4 63 -4.5 119.5t-0.5 97.5v411h38v-700h-40zM214 760h-23l-73 102h26l59 -67l59 67h26z" />
    <glyph glyph-name="ncaron" unicode="&#x148;" horiz-adv-x="347" 
d="M259 315q0 75 -13 117t-53 42q-26 0 -45 -15.5t-32.5 -42.5t-20 -62t-6.5 -74v-280h-36v500h31l3 -122h1q8 60 37 94.5t73 34.5q55 0 76 -50.5t21 -138.5v-318h-36v315zM184 560h-23l-73 102h26l59 -67l59 67h26z" />
    <glyph glyph-name="napostrophe" unicode="&#x149;" horiz-adv-x="353" 
d="M264 315q0 75 -13 117t-53 42q-26 0 -45 -15.5t-32.5 -42.5t-20 -62t-6.5 -74v-280h-36v500h31l3 -122h1q8 60 37 94.5t73 34.5q55 0 76 -50.5t21 -138.5v-318h-36v315zM7 716l37 -8l-33 -157l-22 6z" />
    <glyph glyph-name="Eng" unicode="&#x14a;" horiz-adv-x="405" 
d="M229 -175q25 0 41 8.5t25 28t12 52.5t3 82l-166 467q-16 44 -28 81.5t-25 83.5h-2q1 -21 2 -44.5t1.5 -46.5t1 -44.5t0.5 -38.5v-454h-38v700h39l165 -463q15 -44 27 -81.5t26 -83.5h2q-2 21 -2.5 44.5t-1.5 46.5t-1 44.5v38.5v454h38v-717q0 -56 -6.5 -92.5t-20 -58.5
t-36 -31t-53.5 -9q-42 0 -74 16v33q33 -16 71 -16z" />
    <glyph glyph-name="eng" unicode="&#x14b;" horiz-adv-x="347" 
d="M215 -174q27 0 35.5 22t8.5 77v390q0 75 -13 117t-53 42q-26 0 -45 -15.5t-32.5 -42.5t-20 -62t-6.5 -74v-280h-36v500h31l3 -122h1q8 60 37 94.5t73 34.5q55 0 76 -50.5t21 -138.5v-394q0 -71 -17.5 -101t-56.5 -30q-28 0 -47 8v32q11 -3 20.5 -5t20.5 -2z" />
    <glyph glyph-name="Omacron" unicode="&#x14c;" horiz-adv-x="399" 
d="M200 707q87 0 124.5 -92t37.5 -261v-8q0 -169 -37.5 -261t-124.5 -92q-44 0 -75 23.5t-50.5 68.5t-28.5 111t-9 150v8q0 84 9 150t28.5 111t50.5 68.5t75 23.5zM200 26q34 0 57.5 22.5t38.5 64.5t21.5 101t6.5 132v8q0 73 -6.5 132t-21.5 101t-38.5 64.5t-57.5 22.5
q-35 0 -58.5 -22.5t-38 -64.5t-21 -101t-6.5 -132v-8q0 -73 6.5 -132t21 -101t38 -64.5t58.5 -22.5zM282 795v-28h-164v28h164z" />
    <glyph glyph-name="omacron" unicode="&#x14d;" horiz-adv-x="318" 
d="M159 507q34 0 58 -18t39 -51.5t21.5 -80.5t6.5 -104v-6q0 -57 -6.5 -104t-21.5 -80.5t-39 -51.5t-58 -18t-58 18t-39 51.5t-21.5 80.5t-6.5 104v6q0 57 6.5 104t21.5 80.5t39 51.5t58 18zM159 24q25 0 42 16t27.5 45t15 70t4.5 92v6q0 51 -4.5 92t-15 70t-27.5 45t-42 16
q-24 0 -41 -16t-27.5 -45t-15.5 -70t-5 -92v-6q0 -51 5 -92t15.5 -70t27.5 -45t41 -16zM241 595v-28h-164v28h164z" />
    <glyph glyph-name="Obreve" unicode="&#x14e;" horiz-adv-x="399" 
d="M200 707q87 0 124.5 -92t37.5 -261v-8q0 -169 -37.5 -261t-124.5 -92q-44 0 -75 23.5t-50.5 68.5t-28.5 111t-9 150v8q0 84 9 150t28.5 111t50.5 68.5t75 23.5zM200 26q34 0 57.5 22.5t38.5 64.5t21.5 101t6.5 132v8q0 73 -6.5 132t-21.5 101t-38.5 64.5t-57.5 22.5
q-35 0 -58.5 -22.5t-38 -64.5t-21 -101t-6.5 -132v-8q0 -73 6.5 -132t21 -101t38 -64.5t58.5 -22.5zM200 761q-33 0 -54.5 22.5t-23.5 79.5h26q2 -40 15.5 -56.5t36.5 -16.5t36.5 16.5t15.5 56.5h26q-2 -57 -23.5 -79.5t-54.5 -22.5z" />
    <glyph glyph-name="obreve" unicode="&#x14f;" horiz-adv-x="318" 
d="M159 507q34 0 58 -18t39 -51.5t21.5 -80.5t6.5 -104v-6q0 -57 -6.5 -104t-21.5 -80.5t-39 -51.5t-58 -18t-58 18t-39 51.5t-21.5 80.5t-6.5 104v6q0 57 6.5 104t21.5 80.5t39 51.5t58 18zM159 24q25 0 42 16t27.5 45t15 70t4.5 92v6q0 51 -4.5 92t-15 70t-27.5 45t-42 16
q-24 0 -41 -16t-27.5 -45t-15.5 -70t-5 -92v-6q0 -51 5 -92t15.5 -70t27.5 -45t41 -16zM159 561q-33 0 -54.5 22.5t-23.5 79.5h26q2 -40 15.5 -56.5t36.5 -16.5t36.5 16.5t15.5 56.5h26q-2 -57 -23.5 -79.5t-54.5 -22.5z" />
    <glyph glyph-name="Ohungarumlaut" unicode="&#x150;" horiz-adv-x="399" 
d="M200 707q87 0 124.5 -92t37.5 -261v-8q0 -169 -37.5 -261t-124.5 -92q-44 0 -75 23.5t-50.5 68.5t-28.5 111t-9 150v8q0 84 9 150t28.5 111t50.5 68.5t75 23.5zM200 26q34 0 57.5 22.5t38.5 64.5t21.5 101t6.5 132v8q0 73 -6.5 132t-21.5 101t-38.5 64.5t-57.5 22.5
q-35 0 -58.5 -22.5t-38 -64.5t-21 -101t-6.5 -132v-8q0 -73 6.5 -132t21 -101t38 -64.5t58.5 -22.5zM175 885l34 -13l-42 -121l-20 7zM266 885l35 -13l-43 -121l-19 7z" />
    <glyph glyph-name="ohungarumlaut" unicode="&#x151;" horiz-adv-x="318" 
d="M159 507q34 0 58 -18t39 -51.5t21.5 -80.5t6.5 -104v-6q0 -57 -6.5 -104t-21.5 -80.5t-39 -51.5t-58 -18t-58 18t-39 51.5t-21.5 80.5t-6.5 104v6q0 57 6.5 104t21.5 80.5t39 51.5t58 18zM159 24q25 0 42 16t27.5 45t15 70t4.5 92v6q0 51 -4.5 92t-15 70t-27.5 45t-42 16
q-24 0 -41 -16t-27.5 -45t-15.5 -70t-5 -92v-6q0 -51 5 -92t15.5 -70t27.5 -45t41 -16zM132 685l34 -13l-42 -121l-20 7zM223 685l35 -13l-43 -121l-19 7z" />
    <glyph glyph-name="OE" unicode="&#x152;" horiz-adv-x="570" 
d="M533 666h-178v-297h172v-34h-172v-301h182v-34h-219v137q-11 -68 -41.5 -106t-80.5 -38q-44 0 -74.5 23.5t-49 68.5t-27 111t-8.5 150v8q0 84 8.5 150t27 111t49 68.5t74.5 23.5q50 0 80.5 -38.5t41.5 -106.5v138h215v-34zM197 26q34 0 57 22.5t37 64.5t19.5 101t5.5 132
v8q0 73 -5.5 132t-19.5 101t-37 64.5t-57 22.5t-57 -22.5t-37.5 -64.5t-20.5 -101t-6 -132v-8q0 -73 6 -132t20.5 -101t37.5 -64.5t57 -22.5z" />
    <glyph glyph-name="oe" unicode="&#x153;" horiz-adv-x="510" 
d="M381 24q20 0 38.5 4.5t38.5 15.5v-31q-19 -11 -37.5 -15.5t-40.5 -4.5q-52 0 -79.5 32.5t-37.5 89.5h-2q-8 -54 -33.5 -88t-69.5 -34q-34 0 -57.5 18t-38.5 51.5t-21.5 80.5t-6.5 104v6q0 57 6.5 104t21.5 80.5t38.5 51.5t57.5 18q44 0 69 -33.5t34 -88.5h2q8 56 33 89
t68 33q34 0 56 -19.5t34.5 -51.5t17.5 -73.5t5 -84.5v-53h-198q1 -46 5.5 -83t16 -63.5t31 -40.5t49.5 -14zM158 24q24 0 41 16t27 45t14.5 70t4.5 92v6q0 51 -4.5 92t-14.5 70t-27 45t-41 16q-25 0 -41.5 -16t-27 -45t-15 -70t-4.5 -92v-6q0 -51 4.5 -92t15 -70t27 -45
t41.5 -16zM364 476q-24 0 -40.5 -15.5t-26 -44t-14 -68.5t-4.5 -89v-4h164v23q0 39 -3 75t-11.5 63t-24 43.5t-40.5 16.5z" />
    <glyph glyph-name="Racute" unicode="&#x154;" horiz-adv-x="366" 
d="M94 291v-291h-38v700h129q70 0 106.5 -49.5t36.5 -154.5q0 -52 -8.5 -88.5t-23.5 -60.5t-36 -37t-46 -18l117 -292h-38l-116 291h-83zM290 496q0 90 -26 130t-81 40h-89v-340h91q55 0 80 41.5t25 128.5zM240 852l14 -33l-132 -64l-11 20z" />
    <glyph glyph-name="racute" unicode="&#x155;" horiz-adv-x="211" 
d="M198 461h-4q-27 0 -47 -16.5t-33 -46t-19 -69t-6 -85.5v-244h-36v500h30q0 -12 0.5 -30.5t1 -37.5t1.5 -36.5t2 -26.5q6 57 32.5 96t72.5 39h5v-43zM163 652l14 -33l-132 -64l-11 20z" />
    <glyph glyph-name="Rcommaaccent" unicode="&#x156;" horiz-adv-x="366" 
d="M94 291v-291h-38v700h129q70 0 106.5 -49.5t36.5 -154.5q0 -52 -8.5 -88.5t-23.5 -60.5t-36 -37t-46 -18l117 -292h-38l-116 291h-83zM290 496q0 90 -26 130t-81 40h-89v-340h91q55 0 80 41.5t25 128.5zM174 -56l37 -8l-33 -157l-22 6z" />
    <glyph glyph-name="rcommaaccent" unicode="&#x157;" horiz-adv-x="211" 
d="M198 461h-4q-27 0 -47 -16.5t-33 -46t-19 -69t-6 -85.5v-244h-36v500h30q0 -12 0.5 -30.5t1 -37.5t1.5 -36.5t2 -26.5q6 57 32.5 96t72.5 39h5v-43zM52 -56l37 -8l-33 -157l-22 6z" />
    <glyph glyph-name="Rcaron" unicode="&#x158;" horiz-adv-x="366" 
d="M94 291v-291h-38v700h129q70 0 106.5 -49.5t36.5 -154.5q0 -52 -8.5 -88.5t-23.5 -60.5t-36 -37t-46 -18l117 -292h-38l-116 291h-83zM290 496q0 90 -26 130t-81 40h-89v-340h91q55 0 80 41.5t25 128.5zM194 760h-23l-73 102h26l59 -67l59 67h26z" />
    <glyph glyph-name="rcaron" unicode="&#x159;" horiz-adv-x="211" 
d="M198 461h-4q-27 0 -47 -16.5t-33 -46t-19 -69t-6 -85.5v-244h-36v500h30q0 -12 0.5 -30.5t1 -37.5t1.5 -36.5t2 -26.5q6 57 32.5 96t72.5 39h5v-43zM117 560h-23l-73 102h26l59 -67l59 67h26z" />
    <glyph glyph-name="Sacute" unicode="&#x15a;" horiz-adv-x="297" 
d="M228 161q0 48 -14.5 83t-37 63t-48 53t-48 53t-37 62.5t-14.5 82.5q0 67 29.5 108t100.5 41q26 0 46 -4.5t37 -11.5v-33q-38 16 -81 16q-54 0 -74.5 -32.5t-20.5 -83.5q0 -40 14.5 -70.5t37 -57t48 -52.5t48 -56.5t37 -69.5t14.5 -91q0 -75 -32.5 -121.5t-103.5 -46.5
q-34 0 -57.5 5.5t-44.5 16.5v33q23 -11 46 -16.5t56 -5.5q52 0 75.5 38t23.5 97zM206 852l14 -33l-132 -64l-11 20z" />
    <glyph glyph-name="sacute" unicode="&#x15b;" horiz-adv-x="257" 
d="M114 24q33 0 55.5 23t22.5 68q0 25 -6 44.5t-15.5 34.5t-22.5 27t-27 24q-16 13 -32.5 27t-30.5 32t-23 41t-9 55q0 54 27.5 80.5t75.5 26.5q47 0 79 -17v-30q-18 8 -36 12t-41 4q-34 0 -52 -18t-18 -58q0 -25 7.5 -44t18.5 -33.5t24.5 -26t25.5 -21.5q18 -15 34.5 -30
t29 -33t19.5 -41.5t7 -55.5q0 -63 -31.5 -92.5t-78.5 -29.5q-51 0 -82 18v30q33 -17 79 -17zM186 652l14 -33l-132 -64l-11 20z" />
    <glyph glyph-name="Scircumflex" unicode="&#x15c;" horiz-adv-x="297" 
d="M228 161q0 48 -14.5 83t-37 63t-48 53t-48 53t-37 62.5t-14.5 82.5q0 67 29.5 108t100.5 41q26 0 46 -4.5t37 -11.5v-33q-38 16 -81 16q-54 0 -74.5 -32.5t-20.5 -83.5q0 -40 14.5 -70.5t37 -57t48 -52.5t48 -56.5t37 -69.5t14.5 -91q0 -75 -32.5 -121.5t-103.5 -46.5
q-34 0 -57.5 5.5t-44.5 16.5v33q23 -11 46 -16.5t56 -5.5q52 0 75.5 38t23.5 97zM234 761h-26l-59 67l-59 -67h-26l73 102h23z" />
    <glyph glyph-name="scircumflex" unicode="&#x15d;" horiz-adv-x="257" 
d="M114 24q33 0 55.5 23t22.5 68q0 25 -6 44.5t-15.5 34.5t-22.5 27t-27 24q-16 13 -32.5 27t-30.5 32t-23 41t-9 55q0 54 27.5 80.5t75.5 26.5q47 0 79 -17v-30q-18 8 -36 12t-41 4q-34 0 -52 -18t-18 -58q0 -25 7.5 -44t18.5 -33.5t24.5 -26t25.5 -21.5q18 -15 34.5 -30
t29 -33t19.5 -41.5t7 -55.5q0 -63 -31.5 -92.5t-78.5 -29.5q-51 0 -82 18v30q33 -17 79 -17zM214 561h-26l-59 67l-59 -67h-26l73 102h23z" />
    <glyph glyph-name="Scedilla" unicode="&#x15e;" horiz-adv-x="297" 
d="M197 -102q0 -35 -16.5 -48.5t-40.5 -13.5q-23 0 -41 9v22q10 -3 19 -4t17 -1q15 0 23.5 7.5t8.5 28.5t-9 29.5t-30 8.5h-17v22l19 35h-1q-34 0 -57.5 5.5t-44.5 16.5v33q23 -11 46 -16.5t56 -5.5q52 0 75.5 38t23.5 97q0 48 -14.5 83t-37 63t-48 53t-48 53t-37 62.5
t-14.5 82.5q0 67 29.5 108t100.5 41q26 0 46 -4.5t37 -11.5v-33q-38 16 -81 16q-54 0 -74.5 -32.5t-20.5 -83.5q0 -40 14.5 -70.5t37 -57t48 -52.5t48 -56.5t37 -69.5t14.5 -91q0 -69 -27 -113.5t-86 -52.5l-14 -35q25 -1 42 -14.5t17 -47.5z" />
    <glyph glyph-name="scedilla" unicode="&#x15f;" horiz-adv-x="257" 
d="M181 -102q0 -35 -16.5 -48.5t-40.5 -13.5q-23 0 -41 9v22q10 -3 19 -4t17 -1q15 0 23.5 7.5t8.5 28.5t-9 29.5t-30 8.5h-17v22l19 35q-49 1 -79 18v30q33 -17 79 -17q33 0 55.5 23t22.5 68q0 25 -6 44.5t-15.5 34.5t-22.5 27t-27 24q-16 13 -32.5 27t-30.5 32t-23 41
t-9 55q0 54 27.5 80.5t75.5 26.5q47 0 79 -17v-30q-18 8 -36 12t-41 4q-34 0 -52 -18t-18 -58q0 -25 7.5 -44t18.5 -33.5t24.5 -26t25.5 -21.5q18 -15 34.5 -30t29 -33t19.5 -41.5t7 -55.5q0 -56 -26 -86t-65 -35l-14 -34q25 -1 42 -14.5t17 -47.5z" />
    <glyph glyph-name="Scaron" unicode="&#x160;" horiz-adv-x="297" 
d="M228 161q0 48 -14.5 83t-37 63t-48 53t-48 53t-37 62.5t-14.5 82.5q0 67 29.5 108t100.5 41q26 0 46 -4.5t37 -11.5v-33q-38 16 -81 16q-54 0 -74.5 -32.5t-20.5 -83.5q0 -40 14.5 -70.5t37 -57t48 -52.5t48 -56.5t37 -69.5t14.5 -91q0 -75 -32.5 -121.5t-103.5 -46.5
q-34 0 -57.5 5.5t-44.5 16.5v33q23 -11 46 -16.5t56 -5.5q52 0 75.5 38t23.5 97zM160 760h-23l-73 102h26l59 -67l59 67h26z" />
    <glyph glyph-name="scaron" unicode="&#x161;" horiz-adv-x="257" 
d="M114 24q33 0 55.5 23t22.5 68q0 25 -6 44.5t-15.5 34.5t-22.5 27t-27 24q-16 13 -32.5 27t-30.5 32t-23 41t-9 55q0 54 27.5 80.5t75.5 26.5q47 0 79 -17v-30q-18 8 -36 12t-41 4q-34 0 -52 -18t-18 -58q0 -25 7.5 -44t18.5 -33.5t24.5 -26t25.5 -21.5q18 -15 34.5 -30
t29 -33t19.5 -41.5t7 -55.5q0 -63 -31.5 -92.5t-78.5 -29.5q-51 0 -82 18v30q33 -17 79 -17zM140 560h-23l-73 102h26l59 -67l59 67h26z" />
    <glyph glyph-name="Tcommaaccent" unicode="&#x162;" horiz-adv-x="314" 
d="M300 666h-124v-666h-38v666h-124v34h286v-34zM139 -56l37 -8l-33 -157l-22 6z" />
    <glyph glyph-name="tcommaaccent" unicode="&#x163;" horiz-adv-x="208" 
d="M98 130q0 -56 11 -80t43 -24q26 0 46 7v-30q-20 -9 -50 -9q-27 0 -43.5 9.5t-25.5 28.5t-12.5 48t-3.5 68v320h-53v32h54l5 172h29v-172h95v-32h-95v-338zM103 -56l37 -8l-33 -157l-22 6z" />
    <glyph glyph-name="Tcaron" unicode="&#x164;" horiz-adv-x="314" 
d="M300 666h-124v-666h-38v666h-124v34h286v-34zM168 760h-23l-73 102h26l59 -67l59 67h26z" />
    <glyph glyph-name="tcaron" unicode="&#x165;" horiz-adv-x="211" 
d="M98 130q0 -56 11 -80t43 -24q26 0 46 7v-30q-20 -9 -50 -9q-27 0 -43.5 9.5t-25.5 28.5t-12.5 48t-3.5 68v320h-53v32h54l5 172h29v-172h95v-32h-95v-338zM178 747l36 -9l-34 -178l-22 5z" />
    <glyph glyph-name="Tbar" unicode="&#x166;" horiz-adv-x="314" 
d="M248 412v-30h-72v-382h-38v382h-72v30h72v254h-124v34h286v-34h-124v-254h72z" />
    <glyph glyph-name="tbar" unicode="&#x167;" horiz-adv-x="227" 
d="M98 287h70v-31h-70v-126q0 -56 11 -80t43 -24q26 0 46 7v-30q-20 -9 -50 -9q-49 0 -67 32t-18 100v130h-43v31h43v181h-53v32h54l5 172h29v-172h95v-32h-95v-181z" />
    <glyph glyph-name="Utilde" unicode="&#x168;" horiz-adv-x="382" 
d="M191 -7q-77 0 -106.5 64t-29.5 192v451h37v-450q0 -114 20.5 -168.5t78.5 -54.5t78.5 54.5t20.5 168.5v450h37v-451q0 -128 -29.5 -192t-106.5 -64zM233 761q-14 0 -25 11t-21.5 23.5t-19.5 23.5t-18 11q-14 0 -21 -19t-8 -48h-22q1 44 13 71.5t38 27.5q13 0 24.5 -11
t21.5 -23.5t19.5 -23.5t18.5 -11q13 0 20 19t8 48h22q-1 -43 -13 -71t-37 -28z" />
    <glyph glyph-name="utilde" unicode="&#x169;" horiz-adv-x="337" 
d="M88 162q0 -68 14 -101.5t54 -33.5q23 0 40 14.5t28.5 40t17.5 59t6 72.5v287h36v-500h-30l-4 111h-1q-3 -24 -10.5 -45t-19.5 -37.5t-29.5 -26t-39.5 -9.5q-54 0 -76 43t-22 124v340h36v-338zM211 561q-14 0 -25 11t-21.5 23.5t-19.5 23.5t-18 11q-14 0 -21 -19t-8 -48
h-22q1 44 13 71.5t38 27.5q13 0 24.5 -11t21.5 -23.5t19.5 -23.5t18.5 -11q13 0 20 19t8 48h22q-1 -43 -13 -71t-37 -28z" />
    <glyph glyph-name="Umacron" unicode="&#x16a;" horiz-adv-x="382" 
d="M191 -7q-77 0 -106.5 64t-29.5 192v451h37v-450q0 -114 20.5 -168.5t78.5 -54.5t78.5 54.5t20.5 168.5v450h37v-451q0 -128 -29.5 -192t-106.5 -64zM273 795v-28h-164v28h164z" />
    <glyph glyph-name="umacron" unicode="&#x16b;" horiz-adv-x="337" 
d="M88 162q0 -68 14 -101.5t54 -33.5q23 0 40 14.5t28.5 40t17.5 59t6 72.5v287h36v-500h-30l-4 111h-1q-3 -24 -10.5 -45t-19.5 -37.5t-29.5 -26t-39.5 -9.5q-54 0 -76 43t-22 124v340h36v-338zM251 595v-28h-164v28h164z" />
    <glyph glyph-name="Ubreve" unicode="&#x16c;" horiz-adv-x="382" 
d="M191 -7q-77 0 -106.5 64t-29.5 192v451h37v-450q0 -114 20.5 -168.5t78.5 -54.5t78.5 54.5t20.5 168.5v450h37v-451q0 -128 -29.5 -192t-106.5 -64zM191 761q-33 0 -54.5 22.5t-23.5 79.5h26q2 -40 15.5 -56.5t36.5 -16.5t36.5 16.5t15.5 56.5h26q-2 -57 -23.5 -79.5
t-54.5 -22.5z" />
    <glyph glyph-name="ubreve" unicode="&#x16d;" horiz-adv-x="337" 
d="M88 162q0 -68 14 -101.5t54 -33.5q23 0 40 14.5t28.5 40t17.5 59t6 72.5v287h36v-500h-30l-4 111h-1q-3 -24 -10.5 -45t-19.5 -37.5t-29.5 -26t-39.5 -9.5q-54 0 -76 43t-22 124v340h36v-338zM169 561q-33 0 -54.5 22.5t-23.5 79.5h26q2 -40 15.5 -56.5t36.5 -16.5
t36.5 16.5t15.5 56.5h26q-2 -57 -23.5 -79.5t-54.5 -22.5z" />
    <glyph glyph-name="Uring" unicode="&#x16e;" horiz-adv-x="382" 
d="M191 -7q-77 0 -106.5 64t-29.5 192v451h37v-450q0 -114 20.5 -168.5t78.5 -54.5t78.5 54.5t20.5 168.5v450h37v-451q0 -128 -29.5 -192t-106.5 -64zM130 846q0 45 18.5 63.5t42.5 18.5t42.5 -18.5t18.5 -63.5t-18.5 -64t-42.5 -19t-42.5 19t-18.5 64zM225 846
q0 31 -9.5 44.5t-24.5 13.5t-24.5 -13.5t-9.5 -44.5q0 -32 9.5 -45t24.5 -13t24.5 13t9.5 45z" />
    <glyph glyph-name="uring" unicode="&#x16f;" horiz-adv-x="337" 
d="M88 162q0 -68 14 -101.5t54 -33.5q23 0 40 14.5t28.5 40t17.5 59t6 72.5v287h36v-500h-30l-4 111h-1q-3 -24 -10.5 -45t-19.5 -37.5t-29.5 -26t-39.5 -9.5q-54 0 -76 43t-22 124v340h36v-338zM108 646q0 45 18.5 63.5t42.5 18.5t42.5 -18.5t18.5 -63.5t-18.5 -64
t-42.5 -19t-42.5 19t-18.5 64zM203 646q0 31 -9.5 44.5t-24.5 13.5t-24.5 -13.5t-9.5 -44.5q0 -32 9.5 -45t24.5 -13t24.5 13t9.5 45z" />
    <glyph glyph-name="Uhungarumlaut" unicode="&#x170;" horiz-adv-x="382" 
d="M191 -7q-77 0 -106.5 64t-29.5 192v451h37v-450q0 -114 20.5 -168.5t78.5 -54.5t78.5 54.5t20.5 168.5v450h37v-451q0 -128 -29.5 -192t-106.5 -64zM158 885l34 -13l-42 -121l-20 7zM249 885l35 -13l-43 -121l-19 7z" />
    <glyph glyph-name="uhungarumlaut" unicode="&#x171;" horiz-adv-x="337" 
d="M88 162q0 -68 14 -101.5t54 -33.5q23 0 40 14.5t28.5 40t17.5 59t6 72.5v287h36v-500h-30l-4 111h-1q-3 -24 -10.5 -45t-19.5 -37.5t-29.5 -26t-39.5 -9.5q-54 0 -76 43t-22 124v340h36v-338zM135 685l34 -13l-42 -121l-20 7zM226 685l35 -13l-43 -121l-19 7z" />
    <glyph glyph-name="Uogonek" unicode="&#x172;" horiz-adv-x="382" 
d="M191 -7q-77 0 -106.5 64t-29.5 192v451h37v-450q0 -114 20.5 -168.5t78.5 -54.5t78.5 54.5t20.5 168.5v450h37v-451q0 -107 -20 -169.5t-71 -79.5h1q-23 -14 -35 -39t-12 -50q0 -22 10.5 -30t25.5 -8q19 0 35 8v-28q-19 -11 -44 -11q-10 0 -20 3t-18.5 10t-14 19t-5.5 30
q0 29 12 52t28 37h-8v0z" />
    <glyph glyph-name="uogonek" unicode="&#x173;" horiz-adv-x="337" 
d="M88 162q0 -68 14 -101.5t54 -33.5q23 0 40 14.5t28.5 40t17.5 59t6 72.5v287h36v-500h-1q-23 -14 -35 -39t-12 -50q0 -22 10.5 -30t25.5 -8q19 0 35 8v-28q-19 -11 -44 -11q-10 0 -20 3t-18.5 10t-14 19t-5.5 30q0 34 16 58.5t33 37.5l-4 111h-1q-3 -24 -10.5 -45
t-19.5 -37.5t-29.5 -26t-39.5 -9.5q-54 0 -76 43t-22 124v340h36v-338z" />
    <glyph glyph-name="Wcircumflex" unicode="&#x174;" horiz-adv-x="528" 
d="M359 251q5 -29 9 -55t7 -50t6 -48.5t5 -50.5h1q2 26 4.5 50.5t5 48.5t6 50t7.5 55l63 449h37l-102 -700h-42l-81 504q-8 45 -13 84.5t-7 75.5h-2q-3 -36 -7.5 -75.5t-12.5 -84.5l-81 -504h-42l-102 700h37l63 -449q8 -59 13 -105t10 -99h1q2 26 5 50.5t6 48.5t7 50t9 55
l71 449h47zM349 761h-26l-59 67l-59 -67h-26l73 102h23z" />
    <glyph glyph-name="wcircumflex" unicode="&#x175;" horiz-adv-x="423" 
d="M287 181q5 -32 10 -68t8 -70h2q2 34 5.5 70t8.5 68l50 319h35l-81 -500h-36l-59 324q-6 32 -11 66t-7 67h-2q-2 -33 -7 -67t-10 -66l-60 -324h-35l-82 500h36l49 -319q5 -32 9 -68t6 -70h2q3 34 7.5 70t10.5 68l58 319h35zM296 561h-26l-59 67l-59 -67h-26l73 102h23z
" />
    <glyph glyph-name="Ycircumflex" unicode="&#x176;" horiz-adv-x="355" 
d="M177 316q3 6 8 22.5t11 37t12.5 41t11.5 34.5l84 249h37l-145 -421v-279h-37v279l-145 421h37l84 -249q14 -39 24.5 -72.5t17.5 -62.5zM262 761h-26l-59 67l-59 -67h-26l73 102h23z" />
    <glyph glyph-name="ycircumflex" unicode="&#x177;" horiz-adv-x="278" 
d="M143 -99q-11 -53 -29.5 -80.5t-57.5 -27.5q-15 0 -26 2t-20 6v33q16 -9 41 -9q28 0 39 22t19 63l17 87l-116 503h36l70 -314q8 -35 14.5 -73.5t11.5 -72.5h2q4 34 10.5 72.5t14.5 73.5l62 314h37zM224 561h-26l-59 67l-59 -67h-26l73 102h23z" />
    <glyph glyph-name="Ydieresis" unicode="&#x178;" horiz-adv-x="355" 
d="M177 316q3 6 8 22.5t11 37t12.5 41t11.5 34.5l84 249h37l-145 -421v-279h-37v279l-145 421h37l84 -249q14 -39 24.5 -72.5t17.5 -62.5zM122 820q14 0 19.5 -9t5.5 -20t-5.5 -20t-19.5 -9t-19.5 9t-5.5 20t5.5 20t19.5 9zM232 820q14 0 19.5 -9t5.5 -20t-5.5 -20t-19.5 -9
t-20 9t-6 20t6 20t20 9z" />
    <glyph glyph-name="Zacute" unicode="&#x179;" horiz-adv-x="325" 
d="M28 0v32l220 634h-208v34h247v-32l-221 -634h227v-34h-265zM219 852l14 -33l-132 -64l-11 20z" />
    <glyph glyph-name="zacute" unicode="&#x17a;" horiz-adv-x="260" 
d="M25 29l166 440l-158 -1v32h195v-29l-166 -440l170 1v-32h-207v29zM187 652l14 -33l-132 -64l-11 20z" />
    <glyph glyph-name="Zdotaccent" unicode="&#x17b;" horiz-adv-x="325" 
d="M28 0v32l220 634h-208v34h247v-32l-221 -634h227v-34h-265zM162 783q-14 0 -20.5 10t-6.5 21t6.5 20.5t20.5 9.5t20.5 -9.5t6.5 -20.5t-6.5 -21t-20.5 -10z" />
    <glyph glyph-name="zdotaccent" unicode="&#x17c;" horiz-adv-x="260" 
d="M25 29l166 440l-158 -1v32h195v-29l-166 -440l170 1v-32h-207v29zM130 583q-14 0 -20.5 10t-6.5 21t6.5 20.5t20.5 9.5t20.5 -9.5t6.5 -20.5t-6.5 -21t-20.5 -10z" />
    <glyph glyph-name="Zcaron" unicode="&#x17d;" horiz-adv-x="325" 
d="M28 0v32l220 634h-208v34h247v-32l-221 -634h227v-34h-265zM173 760h-23l-73 102h26l59 -67l59 67h26z" />
    <glyph glyph-name="zcaron" unicode="&#x17e;" horiz-adv-x="260" 
d="M25 29l166 440l-158 -1v32h195v-29l-166 -440l170 1v-32h-207v29zM141 560h-23l-73 102h26l59 -67l59 67h26z" />
    <glyph glyph-name="florin" unicode="&#x192;" 
d="M150 383h-58v32h61l12 140q3 34 9 62t17.5 48t30 31t46.5 11q26 0 47 -8l-1 -31q-10 4 -19.5 5t-21.5 1q-38 0 -53.5 -28t-19.5 -90l-12 -141h98v-32h-100l-34 -437q-3 -32 -8 -58t-15.5 -44.5t-27 -28.5t-42.5 -10q-14 0 -24 2t-19 6l1 32q18 -7 38 -7q32 0 44 24t17 85
z" />
    <glyph glyph-name="Aringacute" unicode="&#x1fa;" horiz-adv-x="365" 
d="M122 759q0 45 18.5 63.5t42.5 18.5t42.5 -18.5t18.5 -63.5q0 -32 -10 -51t-25 -27l144 -681h-38l-43 208h-179l-43 -208h-38l144 682q-15 8 -24.5 26.5t-9.5 50.5zM216 480q-8 43 -16.5 86.5t-16.5 91.5h-2q-8 -48 -16 -91.5t-16 -86.5l-49 -238h164zM217 759
q0 31 -9.5 44.5t-24.5 13.5t-24.5 -13.5t-9.5 -44.5q0 -32 9.5 -45t24.5 -13t24.5 13t9.5 45zM240 952l14 -33l-132 -64l-11 20z" />
    <glyph glyph-name="aringacute" unicode="&#x1fb;" horiz-adv-x="313" 
d="M141 476q-25 0 -44.5 -5t-37.5 -13v31q17 8 37.5 13t48.5 5q63 0 89.5 -39t26.5 -124v-344h-30l-5 111h-1q-2 -21 -8.5 -42t-17.5 -38t-27.5 -28t-39.5 -11q-44 0 -71.5 35.5t-27.5 113.5q0 80 27.5 116t90.5 36q22 0 40 -4t34 -11v62q0 72 -17 104t-67 32zM68 141
q0 -62 17.5 -90.5t49.5 -28.5q21 0 37.5 15t28 40.5t18 58t6.5 68.5v45q-15 6 -33 9.5t-37 3.5q-51 0 -69 -28.5t-18 -92.5zM95 639q0 45 18.5 63.5t42.5 18.5t42.5 -18.5t18.5 -63.5t-18.5 -64t-42.5 -19t-42.5 19t-18.5 64zM190 639q0 31 -9.5 44.5t-24.5 13.5
t-24.5 -13.5t-9.5 -44.5q0 -32 9.5 -45t24.5 -13t24.5 13t9.5 45zM213 845l14 -33l-132 -64l-11 20z" />
    <glyph glyph-name="AEacute" unicode="&#x1fc;" horiz-adv-x="507" 
d="M470 666h-167v-297h162v-34h-162v-301h171v-34h-209v197h-155l-69 -197h-39l246 700h222v-34zM265 231v420h-3q-12 -45 -25 -86t-27 -79l-89 -255h144zM331 842l14 -33l-132 -64l-11 20z" />
    <glyph glyph-name="aeacute" unicode="&#x1fd;" horiz-adv-x="503" 
d="M373 24q20 0 39 4.5t39 15.5v-31q-19 -11 -38 -15.5t-41 -4.5q-55 0 -83 38.5t-36 101.5h-2q-7 -64 -32 -102t-72 -38q-35 0 -57 20t-34.5 52.5t-17.5 74t-5 84.5v41h201q-1 48 -6 86.5t-16.5 66.5t-31.5 43t-50 15q-19 0 -38.5 -4.5t-39.5 -15.5v31q19 11 38 15.5
t42 4.5q54 0 82.5 -38.5t35.5 -101.5h2q6 65 31.5 102.5t73.5 37.5q34 0 56 -19.5t34.5 -51.5t17.5 -73t5 -84v-44h-201q1 -48 6 -86.5t16.5 -66.5t31.5 -43t50 -15zM356 476q-24 0 -40.5 -15t-27 -42t-15 -65.5t-4.5 -86.5v-2h168v14q0 39 -3 74.5t-12 62.5t-25 43.5
t-41 16.5zM148 24q24 0 40 15t26.5 42t15 65.5t4.5 86.5v2h-168v-11q0 -39 3 -75t12 -64t25 -44.5t42 -16.5zM309 652l14 -33l-132 -64l-11 20z" />
    <glyph glyph-name="Oslashacute" unicode="&#x1fe;" horiz-adv-x="399" 
d="M257 852l14 -33l-132 -64l-11 20zM200 707q30 0 53.5 -11.5t42.5 -33.5l20 58h29l-30 -85q24 -45 35.5 -116t11.5 -165v-8q0 -169 -37.5 -261t-124.5 -92q-59 0 -95 42l-21 -65h-30l32 91q-26 45 -37.5 116.5t-11.5 168.5v8q0 84 9 150t28.5 111t50.5 68.5t75 23.5z
M76 346q0 -75 6.5 -134t22.5 -99l176 508q-31 53 -81 53q-35 0 -58.5 -22.5t-38 -64.5t-21 -101t-6.5 -132v-8zM200 26q34 0 57.5 22.5t38.5 64.5t21.5 101t6.5 132v8q0 72 -7 129.5t-22 97.5l-175 -506q31 -49 80 -49z" />
    <glyph glyph-name="oslashacute" unicode="&#x1ff;" horiz-adv-x="318" 
d="M216 652l14 -33l-132 -64l-11 20zM159 507q43 0 70 -30l19 53h24l-26 -74q20 -33 29 -85t9 -118v-6q0 -57 -6.5 -104t-21.5 -80.5t-39 -51.5t-58 -18q-43 0 -70 29l-19 -52h-24l26 73q-20 34 -29 85.5t-9 118.5v6q0 57 6.5 104t21.5 80.5t39 51.5t58 18zM70 247
q0 -49 4.5 -88.5t14.5 -67.5l126 350q-20 35 -56 35q-24 0 -41 -16t-27.5 -45t-15.5 -70t-5 -92v-6zM159 24q25 0 42 16t27.5 45t15 70t4.5 92v6q0 49 -4.5 88t-15.5 68l-126 -350q21 -35 57 -35z" />
    <glyph glyph-name="Scommaaccent" unicode="&#x218;" horiz-adv-x="297" 
d="M228 161q0 48 -14.5 83t-37 63t-48 53t-48 53t-37 62.5t-14.5 82.5q0 67 29.5 108t100.5 41q26 0 46 -4.5t37 -11.5v-33q-38 16 -81 16q-54 0 -74.5 -32.5t-20.5 -83.5q0 -40 14.5 -70.5t37 -57t48 -52.5t48 -56.5t37 -69.5t14.5 -91q0 -75 -32.5 -121.5t-103.5 -46.5
q-34 0 -57.5 5.5t-44.5 16.5v33q23 -11 46 -16.5t56 -5.5q52 0 75.5 38t23.5 97zM124 -56l37 -8l-33 -157l-22 6z" />
    <glyph glyph-name="scommaaccent" unicode="&#x219;" horiz-adv-x="257" 
d="M114 24q33 0 55.5 23t22.5 68q0 25 -6 44.5t-15.5 34.5t-22.5 27t-27 24q-16 13 -32.5 27t-30.5 32t-23 41t-9 55q0 54 27.5 80.5t75.5 26.5q47 0 79 -17v-30q-18 8 -36 12t-41 4q-34 0 -52 -18t-18 -58q0 -25 7.5 -44t18.5 -33.5t24.5 -26t25.5 -21.5q18 -15 34.5 -30
t29 -33t19.5 -41.5t7 -55.5q0 -63 -31.5 -92.5t-78.5 -29.5q-51 0 -82 18v30q33 -17 79 -17zM109 -56l37 -8l-33 -157l-22 6z" />
    <glyph glyph-name="uni021A" unicode="&#x21a;" horiz-adv-x="314" 
d="M300 666h-124v-666h-38v666h-124v34h286v-34zM139 -56l37 -8l-33 -157l-22 6z" />
    <glyph glyph-name="uni021B" unicode="&#x21b;" horiz-adv-x="208" 
d="M98 130q0 -56 11 -80t43 -24q26 0 46 7v-30q-20 -9 -50 -9q-27 0 -43.5 9.5t-25.5 28.5t-12.5 48t-3.5 68v320h-53v32h54l5 172h29v-172h95v-32h-95v-338zM103 -56l37 -8l-33 -157l-22 6z" />
    <glyph glyph-name="dotlessj" unicode="&#x237;" horiz-adv-x="153" 
d="M18 -174q27 0 35.5 22t8.5 77v543h-41v32h77v-576q0 -71 -17.5 -101t-56.5 -30q-28 0 -47 8v32q11 -3 20.5 -5t20.5 -2z" />
    <glyph glyph-name="circumflex" unicode="&#x2c6;" horiz-adv-x="186" 
d="M178 561h-26l-59 67l-59 -67h-26l73 102h23z" />
    <glyph glyph-name="caron" unicode="&#x2c7;" horiz-adv-x="186" 
d="M104 560h-23l-73 102h26l59 -67l59 67h26z" />
    <glyph glyph-name="uni02C9" unicode="&#x2c9;" horiz-adv-x="186" 
d="M175 595v-28h-164v28h164z" />
    <glyph glyph-name="breve" unicode="&#x2d8;" horiz-adv-x="186" 
d="M93 561q-33 0 -54.5 22.5t-23.5 79.5h26q2 -40 15.5 -56.5t36.5 -16.5t36.5 16.5t15.5 56.5h26q-2 -57 -23.5 -79.5t-54.5 -22.5z" />
    <glyph glyph-name="dotaccent" unicode="&#x2d9;" horiz-adv-x="186" 
d="M93 583q-14 0 -20.5 10t-6.5 21t6.5 20.5t20.5 9.5t20.5 -9.5t6.5 -20.5t-6.5 -21t-20.5 -10z" />
    <glyph glyph-name="ring" unicode="&#x2da;" horiz-adv-x="186" 
d="M32 646q0 45 18.5 63.5t42.5 18.5t42.5 -18.5t18.5 -63.5t-18.5 -64t-42.5 -19t-42.5 19t-18.5 64zM127 646q0 31 -9.5 44.5t-24.5 13.5t-24.5 -13.5t-9.5 -44.5q0 -32 9.5 -45t24.5 -13t24.5 13t9.5 45z" />
    <glyph glyph-name="ogonek" unicode="&#x2db;" horiz-adv-x="186" 
d="M116 0q-23 -14 -35 -39t-12 -50q0 -22 10.5 -30t25.5 -8q19 0 35 8v-28q-19 -11 -44 -11q-10 0 -20 3t-18.5 10t-14 19t-5.5 30q0 21 6.5 38t16 30.5t21 23t20.5 14.5z" />
    <glyph glyph-name="tilde" unicode="&#x2dc;" horiz-adv-x="186" 
d="M135 561q-14 0 -25 11t-21.5 23.5t-19.5 23.5t-18 11q-14 0 -21 -19t-8 -48h-22q1 44 13 71.5t38 27.5q13 0 24.5 -11t21.5 -23.5t19.5 -23.5t18.5 -11q13 0 20 19t8 48h22q-1 -43 -13 -71t-37 -28z" />
    <glyph glyph-name="hungarumlaut" unicode="&#x2dd;" horiz-adv-x="186" 
d="M64 685l34 -13l-42 -121l-20 7zM155 685l35 -13l-43 -121l-19 7z" />
    <glyph glyph-name="uni0394" unicode="&#x394;" horiz-adv-x="392" 
d="M241 417l-44 237h-2l-43 -237l-81 -384h251zM364 0h-336l150 700h37z" />
    <glyph glyph-name="uni03A9" unicode="&#x3a9;" horiz-adv-x="430" 
d="M215 707q87 0 134 -78.5t47 -223.5q0 -77 -10.5 -132t-27.5 -91.5t-37.5 -58t-39.5 -31.5v-59h88v-33h-116l-8 110q23 9 44 30.5t36.5 57t24.5 87t9 120.5q0 134 -37.5 201t-106.5 67t-106.5 -67t-37.5 -201q0 -69 9 -120.5t24.5 -87t36.5 -57t44 -30.5l-8 -110h-116v33
h88v59q-20 10 -40 31.5t-37 58t-27.5 91.5t-10.5 132q0 145 47 223.5t134 78.5z" />
    <glyph glyph-name="uni03BC" unicode="&#x3bc;" horiz-adv-x="337" 
d="M249 500h36v-340q0 -81 -22 -124t-76 -43q-23 0 -39.5 9.5t-28.5 26t-19.5 37.5t-11.5 45h-1l2 -111v-200h-36v700h36v-287q0 -39 6 -72.5t17.5 -59t28.5 -40t40 -14.5q40 0 54 33.5t14 101.5v338z" />
    <glyph glyph-name="pi" unicode="&#x3c0;" 
d="M280 -4q-37 0 -50 26t-13 71v374h-87l-39 -467h-38l40 467h-64v33h283v-33h-60v-371q0 -32 6.5 -50.5t27.5 -18.5q18 0 31 5v-29q-8 -4 -16 -5.5t-21 -1.5z" />
    <glyph glyph-name="Wgrave" unicode="&#x1e80;" horiz-adv-x="528" 
d="M359 251q5 -29 9 -55t7 -50t6 -48.5t5 -50.5h1q2 26 4.5 50.5t5 48.5t6 50t7.5 55l63 449h37l-102 -700h-42l-81 504q-8 45 -13 84.5t-7 75.5h-2q-3 -36 -7.5 -75.5t-12.5 -84.5l-81 -504h-42l-102 700h37l63 -449q8 -59 13 -105t10 -99h1q2 26 5 50.5t6 48.5t7 50t9 55
l71 449h47zM335 775l-10 -20l-133 64l15 33z" />
    <glyph glyph-name="wgrave" unicode="&#x1e81;" horiz-adv-x="423" 
d="M287 181q5 -32 10 -68t8 -70h2q2 34 5.5 70t8.5 68l50 319h35l-81 -500h-36l-59 324q-6 32 -11 66t-7 67h-2q-2 -33 -7 -67t-10 -66l-60 -324h-35l-82 500h36l49 -319q5 -32 9 -68t6 -70h2q3 34 7.5 70t10.5 68l58 319h35zM282 575l-10 -20l-133 64l15 33z" />
    <glyph glyph-name="Wacute" unicode="&#x1e82;" horiz-adv-x="528" 
d="M359 251q5 -29 9 -55t7 -50t6 -48.5t5 -50.5h1q2 26 4.5 50.5t5 48.5t6 50t7.5 55l63 449h37l-102 -700h-42l-81 504q-8 45 -13 84.5t-7 75.5h-2q-3 -36 -7.5 -75.5t-12.5 -84.5l-81 -504h-42l-102 700h37l63 -449q8 -59 13 -105t10 -99h1q2 26 5 50.5t6 48.5t7 50t9 55
l71 449h47zM321 852l14 -33l-132 -64l-11 20z" />
    <glyph glyph-name="wacute" unicode="&#x1e83;" horiz-adv-x="423" 
d="M287 181q5 -32 10 -68t8 -70h2q2 34 5.5 70t8.5 68l50 319h35l-81 -500h-36l-59 324q-6 32 -11 66t-7 67h-2q-2 -33 -7 -67t-10 -66l-60 -324h-35l-82 500h36l49 -319q5 -32 9 -68t6 -70h2q3 34 7.5 70t10.5 68l58 319h35zM268 652l14 -33l-132 -64l-11 20z" />
    <glyph glyph-name="Wdieresis" unicode="&#x1e84;" horiz-adv-x="528" 
d="M359 251q5 -29 9 -55t7 -50t6 -48.5t5 -50.5h1q2 26 4.5 50.5t5 48.5t6 50t7.5 55l63 449h37l-102 -700h-42l-81 504q-8 45 -13 84.5t-7 75.5h-2q-3 -36 -7.5 -75.5t-12.5 -84.5l-81 -504h-42l-102 700h37l63 -449q8 -59 13 -105t10 -99h1q2 26 5 50.5t6 48.5t7 50t9 55
l71 449h47zM209 820q14 0 19.5 -9t5.5 -20t-5.5 -20t-19.5 -9t-19.5 9t-5.5 20t5.5 20t19.5 9zM319 820q14 0 19.5 -9t5.5 -20t-5.5 -20t-19.5 -9t-20 9t-6 20t6 20t20 9z" />
    <glyph glyph-name="wdieresis" unicode="&#x1e85;" horiz-adv-x="423" 
d="M287 181q5 -32 10 -68t8 -70h2q2 34 5.5 70t8.5 68l50 319h35l-81 -500h-36l-59 324q-6 32 -11 66t-7 67h-2q-2 -33 -7 -67t-10 -66l-60 -324h-35l-82 500h36l49 -319q5 -32 9 -68t6 -70h2q3 34 7.5 70t10.5 68l58 319h35zM156 620q14 0 19.5 -9t5.5 -20t-5.5 -20
t-19.5 -9t-19.5 9t-5.5 20t5.5 20t19.5 9zM266 620q14 0 19.5 -9t5.5 -20t-5.5 -20t-19.5 -9t-20 9t-6 20t6 20t20 9z" />
    <glyph glyph-name="Ygrave" unicode="&#x1ef2;" horiz-adv-x="355" 
d="M177 316q3 6 8 22.5t11 37t12.5 41t11.5 34.5l84 249h37l-145 -421v-279h-37v279l-145 421h37l84 -249q14 -39 24.5 -72.5t17.5 -62.5zM248 775l-10 -20l-133 64l15 33z" />
    <glyph glyph-name="ygrave" unicode="&#x1ef3;" horiz-adv-x="278" 
d="M143 -99q-11 -53 -29.5 -80.5t-57.5 -27.5q-15 0 -26 2t-20 6v33q16 -9 41 -9q28 0 39 22t19 63l17 87l-116 503h36l70 -314q8 -35 14.5 -73.5t11.5 -72.5h2q4 34 10.5 72.5t14.5 73.5l62 314h37zM210 575l-10 -20l-133 64l15 33z" />
    <glyph glyph-name="endash" unicode="&#x2013;" horiz-adv-x="299" 
d="M21 312v34h257v-34h-257z" />
    <glyph glyph-name="emdash" unicode="&#x2014;" horiz-adv-x="424" 
d="M19 312v34h387v-34h-387z" />
    <glyph glyph-name="quoteleft" unicode="&#x2018;" horiz-adv-x="121" 
d="M67 489l-37 10l42 222l23 -4z" />
    <glyph glyph-name="quoteright" unicode="&#x2019;" horiz-adv-x="121" 
d="M54 721l37 -9l-42 -223l-23 5z" />
    <glyph glyph-name="quotesinglbase" unicode="&#x201a;" horiz-adv-x="125" 
d="M56 80l37 -9l-42 -223l-23 5z" />
    <glyph glyph-name="quotedblleft" unicode="&#x201c;" horiz-adv-x="199" 
d="M64 489l-37 10l42 222l23 -4zM148 489l-37 10l42 222l23 -4z" />
    <glyph glyph-name="quotedblright" unicode="&#x201d;" horiz-adv-x="199" 
d="M135 721l37 -9l-42 -223l-23 5zM51 721l37 -9l-42 -223l-23 5z" />
    <glyph glyph-name="quotedblbase" unicode="&#x201e;" horiz-adv-x="203" 
d="M137 80l37 -9l-42 -223l-23 5zM53 80l37 -9l-42 -223l-23 5z" />
    <glyph glyph-name="dagger" unicode="&#x2020;" horiz-adv-x="255" 
d="M145 -147h-34v644h-82v34h82v169h34v-169h81v-34h-81v-644z" />
    <glyph glyph-name="daggerdbl" unicode="&#x2021;" horiz-adv-x="255" 
d="M145 531h81v-34h-81v-441h81v-34h-81v-169h-34v169h-82v34h82v441h-82v34h82v169h34v-169z" />
    <glyph glyph-name="bullet" unicode="&#x2022;" horiz-adv-x="173" 
d="M87 200q-28 0 -40.5 22.5t-12.5 53.5q0 30 12.5 52.5t40.5 22.5q27 0 39.5 -22.5t12.5 -52.5q0 -31 -12.5 -53.5t-39.5 -22.5z" />
    <glyph glyph-name="ellipsis" unicode="&#x2026;" horiz-adv-x="380" 
d="M63 -4q-14 0 -20 9t-6 21q0 11 6 20.5t20 9.5q15 0 21 -9.5t6 -20.5q0 -12 -6 -21t-21 -9zM190 -4q-14 0 -20 9t-6 21q0 11 6 20.5t20 9.5q15 0 21 -9.5t6 -20.5q0 -12 -6 -21t-21 -9zM317 -4q-14 0 -20.5 9t-6.5 21q0 11 6.5 20.5t20.5 9.5t20.5 -9.5t6.5 -20.5
q0 -12 -6.5 -21t-20.5 -9z" />
    <glyph glyph-name="perthousand" unicode="&#x2030;" horiz-adv-x="574" 
d="M88 0h-33l239 700h34zM22 540q0 75 17.5 119.5t60.5 44.5q42 0 59.5 -44.5t17.5 -119.5q0 -76 -17.5 -120.5t-59.5 -44.5q-43 0 -60.5 44.5t-17.5 120.5zM144 540q0 29 -2 54t-6.5 43t-13.5 28.5t-22 10.5q-14 0 -22.5 -10.5t-13.5 -28.5t-7 -43t-2 -54q0 -30 2 -55
t7 -43t13.5 -28.5t22.5 -10.5q13 0 22 10.5t13.5 28.5t6.5 43t2 55zM206 160q0 76 17 120.5t60 44.5q42 0 59.5 -44.5t17.5 -120.5q0 -75 -17.5 -119.5t-59.5 -44.5q-43 0 -60 44.5t-17 119.5zM327 160q0 30 -2 55t-6.5 43t-13.5 28.5t-22 10.5q-14 0 -22.5 -10.5
t-13.5 -28.5t-7 -43t-2 -55q0 -29 2 -54t7 -43t13.5 -28.5t22.5 -10.5q13 0 22 10.5t13.5 28.5t6.5 43t2 54zM397 160q0 76 17.5 120.5t60.5 44.5q42 0 59.5 -44.5t17.5 -120.5q0 -75 -17.5 -119.5t-59.5 -44.5q-43 0 -60.5 44.5t-17.5 119.5zM519 160q0 30 -2 55t-6.5 43
t-13.5 28.5t-22 10.5q-14 0 -22.5 -10.5t-13.5 -28.5t-7 -43t-2 -55q0 -29 2 -54t7 -43t13.5 -28.5t22.5 -10.5q13 0 22 10.5t13.5 28.5t6.5 43t2 54z" />
    <glyph glyph-name="guilsinglleft" unicode="&#x2039;" horiz-adv-x="173" 
d="M25 331l74 190h36l-75 -190l75 -190h-36z" />
    <glyph glyph-name="guilsinglright" unicode="&#x203a;" horiz-adv-x="173" 
d="M74 141h-36l75 190l-75 190h36l74 -190z" />
    <glyph glyph-name="fraction" unicode="&#x2044;" horiz-adv-x="95" 
d="M-55 0h-34l240 700h33z" />
    <glyph glyph-name="Euro" unicode="&#x20ac;" 
d="M28 307h53q0 11 -0.5 21.5t-0.5 20.5v22.5t1 22.5h-53v30h55q3 61 13 113t28.5 90t47 59t70.5 21q28 0 49.5 -10.5t32.5 -21.5l-5 -35q-17 16 -34 24.5t-40 8.5q-33 0 -56 -19t-37.5 -52.5t-21.5 -79t-10 -98.5h150v-30h-151q-1 -11 -1 -22.5v-22.5q0 -10 0.5 -20.5
t0.5 -21.5h134v-30h-133q3 -53 11 -99t22.5 -79.5t37 -52.5t53.5 -19q24 0 42 8.5t35 24.5l5 -34q-11 -11 -33 -22t-51 -11q-39 0 -67.5 21t-47.5 59t-30 90t-14 114h-55v30z" />
    <glyph glyph-name="afii61289" unicode="&#x2113;" horiz-adv-x="212" 
d="M91 307q27 40 46 105.5t19 144.5q0 54 -7.5 85t-23.5 31q-20 0 -27 -41t-7 -118v-207zM56 222q-8 -8 -16.5 -14.5t-17.5 -13.5l-9 34q12 9 22.5 19t20.5 20v247q0 95 14.5 144t52.5 49q37 0 52.5 -39.5t15.5 -111.5q0 -97 -27.5 -172t-71.5 -127v-132q0 -54 7.5 -76.5
t34.5 -22.5q20 0 40 7v-32q-9 -4 -20 -6t-26 -2q-39 0 -55.5 30t-16.5 102v97z" />
    <glyph glyph-name="trademark" unicode="&#x2122;" horiz-adv-x="471" 
d="M185 672l-64 1v-243h-31v243l-64 -1v28h159v-28zM312 488l-41 101q-7 17 -13 33t-11 32q2 -17 3 -34t1 -34v-156h-30v270h32l69 -173l69 173h32v-270h-30v156q0 35 3 68q-5 -16 -11 -32t-13 -33l-40 -101h-20z" />
    <glyph glyph-name="Omega" unicode="&#x2126;" horiz-adv-x="430" 
d="M215 707q87 0 134 -78.5t47 -223.5q0 -77 -10.5 -132t-27.5 -91.5t-37.5 -58t-39.5 -31.5v-59h88v-33h-116l-8 110q23 9 44 30.5t36.5 57t24.5 87t9 120.5q0 134 -37.5 201t-106.5 67t-106.5 -67t-37.5 -201q0 -69 9 -120.5t24.5 -87t36.5 -57t44 -30.5l-8 -110h-116v33
h88v59q-20 10 -40 31.5t-37 58t-27.5 91.5t-10.5 132q0 145 47 223.5t134 78.5z" />
    <glyph glyph-name="estimated" unicode="&#x212e;" horiz-adv-x="857" 
d="M192 335q-5 0 -5 -4v-185q0 -11 2 -17.5t6 -11.5q45 -51 106.5 -73.5t133.5 -22.5q78 0 141 27t111 82h58q-54 -63 -134 -101t-177 -38q-83 0 -155 28t-125 77t-83.5 114t-30.5 139q0 75 30 140t82.5 114t123.5 77t154 28t154 -28t123.5 -77t82.5 -114t30 -140v-14h-628z
M673 551q0 15 -2.5 22t-8.5 14q-46 45 -103 68t-128 23q-141 0 -235 -97q-9 -9 -9 -29v-187q0 -6 5 -6h476q5 0 5 6v186z" />
    <glyph glyph-name="partialdiff" unicode="&#x2202;" horiz-adv-x="344" 
d="M160 398q-48 0 -68.5 -45t-20.5 -136t25 -141t67 -50q51 0 79 76t29 216q-19 32 -48.5 56t-62.5 24zM146 674q-38 0 -73 -20v34q14 8 32 13.5t43 5.5q81 0 120 -92t39 -290q0 -161 -37.5 -246.5t-106.5 -85.5q-56 0 -92.5 58.5t-36.5 165.5q0 215 122 215q19 0 36.5 -6.5
t32 -17t26 -23.5t19.5 -26q-2 151 -30.5 233t-93.5 82z" />
    <glyph glyph-name="Delta" unicode="&#x2206;" horiz-adv-x="392" 
d="M241 417l-44 237h-2l-43 -237l-81 -384h251zM364 0h-336l150 700h37z" />
    <glyph glyph-name="product" unicode="&#x220f;" horiz-adv-x="362" 
d="M268 -154v828h-174v-828h-38v862h250v-862h-38z" />
    <glyph glyph-name="summation" unicode="&#x2211;" horiz-adv-x="309" 
d="M21 -154v31l153 405l-145 396v30h243v-34h-203l143 -392l-150 -402h219v-34h-260z" />
    <glyph glyph-name="minus" unicode="&#x2212;" horiz-adv-x="274" 
d="M247 330v-34h-220v34h220z" />
    <glyph glyph-name="uni2215" unicode="&#x2215;" horiz-adv-x="95" 
d="M-55 0h-34l240 700h33z" />
    <glyph glyph-name="uni2219" unicode="&#x2219;" horiz-adv-x="135" 
d="M68 246q-15 0 -21 9.5t-6 20.5t6 21t21 10q14 0 20 -10t6 -21t-6 -20.5t-20 -9.5z" />
    <glyph glyph-name="radical" unicode="&#x221a;" horiz-adv-x="315" 
d="M162 -70h-41l-60 291h-44v33h72l50 -255l113 707h36z" />
    <glyph glyph-name="infinity" unicode="&#x221e;" horiz-adv-x="440" 
d="M117 181q21 0 42 29t44 93q-23 64 -43 92t-42 28q-28 0 -43 -32.5t-15 -87.5t15.5 -88.5t41.5 -33.5zM221 333q46 123 101 123q39 0 64.5 -41.5t25.5 -111.5q0 -69 -23.5 -111.5t-66.5 -42.5q-32 0 -54.5 29t-47.5 94q-48 -123 -102 -123q-39 0 -64.5 41.5t-25.5 112.5
q0 69 23.5 111t66.5 42q32 0 54.5 -29t48.5 -94zM323 424q-21 0 -42 -28.5t-44 -92.5q23 -64 43 -92.5t42 -28.5q28 0 43 33t15 88q0 54 -15.5 87.5t-41.5 33.5z" />
    <glyph glyph-name="integral" unicode="&#x222b;" horiz-adv-x="206" 
d="M121 -8q0 -39 -2 -67.5t-9.5 -47t-21.5 -28t-37 -9.5q-11 0 -19.5 2t-16.5 6v30q9 -3 16 -4t15 -1q14 0 22 6.5t11.5 20.5t4.5 37.5t1 57.5v560q0 39 2 67.5t9.5 47t21 28t37.5 9.5q19 0 35 -8v-30q-14 5 -30 5q-26 0 -32.5 -20.5t-6.5 -73.5v-588z" />
    <glyph glyph-name="approxequal" unicode="&#x2248;" horiz-adv-x="274" 
d="M186 318q18 0 31.5 21t21.5 50l18 -13q-10 -33 -27.5 -60.5t-43.5 -27.5q-17 0 -29.5 11.5t-24 25.5t-22 25.5t-22.5 11.5q-18 0 -31.5 -21.5t-21.5 -50.5l-18 14q5 16 12 31.5t16 28t19.5 20t23.5 7.5q17 0 30 -11.5t24 -25t21.5 -25t22.5 -11.5zM186 185
q18 0 31.5 21.5t21.5 50.5l18 -13q-10 -33 -27.5 -60.5t-43.5 -27.5q-17 0 -29.5 11.5t-24 25.5t-22 25.5t-22.5 11.5q-18 0 -31.5 -21.5t-21.5 -50.5l-18 14q5 16 12 31.5t16 28t19.5 20t23.5 7.5q17 0 30 -11.5t24 -25.5t21.5 -25.5t22.5 -11.5z" />
    <glyph glyph-name="notequal" unicode="&#x2260;" horiz-adv-x="274" 
d="M133 190l-50 -190h-30l49 190h-74v34h83l26 100h-109v33h118l44 168h31l-44 -168h69v-33h-78l-27 -100h105v-34h-113z" />
    <glyph glyph-name="lessequal" unicode="&#x2264;" horiz-adv-x="274" 
d="M21 0v27h219v-27h-219zM240 538v-42l-192 -195l192 -196v-42l-219 225v25z" />
    <glyph glyph-name="greaterequal" unicode="&#x2265;" horiz-adv-x="274" 
d="M253 313v-25l-219 -225v42l192 196l-192 195v42zM34 0v27h219v-27h-219z" />
    <glyph glyph-name="lozenge" unicode="&#x25ca;" horiz-adv-x="360" 
d="M180 58l113 290l-113 290l-113 -290zM171 700h18l141 -352l-141 -352h-18l-141 352z" />
    <glyph glyph-name="commaaccent" unicode="&#xf6c3;" horiz-adv-x="186" 
d="M78 -56l37 -8l-33 -157l-22 6z" />
    <glyph glyph-name="uniF8FF" unicode="&#xf8ff;" horiz-adv-x="2236" 
d="M197 426q0 12 -16.5 19t-36.5 14q-16 6 -30.5 11.5t-25.5 14t-17.5 20t-6.5 29.5q0 29 24 50.5t69 21.5q35 0 64 -21t33 -59h-58q-2 13 -14 20t-26 7q-17 0 -25.5 -5t-8.5 -13q0 -11 13.5 -16.5t28.5 -11.5q19 -6 35.5 -13t29 -15.5t19.5 -20.5t7 -29q0 -18 -8 -32.5
t-21 -24.5t-30.5 -15t-36.5 -5q-39 0 -68.5 22t-34.5 60h60q2 -16 15 -23t30 -7t26.5 5.5t9.5 16.5zM467 549h-73v-193h-59v193h-73v53h205v-53zM684 356h-61l-19 44h-100l-20 -44h-60l109 246h42zM582 450l-28 70l-29 -70h57zM905 440l52 162h61l-80 -246h-53l-58 156
l-56 -156h-53l-81 246h61l52 -162l54 162h47zM1093 356h-58v246h58v-246zM1229 439l-57 -83h-66l90 127l-84 119h67l50 -74l52 74h67l-84 -119l90 -127h-66zM128 170v-43h112v-53h-112v-98h-59v246h176v-52h-117zM509 99q0 -26 -9.5 -49t-26.5 -40t-40 -27t-49 -10
q-27 0 -49.5 10t-39 27t-25.5 40t-9 49t9 49t25.5 40.5t39 27.5t49.5 10q26 0 49 -10t40 -27.5t26.5 -40.5t9.5 -49zM449 99q0 34 -19.5 53.5t-45.5 19.5t-45.5 -19.5t-19.5 -53.5q0 -33 19.5 -53t45.5 -20t45.5 20t19.5 53zM694 222h58v-141q0 -50 -29 -79t-81 -29
t-81.5 29t-29.5 79v141h59v-141q0 -26 13 -40.5t39 -14.5t39 14.5t13 40.5v141zM1010 -24h-58l-111 154v-154h-58v246h53l115 -157v157h59v-246zM1040 222h103q60 0 91 -34t31 -88q0 -56 -30 -90t-90 -34h-105v246zM1145 30q33 0 47 19t14 51q0 31 -15 50t-48 19h-44v-139
h46zM1348 -24h-59v246h110q39 0 66 -21t27 -59q0 -29 -16 -49t-41 -25l64 -92h-64l-62 88h-25v-88zM1400 116q14 0 24 6t10 20t-10.5 21t-24.5 7h-51v-54h52zM1599 131l55 91h63l-88 -143v-103h-60v103l-88 143h63zM59 -200q-3 0 -6 2.5t-3 6.5t3 6.5t6 2.5h2119q8 0 8 -9
t-8 -9h-2119zM59 782q-3 0 -6 2.5t-3 6.5t3 6.5t6 2.5h2119q8 0 8 -9t-8 -9h-2119z" />
    <glyph glyph-name="a.superior" horiz-adv-x="217" 
d="M179 378h-26l-2 63q-7 -29 -23.5 -48t-42.5 -19q-27 0 -45 22t-18 74q0 100 79 100q14 0 26.5 -3.5t22.5 -8.5v34q0 42 -10 64t-43 22q-32 0 -57 -14v27q11 8 27 11t33 3q46 0 62.5 -28t16.5 -83v-216zM51 471q0 -70 42 -70q21 0 39 27t18 78v27q-10 5 -21 7.5t-25 2.5
q-26 0 -39.5 -17t-13.5 -55z" />
    <glyph glyph-name="o.superior" horiz-adv-x="226" 
d="M113 705q23 0 39 -12.5t26.5 -34.5t15 -52t4.5 -65v-3q0 -35 -4.5 -65t-15 -52t-26.5 -34.5t-39 -12.5t-39 12.5t-26.5 34.5t-15 52t-4.5 65v3q0 35 4.5 65t15 52t26.5 34.5t39 12.5zM113 679q-15 0 -25.5 -11t-17 -30t-9.5 -44t-3 -53v-3q0 -29 3 -54t9.5 -43.5
t17 -29.5t25.5 -11q16 0 26.5 11t17 29.5t9 43.5t2.5 54v3q0 28 -2.5 53t-9 44t-17 30t-26.5 11z" />
    <glyph glyph-name="one.superior" horiz-adv-x="133" 
d="M67 700h26v-322h-32v282l-41 -22l-10 21z" />
    <glyph glyph-name="two.superior" horiz-adv-x="182" 
d="M22 378v25l65 120q12 22 23 47.5t11 55.5q0 29 -10.5 40t-30.5 11q-26 0 -48 -12v27q11 5 23.5 9t28.5 4q33 0 50.5 -18.5t17.5 -60.5q0 -36 -13 -64t-27 -54l-54 -101h97v-29h-133z" />
    <glyph glyph-name="three.superior" horiz-adv-x="172" 
d="M69 400q24 0 35.5 18t11.5 50q0 39 -12 52t-32 13h-21v27h22q14 0 26 13.5t12 45.5q0 29 -10 43.5t-34 14.5q-11 0 -24 -2.5t-25 -7.5v27q13 5 26 8t28 3q35 0 52 -22t17 -62q0 -32 -12.5 -50t-26.5 -24q20 -5 32.5 -23.5t12.5 -55.5q0 -96 -77 -96q-15 0 -28 3t-27 8v28
q25 -11 54 -11z" />
    <glyph glyph-name="zero.tab" 
d="M68 350q0 -89 7.5 -151t21.5 -100t33.5 -55t43.5 -17t43.5 17t33.5 55t21.5 100t7.5 151t-7.5 150.5t-21.5 100t-33.5 55.5t-43.5 17t-43.5 -17t-33.5 -55.5t-21.5 -100t-7.5 -150.5zM30 350q0 99 10.5 167t29.5 110.5t45.5 61t58.5 18.5t58.5 -18.5t45.5 -61
t29.5 -110.5t10.5 -167t-10.5 -167t-29.5 -110.5t-45.5 -61t-58.5 -18.5t-58.5 18.5t-45.5 61t-29.5 110.5t-10.5 167z" />
    <glyph glyph-name="one.tab" 
d="M172 700h37v-700h-37v653l-86 -71v38z" />
    <glyph glyph-name="two.tab" 
d="M157 673q-29 0 -49.5 -5.5t-40.5 -13.5v34q17 8 40 13.5t54 5.5q59 0 92.5 -35.5t33.5 -124.5q0 -36 -6.5 -69.5t-16.5 -63.5t-21.5 -56t-21.5 -47l-135 -277h207v-34h-247v32l144 298q9 18 19.5 42t19.5 52.5t15 59.5t6 63q0 36 -6.5 60.5t-18.5 39t-29 20.5t-39 6z" />
    <glyph glyph-name="three.tab" 
d="M143 27q52 0 80.5 41t28.5 125q0 49 -7 80t-20 48.5t-31 24t-39 6.5h-39v33h38q41 0 65 33.5t24 112.5q0 72 -22.5 107t-73.5 35q-26 0 -48 -5.5t-43 -15.5v35q20 9 42 14.5t54 5.5q66 0 97 -45t31 -131q0 -43 -7 -72t-18 -47.5t-23.5 -28t-22.5 -13.5q15 -5 29.5 -16
t26 -31.5t18 -52t6.5 -77.5q0 -103 -37 -151.5t-108 -48.5q-31 0 -54.5 5.5t-43.5 16.5v35q46 -23 97 -23z" />
    <glyph glyph-name="four.tab" 
d="M242 148h-208v29l137 523h40l-137 -518h168v264h37v-264h53v-34h-53v-148h-37v148z" />
    <glyph glyph-name="five.tab" 
d="M147 27q60 0 90 44t30 151q0 49 -6.5 82.5t-19 54t-30 29.5t-39.5 9q-32 0 -53 -11.5t-36 -28.5h-33l16 343h208v-34h-173l-13 -268q14 12 35.5 22.5t53.5 10.5q29 0 52.5 -11.5t40 -36.5t25.5 -64.5t9 -96.5q0 -62 -10.5 -105.5t-30.5 -71t-48 -40t-64 -12.5
q-31 0 -56.5 6t-45.5 16v35q23 -11 47.5 -17t50.5 -6z" />
    <glyph glyph-name="six.tab" 
d="M187 401q-33 0 -62 -24t-49 -56q1 -141 29 -218t79 -77q43 0 67.5 50t24.5 141t-20 137.5t-69 46.5zM201 674q-65 0 -93 -81.5t-31 -231.5q9 13 20.5 26.5t26 24t31.5 17t37 6.5q121 0 121 -218q0 -107 -36.5 -165.5t-92.5 -58.5q-69 0 -106 87t-37 248q0 197 39 288
t119 91q25 0 43 -5.5t32 -13.5v-34q-34 20 -73 20z" />
    <glyph glyph-name="seven.tab" 
d="M41 700h252v-33l-160 -667h-39l160 666h-213v34z" />
    <glyph glyph-name="eight.tab" 
d="M178 386q44 0 66.5 39.5t22.5 106.5q0 66 -21.5 105t-70.5 39q-50 0 -72 -39t-22 -105q0 -67 22.5 -106.5t67.5 -39.5h7zM175 707q66 0 97.5 -47.5t31.5 -125.5q0 -38 -6.5 -66t-17.5 -47.5t-25.5 -31.5t-30.5 -18q17 -7 32.5 -21.5t27 -37t18.5 -53.5t7 -73
q0 -99 -36 -146t-98 -47q-63 0 -99 47t-36 146q0 83 25 127t59 58q-15 6 -29.5 18t-25.5 31.5t-17.5 47.5t-6.5 66q0 78 31.5 125.5t98.5 47.5zM171 355q-44 0 -69 -43.5t-25 -124.5q0 -163 98 -163q96 0 96 163q0 81 -25 124.5t-68 43.5h-7z" />
    <glyph glyph-name="nine.tab" 
d="M164 299q33 0 61.5 22.5t46.5 57.5q-1 141 -29 218t-79 77q-42 0 -67 -50t-25 -141t21.5 -137.5t70.5 -46.5zM147 26q34 0 57.5 21t38 60.5t21 98t8.5 133.5q-17 -29 -45.5 -51.5t-66.5 -22.5q-124 0 -124 218q0 107 36 165.5t92 58.5q69 0 106.5 -87t37.5 -248
q0 -197 -37 -288t-122 -91q-26 0 -45.5 5t-32.5 13v34q32 -19 76 -19z" />
    <glyph glyph-name="G.alt" horiz-adv-x="344" 
d="M210 707q52 0 81 -17v-32q-17 8 -36 11.5t-42 3.5q-41 0 -67.5 -23t-42 -65t-21.5 -100.5t-6 -130.5v-8q0 -72 6.5 -131t22 -101t42 -65t66.5 -23q26 0 47 7v369h36v-393q-16 -8 -38.5 -12t-46.5 -4q-48 0 -81.5 24t-54 70t-29.5 111t-9 148v8q0 83 9 148.5t29.5 111
t53.5 69.5t81 24z" />
    <glyph glyph-name="J.alt" horiz-adv-x="268" 
d="M93 27q24 0 40 7.5t25.5 26.5t13.5 50t4 78v511h38v-516q0 -55 -6.5 -92t-21 -59t-37 -31t-54.5 -9q-21 0 -41 4.5t-35 12.5v32q34 -15 74 -15z" />
    <glyph glyph-name="a.alt" horiz-adv-x="327" 
d="M71 247q0 -107 19.5 -164.5t62.5 -57.5q22 0 38.5 16.5t27 44t15.5 64t5 75.5v104q0 74 -16.5 110.5t-60.5 36.5q-48 0 -69.5 -57t-21.5 -166v-6zM240 111q-7 -53 -30 -85.5t-62 -32.5q-56 0 -84.5 64t-28.5 190v6q0 124 31 189t96 65q62 0 87.5 -49t25.5 -154v-304h-30
q-1 28 -2 55.5t-1 55.5h-2z" />
    <glyph glyph-name="g.alt" horiz-adv-x="327" 
d="M71 253q0 -106 19.5 -163t62.5 -57q22 0 38.5 16.5t27 44t15.5 64t5 75.5v96q0 74 -16.5 110.5t-60.5 36.5q-48 0 -69.5 -55.5t-21.5 -164.5v-3zM241 118q-8 -53 -30.5 -85.5t-62.5 -32.5q-113 0 -113 253v3q0 124 31 187.5t96 63.5q55 0 84 -42t29 -135v-345
q0 -99 -29.5 -145.5t-97.5 -46.5q-26 0 -48.5 5t-39.5 13v33q19 -9 39.5 -14t46.5 -5q53 0 74 40t21 124v129z" />
    <glyph glyph-name="j.alt" horiz-adv-x="144" 
d="M10 -174q27 0 35.5 22t8.5 77v575h36v-547q0 -87 -15.5 -123.5t-58.5 -36.5q-28 0 -47 8v32q11 -3 20.5 -5t20.5 -2zM72 588q-14 0 -20.5 10t-6.5 21t6.5 21t20.5 10t20.5 -10t6.5 -21t-6.5 -21t-20.5 -10z" />
    <glyph glyph-name="q.alt" horiz-adv-x="327" 
d="M71 247q0 -107 19.5 -164.5t62.5 -57.5q22 0 38.5 16.5t27 44t15.5 64t5 75.5v104q0 74 -16.5 110.5t-60.5 36.5q-48 0 -69.5 -57t-21.5 -166v-6zM240 111q-7 -53 -30 -85.5t-62 -32.5q-56 0 -84.5 64t-28.5 190v6q0 124 31 189t96 65q63 0 88 -51t25 -158v-498h-36v200
l3 111h-2z" />
    <glyph glyph-name="u.alt" horiz-adv-x="330" 
d="M165 -7q-59 0 -86.5 46t-27.5 137v324h36v-318q0 -78 17 -117.5t61 -39.5t61 39.5t17 117.5v318h36v-324q0 -91 -27.5 -137t-86.5 -46z" />
    <glyph glyph-name="v.alt" horiz-adv-x="317" 
d="M159 -7q-51 0 -79.5 51t-28.5 155v301h36v-296q0 -179 72 -179q40 0 61 53t21 156q0 91 -18.5 154t-44.5 112h36q25 -44 44 -107.5t19 -158.5q0 -120 -31.5 -180.5t-86.5 -60.5z" />
    <glyph glyph-name="w.alt" horiz-adv-x="465" 
d="M316 -7q-33 0 -54.5 25t-26.5 73h-2q-6 -49 -27.5 -73.5t-53.5 -24.5q-48 0 -74 44.5t-26 148.5v314h36v-308q0 -89 15.5 -128t47.5 -39t48 39t16 128v308h36v-302q0 -85 14.5 -129t50.5 -44q39 0 55.5 53t16.5 156q0 91 -17 154t-43 112h36q25 -44 42.5 -107.5
t17.5 -158.5q0 -241 -108 -241z" />
    <glyph glyph-name="y.alt" horiz-adv-x="335" 
d="M284 -15q0 -99 -30 -145.5t-97 -46.5q-27 0 -50 5.5t-40 13.5v32q19 -8 40 -13.5t47 -5.5q37 0 57 18.5t28.5 55t9.5 91.5t1 128h-1q-3 -24 -10.5 -45t-19.5 -37.5t-29 -26t-39 -9.5q-54 0 -76.5 43t-22.5 124v333h36v-331q0 -68 14.5 -102t54.5 -34q23 0 40 14.5
t28.5 40t17 59.5t5.5 73v280h36v-515z" />
    <glyph glyph-name="Gcircumflex.alt" horiz-adv-x="344" 
d="M210 707q52 0 81 -17v-32q-17 8 -36 11.5t-42 3.5q-41 0 -67.5 -23t-42 -65t-21.5 -100.5t-6 -130.5v-8q0 -72 6.5 -131t22 -101t42 -65t66.5 -23q26 0 47 7v369h36v-393q-16 -8 -38.5 -12t-46.5 -4q-48 0 -81.5 24t-54 70t-29.5 111t-9 148v8q0 83 9 148.5t29.5 111
t53.5 69.5t81 24zM282 761h-26l-59 67l-59 -67h-26l73 102h23z" />
    <glyph glyph-name="Gbreve.alt" horiz-adv-x="344" 
d="M210 707q52 0 81 -17v-32q-17 8 -36 11.5t-42 3.5q-41 0 -67.5 -23t-42 -65t-21.5 -100.5t-6 -130.5v-8q0 -72 6.5 -131t22 -101t42 -65t66.5 -23q26 0 47 7v369h36v-393q-16 -8 -38.5 -12t-46.5 -4q-48 0 -81.5 24t-54 70t-29.5 111t-9 148v8q0 83 9 148.5t29.5 111
t53.5 69.5t81 24zM197 761q-33 0 -54.5 22.5t-23.5 79.5h26q2 -40 15.5 -56.5t36.5 -16.5t36.5 16.5t15.5 56.5h26q-2 -57 -23.5 -79.5t-54.5 -22.5z" />
    <glyph glyph-name="Gdotaccent.alt" horiz-adv-x="344" 
d="M210 707q52 0 81 -17v-32q-17 8 -36 11.5t-42 3.5q-41 0 -67.5 -23t-42 -65t-21.5 -100.5t-6 -130.5v-8q0 -72 6.5 -131t22 -101t42 -65t66.5 -23q26 0 47 7v369h36v-393q-16 -8 -38.5 -12t-46.5 -4q-48 0 -81.5 24t-54 70t-29.5 111t-9 148v8q0 83 9 148.5t29.5 111
t53.5 69.5t81 24zM197 783q-14 0 -20.5 10t-6.5 21t6.5 20.5t20.5 9.5t20.5 -9.5t6.5 -20.5t-6.5 -21t-20.5 -10z" />
    <glyph glyph-name="Gcommaaccent.alt" horiz-adv-x="344" 
d="M210 707q52 0 81 -17v-32q-17 8 -36 11.5t-42 3.5q-41 0 -67.5 -23t-42 -65t-21.5 -100.5t-6 -130.5v-8q0 -72 6.5 -131t22 -101t42 -65t66.5 -23q26 0 47 7v369h36v-393q-16 -8 -38.5 -12t-46.5 -4q-48 0 -81.5 24t-54 70t-29.5 111t-9 148v8q0 83 9 148.5t29.5 111
t53.5 69.5t81 24zM191 -56l37 -8l-33 -157l-22 6z" />
    <glyph glyph-name="IJ.alt" horiz-adv-x="328" 
d="M96 190h-38v510h38v-510zM148 26q23 0 40 8t27.5 26.5t15.5 50t5 78.5v511h37v-516q0 -55 -7.5 -92t-23 -59t-39 -31t-54.5 -9q-28 0 -51.5 6.5t-39.5 14.5v33q17 -9 40.5 -15t49.5 -6z" />
    <glyph glyph-name="Jcircumflex.alt" horiz-adv-x="268" 
d="M93 27q24 0 40 7.5t25.5 26.5t13.5 50t4 78v511h38v-516q0 -55 -6.5 -92t-21 -59t-37 -31t-54.5 -9q-21 0 -41 4.5t-35 12.5v32q34 -15 74 -15zM219 761h-26l-59 67l-59 -67h-26l73 102h23z" />
    <glyph glyph-name="aacute.alt" horiz-adv-x="327" 
d="M71 247q0 -107 19.5 -164.5t62.5 -57.5q22 0 38.5 16.5t27 44t15.5 64t5 75.5v104q0 74 -16.5 110.5t-60.5 36.5q-48 0 -69.5 -57t-21.5 -166v-6zM240 111q-7 -53 -30 -85.5t-62 -32.5q-56 0 -84.5 64t-28.5 190v6q0 124 31 189t96 65q62 0 87.5 -49t25.5 -154v-304h-30
q-1 28 -2 55.5t-1 55.5h-2zM220 652l14 -33l-132 -64l-11 20z" />
    <glyph glyph-name="agrave.alt" horiz-adv-x="327" 
d="M71 247q0 -107 19.5 -164.5t62.5 -57.5q22 0 38.5 16.5t27 44t15.5 64t5 75.5v104q0 74 -16.5 110.5t-60.5 36.5q-48 0 -69.5 -57t-21.5 -166v-6zM240 111q-7 -53 -30 -85.5t-62 -32.5q-56 0 -84.5 64t-28.5 190v6q0 124 31 189t96 65q62 0 87.5 -49t25.5 -154v-304h-30
q-1 28 -2 55.5t-1 55.5h-2zM234 575l-10 -20l-133 64l15 33z" />
    <glyph glyph-name="acircumflex.alt" horiz-adv-x="327" 
d="M71 247q0 -107 19.5 -164.5t62.5 -57.5q22 0 38.5 16.5t27 44t15.5 64t5 75.5v104q0 74 -16.5 110.5t-60.5 36.5q-48 0 -69.5 -57t-21.5 -166v-6zM240 111q-7 -53 -30 -85.5t-62 -32.5q-56 0 -84.5 64t-28.5 190v6q0 124 31 189t96 65q62 0 87.5 -49t25.5 -154v-304h-30
q-1 28 -2 55.5t-1 55.5h-2zM248 561h-26l-59 67l-59 -67h-26l73 102h23z" />
    <glyph glyph-name="adieresis.alt" horiz-adv-x="327" 
d="M71 247q0 -107 19.5 -164.5t62.5 -57.5q22 0 38.5 16.5t27 44t15.5 64t5 75.5v104q0 74 -16.5 110.5t-60.5 36.5q-48 0 -69.5 -57t-21.5 -166v-6zM240 111q-7 -53 -30 -85.5t-62 -32.5q-56 0 -84.5 64t-28.5 190v6q0 124 31 189t96 65q62 0 87.5 -49t25.5 -154v-304h-30
q-1 28 -2 55.5t-1 55.5h-2zM108 620q14 0 19.5 -9t5.5 -20t-5.5 -20t-19.5 -9t-19.5 9t-5.5 20t5.5 20t19.5 9zM218 620q14 0 19.5 -9t5.5 -20t-5.5 -20t-19.5 -9t-20 9t-6 20t6 20t20 9z" />
    <glyph glyph-name="atilde.alt" horiz-adv-x="327" 
d="M71 247q0 -107 19.5 -164.5t62.5 -57.5q22 0 38.5 16.5t27 44t15.5 64t5 75.5v104q0 74 -16.5 110.5t-60.5 36.5q-48 0 -69.5 -57t-21.5 -166v-6zM240 111q-7 -53 -30 -85.5t-62 -32.5q-56 0 -84.5 64t-28.5 190v6q0 124 31 189t96 65q62 0 87.5 -49t25.5 -154v-304h-30
q-1 28 -2 55.5t-1 55.5h-2zM205 561q-14 0 -25 11t-21.5 23.5t-19.5 23.5t-18 11q-14 0 -21 -19t-8 -48h-22q1 44 13 71.5t38 27.5q13 0 24.5 -11t21.5 -23.5t19.5 -23.5t18.5 -11q13 0 20 19t8 48h22q-1 -43 -13 -71t-37 -28z" />
    <glyph glyph-name="aring.alt" horiz-adv-x="327" 
d="M102 646q0 45 18.5 63.5t42.5 18.5t42.5 -18.5t18.5 -63.5t-18.5 -64t-42.5 -19t-42.5 19t-18.5 64zM197 646q0 31 -9.5 44.5t-24.5 13.5t-24.5 -13.5t-9.5 -44.5q0 -32 9.5 -45t24.5 -13t24.5 13t9.5 45zM71 247q0 -107 19.5 -164.5t62.5 -57.5q22 0 38.5 16.5t27 44
t15.5 64t5 75.5v104q0 74 -16.5 110.5t-60.5 36.5q-48 0 -69.5 -57t-21.5 -166v-6zM240 111q-7 -53 -30 -85.5t-62 -32.5q-56 0 -84.5 64t-28.5 190v6q0 124 31 189t96 65q62 0 87.5 -49t25.5 -154v-304h-30q-1 28 -2 55.5t-1 55.5h-2z" />
    <glyph glyph-name="amacron.alt" horiz-adv-x="327" 
d="M71 247q0 -107 19.5 -164.5t62.5 -57.5q22 0 38.5 16.5t27 44t15.5 64t5 75.5v104q0 74 -16.5 110.5t-60.5 36.5q-48 0 -69.5 -57t-21.5 -166v-6zM240 111q-7 -53 -30 -85.5t-62 -32.5q-56 0 -84.5 64t-28.5 190v6q0 124 31 189t96 65q62 0 87.5 -49t25.5 -154v-304h-30
q-1 28 -2 55.5t-1 55.5h-2zM245 595v-28h-164v28h164z" />
    <glyph glyph-name="abreve.alt" horiz-adv-x="327" 
d="M71 247q0 -107 19.5 -164.5t62.5 -57.5q22 0 38.5 16.5t27 44t15.5 64t5 75.5v104q0 74 -16.5 110.5t-60.5 36.5q-48 0 -69.5 -57t-21.5 -166v-6zM240 111q-7 -53 -30 -85.5t-62 -32.5q-56 0 -84.5 64t-28.5 190v6q0 124 31 189t96 65q62 0 87.5 -49t25.5 -154v-304h-30
q-1 28 -2 55.5t-1 55.5h-2zM163 561q-33 0 -54.5 22.5t-23.5 79.5h26q2 -40 15.5 -56.5t36.5 -16.5t36.5 16.5t15.5 56.5h26q-2 -57 -23.5 -79.5t-54.5 -22.5z" />
    <glyph glyph-name="aogonek.alt" horiz-adv-x="327" 
d="M240 111q-7 -53 -30 -85.5t-62 -32.5q-56 0 -84.5 64t-28.5 190v6q0 124 31 189t96 65q62 0 87.5 -49t25.5 -154v-304q-23 -14 -35 -39t-12 -50q0 -22 10.5 -30t25.5 -8q19 0 35 8v-28q-19 -11 -44 -11q-10 0 -20 3t-18.5 10t-14 19t-5.5 30q0 34 15.5 58t32.5 38
q-1 28 -2 55.5t-1 55.5h-2zM71 247q0 -107 19.5 -164.5t62.5 -57.5q22 0 38.5 16.5t27 44t15.5 64t5 75.5v104q0 74 -16.5 110.5t-60.5 36.5q-48 0 -69.5 -57t-21.5 -166v-6z" />
    <glyph glyph-name="aringacute.alt" horiz-adv-x="327" 
d="M102 639q0 45 18.5 63.5t42.5 18.5t42.5 -18.5t18.5 -63.5t-18.5 -64t-42.5 -19t-42.5 19t-18.5 64zM197 639q0 31 -9.5 44.5t-24.5 13.5t-24.5 -13.5t-9.5 -44.5q0 -32 9.5 -45t24.5 -13t24.5 13t9.5 45zM71 247q0 -107 19.5 -164.5t62.5 -57.5q22 0 38.5 16.5t27 44
t15.5 64t5 75.5v104q0 74 -16.5 110.5t-60.5 36.5q-48 0 -69.5 -57t-21.5 -166v-6zM240 111q-7 -53 -30 -85.5t-62 -32.5q-56 0 -84.5 64t-28.5 190v6q0 124 31 189t96 65q62 0 87.5 -49t25.5 -154v-304h-30q-1 28 -2 55.5t-1 55.5h-2zM220 845l14 -33l-132 -64l-11 20z" />
    <glyph glyph-name="gcircumflex.alt" horiz-adv-x="327" 
d="M71 253q0 -106 19.5 -163t62.5 -57q22 0 38.5 16.5t27 44t15.5 64t5 75.5v96q0 74 -16.5 110.5t-60.5 36.5q-48 0 -69.5 -55.5t-21.5 -164.5v-3zM241 118q-8 -53 -30.5 -85.5t-62.5 -32.5q-113 0 -113 253v3q0 124 31 187.5t96 63.5q55 0 84 -42t29 -135v-345
q0 -99 -29.5 -145.5t-97.5 -46.5q-26 0 -48.5 5t-39.5 13v33q19 -9 39.5 -14t46.5 -5q53 0 74 40t21 124v129zM248 561h-26l-59 67l-59 -67h-26l73 102h23z" />
    <glyph glyph-name="gbreve.alt" horiz-adv-x="327" 
d="M163 561q-33 0 -54.5 22.5t-23.5 79.5h26q2 -40 15.5 -56.5t36.5 -16.5t36.5 16.5t15.5 56.5h26q-2 -57 -23.5 -79.5t-54.5 -22.5zM71 253q0 -106 19.5 -163t62.5 -57q22 0 38.5 16.5t27 44t15.5 64t5 75.5v96q0 74 -16.5 110.5t-60.5 36.5q-48 0 -69.5 -55.5
t-21.5 -164.5v-3zM241 118q-8 -53 -30.5 -85.5t-62.5 -32.5q-113 0 -113 253v3q0 124 31 187.5t96 63.5q55 0 84 -42t29 -135v-345q0 -99 -29.5 -145.5t-97.5 -46.5q-26 0 -48.5 5t-39.5 13v33q19 -9 39.5 -14t46.5 -5q53 0 74 40t21 124v129z" />
    <glyph glyph-name="gdotaccent.alt" horiz-adv-x="327" 
d="M71 253q0 -106 19.5 -163t62.5 -57q22 0 38.5 16.5t27 44t15.5 64t5 75.5v96q0 74 -16.5 110.5t-60.5 36.5q-48 0 -69.5 -55.5t-21.5 -164.5v-3zM241 118q-8 -53 -30.5 -85.5t-62.5 -32.5q-113 0 -113 253v3q0 124 31 187.5t96 63.5q55 0 84 -42t29 -135v-345
q0 -99 -29.5 -145.5t-97.5 -46.5q-26 0 -48.5 5t-39.5 13v33q19 -9 39.5 -14t46.5 -5q53 0 74 40t21 124v129zM163 583q-14 0 -20.5 10t-6.5 21t6.5 20.5t20.5 9.5t20.5 -9.5t6.5 -20.5t-6.5 -21t-20.5 -10z" />
    <glyph glyph-name="gcommaaccent.alt" horiz-adv-x="327" 
d="M71 253q0 -106 19.5 -163t62.5 -57q22 0 38.5 16.5t27 44t15.5 64t5 75.5v96q0 74 -16.5 110.5t-60.5 36.5q-48 0 -69.5 -55.5t-21.5 -164.5v-3zM241 118q-8 -53 -30.5 -85.5t-62.5 -32.5q-113 0 -113 253v3q0 124 31 187.5t96 63.5q55 0 84 -42t29 -135v-345
q0 -99 -29.5 -145.5t-97.5 -46.5q-26 0 -48.5 5t-39.5 13v33q19 -9 39.5 -14t46.5 -5q53 0 74 40t21 124v129zM184.005 565.996l-36.998 8l32.998 156.99l21.999 -5.99902z" />
    <glyph glyph-name="ij.alt" horiz-adv-x="280" 
d="M90 0h-36v500h36v-500zM72 588q-14 0 -20.5 10t-6.5 21t6.5 21t20.5 10t20.5 -10t6.5 -21t-6.5 -21t-20.5 -10zM122 -174q38 0 53 28.5t15 88.5v557h36v-528q0 -91 -21.5 -135t-78.5 -44q-20 0 -39.5 3t-32.5 9v32q30 -11 68 -11zM207 588q-14 0 -20.5 10t-6.5 21t6.5 21
t20.5 10q15 0 21 -10t6 -21t-6 -21t-21 -10z" />
    <glyph glyph-name="jcircumflex.alt" horiz-adv-x="144" 
d="M157 561h-26l-59 67l-59 -67h-26l73 102h23zM10 -174q27 0 35.5 22t8.5 77v575h36v-576q0 -71 -17.5 -101t-56.5 -30q-28 0 -47 8v32q11 -3 20.5 -5t20.5 -2z" />
    <glyph glyph-name="dotlessj.alt" horiz-adv-x="144" 
d="M10 -174q27 0 35.5 22t8.5 77v575h36v-576q0 -71 -17.5 -101t-56.5 -30q-28 0 -47 8v32q11 -3 20.5 -5t20.5 -2z" />
    <glyph glyph-name="uacute.alt" horiz-adv-x="330" 
d="M222 652l14 -33l-132 -64l-11 20zM165 -7q-59 0 -86.5 46t-27.5 137v324h36v-318q0 -78 17 -117.5t61 -39.5t61 39.5t17 117.5v318h36v-324q0 -91 -27.5 -137t-86.5 -46z" />
    <glyph glyph-name="ugrave.alt" horiz-adv-x="330" 
d="M236 575l-10 -20l-133 64l15 33zM165 -7q-59 0 -86.5 46t-27.5 137v324h36v-318q0 -78 17 -117.5t61 -39.5t61 39.5t17 117.5v318h36v-324q0 -91 -27.5 -137t-86.5 -46z" />
    <glyph glyph-name="ucircumflex.alt" horiz-adv-x="330" 
d="M165 -7q-59 0 -86.5 46t-27.5 137v324h36v-318q0 -78 17 -117.5t61 -39.5t61 39.5t17 117.5v318h36v-324q0 -91 -27.5 -137t-86.5 -46zM250 561h-26l-59 67l-59 -67h-26l73 102h23z" />
    <glyph glyph-name="udieresis.alt" horiz-adv-x="330" 
d="M165 -7q-59 0 -86.5 46t-27.5 137v324h36v-318q0 -78 17 -117.5t61 -39.5t61 39.5t17 117.5v318h36v-324q0 -91 -27.5 -137t-86.5 -46zM110 620q14 0 19.5 -9t5.5 -20t-5.5 -20t-19.5 -9t-19.5 9t-5.5 20t5.5 20t19.5 9zM220 620q14 0 19.5 -9t5.5 -20t-5.5 -20t-19.5 -9
t-20 9t-6 20t6 20t20 9z" />
    <glyph glyph-name="utilde.alt" horiz-adv-x="330" 
d="M207 561q-14 0 -25 11t-21.5 23.5t-19.5 23.5t-18 11q-14 0 -21 -19t-8 -48h-22q1 44 13 71.5t38 27.5q13 0 24.5 -11t21.5 -23.5t19.5 -23.5t18.5 -11q13 0 20 19t8 48h22q-1 -43 -13 -71t-37 -28zM165 -7q-59 0 -86.5 46t-27.5 137v324h36v-318q0 -78 17 -117.5
t61 -39.5t61 39.5t17 117.5v318h36v-324q0 -91 -27.5 -137t-86.5 -46z" />
    <glyph glyph-name="umacron.alt" horiz-adv-x="330" 
d="M165 -7q-59 0 -86.5 46t-27.5 137v324h36v-318q0 -78 17 -117.5t61 -39.5t61 39.5t17 117.5v318h36v-324q0 -91 -27.5 -137t-86.5 -46zM247 595v-28h-164v28h164z" />
    <glyph glyph-name="ubreve.alt" horiz-adv-x="330" 
d="M165 561q-33 0 -54.5 22.5t-23.5 79.5h26q2 -40 15.5 -56.5t36.5 -16.5t36.5 16.5t15.5 56.5h26q-2 -57 -23.5 -79.5t-54.5 -22.5zM165 -7q-59 0 -86.5 46t-27.5 137v324h36v-318q0 -78 17 -117.5t61 -39.5t61 39.5t17 117.5v318h36v-324q0 -91 -27.5 -137t-86.5 -46z
" />
    <glyph glyph-name="uring.alt" horiz-adv-x="330" 
d="M104 646q0 45 18.5 63.5t42.5 18.5t42.5 -18.5t18.5 -63.5t-18.5 -64t-42.5 -19t-42.5 19t-18.5 64zM199 646q0 31 -9.5 44.5t-24.5 13.5t-24.5 -13.5t-9.5 -44.5q0 -32 9.5 -45t24.5 -13t24.5 13t9.5 45zM165 -7q-59 0 -86.5 46t-27.5 137v324h36v-318q0 -78 17 -117.5
t61 -39.5t61 39.5t17 117.5v318h36v-324q0 -91 -27.5 -137t-86.5 -46z" />
    <glyph glyph-name="uhungarumlaut.alt" horiz-adv-x="330" 
d="M165 -7q-59 0 -86.5 46t-27.5 137v324h36v-318q0 -78 17 -117.5t61 -39.5t61 39.5t17 117.5v318h36v-324q0 -91 -27.5 -137t-86.5 -46zM134 685l34 -13l-42 -121l-20 7zM225 685l35 -13l-43 -121l-19 7z" />
    <glyph glyph-name="uogonek.alt" horiz-adv-x="330" 
d="M165 -7q-59 0 -86.5 46t-27.5 137v324h36v-318q0 -78 17 -117.5t61 -39.5t61 39.5t17 117.5v318h36v-324q0 -152 -78 -177q-22 -15 -33 -39.5t-11 -48.5q0 -22 10.5 -30t25.5 -8q19 0 35 8v-28q-19 -11 -44 -11q-10 0 -20 3t-18.5 10t-14 19t-5.5 30q0 29 12 52t28 37h-1
v0z" />
    <glyph glyph-name="wcircumflex.alt" horiz-adv-x="465" 
d="M316 -7q-33 0 -54.5 25t-26.5 73h-2q-6 -49 -27.5 -73.5t-53.5 -24.5q-48 0 -74 44.5t-26 148.5v314h36v-308q0 -89 15.5 -128t47.5 -39t48 39t16 128v308h36v-302q0 -85 14.5 -129t50.5 -44q39 0 55.5 53t16.5 156q0 91 -17 154t-43 112h36q25 -44 42.5 -107.5
t17.5 -158.5q0 -241 -108 -241zM318 561h-26l-59 67l-59 -67h-26l73 102h23z" />
    <glyph glyph-name="wgrave.alt" horiz-adv-x="465" 
d="M304 575l-10 -20l-133 64l15 33zM316 -7q-33 0 -54.5 25t-26.5 73h-2q-6 -49 -27.5 -73.5t-53.5 -24.5q-48 0 -74 44.5t-26 148.5v314h36v-308q0 -89 15.5 -128t47.5 -39t48 39t16 128v308h36v-302q0 -85 14.5 -129t50.5 -44q39 0 55.5 53t16.5 156q0 91 -17 154t-43 112
h36q25 -44 42.5 -107.5t17.5 -158.5q0 -241 -108 -241z" />
    <glyph glyph-name="wacute.alt" horiz-adv-x="465" 
d="M290 652l14 -33l-132 -64l-11 20zM316 -7q-33 0 -54.5 25t-26.5 73h-2q-6 -49 -27.5 -73.5t-53.5 -24.5q-48 0 -74 44.5t-26 148.5v314h36v-308q0 -89 15.5 -128t47.5 -39t48 39t16 128v308h36v-302q0 -85 14.5 -129t50.5 -44q39 0 55.5 53t16.5 156q0 91 -17 154
t-43 112h36q25 -44 42.5 -107.5t17.5 -158.5q0 -241 -108 -241z" />
    <glyph glyph-name="wdieresis.alt" horiz-adv-x="465" 
d="M316 -7q-33 0 -54.5 25t-26.5 73h-2q-6 -49 -27.5 -73.5t-53.5 -24.5q-48 0 -74 44.5t-26 148.5v314h36v-308q0 -89 15.5 -128t47.5 -39t48 39t16 128v308h36v-302q0 -85 14.5 -129t50.5 -44q39 0 55.5 53t16.5 156q0 91 -17 154t-43 112h36q25 -44 42.5 -107.5
t17.5 -158.5q0 -241 -108 -241zM178 620q14 0 19.5 -9t5.5 -20t-5.5 -20t-19.5 -9t-19.5 9t-5.5 20t5.5 20t19.5 9zM288 620q14 0 19.5 -9t5.5 -20t-5.5 -20t-19.5 -9t-20 9t-6 20t6 20t20 9z" />
    <glyph glyph-name="ydieresis.alt" horiz-adv-x="335" 
d="M284 -15q0 -99 -30 -145.5t-97 -46.5q-27 0 -50 5.5t-40 13.5v32q19 -8 40 -13.5t47 -5.5q37 0 57 18.5t28.5 55t9.5 91.5t1 128h-1q-3 -24 -10.5 -45t-19.5 -37.5t-29 -26t-39 -9.5q-54 0 -76.5 43t-22.5 124v333h36v-331q0 -68 14.5 -102t54.5 -34q23 0 40 14.5
t28.5 40t17 59.5t5.5 73v280h36v-515zM113 620q14 0 19.5 -9t5.5 -20t-5.5 -20t-19.5 -9t-19.5 9t-5.5 20t5.5 20t19.5 9zM223 620q14 0 19.5 -9t5.5 -20t-5.5 -20t-19.5 -9t-20 9t-6 20t6 20t20 9z" />
    <glyph glyph-name="yacute.alt" horiz-adv-x="335" 
d="M225 652l14 -33l-132 -64l-11 20zM284 -15q0 -99 -30 -145.5t-97 -46.5q-27 0 -50 5.5t-40 13.5v32q19 -8 40 -13.5t47 -5.5q37 0 57 18.5t28.5 55t9.5 91.5t1 128h-1q-3 -24 -10.5 -45t-19.5 -37.5t-29 -26t-39 -9.5q-54 0 -76.5 43t-22.5 124v333h36v-331
q0 -68 14.5 -102t54.5 -34q23 0 40 14.5t28.5 40t17 59.5t5.5 73v280h36v-515z" />
    <glyph glyph-name="ycircumflex.alt" horiz-adv-x="335" 
d="M284 -15q0 -99 -30 -145.5t-97 -46.5q-27 0 -50 5.5t-40 13.5v32q19 -8 40 -13.5t47 -5.5q37 0 57 18.5t28.5 55t9.5 91.5t1 128h-1q-3 -24 -10.5 -45t-19.5 -37.5t-29 -26t-39 -9.5q-54 0 -76.5 43t-22.5 124v333h36v-331q0 -68 14.5 -102t54.5 -34q23 0 40 14.5
t28.5 40t17 59.5t5.5 73v280h36v-515zM253 561h-26l-59 67l-59 -67h-26l73 102h23z" />
    <glyph glyph-name="ygrave.alt" horiz-adv-x="335" 
d="M239 575l-10 -20l-133 64l15 33zM284 -15q0 -99 -30 -145.5t-97 -46.5q-27 0 -50 5.5t-40 13.5v32q19 -8 40 -13.5t47 -5.5q37 0 57 18.5t28.5 55t9.5 91.5t1 128h-1q-3 -24 -10.5 -45t-19.5 -37.5t-29 -26t-39 -9.5q-54 0 -76.5 43t-22.5 124v333h36v-331
q0 -68 14.5 -102t54.5 -34q23 0 40 14.5t28.5 40t17 59.5t5.5 73v280h36v-515z" />
    </font>
</defs>
</svg>
