<?xml version="1.0" standalone="no"?>
<!DOCTYPE svg PUBLIC "-//W3C//DTD SVG 1.1//EN" "http://www.w3.org/Graphics/SVG/1.1/DTD/svg11.dtd" >
<svg xmlns="http://www.w3.org/2000/svg" width="100%" height="100%">
<metadata>
Created by FontXChange 20110222 at Tue May 19 22:35:37 2015
 By NO
(c) 2012, 2013, 2014 by Stawix Ruecha &#38; Foundry. All rights reserved.
</metadata>
<defs>
<font id="Rleud-Bold" horiz-adv-x="592" >
  <font-face 
    font-family="Rleud"
    font-weight="400"
    font-stretch="normal"
    units-per-em="1000"
    panose-1="2 11 5 3 0 0 0 2 0 4"
    ascent="772"
    descent="-228"
    x-height="500"
    cap-height="700"
    bbox="-159 -269 2186 1053"
    underline-thickness="65"
    underline-position="-76"
    unicode-range="U+000D-FB02"
  />
<missing-glyph horiz-adv-x="520" 
d="M10 700h500v-700h-500v700zM430 650h-340l170 -255zM460 95v510l-170 -255zM430 50l-170 255l-170 -255h340zM60 95l170 255l-170 255v-510z" />
    <glyph glyph-name="fi" unicode="fi" horiz-adv-x="625" 
d="M564 0h-150v395h-169v-395h-149v395h-88v105h88v19q0 42 11.5 77t38.5 60.5t70.5 39.5t107.5 14q47 0 84.5 -6t61.5 -14l-5 -103q-23 6 -49 10t-54 4q-68 0 -93 -23t-25 -63v-15h320v-500z" />
    <glyph glyph-name="fl" unicode="fl" horiz-adv-x="637" 
d="M575 0h-149v596q-29 7 -68 7q-66 0 -90 -24.5t-24 -63.5v-15h111v-105h-110v-395h-149v395h-88v105h88v20q0 43 12 78t41 60t77.5 38.5t122.5 13.5q63 0 124.5 -9t101.5 -20v-681z" />
    <glyph glyph-name="f_b" unicode="fb" horiz-adv-x="970" 
d="M685 396q-56 0 -82.5 -35.5t-26.5 -88.5v-16q0 -67 25 -109t84 -42q49 0 71.5 31.5t22.5 103.5v21q0 67 -21.5 101t-72.5 34zM576 509q0 -20 -1 -43t-3 -46h1q19 37 58.5 63.5t105.5 26.5q101 0 145 -65t44 -184v-22q0 -133 -49 -191.5t-144 -58.5q-65 0 -104 29t-53 70
h-2l-9 -88h-139v596q-29 7 -68 7q-65 0 -89.5 -24t-24.5 -64v-15h111v-105h-110v-395h-149v395h-88v105h88v20q0 43 12 78t41 60t77.5 38.5t122.5 13.5q31 0 63 -2.5t62 -6.5t56 -9t46 -11v-172z" />
    <glyph glyph-name="f_f" unicode="ff" horiz-adv-x="730" 
d="M647 601q-44 0 -61 -18t-17 -60v-23h143v-105h-143v-395h-148v395h-176v-395h-149v395h-88v105h88v41q0 38 10 69.5t32 53.5t55.5 34t81.5 12q27 0 50 -3.5t46 -10.5l-5 -105q-15 4 -28 6t-28 2q-37 0 -51.5 -16.5t-14.5 -48.5v-34h177v34q0 41 10 74t33 55.5t59 34.5
t89 12q34 0 64 -5t53 -13l-5 -102q-35 11 -77 11z" />
    <glyph glyph-name="f_h" unicode="fh" horiz-adv-x="978" 
d="M576 510q0 -21 -1 -47.5t-3 -49.5h1q8 18 22.5 35.5t35.5 31.5t49.5 22.5t65.5 8.5q95 0 134 -51.5t39 -160.5v-299h-150v285q0 54 -16.5 77.5t-61.5 23.5q-62 0 -88.5 -42.5t-26.5 -120.5v-223h-150v596q-29 7 -68 7q-66 0 -90 -24t-24 -64v-15h111v-105h-110v-395h-149
v395h-88v105h88v20q0 43 12 78t41 60t77.5 38.5t122.5 13.5q31 0 63 -2.5t62 -6.5t56 -9t46 -11v-171z" />
    <glyph glyph-name="f_j" unicode="fj" horiz-adv-x="625" 
d="M564 -14q0 -107 -45.5 -152t-130.5 -45q-39 0 -72 7.5t-57 21.5l25 104q19 -10 36 -14t34 -4q34 0 47 18.5t13 65.5v407h-169v-395h-149v395h-88v105h88v19q0 42 12 78t40.5 61.5t74.5 39t114 12.5q42 -1 76 -6.5t57 -13.5l-5 -103q-23 6 -49 10t-54 4q-68 0 -93 -23
t-25 -63v-15h320v-514z" />
    <glyph glyph-name="f_k" unicode="fk" horiz-adv-x="943" 
d="M760 500h170l-176 -197l181 -303h-156l-123 212l-80 -85v-127h-150v596q-29 7 -68 7q-66 0 -90 -24.5t-24 -63.5v-15h111v-105h-110v-395h-149v395h-88v105h88v20q0 43 12 78t41 60t77.5 38.5t122.5 13.5q31 0 63 -2.5t62 -6.5t56 -9t46 -11v-383z" />
    <glyph glyph-name="t_t" unicode="tt" horiz-adv-x="816" 
d="M244 185q0 -42 14 -60t54 -18t82 18l21 -102q-27 -14 -61 -23.5t-80 -9.5q-99 0 -138.5 49.5t-39.5 144.5v211h-88v105h89l26 174h121v-174h235l26 174h121v-174h157v-105h-156v-210q0 -44 15 -61t54 -17q21 0 41.5 5t42.5 14l21 -102q-27 -14 -62 -24t-81 -10
q-99 0 -139.5 49.5t-40.5 144.5v211h-234v-210z" />
    <glyph glyph-name="f_t" unicode="ft" horiz-adv-x="761" 
d="M424 500l28 161h119v-161h157v-105h-157v-209q0 -43 15 -61t54 -18q23 0 43 5t42 14l21 -101q-26 -15 -61.5 -25t-79.5 -10q-99 0 -140.5 49.5t-41.5 153.5v202h-178v-395h-149v395h-88v105h88v41q0 38 10 69.5t32 53.5t56 34t81 12q29 0 52 -3.5t45 -10.5l-5 -105
q-15 4 -28.5 6t-28.5 2q-36 0 -51 -16.5t-15 -48.5v-34h180z" />
    <glyph glyph-name="f_f_j" unicode="ffj" horiz-adv-x="950" 
d="M421 519q0 42 12 78t40 61.5t74.5 39t114.5 12.5q42 -1 75.5 -6.5t56.5 -13.5l-5 -103q-22 6 -48.5 10t-54.5 4q-68 0 -92.5 -23t-24.5 -63v-15h319v-513q0 -107 -45 -152.5t-131 -45.5q-39 0 -71.5 7.5t-57.5 21.5l26 104q18 -10 35.5 -14t34.5 -4q36 0 48 21.5t12 67.5
v402h-170v-395h-148v395h-176v-395h-149v395h-88v105h88v41q0 38 10 69.5t32 53.5t55.5 34t81.5 12q28 0 50.5 -3.5t45.5 -10.5l-5 -105q-15 4 -28 6t-28 2q-37 0 -51.5 -16.5t-14.5 -48.5v-34h177v19z" />
    <glyph glyph-name="f_f_t" unicode="fft" horiz-adv-x="1087" 
d="M421 541q0 38 10 69.5t32 53.5t56 34t81 12q29 0 51.5 -3.5t45.5 -10.5l-5 -105q-15 4 -28.5 6t-28.5 2q-36 0 -51 -16.5t-15 -48.5v-34h180l27 161h120v-161h156v-105h-156v-210q0 -44 15 -61.5t53 -17.5q23 0 43.5 5t42.5 14l21 -101q-27 -15 -61.5 -25t-79.5 -10
q-94 0 -138 44t-44 139v223h-179v-395h-148v395h-176v-395h-149v395h-88v105h88v41q0 38 10 69.5t32 53.5t55.5 34t81.5 12q28 0 50.5 -3.5t45.5 -10.5l-5 -105q-15 4 -28 6t-28 2q-37 0 -51.5 -16.5t-14.5 -48.5v-34h177v41z" />
    <glyph glyph-name="f_f_i" unicode="ffi" horiz-adv-x="950" 
d="M421 521q0 41 11 76t37 60t68.5 39t105.5 14q45 0 82.5 -6t60.5 -14l-5 -103q-45 14 -100 14q-65 0 -88.5 -23t-23.5 -61v-17h319v-500h-148v395h-171v-395h-148v395h-176v-395h-149v395h-88v105h88v41q0 38 10 69.5t32 53.5t55.5 34t81.5 12q28 0 50.5 -3.5t45.5 -10.5
l-5 -105q-15 4 -28 6t-28 2q-37 0 -51.5 -16.5t-14.5 -48.5v-34h177v21z" />
    <glyph glyph-name="f_f_l" unicode="ffl" horiz-adv-x="961" 
d="M421 520q0 43 12 78t41 60t77.5 38.5t122.5 13.5q63 0 124.5 -9t101.5 -20v-681h-149v596q-31 7 -68 7q-66 0 -90 -24.5t-24 -63.5v-15h111v-105h-111v-395h-148v395h-176v-395h-149v395h-88v105h88v41q0 38 10 69.5t32 53.5t55.5 34t81.5 12q28 0 50.5 -3.5t45.5 -10.5
l-5 -105q-15 4 -28 6t-28 2q-37 0 -51.5 -16.5t-14.5 -48.5v-34h177v20z" />
    <glyph glyph-name="f_f_b" unicode="ffb" horiz-adv-x="1294" 
d="M1010 396q-51 0 -80 -33.5t-29 -81.5v-27q0 -32 6 -59.5t19 -47.5t34 -31t50 -11q49 0 71 31.5t22 103.5v21q0 67 -21 101t-72 34zM569 0h-148v395h-176v-395h-149v395h-88v105h88v34q0 40 9.5 72.5t31 55.5t55.5 35.5t83 12.5q28 0 50.5 -3.5t45.5 -10.5l-5 -105
q-15 4 -28 6t-28 2q-37 0 -51.5 -16.5t-14.5 -48.5v-34h177v18q0 43 11.5 78.5t40.5 61t77.5 39t123.5 13.5q31 0 63 -2.5t62 -6.5t56 -9t46 -11v-172q0 -20 -1.5 -43t-3.5 -46h2q18 38 57 64t105 26q54 0 90.5 -19t58.5 -53t31.5 -79.5t9.5 -97.5v-22q0 -133 -49 -192
t-144 -59q-32 0 -58 8.5t-45.5 22t-33 31.5t-20.5 38h-2l-9 -88h-138v596q-31 7 -68 7q-66 0 -90 -24.5t-24 -63.5v-15h111v-105h-111v-395z" />
    <glyph glyph-name="f_f_h" unicode="ffh" horiz-adv-x="1303" 
d="M421 520q0 43 12 78t41 60t77.5 38.5t122.5 13.5q31 0 63 -2.5t62 -6.5t56 -9t46 -11v-171q0 -20 -1.5 -47.5t-3.5 -49.5h2q8 18 22.5 35.5t35.5 31.5t49.5 22.5t65.5 8.5q92 0 132.5 -50t40.5 -153v-308h-150v285q0 54 -16.5 77.5t-61.5 23.5q-56 0 -85.5 -36.5
t-29.5 -104.5v-245h-150v596q-31 7 -68 7q-66 0 -90 -24.5t-24 -63.5v-15h111v-105h-111v-395h-148v395h-176v-395h-149v395h-88v105h88v41q0 38 10 69.5t32 53.5t55.5 34t81.5 12q28 0 50.5 -3.5t45.5 -10.5l-5 -105q-15 4 -28 6t-28 2q-37 0 -51.5 -16.5t-14.5 -48.5v-34
h177v20z" />
    <glyph glyph-name="f_f_k" unicode="ffk" horiz-adv-x="1267" 
d="M1084 500h170l-175 -197l180 -303h-156l-122 212l-80 -85v-127h-150v596q-31 7 -68 7q-66 0 -90 -24.5t-24 -63.5v-15h111v-105h-111v-395h-148v395h-176v-395h-149v395h-88v105h88v41q0 38 10 69.5t32 53.5t55.5 34t81.5 12q28 0 50.5 -3.5t45.5 -10.5l-5 -106
q-15 4 -28 6t-28 2q-37 0 -51.5 -16t-14.5 -48v-34h177v20q0 43 12 78t41 60t77.5 38.5t122.5 13.5q31 0 63 -2.5t62 -6.5t56 -9t46 -11v-383z" />
    <glyph glyph-name=".notdef" horiz-adv-x="520" 
d="M10 700h500v-700h-500v700zM430 650h-340l170 -255zM460 95v510l-170 -255zM430 50l-170 255l-170 -255h340zM60 95l170 255l-170 255v-510z" />
    <glyph glyph-name=".null" horiz-adv-x="0" 
 />
    <glyph glyph-name=".null" horiz-adv-x="0" 
 />
    <glyph glyph-name="nonmarkingreturn" unicode="&#xd;" horiz-adv-x="171" 
 />
    <glyph glyph-name="space" unicode=" " horiz-adv-x="257" 
 />
    <glyph glyph-name="exclam" unicode="!" horiz-adv-x="297" 
d="M215 230h-134l-21 470h177zM149 -9q-26 0 -43 7.5t-27.5 19.5t-15 27.5t-4.5 32.5t4.5 32.5t15 27.5t27.5 19t43 7q50 0 69 -26t19 -60t-19 -60.5t-69 -26.5z" />
    <glyph glyph-name="quotedbl" unicode="&#x22;" horiz-adv-x="379" 
d="M53 448l-16 252h126l-15 -252h-95zM231 448l-15 252h125l-15 -252h-95z" />
    <glyph glyph-name="numbersign" unicode="#" horiz-adv-x="647" 
d="M354 177h-122l-31 -177h-128l31 177h-68v98h86l25 149h-70v98h88l32 178h128l-32 -178h123l31 178h127l-30 -178h67v-98h-85l-26 -149h69v-98h-87l-31 -177h-128zM246 273h129l27 153h-130z" />
    <glyph glyph-name="dollar" unicode="$" horiz-adv-x="647" 
d="M266 -9q-110 11 -159.5 66t-49.5 148h144q0 -41 27 -67t92 -26q53 0 82 13.5t29 47.5q0 28 -12.5 47t-33 32.5t-46 24t-50.5 20.5q-39 15 -78.5 32t-71.5 42t-52 60.5t-20 87.5q0 82 46 130t153 58v103h118v-104q52 -6 87.5 -23t58 -42.5t33 -59.5t10.5 -74h-144
q0 16 -5 30.5t-17.5 25t-33 16.5t-51.5 6q-101 0 -101 -46q0 -21 14 -38t35.5 -31t47 -25.5t48.5 -21.5q47 -20 87.5 -39.5t70 -45t46.5 -60t17 -83.5q0 -93 -49.5 -143t-153.5 -60v-102h-118v101z" />
    <glyph glyph-name="percent" unicode="%" horiz-adv-x="722" 
d="M215 0h-117l409 700h117zM173 708q74 0 110 -44.5t36 -125.5t-36 -125.5t-110 -44.5q-75 0 -111 44.5t-36 125.5t36 125.5t111 44.5zM173 449q26 0 37 23t11 66t-11 66t-37 23q-28 0 -38 -23t-10 -66t10 -66t38 -23zM549 332q75 0 111 -44.5t36 -125.5t-36 -125t-111 -44
q-73 0 -110 44t-37 125t37 125.5t110 44.5zM549 73q27 0 37.5 23.5t10.5 65.5q0 43 -10.5 66t-37.5 23q-26 0 -37 -23t-11 -66q0 -42 11 -65.5t37 -23.5z" />
    <glyph glyph-name="ampersand" unicode="&#x26;" horiz-adv-x="674" 
d="M309 294q-14 19 -29 42q-34 -7 -58.5 -41t-24.5 -81q0 -44 26 -75t79 -31q20 0 40.5 4t39.5 15l30 -107q-27 -17 -60 -23.5t-73 -6.5q-48 0 -91 12t-74.5 38t-50 66.5t-18.5 97.5q0 47 13 83.5t35 63t50.5 44t60.5 26.5q-25 27 -38.5 59.5t-13.5 76.5q0 73 49 113.5
t150 40.5q97 0 143 -43t46 -110q0 -29 -9 -48.5t-23 -36.5h112v-91h-214v84q8 9 14.5 23t6.5 39q0 32 -15.5 51t-53.5 19t-52 -16t-14 -39q0 -18 6.5 -36t16 -34.5t21 -32t22.5 -29.5l303 -411h-139z" />
    <glyph glyph-name="quotesingle" unicode="'" horiz-adv-x="208" 
d="M56 448l-15 252h125l-14 -252h-96z" />
    <glyph glyph-name="parenleft" unicode="(" horiz-adv-x="293" 
d="M178 284q0 -111 23.5 -206t77.5 -194l-66 -41q-32 41 -60 89.5t-49.5 104t-34 117.5t-12.5 130q0 67 12.5 129t34 117.5t49.5 104t60 89.5l66 -40q-27 -50 -46 -98t-31.5 -97t-18 -99.5t-5.5 -105.5z" />
    <glyph glyph-name="parenright" unicode=")" horiz-adv-x="293" 
d="M114 284q0 55 -5.5 105.5t-17.5 99.5t-31.5 97t-46.5 98l67 40q31 -41 59.5 -89.5t49.5 -104t33.5 -117.5t12.5 -129q0 -68 -12.5 -130t-33.5 -117.5t-49.5 -104t-59.5 -89.5l-67 41q27 49 46.5 97t31.5 97t17.5 99.5t5.5 106.5z" />
    <glyph glyph-name="asterisk" unicode="*" horiz-adv-x="482" 
d="M290 571l103 54l43 -114l-121 -36l94 -100l-100 -77l-68 119l-68 -119l-101 77l94 100l-121 36l44 114l103 -54l-13 129h123z" />
    <glyph glyph-name="plus" unicode="+" horiz-adv-x="505" 
d="M319 261v-188h-133v188h-153v118h153v188h133v-188h153v-118h-153z" />
    <glyph glyph-name="comma" unicode="," horiz-adv-x="260" 
d="M68 163l156 -23l-94 -264l-95 26z" />
    <glyph glyph-name="hyphen" unicode="-" horiz-adv-x="381" 
d="M26 270v120h329v-120h-329z" />
    <glyph glyph-name="period" unicode="." horiz-adv-x="260" 
d="M130 -8q-26 0 -43 7.5t-27.5 19.5t-15 27.5t-4.5 32.5q0 16 4.5 31.5t15 27.5t27.5 19.5t43 7.5q25 0 42 -7.5t27.5 -19.5t15 -27.5t4.5 -31.5q0 -34 -19.5 -60.5t-69.5 -26.5z" />
    <glyph glyph-name="slash" unicode="/" horiz-adv-x="328" 
d="M118 -20h-112l203 740h113z" />
    <glyph glyph-name="zero" unicode="0" horiz-adv-x="655" 
d="M328 113q31 0 55 12t40 40t24.5 73.5t8.5 111.5t-8.5 111t-24.5 73t-40 40t-55 12q-32 0 -56 -12t-40 -40t-24.5 -73t-8.5 -111t8.5 -111.5t24.5 -73.5t40 -40t56 -12zM328 711q62 0 114 -19.5t90 -63t59.5 -112t21.5 -166.5t-21.5 -166.5t-59.5 -112t-90 -63.5t-114 -20
q-63 0 -115.5 20t-90.5 63.5t-59 112t-21 166.5t21 166.5t59 112t90.5 63t115.5 19.5z" />
    <glyph glyph-name="one" unicode="1" horiz-adv-x="413" 
d="M201 700h135v-700h-153v541l-127 -65l-37 101z" />
    <glyph glyph-name="two" unicode="2" horiz-adv-x="574" 
d="M43 0v111l241 241q17 17 32.5 36t27 39.5t17.5 42.5t3 45q-4 36 -31.5 52t-71.5 16q-48 0 -95.5 -11t-89.5 -28l-30 118q45 22 105 36t126 14q115 0 177.5 -49.5t62.5 -150.5q0 -44 -13.5 -79t-35.5 -66t-50 -59t-56 -57l-121 -125h287v-126h-485z" />
    <glyph glyph-name="three" unicode="3" horiz-adv-x="561" 
d="M237 585q-51 0 -95.5 -11t-80.5 -28l-29 116q48 23 105.5 36t121.5 13q56 0 101.5 -11t78 -34.5t50 -60.5t17.5 -88q0 -31 -8 -55.5t-21.5 -43t-30.5 -31.5t-35 -21v-1q48 -14 78.5 -54t30.5 -112q0 -57 -20 -97t-55.5 -65.5t-85.5 -37t-110 -11.5q-69 0 -124 12t-103 35
l30 117q40 -17 83 -26.5t88 -9.5q24 0 49 5t45.5 18t33.5 34t13 53q0 46 -31.5 61t-83.5 15h-91v116h87q60 0 87.5 21.5t27.5 63.5q0 45 -31.5 63.5t-91.5 18.5z" />
    <glyph glyph-name="four" unicode="4" horiz-adv-x="614" 
d="M360 122h-334v99l209 479h155l-201 -458h171l17 222h132v-222h85v-120h-85v-122h-149v122z" />
    <glyph glyph-name="five" unicode="5" horiz-adv-x="589" 
d="M248 114q66 0 105.5 26.5t39.5 94.5q0 60 -30 85t-79 25q-38 0 -67 -11.5t-51 -29.5h-119l21 396h434v-122h-311l-8 -154q21 11 55.5 21.5t85.5 10.5q45 0 85 -11.5t70.5 -38t48 -69.5t17.5 -105q0 -66 -21.5 -112t-59 -75t-89.5 -42.5t-112 -13.5q-72 0 -129.5 12.5
t-101.5 35.5l29 117q42 -19 90.5 -29.5t96.5 -10.5z" />
    <glyph glyph-name="six" unicode="6" horiz-adv-x="602" 
d="M323 346q-37 0 -72 -13.5t-58 -33.5q0 -91 29.5 -142.5t90.5 -51.5q55 0 81 32t26 91q0 61 -22.5 89.5t-74.5 28.5zM358 591q-45 0 -76 -13t-50.5 -38t-28.5 -60t-10 -78q26 22 69.5 38.5t96.5 16.5q43 0 80.5 -13t65.5 -40.5t43.5 -70t15.5 -101.5q0 -60 -18 -105.5
t-50.5 -76.5t-78.5 -46.5t-102 -15.5q-135 0 -203 89.5t-68 250.5q0 196 77.5 289.5t226.5 93.5q48 0 92 -10.5t79 -27.5l-28 -112q-62 30 -133 30z" />
    <glyph glyph-name="seven" unicode="7" horiz-adv-x="543" 
d="M27 700h477v-116l-238 -584h-163l234 572h-310v128z" />
    <glyph glyph-name="eight" unicode="8" horiz-adv-x="621" 
d="M310 712q69 0 117 -14t77.5 -39t42.5 -59.5t13 -75.5q0 -33 -8 -58.5t-21 -44t-29.5 -31t-34.5 -19.5v-1q21 -7 41.5 -21t36 -35.5t25.5 -50.5t10 -65q0 -56 -19.5 -96t-54.5 -65.5t-85 -37t-111 -11.5q-60 0 -110 11.5t-85 37t-54.5 65.5t-19.5 96q0 36 10 65t25.5 50.5
t36 35.5t41.5 21v1q-18 7 -34.5 19.5t-30 31t-21.5 44t-8 58.5q0 41 13 75.5t43 59.5t77.5 39t116.5 14zM327 416q46 0 67 25t21 67q0 44 -24 67t-81 23t-80.5 -23.5t-23.5 -66.5q0 -42 21.5 -67t66.5 -25h33zM294 319q-49 0 -76 -27t-27 -81q0 -57 29.5 -83t89.5 -26
q61 0 90 26t29 83q0 54 -26.5 81t-75.5 27h-33z" />
    <glyph glyph-name="nine" unicode="9" horiz-adv-x="602" 
d="M279 353q36 0 71.5 14t58.5 34q-1 91 -30 142t-91 51q-54 0 -80.5 -32t-26.5 -91q0 -61 23 -89.5t75 -28.5zM243 108q45 0 76 13t50.5 38t28 59.5t10.5 78.5q-26 -21 -69 -37.5t-96 -16.5q-44 0 -81 13t-65 40t-43.5 69.5t-15.5 101.5q0 60 18 105.5t50.5 76.5t78.5 46.5
t102 15.5q135 0 203 -88.5t68 -250.5q0 -197 -77 -290.5t-228 -93.5q-47 0 -92 11t-80 28l28 111q31 -14 64.5 -22t69.5 -8z" />
    <glyph glyph-name="colon" unicode=":" horiz-adv-x="281" 
d="M140 -8q-25 0 -41.5 7t-26.5 19t-14.5 27t-4.5 32q0 16 4.5 31.5t14.5 27.5t26.5 19t41.5 7t42 -7t27 -19t14.5 -27.5t4.5 -31.5q0 -17 -4.5 -32t-14.5 -27t-27 -19t-42 -7zM140 350q-25 0 -41.5 7t-26.5 19t-14.5 27.5t-4.5 31.5t4.5 31.5t14.5 27.5t26.5 19t41.5 7
t42 -7t27 -19t14.5 -27.5t4.5 -31.5t-4.5 -31.5t-14.5 -27.5t-27 -19t-42 -7z" />
    <glyph glyph-name="semicolon" unicode=";" horiz-adv-x="281" 
d="M140 350q-25 0 -41.5 7t-27 19t-15 27.5t-4.5 31.5t4.5 31.5t15 27.5t27 19t41.5 7t42 -7t27 -19t14.5 -27.5t4.5 -31.5t-4.5 -31.5t-14.5 -27.5t-27 -19t-42 -7zM72 161l154 -23l-92 -261l-94 26z" />
    <glyph glyph-name="less" unicode="&#x3c;" horiz-adv-x="505" 
d="M22 353l432 253v-142l-278 -153l278 -153v-142l-432 253v84z" />
    <glyph glyph-name="equal" unicode="=" horiz-adv-x="505" 
d="M42 305v100h421v-100h-421zM42 113v100h421v-100h-421z" />
    <glyph glyph-name="greater" unicode="&#x3e;" horiz-adv-x="505" 
d="M51 16v142l278 153l-278 153v142l432 -253v-84z" />
    <glyph glyph-name="question" unicode="?" horiz-adv-x="529" 
d="M254 -9q-50 0 -69.5 26.5t-19.5 60.5q0 16 4.5 31.5t15 27.5t27.5 19t42 7t42 -7t27 -19t14.5 -27.5t4.5 -31.5q0 -34 -19 -60.5t-69 -26.5zM251 712q45 0 87.5 -7.5t75 -26t52.5 -50.5t20 -80q0 -37 -12.5 -66t-30.5 -53.5t-40 -45t-40 -40t-30.5 -39.5t-12.5 -43v-29
h-139v29q0 30 11.5 54.5t28.5 45.5t36.5 40t36.5 38t28.5 38.5t11.5 41.5q0 21 -10 34.5t-25.5 21t-34.5 10.5t-38 3q-42 0 -83 -8.5t-85 -24.5l-30 112q44 20 99.5 32.5t123.5 12.5z" />
    <glyph glyph-name="at" unicode="@" horiz-adv-x="945" 
d="M478 513q60 0 102.5 -17t68.5 -47.5t38 -72t12 -89.5v-117q0 -45 10.5 -64.5t30.5 -19.5q14 0 26 9.5t21 30.5t14.5 55t5.5 84q0 79 -18.5 146.5t-58.5 116t-102.5 76t-150.5 27.5q-86 0 -149.5 -26.5t-105.5 -74.5t-62.5 -114.5t-20.5 -147.5q0 -78 20 -151.5t68 -136.5
l-67 -48q-27 33 -47 73t-33.5 83.5t-20 89.5t-6.5 90q0 95 26.5 176t79.5 140.5t132.5 93t185.5 33.5t184.5 -34t129.5 -93.5t76 -141t25 -177.5q0 -71 -12.5 -122.5t-35 -84.5t-52.5 -49t-64 -16q-46 0 -74.5 27.5t-36.5 72.5q-20 -48 -58 -76.5t-110 -28.5
q-98 0 -148.5 61t-50.5 186v28q0 57 12.5 103t39.5 78.5t70.5 50.5t105.5 18zM471 96q54 0 76 36.5t22 102.5v50q0 55 -19.5 87t-71.5 32q-58 0 -78 -37t-20 -104v-28q0 -72 20 -105.5t71 -33.5z" />
    <glyph glyph-name="A" unicode="A" horiz-adv-x="690" 
d="M436 700l242 -700h-163l-45 145h-251l-44 -145h-163l242 700h182zM401 376q-14 49 -28 95.5t-26 96.5h-4q-12 -50 -26 -96.5t-28 -95.5l-34 -112h180z" />
    <glyph glyph-name="B" unicode="B" horiz-adv-x="650" 
d="M68 700h290q123 0 177 -48t54 -142q0 -34 -8 -59.5t-21.5 -44.5t-31.5 -30.5t-38 -17.5v-3q53 -8 86 -46.5t33 -111.5q0 -105 -63.5 -151t-187.5 -46h-290v700zM350 122q31 0 51.5 4t33.5 14t18.5 26.5t5.5 41.5q0 48 -26.5 67t-80.5 19h-132v-172h130zM441 498
q0 46 -22 62.5t-76 16.5h-123v-164h129q46 0 69 18.5t23 66.5z" />
    <glyph glyph-name="C" unicode="C" horiz-adv-x="613" 
d="M390 119q85 0 163 35l30 -117q-40 -20 -93 -34.5t-117 -14.5q-87 0 -148.5 24.5t-101 69.5t-58 108.5t-18.5 141.5v35q0 82 19 146t59 108t101 67t144 23q63 0 114 -13t90 -33l-30 -117q-35 15 -71.5 23t-77.5 8q-97 0 -144.5 -56t-47.5 -156v-35q0 -47 9 -86.5t31 -67.5
t58 -43.5t89 -15.5z" />
    <glyph glyph-name="D" unicode="D" horiz-adv-x="688" 
d="M328 134q45 0 75.5 13.5t48.5 39.5t25.5 63t7.5 85v36q0 48 -7.5 84.5t-25.5 61t-49.5 37t-79.5 12.5h-99v-432h104zM335 700q82 0 140.5 -22t95.5 -64t54 -103t17 -140v-36q0 -81 -17.5 -143t-55 -105t-96.5 -65t-141 -22h-263v700h266z" />
    <glyph glyph-name="E" unicode="E" horiz-adv-x="578" 
d="M528 569h-307v-155h285v-128h-285v-156h311v-130h-464v700h460v-131z" />
    <glyph glyph-name="F" unicode="F" horiz-adv-x="556" 
d="M518 567h-297v-188h283v-132h-283v-247h-153v700h450v-133z" />
    <glyph glyph-name="G" unicode="G" horiz-adv-x="682" 
d="M382 117q25 0 51 3t47 9v164h-132v114h273v-363q-43 -25 -106.5 -40.5t-132.5 -15.5q-173 0 -254 90t-81 254v35q0 164 83 254t253 90q70 0 128.5 -14.5t97.5 -34.5l-31 -117q-34 17 -80 27t-93 10q-56 0 -94.5 -14.5t-62.5 -42t-34.5 -67.5t-10.5 -91v-35q0 -51 9.5 -91
t31 -67.5t55.5 -42t83 -14.5z" />
    <glyph glyph-name="H" unicode="H" horiz-adv-x="696" 
d="M628 0h-156v282h-248v-282h-156v700h156v-282h248v282h156v-700z" />
    <glyph glyph-name="I" unicode="I" horiz-adv-x="296" 
d="M225 0h-155v700h155v-700z" />
    <glyph glyph-name="J" unicode="J" horiz-adv-x="512" 
d="M161 700h287v-452q0 -71 -17 -120t-48 -80.5t-75 -45.5t-98 -14q-58 0 -106.5 13t-80.5 32l30 122q26 -14 58.5 -23t67.5 -9q63 0 88 29t25 100v317h-131v131z" />
    <glyph glyph-name="K" unicode="K" horiz-adv-x="679" 
d="M434 420l237 -420h-175l-170 308l-102 -117v-191h-156v700h156v-311l260 311h182z" />
    <glyph glyph-name="L" unicode="L" horiz-adv-x="536" 
d="M224 700v-566h283v-134h-439v700h156z" />
    <glyph glyph-name="M" unicode="M" horiz-adv-x="816" 
d="M358 190l-64 127q-19 37 -40.5 86t-37.5 94h-3q4 -48 5.5 -97.5t1.5 -87.5v-312h-152v700h171l169 -359l169 359h171v-700h-152v312q0 38 1.5 87.5t5.5 97.5h-3q-16 -45 -37.5 -94t-40.5 -86l-64 -127h-100z" />
    <glyph glyph-name="N" unicode="N" horiz-adv-x="724" 
d="M500 0l-175 276q-34 54 -64.5 112t-52.5 112h-3q6 -60 8.5 -124t2.5 -127v-249h-148v700h157l183 -294q30 -49 58.5 -103.5t50.5 -103.5h3q-7 60 -9.5 124t-2.5 127v250h148v-700h-156z" />
    <glyph glyph-name="O" unicode="O" horiz-adv-x="704" 
d="M352 118q43 0 71.5 14.5t45.5 42.5t24.5 67.5t7.5 89.5v35q0 50 -7.5 90t-24.5 67.5t-45.5 42.5t-71.5 15t-71.5 -15t-46 -42.5t-24.5 -67.5t-7 -90v-35q0 -50 7 -89.5t24.5 -67.5t46 -42.5t71.5 -14.5zM352 711q79 0 137 -23.5t95 -67.5t55 -108t18 -145v-35
q0 -81 -18 -144.5t-55 -108t-95 -68t-137 -23.5q-80 0 -137.5 23.5t-94.5 68t-55 108t-18 144.5v35q0 81 18 145t55 108t94.5 67.5t137.5 23.5z" />
    <glyph glyph-name="P" unicode="P" horiz-adv-x="640" 
d="M224 215v-215h-156v700h283q128 0 188 -57.5t60 -183.5q0 -129 -61.5 -186.5t-187.5 -57.5h-126zM344 342q56 0 78.5 28t22.5 89q0 60 -22.5 87t-77.5 27h-122v-231h121z" />
    <glyph glyph-name="Q" unicode="Q" horiz-adv-x="704" 
d="M200 -56q91 -9 184.5 -33t178.5 -66l-41 -108q-81 45 -168 71.5t-178 37.5zM352 118q43 0 71.5 14.5t45.5 42.5t24.5 67.5t7.5 89.5v35q0 50 -7.5 90t-24.5 67.5t-45.5 42.5t-71.5 15t-71.5 -15t-46 -42.5t-24.5 -67.5t-7 -90v-35q0 -50 7 -89.5t24.5 -67.5t46 -42.5
t71.5 -14.5zM352 711q79 0 137 -23.5t95 -67.5t55 -108t18 -145v-35q0 -81 -18 -144.5t-55 -108t-95 -68t-137 -23.5q-80 0 -137.5 23.5t-94.5 68t-55 108t-18 144.5v35q0 81 18 145t55 108t94.5 67.5t137.5 23.5z" />
    <glyph glyph-name="R" unicode="R" horiz-adv-x="660" 
d="M223 242v-242h-155v700h304q128 0 186 -55t58 -176q0 -91 -36.5 -141t-94.5 -68l147 -260h-160l-134 242h-115zM464 468q0 33 -6.5 54t-21.5 32.5t-39.5 16t-60.5 4.5h-115v-214h139q57 0 80.5 23.5t23.5 83.5z" />
    <glyph glyph-name="S" unicode="S" horiz-adv-x="584" 
d="M271 115q35 0 58.5 4t37 13.5t19 24t5.5 35.5q0 22 -7.5 38t-23.5 28t-41.5 21.5t-61.5 20.5q-42 13 -80.5 29.5t-67.5 41.5t-46 61t-17 89q0 93 58 141.5t193 48.5q67 0 125.5 -13t103.5 -32l-31 -116q-46 17 -92.5 26t-95.5 9q-60 0 -85 -14.5t-25 -47.5q0 -20 9 -34
t28 -25.5t48 -21.5t69 -23q45 -14 80.5 -31.5t61 -43t39 -61t13.5 -86.5q0 -105 -64 -157t-200 -52q-82 0 -139 13t-106 36l32 121q46 -20 96.5 -31.5t106.5 -11.5z" />
    <glyph glyph-name="T" unicode="T" 
d="M574 700v-134q-51 0 -100 0.5t-100 0.5v-567h-156v567q-51 0 -100.5 -0.5t-100.5 -0.5v134h557z" />
    <glyph glyph-name="U" unicode="U" horiz-adv-x="688" 
d="M344 -12q-75 0 -128.5 19t-87 56.5t-49 93.5t-15.5 131v412h156v-408q0 -46 6 -78.5t20.5 -52.5t38 -29.5t59.5 -9.5t59.5 9.5t38 29.5t20.5 52.5t6 78.5v408h156v-412q0 -75 -15.5 -131t-49 -93.5t-87 -56.5t-128.5 -19z" />
    <glyph glyph-name="V" unicode="V" horiz-adv-x="666" 
d="M241 0l-228 700h164l114 -381q14 -46 23.5 -90.5t16.5 -92.5h4q7 48 16.5 92.5t23.5 90.5l114 381h164l-228 -700h-184z" />
    <glyph glyph-name="W" unicode="W" horiz-adv-x="1022" 
d="M669 414q18 -62 30.5 -125.5t23.5 -134.5h4q8 71 18 134.5t26 125.5l72 286h159l-184 -700h-170l-94 337q-29 103 -41 204h-4q-12 -101 -41 -204l-94 -337h-170l-184 700h159l72 -286q16 -62 26 -125.5t18 -134.5h4q11 71 23.5 134.5t30.5 125.5l82 286h152z" />
    <glyph glyph-name="X" unicode="X" horiz-adv-x="683" 
d="M249 356l-235 344h177l150 -239l150 239h178l-235 -344l243 -356h-177l-159 249l-158 -249h-178z" />
    <glyph glyph-name="Y" unicode="Y" horiz-adv-x="666" 
d="M411 0h-156v255l-245 445h168l97 -189q18 -35 31.5 -70t24.5 -69h3q22 70 57 139l96 189h169l-245 -445v-255z" />
    <glyph glyph-name="Z" unicode="Z" horiz-adv-x="618" 
d="M47 0v114l332 463l-322 -3v126h502v-114l-332 -464l342 3v-125h-522z" />
    <glyph glyph-name="bracketleft" unicode="[" horiz-adv-x="293" 
d="M190 -72h82v-92h-197v881h197v-91h-82v-698z" />
    <glyph glyph-name="backslash" unicode="\" horiz-adv-x="328" 
d="M6 720h112l204 -740h-112z" />
    <glyph glyph-name="bracketright" unicode="]" horiz-adv-x="293" 
d="M102 626h-83v91h199v-881h-199v92h83v698z" />
    <glyph glyph-name="asciicircum" unicode="^" horiz-adv-x="514" 
d="M490 319h-132l-101 232l-101 -232h-131l186 381h93z" />
    <glyph glyph-name="underscore" unicode="_" horiz-adv-x="404" 
d="M0 -137v93h404v-93h-404z" />
    <glyph glyph-name="grave" unicode="`" horiz-adv-x="333" 
d="M302 611l-28 -63l-243 81l47 108z" />
    <glyph glyph-name="a" unicode="a" horiz-adv-x="548" 
d="M166 157q0 -36 20.5 -51t52.5 -15q22 0 41.5 9t33 23.5t21.5 33.5t8 40v24q-16 4 -38.5 6t-42.5 2q-51 0 -73.5 -17t-22.5 -55zM343 87q-7 -20 -19.5 -37.5t-30.5 -30.5t-42.5 -20.5t-56.5 -7.5q-33 0 -61.5 9.5t-50 29t-34 48t-12.5 66.5q0 93 54.5 131t157.5 34
q27 0 52 -3.5t43 -6.5v21q0 43 -22.5 63.5t-74.5 20.5q-45 0 -84.5 -9t-74.5 -23l-24 97q43 18 95.5 30t111.5 12q114 0 166.5 -48.5t52.5 -142.5v-320h-135l-9 87h-2z" />
    <glyph glyph-name="b" unicode="b" horiz-adv-x="605" 
d="M321 396q-51 0 -80.5 -33t-29.5 -81v-28q0 -65 25 -107t84 -42q49 0 71.5 31.5t22.5 103.5v21q0 67 -21 101t-72 34zM374 511q100 0 144 -65t44 -185v-22q0 -47 -8.5 -92t-30.5 -80.5t-59.5 -57t-95.5 -21.5q-65 0 -104 29.5t-53 69.5h-2l-9 -87h-138v700h149v-190
q0 -20 -1 -43t-3 -46h2q18 38 58 64t107 26z" />
    <glyph glyph-name="c" unicode="c" horiz-adv-x="489" 
d="M43 263q0 248 249 248q51 0 93.5 -12.5t71.5 -30.5l-25 -100q-26 14 -54 21t-62 7q-68 0 -95.5 -35t-27.5 -99v-24q0 -66 27.5 -100.5t94.5 -34.5q36 0 65.5 7.5t57.5 22.5l24 -100q-29 -19 -73 -32t-96 -13q-125 0 -187.5 62.5t-62.5 186.5v26z" />
    <glyph glyph-name="d" unicode="d" horiz-adv-x="605" 
d="M290 397q-54 0 -76.5 -34.5t-22.5 -101.5v-21q0 -72 23.5 -104t71.5 -32q29 0 49.5 11.5t33 31.5t18.5 48.5t6 61.5v31q0 47 -27.5 78t-75.5 31zM240 511q62 0 99 -25t57 -59h2q-2 21 -3.5 41.5t-1.5 40.5v191h150v-700h-137l-10 87h-2q-18 -46 -60.5 -71.5t-100.5 -25.5
q-91 0 -140 61t-49 188v22q0 119 47.5 184.5t148.5 65.5z" />
    <glyph glyph-name="e" unicode="e" horiz-adv-x="554" 
d="M307 -12q-129 0 -196.5 65t-67.5 184v26q0 117 60 182.5t184 65.5q64 0 106.5 -19.5t68 -51t36.5 -71.5t11 -82v-91h-322q5 -55 39 -80t99 -25q42 0 76 11t66 28l23 -91q-31 -20 -77.5 -35.5t-105.5 -15.5zM288 411q-57 0 -79.5 -33t-22.5 -96v-3h194v8q0 56 -19 90
t-73 34z" />
    <glyph glyph-name="f" unicode="f" horiz-adv-x="405" 
d="M323 601q-44 0 -61.5 -18t-17.5 -60v-23h143v-105h-142v-395h-149v395h-88v105h88v34q0 41 10.5 74t33 55.5t59 34.5t88.5 12q35 0 64.5 -5t52.5 -13l-10 -102q-17 5 -33.5 8t-37.5 3z" />
    <glyph glyph-name="g" unicode="g" horiz-adv-x="558" 
d="M55 329q0 92 54 131.5t163 39.5h258v-85l-78 -1q13 -14 24 -35.5t11 -49.5v-9q0 -94 -54.5 -132.5t-160.5 -38.5q-26 0 -43 2.5t-35 8.5l-35 -43q0 -12 5.5 -18.5t14 -10t18.5 -4.5t20 -1h66q55 0 96.5 -6.5t69.5 -23t42 -43.5t14 -68q0 -80 -59 -116.5t-174 -36.5
q-50 0 -92.5 7t-73.5 23.5t-48.5 45t-17.5 72.5q0 35 16 56t37 36q-19 11 -33.5 34.5t-13.5 59.5l64 70q-26 23 -40.5 54t-14.5 73v9zM195 320q0 -44 18 -60t59 -16q39 0 58 16t19 60l-2 9q0 42 -18 58.5t-57 16.5q-40 0 -58.5 -16t-18.5 -59v-9zM178 -58q0 -17 3.5 -28
t13.5 -17t28.5 -8.5t48.5 -2.5q29 0 47 2t28.5 8t14 17t3.5 29q0 31 -15.5 39t-49.5 8h-105q-8 -11 -12.5 -21.5t-4.5 -25.5z" />
    <glyph glyph-name="h" unicode="h" horiz-adv-x="614" 
d="M404 285q0 54 -16 77.5t-61 23.5q-57 0 -86.5 -36.5t-29.5 -104.5v-245h-149v700h149v-190q0 -20 -1 -47.5t-3 -49.5h2q8 18 22 35.5t35 31.5t49.5 22.5t65.5 8.5q93 0 133.5 -50t40.5 -153v-308h-151v285z" />
    <glyph glyph-name="i" unicode="i" horiz-adv-x="272" 
d="M211 0h-150v500h150v-500zM136 716q48 0 70.5 -20.5t22.5 -56.5q0 -37 -22.5 -58t-70.5 -21t-70.5 21t-22.5 58q0 36 22.5 56.5t70.5 20.5z" />
    <glyph glyph-name="j" unicode="j" horiz-adv-x="320" 
d="M28 500h230v-527q0 -50 -12.5 -84.5t-36 -57t-57 -32.5t-74.5 -10q-39 0 -70 7.5t-56 20.5l25 104q17 -8 35.5 -12.5t33.5 -4.5q38 0 50.5 19.5t12.5 52.5v416h-81v108zM179 716q49 0 71 -20.5t22 -56.5q0 -37 -22 -58t-71 -21q-48 0 -70.5 21t-22.5 58q0 36 22.5 56.5
t70.5 20.5z" />
    <glyph glyph-name="k" unicode="k" horiz-adv-x="577" 
d="M389 303l181 -303h-156l-123 213l-80 -86v-127h-149v700h149v-403l185 203h169z" />
    <glyph glyph-name="l" unicode="l" horiz-adv-x="273" 
d="M211 0h-149v700h149v-700z" />
    <glyph glyph-name="m" unicode="m" horiz-adv-x="902" 
d="M694 293q0 16 -2.5 31.5t-9 28.5t-19 21t-32.5 8q-33 0 -53 -14.5t-31.5 -38t-15.5 -53t-4 -58.5q0 -55 -0.5 -109t-0.5 -109h-149v293q0 16 -2 31.5t-9 28t-19 20.5t-31 8q-34 0 -55 -15t-32.5 -39t-15.5 -54.5t-4 -60.5v-212h-149v500h136l8 -87h2q8 18 22 35.5
t34 31.5t46.5 22.5t61.5 8.5q59 0 91 -27t43 -75h2q22 42 67 72t112 30q89 0 123.5 -53.5t34.5 -157.5v-300h-149v293z" />
    <glyph glyph-name="n" unicode="n" horiz-adv-x="611" 
d="M402 285q0 54 -16 77.5t-61 23.5q-57 0 -86 -37t-29 -106v-243h-150v500h137l8 -89h2q8 18 22 36t35 32.5t49.5 23t65.5 8.5q92 0 132.5 -50t40.5 -153v-308h-150v285z" />
    <glyph glyph-name="o" unicode="o" horiz-adv-x="580" 
d="M290 511q125 0 186 -66.5t61 -181.5v-27q0 -115 -61 -181.5t-186 -66.5t-186 66.5t-61 181.5v27q0 115 61 181.5t186 66.5zM290 99q54 0 75.5 35.5t21.5 101.5v27q0 66 -21.5 101.5t-75.5 35.5t-75.5 -35.5t-21.5 -101.5v-27q0 -66 21.5 -101.5t75.5 -35.5z" />
    <glyph glyph-name="p" unicode="p" horiz-adv-x="604" 
d="M320 396q-54 0 -82 -35t-28 -87v-20q0 -67 25 -108t84 -41q49 0 71.5 31.5t22.5 103.5v21q0 67 -21 101t-72 34zM207 420q22 45 64 68t95 23q55 0 92 -19t59.5 -53t32.5 -79.5t10 -99.5v-21q0 -46 -8 -90.5t-29 -80t-58 -57t-95 -21.5q-65 0 -105 29t-55 67h-3
q3 -44 3 -86v-200h-150v700h138l7 -80h2z" />
    <glyph glyph-name="q" unicode="q" horiz-adv-x="604" 
d="M290 396q-54 0 -76.5 -34t-22.5 -101v-21q0 -72 23.5 -103.5t72.5 -31.5q57 0 81.5 42t24.5 108v29q0 48 -27.5 80t-75.5 32zM399 423l7 77h137v-700h-150v200q0 43 3 87h-2q-16 -40 -53 -69t-99 -29q-54 0 -91.5 19t-61 53t-34.5 79.5t-11 99.5v21q0 47 9.5 92t32 80
t60.5 56.5t95 21.5q62 -1 99 -27t57 -61h2z" />
    <glyph glyph-name="r" unicode="r" horiz-adv-x="411" 
d="M391 361h-22q-47 0 -77.5 -10.5t-49 -32t-26 -54t-7.5 -76.5v-188h-149v500h135l10 -112h2q7 24 20 46t33.5 38t48 25.5t64.5 9.5h18v-146z" />
    <glyph glyph-name="s" unicode="s" horiz-adv-x="470" 
d="M213 92q37 0 60.5 9t23.5 33q0 25 -22.5 37.5t-68.5 29.5q-34 12 -64.5 25t-53 31.5t-36 45t-13.5 66.5q0 74 49.5 108t145.5 34q55 0 102 -10.5t82 -24.5l-25 -96q-68 27 -141 27q-37 0 -56.5 -7.5t-19.5 -27.5q0 -13 8 -22.5t21 -16.5t30.5 -13.5t37.5 -13.5
q38 -14 67.5 -27.5t50 -32t31.5 -44t11 -64.5q0 -41 -15.5 -69.5t-43 -46.5t-65 -26t-81.5 -8q-54 0 -104.5 10t-88.5 29l24 98q33 -15 72 -24t82 -9z" />
    <glyph glyph-name="t" unicode="t" horiz-adv-x="435" 
d="M8 500h89l26 174h121v-174h157v-105h-157v-210q0 -44 15 -61t55 -17t84 19l21 -102q-27 -14 -62 -24t-81 -10q-99 0 -139.5 49.5t-40.5 144.5v211h-88v105z" />
    <glyph glyph-name="u" unicode="u" horiz-adv-x="594" 
d="M208 203q0 -47 15.5 -68t54.5 -21q51 0 78 37t27 102v247h150v-500h-136l-9 87h-2q-8 -18 -21 -35.5t-32 -31.5t-45 -22.5t-60 -8.5q-88 0 -129 47t-41 145v319h150v-297z" />
    <glyph glyph-name="v" unicode="v" horiz-adv-x="550" 
d="M194 0l-183 500h154l75 -233q21 -67 33 -140h4q12 73 33 140l75 233h154l-183 -500h-162z" />
    <glyph glyph-name="w" unicode="w" horiz-adv-x="820" 
d="M476 500l68 -237q10 -33 17 -66t11 -68h3q2 36 7 69t13 65l58 237h150l-135 -500h-168l-49 171q-15 52 -24 101.5t-16 103.5h-2q-7 -54 -16 -103.5t-24 -101.5l-49 -171h-168l-135 500h150l58 -237q8 -32 13 -65t7 -69h3q4 35 11 68t17 66l68 237h132z" />
    <glyph glyph-name="x" unicode="x" horiz-adv-x="548" 
d="M353 254l191 -254h-163l-107 156l-107 -156h-163l190 254l-184 246h163l101 -148l101 148h163z" />
    <glyph glyph-name="y" unicode="y" horiz-adv-x="556" 
d="M11 500h156l65 -189q14 -38 26 -89t22 -99h4q9 48 20.5 98.5t24.5 89.5l62 189h154l-189 -517q-18 -51 -35 -87.5t-39.5 -60t-54.5 -35t-80 -11.5q-40 0 -72 6.5t-51 17.5l22 109q15 -8 37 -13.5t48 -5.5q35 0 49.5 11.5t24.5 38.5l9 25z" />
    <glyph glyph-name="z" unicode="z" horiz-adv-x="480" 
d="M35 95l235 302l-227 -2v105h393v-96l-235 -302l242 2v-104h-408v95z" />
    <glyph glyph-name="braceleft" unicode="{" horiz-adv-x="293" 
d="M34 319q39 8 53.5 30.5t14.5 54.5q0 23 -5 42t-11 38.5t-11 41t-5 50.5q0 39 14 65.5t40.5 43t64 24t85.5 7.5v-91q-48 0 -66.5 -18t-18.5 -53q0 -21 3.5 -39.5t8 -37.5t8.5 -39t4 -43q0 -18 -5.5 -36.5t-15 -34t-22 -28t-25.5 -19.5q9 -7 20.5 -19t22 -28t18 -34
t7.5 -37q0 -23 -4 -43t-8.5 -39t-8 -37.5t-3.5 -39.5q0 -35 18.5 -53.5t66.5 -18.5v-91q-96 0 -150 32t-54 109q0 28 5 50t11 41t11 38t5 43q0 32 -14.5 54t-53.5 30v85z" />
    <glyph glyph-name="bar" unicode="|" horiz-adv-x="267" 
d="M194 -154h-121v862h121v-862z" />
    <glyph glyph-name="braceright" unicode="}" horiz-adv-x="293" 
d="M258 234q-39 -8 -53.5 -30t-14.5 -54q0 -24 5 -43t11 -38t11 -41t5 -50q0 -77 -54.5 -109t-149.5 -32v91q48 0 66.5 18.5t18.5 53.5q0 21 -4 39.5t-8.5 37.5t-8 39t-3.5 43q0 18 6.5 36t16.5 34t22 28.5t23 19.5q-11 7 -23 19t-22 28t-16.5 34t-6.5 37q0 23 3.5 43
t8 38.5t8.5 37.5t4 40q0 35 -18.5 53t-66.5 18v91q96 0 150 -32t54 -108q0 -29 -5 -50.5t-11 -40.5t-11 -38t-5 -43q0 -32 14.5 -54.5t53.5 -30.5v-85z" />
    <glyph glyph-name="asciitilde" unicode="~" horiz-adv-x="532" 
d="M345 330q28 0 46.5 19.5t33.5 51.5l72 -55q-12 -23 -27 -45t-33 -39t-39.5 -27.5t-45.5 -10.5q-28 0 -50.5 12t-41.5 27t-36.5 27t-35.5 12q-28 0 -47.5 -19.5t-33.5 -51.5l-73 54q12 23 27 45t33 39.5t39.5 28t45.5 10.5q28 0 50.5 -12t42 -27t37 -27t36.5 -12z" />
    <glyph glyph-name="uni00A0" unicode="&#xa0;" horiz-adv-x="0" 
 />
    <glyph glyph-name="exclamdown" unicode="&#xa1;" horiz-adv-x="297" 
d="M81 273h134l22 -470h-177zM149 511q50 0 69 -26t19 -60q0 -17 -4.5 -32.5t-14.5 -27.5t-27 -19.5t-42 -7.5q-26 0 -43 7.5t-27.5 19.5t-15 27.5t-4.5 32.5t4.5 32.5t15 27.5t27.5 19t43 7z" />
    <glyph glyph-name="cent" unicode="&#xa2;" horiz-adv-x="647" 
d="M314 -9q-103 13 -155.5 75t-52.5 171v26q0 109 52.5 171t155.5 75v100h119v-103q35 -5 65.5 -16t50.5 -24l-24 -100q-26 13 -60.5 22t-71.5 9q-73 0 -105 -35t-32 -100v-24q0 -65 32 -100t105 -35q38 0 73.5 9t63.5 24l24 -101q-21 -13 -52.5 -24.5t-68.5 -16.5v-104
h-119v101z" />
    <glyph glyph-name="sterling" unicode="&#xa3;" horiz-adv-x="647" 
d="M112 405q-9 24 -15.5 50t-6.5 56q0 49 18 86.5t51 63t79.5 38.5t103.5 13q63 0 110 -11t85 -29l-27 -114q-68 28 -137 28q-38 0 -64.5 -7t-43 -19t-23.5 -29t-7 -37q0 -25 5 -47t12 -42h165v-91h-125q7 -20 11.5 -39.5t4.5 -39.5q0 -42 -18.5 -71t-41.5 -44h171
q30 0 42.5 11.5t12.5 40.5v34h132v-37q0 -41 -9 -72.5t-29.5 -53t-54 -32.5t-81.5 -11h-380v106q22 6 43 17.5t37.5 27.5t26.5 36t10 43q0 20 -4.5 42t-11.5 42h-102v91h61z" />
    <glyph glyph-name="currency" unicode="&#xa4;" horiz-adv-x="527" 
d="M367 114q-43 -23 -103 -23q-62 0 -105 23l-58 -65l-65 71l54 58q-29 50 -29 124t28 123l-53 58l65 72l57 -66q21 11 48 17.5t58 6.5q30 0 56.5 -6.5t47.5 -17.5l58 66l64 -72l-53 -58q14 -25 21 -56.5t7 -66.5q0 -74 -29 -124l54 -58l-64 -71zM264 188q52 0 72 31.5
t20 82.5t-20 83t-72 32q-53 0 -73 -32t-20 -83t20 -82.5t73 -31.5z" />
    <glyph glyph-name="yen" unicode="&#xa5;" horiz-adv-x="647" 
d="M200 343l-192 357h171l93 -199q17 -38 29 -69.5t21 -65.5h3q9 36 23 70t31 74l89 190h170l-191 -357h136v-80h-181v-51h181v-80h-181v-132h-157v132h-181v80h181v51h-181v80h136z" />
    <glyph glyph-name="brokenbar" unicode="&#xa6;" horiz-adv-x="271" 
d="M198 347h-125v361h125v-361zM198 -154h-125v360h125v-360z" />
    <glyph glyph-name="section" unicode="&#xa7;" horiz-adv-x="647" 
d="M221 281q0 -35 41.5 -58t116.5 -44q23 7 37 24t12 40q-2 21 -18.5 37t-39.5 28.5t-49 21t-47 14.5q-23 -7 -38 -23.5t-15 -39.5zM200 13q0 -56 34 -80t94 -24q16 0 34 2.5t33.5 9.5t26 19.5t10.5 33.5q0 17 -9 31.5t-24 26.5t-35 22t-42 18q-41 15 -81.5 30.5t-73.5 37.5
t-53.5 53.5t-20.5 78.5q0 49 25.5 81t57.5 45q-27 18 -50 54.5t-23 82.5q0 89 61 132t166 43q52 0 94.5 -10t72.5 -34t46 -63t16 -96h-119q0 54 -27.5 74.5t-84.5 20.5q-12 0 -28.5 -2t-31 -8t-24.5 -17.5t-10 -30.5q0 -17 8.5 -30.5t23.5 -25.5t34.5 -22t41.5 -19
q36 -15 73.5 -30.5t68 -37.5t50.5 -53t20 -76q0 -26 -6.5 -45.5t-17.5 -34.5t-25 -25t-28 -16q38 -23 61.5 -60t23.5 -89q0 -49 -16.5 -83t-47 -55t-74 -30.5t-96.5 -9.5q-54 0 -99.5 11t-78.5 35.5t-51.5 65t-18.5 99.5h120z" />
    <glyph glyph-name="dieresis" unicode="&#xa8;" horiz-adv-x="333" 
d="M59 695q36 0 56 -18.5t20 -50.5q0 -34 -20 -52t-56 -18q-75 0 -75 70q0 32 19 50.5t56 18.5zM273 695q36 0 56 -18.5t20 -50.5q0 -34 -20 -52t-56 -18q-75 0 -75 70q0 32 19 50.5t56 18.5z" />
    <glyph glyph-name="copyright" unicode="&#xa9;" horiz-adv-x="790" 
d="M120 350q0 -67 16.5 -122t50.5 -94t85.5 -60.5t122.5 -21.5q70 0 122 21.5t86 60.5t50.5 94t16.5 122t-16.5 121.5t-50.5 93.5t-86 60.5t-122 21.5q-71 0 -122.5 -21.5t-85.5 -60.5t-50.5 -93.5t-16.5 -121.5zM50 350q0 79 21 145.5t64 114.5t108 75t152 27t152 -27
t108 -75t64 -114.5t21 -145.5q0 -80 -21 -146.5t-64 -114.5t-108 -74.5t-152 -26.5t-152 26.5t-108 74.5t-64 114.5t-21 146.5zM214 362q0 100 49.5 150t152.5 50q42 0 76.5 -10.5t58.5 -25.5l-20 -83q-22 11 -45 17t-52 6q-57 0 -78.5 -26.5t-21.5 -79.5v-20q0 -54 23 -80
t80 -26q28 0 51.5 6t46.5 18l20 -84q-24 -14 -59.5 -25t-77.5 -11q-104 0 -154 50.5t-50 149.5v24z" />
    <glyph glyph-name="ordfeminine" unicode="&#xaa;" horiz-adv-x="372" 
d="M120 478q0 -20 11.5 -27t32.5 -7q26 0 45 16.5t19 44.5v10q-10 2 -24.5 3.5t-26.5 1.5q-32 0 -44.5 -9.5t-12.5 -32.5zM228 429q-11 -25 -33 -43t-65 -18q-19 0 -37.5 5.5t-33.5 18t-24 32t-9 46.5q0 60 35.5 85t98.5 25q20 0 38.5 -2.5t29.5 -5.5v2v10q0 24 -13.5 36
t-46.5 12q-29 0 -57 -6t-52 -16l-15 68q28 13 65 21.5t79 8.5q78 0 109.5 -36t31.5 -102v-194h-93l-7 53h-1z" />
    <glyph glyph-name="guillemotleft" unicode="&#xab;" horiz-adv-x="566" 
d="M147 533h146l-125 -201l125 -200h-146l-123 200zM377 533h145l-124 -201l124 -200h-145l-124 200z" />
    <glyph glyph-name="logicalnot" unicode="&#xac;" horiz-adv-x="488" 
d="M447 410v-283h-132v162h-292v121h424z" />
    <glyph glyph-name="uni00AD" unicode="&#xad;" horiz-adv-x="378" 
d="M27 263v116h325v-116h-325z" />
    <glyph glyph-name="registered" unicode="&#xae;" horiz-adv-x="566" 
d="M259 318h-70v269h110q53 0 76 -24.5t23 -65.5q0 -34 -13 -53t-33 -27l55 -99h-73l-47 89h-28v-89zM293 462q19 0 27 7.5t8 27.5q0 19 -9.5 26t-29.5 7h-30v-68h34zM283 710q123 0 184.5 -67.5t61.5 -193.5t-61.5 -193.5t-184.5 -67.5t-184.5 67.5t-61.5 193.5t61.5 193.5
t184.5 67.5zM283 656q-100 0 -143 -51t-43 -156q0 -106 43 -156.5t143 -50.5t143 50.5t43 156.5q0 105 -43 156t-143 51z" />
    <glyph glyph-name="macron" unicode="&#xaf;" horiz-adv-x="333" 
d="M328 648v-84h-324v84h324z" />
    <glyph glyph-name="degree" unicode="&#xb0;" horiz-adv-x="373" 
d="M186 487q35 0 51.5 20.5t16.5 57.5t-16.5 57.5t-51.5 20.5t-51.5 -20.5t-16.5 -57.5t16.5 -57.5t51.5 -20.5zM186 712q68 0 106 -38t38 -109q0 -72 -38 -110t-106 -38t-105.5 38t-37.5 110q0 71 37.5 109t105.5 38z" />
    <glyph glyph-name="plusminus" unicode="&#xb1;" horiz-adv-x="505" 
d="M320 307v-184h-134v184h-153v118h153v185h134v-185h152v-118h-152zM33 0v77h439v-77h-439z" />
    <glyph glyph-name="twosuperior" unicode="&#xb2;" horiz-adv-x="302" 
d="M25 497v63l112 104q16 15 26.5 29.5t10.5 32.5q0 15 -11.5 22t-29.5 7q-23 0 -45.5 -5t-44.5 -13l-16 66q23 11 56 18.5t64 7.5q54 0 86.5 -23t32.5 -74q0 -38 -22 -65t-48 -51l-49 -45h126v-74h-248z" />
    <glyph glyph-name="threesuperior" unicode="&#xb3;" horiz-adv-x="298" 
d="M127 755q-24 0 -46.5 -5.5t-40.5 -13.5l-17 68q24 11 52 18t63 7q57 0 90.5 -22t33.5 -70q0 -27 -14 -44t-32 -26q23 -8 37.5 -26t14.5 -50q0 -54 -36 -77.5t-98 -23.5q-36 0 -64 6.5t-51 17.5l16 69q42 -19 87 -19q57 0 57 35q0 20 -14.5 27t-37.5 7h-41v62h44
q21 0 33 8t12 24t-12.5 22t-35.5 6z" />
    <glyph glyph-name="acute" unicode="&#xb4;" horiz-adv-x="333" 
d="M254 737l48 -108l-244 -81l-27 63z" />
    <glyph glyph-name="mu" unicode="&#xb5;" horiz-adv-x="593" 
d="M384 500h150v-320q0 -97 -41 -144t-129 -47q-33 0 -59 8.5t-45 23t-32 32t-20 35.5h-2l4 -87v-201h-150v700h150v-247q0 -65 26.5 -102t78.5 -37q39 0 54 21t15 67v298z" />
    <glyph glyph-name="paragraph" unicode="&#xb6;" horiz-adv-x="445" 
d="M26 506q0 49 15 85.5t42 60.5t64.5 36t81.5 12h197v-105h-70q-27 0 -36.5 -13.5t-9.5 -39.5v-613h-120v373q-35 7 -64.5 22t-52 40t-35 60t-12.5 82z" />
    <glyph glyph-name="periodcentered" unicode="&#xb7;" horiz-adv-x="261" 
d="M130 203q-25 0 -41.5 7t-27 19t-15 27t-4.5 32q0 16 4.5 31.5t15 27.5t27 19t41.5 7t42 -7t27 -19t14.5 -27.5t4.5 -31.5q0 -17 -4.5 -32t-14.5 -27t-27 -19t-42 -7z" />
    <glyph glyph-name="cedilla" unicode="&#xb8;" horiz-adv-x="333" 
d="M279 -125q0 -26 -9 -42.5t-24 -26.5t-34.5 -14t-40.5 -4q-27 0 -48.5 4t-40.5 12l13 54q31 -12 57 -12q18 0 29.5 6.5t11.5 21.5q0 14 -10 21t-33 7h-46v44l40 56h56l-23 -48q46 2 74 -19t28 -60z" />
    <glyph glyph-name="onesuperior" unicode="&#xb9;" horiz-adv-x="232" 
d="M105 822h81v-324h-92v230l-63 -29l-22 61z" />
    <glyph glyph-name="ordmasculine" unicode="&#xba;" horiz-adv-x="387" 
d="M194 708q81 0 122 -43t41 -118v-19q0 -75 -41 -118t-122 -43t-122.5 43t-41.5 118v19q0 75 41.5 118t122.5 43zM194 448q31 0 44 19.5t13 60.5v19q0 41 -13 60.5t-44 19.5q-32 0 -45 -19.5t-13 -60.5v-19q0 -41 13 -60.5t45 -19.5z" />
    <glyph glyph-name="guillemotright" unicode="&#xbb;" horiz-adv-x="566" 
d="M542 332l-123 -200h-146l124 200l-124 201h146zM313 332l-123 -200h-146l124 200l-124 201h146z" />
    <glyph glyph-name="onequarter" unicode="&#xbc;" horiz-adv-x="724" 
d="M214 0h-116l412 700h116zM565 54h-162v60l97 211h88l-91 -203h68l4 95h86v-95h40v-68h-40v-54h-90v54zM137 702h82v-324h-93v230l-62 -29l-22 61z" />
    <glyph glyph-name="onehalf" unicode="&#xbd;" horiz-adv-x="712" 
d="M201 0h-116l412 700h116zM134 702h82v-324h-93v230l-62 -28l-22 60zM424 0v63l112 103q16 15 26.5 29.5t10.5 32.5q0 15 -11.5 22t-30.5 7q-43 0 -89 -19l-16 67q23 11 56 18.5t64 7.5q53 0 86 -23t33 -74q0 -38 -22 -65t-48 -50l-49 -46h125v-73h-247z" />
    <glyph glyph-name="threequarters" unicode="&#xbe;" horiz-adv-x="712" 
d="M218 0h-116l412 700h116zM565 54h-162v60l96 211h89l-91 -203h68l4 95h86v-95h40v-68h-40v-54h-90v54zM142 634q-23 0 -45.5 -5.5t-40.5 -13.5l-17 68q23 11 51.5 18t63.5 7q56 0 90 -22t34 -70q0 -27 -14.5 -44t-31.5 -26q22 -8 37 -26t15 -50q0 -54 -36 -77.5
t-98 -23.5q-37 0 -64.5 6.5t-50.5 17.5l16 69q41 -19 86 -19q58 0 58 35q0 20 -14.5 27t-38.5 7h-41v62h45q21 0 33 8t12 24t-12.5 22t-36.5 6z" />
    <glyph glyph-name="questiondown" unicode="&#xbf;" horiz-adv-x="526" 
d="M274 512q50 0 69.5 -26.5t19.5 -60.5q0 -17 -4.5 -32t-15 -27t-27.5 -19t-42 -7t-42 7t-27 19t-14.5 27t-4.5 32q0 34 19 60.5t69 26.5zM277 -209q-45 0 -87.5 7.5t-75 26t-52.5 50.5t-20 80q0 37 12.5 66t30.5 53.5t40 45t40 40t30.5 39.5t12.5 43v29h139v-29
q0 -30 -11.5 -54.5t-28.5 -45.5t-36.5 -40t-36.5 -38t-28.5 -38.5t-11.5 -41.5q0 -21 10 -34.5t25.5 -21t34.5 -10.5t38 -3q42 0 83 8.5t85 24.5l30 -112q-44 -20 -99.5 -32.5t-123.5 -12.5z" />
    <glyph glyph-name="Agrave" unicode="&#xc0;" horiz-adv-x="690" 
d="M436 700l242 -700h-163l-45 145h-251l-44 -145h-163l242 700h182zM401 376q-14 49 -28 95.5t-26 96.5h-4q-12 -50 -26 -96.5t-28 -95.5l-34 -112h180zM480 811l-28 -63l-243 81l47 108z" />
    <glyph glyph-name="Aacute" unicode="&#xc1;" horiz-adv-x="690" 
d="M436 700l242 -700h-163l-45 145h-251l-44 -145h-163l242 700h182zM401 376q-14 49 -28 95.5t-26 96.5h-4q-12 -50 -26 -96.5t-28 -95.5l-34 -112h180zM432 937l48 -108l-244 -81l-27 63z" />
    <glyph glyph-name="Acircumflex" unicode="&#xc2;" horiz-adv-x="690" 
d="M436 700l242 -700h-163l-45 145h-251l-44 -145h-163l242 700h182zM401 376q-14 49 -28 95.5t-26 96.5h-4q-12 -50 -26 -96.5t-28 -95.5l-34 -112h180zM384 915l128 -155h-95l-73 65l-72 -65h-96l128 155h80z" />
    <glyph glyph-name="Atilde" unicode="&#xc3;" horiz-adv-x="690" 
d="M436 700l242 -700h-163l-45 145h-251l-44 -145h-163l242 700h182zM401 376q-14 49 -28 95.5t-26 96.5h-4q-12 -50 -26 -96.5t-28 -95.5l-34 -112h180zM407 850q15 0 23 13.5t10 46.5h77q-2 -76 -26 -114t-79 -38q-21 0 -39 10t-33.5 21.5t-29.5 21.5t-28 10
q-15 0 -23.5 -14t-10.5 -46h-77q3 76 27 113.5t79 37.5q22 0 39.5 -9.5t32.5 -21.5t29 -21.5t29 -9.5z" />
    <glyph glyph-name="Adieresis" unicode="&#xc4;" horiz-adv-x="690" 
d="M436 700l242 -700h-163l-45 145h-251l-44 -145h-163l242 700h182zM401 376q-14 49 -28 95.5t-26 96.5h-4q-12 -50 -26 -96.5t-28 -95.5l-34 -112h180zM237 895q36 0 56 -18.5t20 -50.5q0 -34 -20 -52t-56 -18q-75 0 -75 70q0 32 19 50.5t56 18.5zM451 895q36 0 56 -18.5
t20 -50.5q0 -34 -20 -52t-56 -18q-75 0 -75 70q0 32 19 50.5t56 18.5z" />
    <glyph glyph-name="Aring" unicode="&#xc5;" horiz-adv-x="690" 
d="M344 854q48 0 78.5 -25t30.5 -79q0 -36 -14 -59l239 -691h-163l-45 145h-251l-44 -145h-163l238 688q-15 24 -15 62q0 54 30.5 79t78.5 25zM401 376q-14 49 -28 95.5t-26 96.5h-4q-12 -50 -26 -96.5t-28 -95.5l-34 -112h180zM344 705q20 0 30 10.5t10 34.5q0 44 -40 44
t-40 -44q0 -24 10 -34.5t30 -10.5z" />
    <glyph glyph-name="AE" unicode="&#xc6;" horiz-adv-x="916" 
d="M867 569h-275v-155h253v-128h-253v-156h278v-130h-429v144h-200l-80 -144h-160l408 700h458v-131zM441 251v291h-3q-10 -28 -22.5 -58.5t-31.5 -67.5l-83 -165h140z" />
    <glyph glyph-name="Ccedilla" unicode="&#xc7;" horiz-adv-x="613" 
d="M486 -125q0 -26 -9 -42.5t-24 -26.5t-34.5 -14t-40.5 -4q-27 0 -48.5 4t-40.5 12l13 54q31 -12 57 -12q18 0 29.5 6.5t11.5 21.5q0 14 -10 21t-33 7h-46v44l30 43q-78 4 -133.5 30.5t-91.5 71t-52.5 105.5t-16.5 136v35q0 82 19 146t59 108t101 67t144 23q63 0 114 -13
t90 -33l-30 -117q-35 15 -71.5 23t-77.5 8q-97 0 -144.5 -56t-47.5 -156v-35q0 -47 9 -86.5t31 -67.5t58 -43.5t89 -15.5q85 0 163 35l30 -117q-35 -18 -81.5 -31.5t-101.5 -16.5l-16 -35q46 2 74 -19t28 -60z" />
    <glyph glyph-name="Egrave" unicode="&#xc8;" horiz-adv-x="578" 
d="M528 569h-307v-155h285v-128h-285v-156h311v-130h-464v700h460v-131zM433 811l-28 -63l-243 81l47 108z" />
    <glyph glyph-name="Eacute" unicode="&#xc9;" horiz-adv-x="578" 
d="M528 569h-307v-155h285v-128h-285v-156h311v-130h-464v700h460v-131zM401 937l48 -108l-244 -81l-27 63z" />
    <glyph glyph-name="Ecircumflex" unicode="&#xca;" horiz-adv-x="578" 
d="M528 569h-307v-155h285v-128h-285v-156h311v-130h-464v700h460v-131zM332 915l128 -155h-95l-73 65l-72 -65h-96l128 155h80z" />
    <glyph glyph-name="Edieresis" unicode="&#xcb;" horiz-adv-x="578" 
d="M528 569h-307v-155h285v-128h-285v-156h311v-130h-464v700h460v-131zM191 895q36 0 56 -18.5t20 -50.5q0 -34 -20 -52t-56 -18q-75 0 -75 70q0 32 19 50.5t56 18.5zM405 895q36 0 56 -18.5t20 -50.5q0 -34 -20 -52t-56 -18q-75 0 -75 70q0 32 19 50.5t56 18.5z" />
    <glyph glyph-name="Igrave" unicode="&#xcc;" horiz-adv-x="296" 
d="M225 0h-155v700h155v-700zM283 811l-28 -63l-243 81l47 108z" />
    <glyph glyph-name="Iacute" unicode="&#xcd;" horiz-adv-x="296" 
d="M225 0h-155v700h155v-700zM235 937l48 -108l-244 -81l-27 63z" />
    <glyph glyph-name="Icircumflex" unicode="&#xce;" horiz-adv-x="296" 
d="M225 0h-155v700h155v-700zM187 915l128 -155h-95l-73 65l-72 -65h-96l128 155h80z" />
    <glyph glyph-name="Idieresis" unicode="&#xcf;" horiz-adv-x="296" 
d="M225 0h-155v700h155v-700zM40 895q36 0 56 -18.5t20 -50.5q0 -34 -20 -52t-56 -18q-75 0 -75 70q0 32 19 50.5t56 18.5zM254 895q36 0 56 -18.5t20 -50.5q0 -34 -20 -52t-56 -18q-75 0 -75 70q0 32 19 50.5t56 18.5z" />
    <glyph glyph-name="Eth" unicode="&#xd0;" horiz-adv-x="690" 
d="M338 700q82 0 140 -22t95 -64t54 -103t17 -140v-36q0 -81 -17.5 -143t-55 -105t-96.5 -65t-141 -22h-265v295h-70v92h70v313h269zM330 133q46 0 76.5 13.5t48.5 39.5t25.5 63.5t7.5 85.5v34q0 47 -7 84t-24 62t-47 38t-75 13h-110v-179h138v-92h-138v-162h105z" />
    <glyph glyph-name="Ntilde" unicode="&#xd1;" horiz-adv-x="719" 
d="M500 0l-175 276q-34 54 -64.5 112t-52.5 112h-3q6 -60 8.5 -124t2.5 -127v-249h-148v700h157l183 -294q30 -49 58.5 -103.5t50.5 -103.5h3q-7 60 -9.5 124t-2.5 127v250h148v-700h-156zM422 850q15 0 23 13.5t10 46.5h77q-2 -76 -26 -114t-79 -38q-21 0 -39 10
t-33.5 21.5t-29.5 21.5t-28 10q-15 0 -23.5 -14t-10.5 -46h-77q3 76 27 113.5t79 37.5q22 0 39.5 -9.5t32.5 -21.5t29 -21.5t29 -9.5z" />
    <glyph glyph-name="Ograve" unicode="&#xd2;" horiz-adv-x="704" 
d="M352 118q43 0 71.5 14.5t45.5 42.5t24.5 67.5t7.5 89.5v35q0 50 -7.5 90t-24.5 67.5t-45.5 42.5t-71.5 15t-71.5 -15t-46 -42.5t-24.5 -67.5t-7 -90v-35q0 -50 7 -89.5t24.5 -67.5t46 -42.5t71.5 -14.5zM352 711q79 0 137 -23.5t95 -67.5t55 -108t18 -145v-35
q0 -81 -18 -144.5t-55 -108t-95 -68t-137 -23.5q-80 0 -137.5 23.5t-94.5 68t-55 108t-18 144.5v35q0 81 18 145t55 108t94.5 67.5t137.5 23.5zM487 811l-28 -63l-243 81l47 108z" />
    <glyph glyph-name="Oacute" unicode="&#xd3;" horiz-adv-x="704" 
d="M352 118q43 0 71.5 14.5t45.5 42.5t24.5 67.5t7.5 89.5v35q0 50 -7.5 90t-24.5 67.5t-45.5 42.5t-71.5 15t-71.5 -15t-46 -42.5t-24.5 -67.5t-7 -90v-35q0 -50 7 -89.5t24.5 -67.5t46 -42.5t71.5 -14.5zM352 711q79 0 137 -23.5t95 -67.5t55 -108t18 -145v-35
q0 -81 -18 -144.5t-55 -108t-95 -68t-137 -23.5q-80 0 -137.5 23.5t-94.5 68t-55 108t-18 144.5v35q0 81 18 145t55 108t94.5 67.5t137.5 23.5zM439 937l48 -108l-244 -81l-27 63z" />
    <glyph glyph-name="Ocircumflex" unicode="&#xd4;" horiz-adv-x="704" 
d="M352 118q43 0 71.5 14.5t45.5 42.5t24.5 67.5t7.5 89.5v35q0 50 -7.5 90t-24.5 67.5t-45.5 42.5t-71.5 15t-71.5 -15t-46 -42.5t-24.5 -67.5t-7 -90v-35q0 -50 7 -89.5t24.5 -67.5t46 -42.5t71.5 -14.5zM352 711q79 0 137 -23.5t95 -67.5t55 -108t18 -145v-35
q0 -81 -18 -144.5t-55 -108t-95 -68t-137 -23.5q-80 0 -137.5 23.5t-94.5 68t-55 108t-18 144.5v35q0 81 18 145t55 108t94.5 67.5t137.5 23.5zM392 915l128 -155h-95l-73 65l-72 -65h-96l128 155h80z" />
    <glyph glyph-name="Otilde" unicode="&#xd5;" horiz-adv-x="705" 
d="M352 118q43 0 71.5 14.5t45.5 42.5t24.5 67.5t7.5 89.5v35q0 50 -7.5 90t-24.5 67.5t-45.5 42.5t-71.5 15t-71.5 -15t-46 -42.5t-24.5 -67.5t-7 -90v-35q0 -50 7 -89.5t24.5 -67.5t46 -42.5t71.5 -14.5zM352 711q79 0 137 -23.5t95 -67.5t55 -108t18 -145v-35
q0 -81 -18 -144.5t-55 -108t-95 -68t-137 -23.5q-80 0 -137.5 23.5t-94.5 68t-55 108t-18 144.5v35q0 81 18 145t55 108t94.5 67.5t137.5 23.5zM415 850q15 0 23 13.5t10 46.5h77q-2 -76 -26 -114t-79 -38q-21 0 -39 10t-33.5 21.5t-29.5 21.5t-28 10q-15 0 -23.5 -14
t-10.5 -46h-77q3 76 27 113.5t79 37.5q22 0 39.5 -9.5t32.5 -21.5t29 -21.5t29 -9.5z" />
    <glyph glyph-name="Odieresis" unicode="&#xd6;" horiz-adv-x="704" 
d="M352 118q43 0 71.5 14.5t45.5 42.5t24.5 67.5t7.5 89.5v35q0 50 -7.5 90t-24.5 67.5t-45.5 42.5t-71.5 15t-71.5 -15t-46 -42.5t-24.5 -67.5t-7 -90v-35q0 -50 7 -89.5t24.5 -67.5t46 -42.5t71.5 -14.5zM352 711q79 0 137 -23.5t95 -67.5t55 -108t18 -145v-35
q0 -81 -18 -144.5t-55 -108t-95 -68t-137 -23.5q-80 0 -137.5 23.5t-94.5 68t-55 108t-18 144.5v35q0 81 18 145t55 108t94.5 67.5t137.5 23.5zM244 895q36 0 56 -18.5t20 -50.5q0 -34 -20 -52t-56 -18q-75 0 -75 70q0 32 19 50.5t56 18.5zM458 895q36 0 56 -18.5t20 -50.5
q0 -34 -20 -52t-56 -18q-75 0 -75 70q0 32 19 50.5t56 18.5z" />
    <glyph glyph-name="multiply" unicode="&#xd7;" horiz-adv-x="505" 
d="M252 231l-121 -151l-91 92l125 149l-125 148l91 91l121 -150l122 150l91 -91l-125 -148l125 -149l-90 -92z" />
    <glyph glyph-name="Oslash" unicode="&#xd8;" horiz-adv-x="704" 
d="M352 711q50 0 90.5 -9.5t73.5 -26.5l29 45h94l-60 -95q40 -45 59 -109.5t19 -148.5v-35q0 -81 -18 -144.5t-55 -108t-95 -68t-137 -23.5q-91 0 -157 32l-31 -50h-94l61 96q-44 45 -64 111.5t-20 154.5v35q0 81 18 145t55 108t94.5 67.5t137.5 23.5zM203 332
q0 -38 4 -69.5t13 -56.5l221 349q-17 13 -38.5 20t-50.5 7q-43 0 -71.5 -15t-46 -42.5t-24.5 -67.5t-7 -90v-35zM352 118q43 0 71.5 14.5t45.5 42.5t24.5 67.5t7.5 89.5v35q0 68 -13 114l-218 -343q32 -20 82 -20z" />
    <glyph glyph-name="Ugrave" unicode="&#xd9;" horiz-adv-x="688" 
d="M344 -12q-75 0 -128.5 19t-87 56.5t-49 93.5t-15.5 131v412h156v-408q0 -46 6 -78.5t20.5 -52.5t38 -29.5t59.5 -9.5t59.5 9.5t38 29.5t20.5 52.5t6 78.5v408h156v-412q0 -75 -15.5 -131t-49 -93.5t-87 -56.5t-128.5 -19zM480 811l-28 -63l-243 81l47 108z" />
    <glyph glyph-name="Uacute" unicode="&#xda;" horiz-adv-x="688" 
d="M344 -12q-75 0 -128.5 19t-87 56.5t-49 93.5t-15.5 131v412h156v-408q0 -46 6 -78.5t20.5 -52.5t38 -29.5t59.5 -9.5t59.5 9.5t38 29.5t20.5 52.5t6 78.5v408h156v-412q0 -75 -15.5 -131t-49 -93.5t-87 -56.5t-128.5 -19zM432 937l48 -108l-244 -81l-27 63z" />
    <glyph glyph-name="Ucircumflex" unicode="&#xdb;" horiz-adv-x="688" 
d="M344 -12q-75 0 -128.5 19t-87 56.5t-49 93.5t-15.5 131v412h156v-408q0 -46 6 -78.5t20.5 -52.5t38 -29.5t59.5 -9.5t59.5 9.5t38 29.5t20.5 52.5t6 78.5v408h156v-412q0 -75 -15.5 -131t-49 -93.5t-87 -56.5t-128.5 -19zM384 915l128 -155h-95l-73 65l-72 -65h-96
l128 155h80z" />
    <glyph glyph-name="Udieresis" unicode="&#xdc;" horiz-adv-x="688" 
d="M344 -12q-75 0 -128.5 19t-87 56.5t-49 93.5t-15.5 131v412h156v-408q0 -46 6 -78.5t20.5 -52.5t38 -29.5t59.5 -9.5t59.5 9.5t38 29.5t20.5 52.5t6 78.5v408h156v-412q0 -75 -15.5 -131t-49 -93.5t-87 -56.5t-128.5 -19zM237 895q36 0 56 -18.5t20 -50.5q0 -34 -20 -52
t-56 -18q-75 0 -75 70q0 32 19 50.5t56 18.5zM451 895q36 0 56 -18.5t20 -50.5q0 -34 -20 -52t-56 -18q-75 0 -75 70q0 32 19 50.5t56 18.5z" />
    <glyph glyph-name="Yacute" unicode="&#xdd;" horiz-adv-x="666" 
d="M411 0h-156v255l-245 445h168l97 -189q18 -35 31.5 -70t24.5 -69h3q22 70 57 139l96 189h169l-245 -445v-255zM420 937l48 -108l-244 -81l-27 63z" />
    <glyph glyph-name="Thorn" unicode="&#xde;" horiz-adv-x="638" 
d="M224 120v-120h-156v700h155v-122h124q127 0 186.5 -54t59.5 -174q0 -122 -61 -176t-186 -54h-122zM336 246q59 0 82 23.5t23 80.5q0 56 -22.5 79t-80.5 23h-115v-206h113z" />
    <glyph glyph-name="germandbls" unicode="&#xdf;" horiz-adv-x="661" 
d="M381 93q47 0 73 23.5t26 82.5q0 57 -28.5 83.5t-91.5 26.5h-58v103h64q46 0 69 20.5t23 69.5q0 94 -114 94q-69 0 -101.5 -35t-32.5 -114v-447h-148v452q0 129 67.5 194t210.5 65q67 0 115 -15t79 -42t46 -63.5t15 -79.5q0 -54 -25.5 -91.5t-71.5 -53.5v-1
q57 -15 90.5 -57.5t33.5 -117.5q0 -54 -15 -92.5t-43 -62.5t-68.5 -35.5t-90.5 -11.5q-48 0 -87.5 8.5t-64.5 21.5l24 97q22 -10 48.5 -16t55.5 -6z" />
    <glyph glyph-name="agrave" unicode="&#xe0;" horiz-adv-x="548" 
d="M166 157q0 -36 20.5 -51t52.5 -15q22 0 41.5 9t33 23.5t21.5 33.5t8 40v24q-16 4 -38.5 6t-42.5 2q-51 0 -73.5 -17t-22.5 -55zM343 87q-7 -20 -19.5 -37.5t-30.5 -30.5t-42.5 -20.5t-56.5 -7.5q-33 0 -61.5 9.5t-50 29t-34 48t-12.5 66.5q0 93 54.5 131t157.5 34
q27 0 52 -3.5t43 -6.5v21q0 43 -22.5 63.5t-74.5 20.5q-45 0 -84.5 -9t-74.5 -23l-24 97q43 18 95.5 30t111.5 12q114 0 166.5 -48.5t52.5 -142.5v-320h-135l-9 87h-2zM409 611l-28 -63l-243 81l47 108z" />
    <glyph glyph-name="aacute" unicode="&#xe1;" horiz-adv-x="548" 
d="M166 157q0 -36 20.5 -51t52.5 -15q22 0 41.5 9t33 23.5t21.5 33.5t8 40v24q-16 4 -38.5 6t-42.5 2q-51 0 -73.5 -17t-22.5 -55zM343 87q-7 -20 -19.5 -37.5t-30.5 -30.5t-42.5 -20.5t-56.5 -7.5q-33 0 -61.5 9.5t-50 29t-34 48t-12.5 66.5q0 93 54.5 131t157.5 34
q27 0 52 -3.5t43 -6.5v21q0 43 -22.5 63.5t-74.5 20.5q-45 0 -84.5 -9t-74.5 -23l-24 97q43 18 95.5 30t111.5 12q114 0 166.5 -48.5t52.5 -142.5v-320h-135l-9 87h-2zM361 737l48 -108l-244 -81l-27 63z" />
    <glyph glyph-name="acircumflex" unicode="&#xe2;" horiz-adv-x="548" 
d="M166 157q0 -36 20.5 -51t52.5 -15q22 0 41.5 9t33 23.5t21.5 33.5t8 40v24q-16 4 -38.5 6t-42.5 2q-51 0 -73.5 -17t-22.5 -55zM343 87q-7 -20 -19.5 -37.5t-30.5 -30.5t-42.5 -20.5t-56.5 -7.5q-33 0 -61.5 9.5t-50 29t-34 48t-12.5 66.5q0 93 54.5 131t157.5 34
q27 0 52 -3.5t43 -6.5v21q0 43 -22.5 63.5t-74.5 20.5q-45 0 -84.5 -9t-74.5 -23l-24 97q43 18 95.5 30t111.5 12q114 0 166.5 -48.5t52.5 -142.5v-320h-135l-9 87h-2zM313 715l128 -155h-95l-73 65l-72 -65h-96l128 155h80z" />
    <glyph glyph-name="atilde" unicode="&#xe3;" horiz-adv-x="548" 
d="M166 157q0 -36 20.5 -51t52.5 -15q22 0 41.5 9t33 23.5t21.5 33.5t8 40v24q-16 4 -38.5 6t-42.5 2q-51 0 -73.5 -17t-22.5 -55zM343 87q-7 -20 -19.5 -37.5t-30.5 -30.5t-42.5 -20.5t-56.5 -7.5q-33 0 -61.5 9.5t-50 29t-34 48t-12.5 66.5q0 93 54.5 131t157.5 34
q27 0 52 -3.5t43 -6.5v21q0 43 -22.5 63.5t-74.5 20.5q-45 0 -84.5 -9t-74.5 -23l-24 97q43 18 95.5 30t111.5 12q114 0 166.5 -48.5t52.5 -142.5v-320h-135l-9 87h-2zM336 650q15 0 23 13.5t10 46.5h77q-2 -76 -26 -114t-79 -38q-21 0 -39 10t-33.5 21.5t-29.5 21.5t-28 10
q-15 0 -23.5 -14t-10.5 -46h-77q3 76 27 113.5t79 37.5q22 0 39.5 -9.5t32.5 -21.5t29 -21.5t29 -9.5z" />
    <glyph glyph-name="adieresis" unicode="&#xe4;" horiz-adv-x="548" 
d="M166 157q0 -36 20.5 -51t52.5 -15q22 0 41.5 9t33 23.5t21.5 33.5t8 40v24q-16 4 -38.5 6t-42.5 2q-51 0 -73.5 -17t-22.5 -55zM343 87q-7 -20 -19.5 -37.5t-30.5 -30.5t-42.5 -20.5t-56.5 -7.5q-33 0 -61.5 9.5t-50 29t-34 48t-12.5 66.5q0 93 54.5 131t157.5 34
q27 0 52 -3.5t43 -6.5v21q0 43 -22.5 63.5t-74.5 20.5q-45 0 -84.5 -9t-74.5 -23l-24 97q43 18 95.5 30t111.5 12q114 0 166.5 -48.5t52.5 -142.5v-320h-135l-9 87h-2zM166 695q36 0 56 -18.5t20 -50.5q0 -34 -20 -52t-56 -18q-75 0 -75 70q0 32 19 50.5t56 18.5zM380 695
q36 0 56 -18.5t20 -50.5q0 -34 -20 -52t-56 -18q-75 0 -75 70q0 32 19 50.5t56 18.5z" />
    <glyph glyph-name="aring" unicode="&#xe5;" horiz-adv-x="548" 
d="M166 157q0 -36 20.5 -51t52.5 -15q22 0 41.5 9t33 23.5t21.5 33.5t8 40v24q-16 4 -38.5 6t-42.5 2q-51 0 -73.5 -17t-22.5 -55zM343 87q-7 -20 -19.5 -37.5t-30.5 -30.5t-42.5 -20.5t-56.5 -7.5q-33 0 -61.5 9.5t-50 29t-34 48t-12.5 66.5q0 93 54.5 131t157.5 34
q27 0 52 -3.5t43 -6.5v21q0 43 -22.5 63.5t-74.5 20.5q-45 0 -84.5 -9t-74.5 -23l-24 97q43 18 95.5 30t111.5 12q114 0 166.5 -48.5t52.5 -142.5v-320h-135l-9 87h-2zM273 766q48 0 78.5 -25t30.5 -79q0 -55 -30.5 -80t-78.5 -25t-78.5 25t-30.5 80q0 54 30.5 79t78.5 25z
M273 617q20 0 30 10.5t10 34.5q0 44 -40 44t-40 -44q0 -24 10 -34.5t30 -10.5z" />
    <glyph glyph-name="ae" unicode="&#xe6;" horiz-adv-x="877" 
d="M628 -12q-67 0 -116 25.5t-68 73.5h-3q-19 -46 -67.5 -72.5t-118.5 -26.5q-58 0 -98 17t-64.5 46t-35.5 67t-11 79v94h320v10q-5 51 -37 80.5t-98 29.5q-44 0 -78.5 -10.5t-66.5 -27.5l-21 87q32 21 78 36.5t106 15.5q66 0 114.5 -25.5t68.5 -75.5h3q19 48 67.5 74.5
t118.5 26.5q58 0 98 -17.5t65 -46.5t35.5 -67t10.5 -79v-94h-320q4 -56 35.5 -87.5t100.5 -31.5q44 0 78 10.5t66 27.5l22 -88q-31 -20 -77.5 -35.5t-106.5 -15.5zM263 87q54 0 76 30t24 91h-193v-10q0 -27 4 -47.5t14.5 -35t28.5 -21.5t46 -7zM613 412q-54 0 -75.5 -30
t-23.5 -90h192v9q0 55 -19 83t-74 28z" />
    <glyph glyph-name="ccedilla" unicode="&#xe7;" horiz-adv-x="489" 
d="M355 -125q0 -26 -9 -42.5t-24 -26.5t-34.5 -14t-40.5 -4q-27 0 -48.5 4t-40.5 12l13 54q31 -12 57 -12q18 0 29.5 6.5t11.5 21.5q0 14 -10 21t-33 7h-46v44l35 50q-172 35 -172 241v26q0 248 249 248q51 0 93.5 -12.5t71.5 -30.5l-25 -100q-26 14 -54 21t-62 7
q-68 0 -95.5 -35t-27.5 -99v-24q0 -66 27.5 -100.5t94.5 -34.5q36 0 65.5 7.5t57.5 22.5l24 -100q-29 -19 -73 -32t-96 -13h-12t-12 1l-16 -35q46 2 74 -19t28 -60z" />
    <glyph glyph-name="egrave" unicode="&#xe8;" horiz-adv-x="554" 
d="M307 -12q-129 0 -196.5 65t-67.5 184v26q0 117 60 182.5t184 65.5q64 0 106.5 -19.5t68 -51t36.5 -71.5t11 -82v-91h-322q5 -55 39 -80t99 -25q42 0 76 11t66 28l23 -91q-31 -20 -77.5 -35.5t-105.5 -15.5zM288 411q-57 0 -79.5 -33t-22.5 -96v-3h194v8q0 56 -19 90
t-73 34zM412 611l-28 -63l-243 81l47 108z" />
    <glyph glyph-name="eacute" unicode="&#xe9;" horiz-adv-x="554" 
d="M307 -12q-129 0 -196.5 65t-67.5 184v26q0 117 60 182.5t184 65.5q64 0 106.5 -19.5t68 -51t36.5 -71.5t11 -82v-91h-322q5 -55 39 -80t99 -25q42 0 76 11t66 28l23 -91q-31 -20 -77.5 -35.5t-105.5 -15.5zM288 411q-57 0 -79.5 -33t-22.5 -96v-3h194v8q0 56 -19 90
t-73 34zM364 737l48 -108l-244 -81l-27 63z" />
    <glyph glyph-name="ecircumflex" unicode="&#xea;" horiz-adv-x="554" 
d="M307 -12q-129 0 -196.5 65t-67.5 184v26q0 117 60 182.5t184 65.5q64 0 106.5 -19.5t68 -51t36.5 -71.5t11 -82v-91h-322q5 -55 39 -80t99 -25q42 0 76 11t66 28l23 -91q-31 -20 -77.5 -35.5t-105.5 -15.5zM288 411q-57 0 -79.5 -33t-22.5 -96v-3h194v8q0 56 -19 90
t-73 34zM316 715l128 -155h-95l-73 65l-72 -65h-96l128 155h80z" />
    <glyph glyph-name="edieresis" unicode="&#xeb;" horiz-adv-x="554" 
d="M307 -12q-129 0 -196.5 65t-67.5 184v26q0 117 60 182.5t184 65.5q64 0 106.5 -19.5t68 -51t36.5 -71.5t11 -82v-91h-322q5 -55 39 -80t99 -25q42 0 76 11t66 28l23 -91q-31 -20 -77.5 -35.5t-105.5 -15.5zM288 411q-57 0 -79.5 -33t-22.5 -96v-3h194v8q0 56 -19 90
t-73 34zM169 695q36 0 56 -18.5t20 -50.5q0 -34 -20 -52t-56 -18q-75 0 -75 70q0 32 19 50.5t56 18.5zM383 695q36 0 56 -18.5t20 -50.5q0 -34 -20 -52t-56 -18q-75 0 -75 70q0 32 19 50.5t56 18.5z" />
    <glyph glyph-name="igrave" unicode="&#xec;" horiz-adv-x="272" 
d="M272 611l-28 -63l-243 81l47 108zM211 0h-150v500h150v-500z" />
    <glyph glyph-name="iacute" unicode="&#xed;" horiz-adv-x="272" 
d="M224 737l48 -108l-244 -81l-27 63zM211 0h-150v500h150v-500z" />
    <glyph glyph-name="icircumflex" unicode="&#xee;" horiz-adv-x="272" 
d="M211 0h-150v500h150v-500zM176 715l128 -155h-95l-73 65l-72 -65h-96l128 155h80z" />
    <glyph glyph-name="idieresis" unicode="&#xef;" horiz-adv-x="272" 
d="M29 695q36 0 56 -18.5t20 -50.5q0 -34 -20 -52t-56 -18q-75 0 -75 70q0 32 19 50.5t56 18.5zM243 695q36 0 56 -18.5t20 -50.5q0 -34 -20 -52t-56 -18q-75 0 -75 70q0 32 19 50.5t56 18.5zM211 0h-150v500h150v-500z" />
    <glyph glyph-name="eth" unicode="&#xf0;" horiz-adv-x="574" 
d="M211 583l63 16q-22 17 -43 30t-42 23l62 62q73 -40 124 -86l94 26l16 -61l-60 -16q61 -75 83 -157.5t22 -170.5v-8q0 -59 -14.5 -106t-44.5 -80t-76 -50.5t-109 -17.5q-126 0 -186 65t-60 183v19q0 59 16.5 104t46 75.5t70 46t89.5 15.5q48 0 84 -16.5t64 -46.5
q-11 29 -32.5 60t-48.5 59l-101 -26zM286 102q52 0 73 34.5t21 98.5v19q0 64 -21.5 98t-72.5 34q-52 0 -73.5 -34t-21.5 -98v-19q0 -64 21 -98.5t74 -34.5z" />
    <glyph glyph-name="ntilde" unicode="&#xf1;" horiz-adv-x="611" 
d="M402 285q0 54 -16 77.5t-61 23.5q-57 0 -86 -37t-29 -106v-243h-150v500h137l8 -89h2q8 18 22 36t35 32.5t49.5 23t65.5 8.5q92 0 132.5 -50t40.5 -153v-308h-150v285zM367 650q15 0 23 13.5t10 46.5h77q-2 -76 -26 -114t-79 -38q-21 0 -39 10t-33.5 21.5t-29.5 21.5
t-28 10q-15 0 -23.5 -14t-10.5 -46h-77q3 76 27 113.5t79 37.5q22 0 39.5 -9.5t32.5 -21.5t29 -21.5t29 -9.5z" />
    <glyph glyph-name="ograve" unicode="&#xf2;" horiz-adv-x="580" 
d="M290 511q125 0 186 -66.5t61 -181.5v-27q0 -115 -61 -181.5t-186 -66.5t-186 66.5t-61 181.5v27q0 115 61 181.5t186 66.5zM290 99q54 0 75.5 35.5t21.5 101.5v27q0 66 -21.5 101.5t-75.5 35.5t-75.5 -35.5t-21.5 -101.5v-27q0 -66 21.5 -101.5t75.5 -35.5zM425 611
l-28 -63l-243 81l47 108z" />
    <glyph glyph-name="oacute" unicode="&#xf3;" horiz-adv-x="580" 
d="M290 511q125 0 186 -66.5t61 -181.5v-27q0 -115 -61 -181.5t-186 -66.5t-186 66.5t-61 181.5v27q0 115 61 181.5t186 66.5zM290 99q54 0 75.5 35.5t21.5 101.5v27q0 66 -21.5 101.5t-75.5 35.5t-75.5 -35.5t-21.5 -101.5v-27q0 -66 21.5 -101.5t75.5 -35.5zM377 737
l48 -108l-244 -81l-27 63z" />
    <glyph glyph-name="ocircumflex" unicode="&#xf4;" horiz-adv-x="580" 
d="M290 511q125 0 186 -66.5t61 -181.5v-27q0 -115 -61 -181.5t-186 -66.5t-186 66.5t-61 181.5v27q0 115 61 181.5t186 66.5zM290 99q54 0 75.5 35.5t21.5 101.5v27q0 66 -21.5 101.5t-75.5 35.5t-75.5 -35.5t-21.5 -101.5v-27q0 -66 21.5 -101.5t75.5 -35.5zM329 715
l128 -155h-95l-73 65l-72 -65h-96l128 155h80z" />
    <glyph glyph-name="otilde" unicode="&#xf5;" horiz-adv-x="580" 
d="M290 511q125 0 186 -66.5t61 -181.5v-27q0 -115 -61 -181.5t-186 -66.5t-186 66.5t-61 181.5v27q0 115 61 181.5t186 66.5zM290 99q54 0 75.5 35.5t21.5 101.5v27q0 66 -21.5 101.5t-75.5 35.5t-75.5 -35.5t-21.5 -101.5v-27q0 -66 21.5 -101.5t75.5 -35.5zM352 650
q15 0 23 13.5t10 46.5h77q-2 -76 -26 -114t-79 -38q-21 0 -39 10t-33.5 21.5t-29.5 21.5t-28 10q-15 0 -23.5 -14t-10.5 -46h-77q3 76 27 113.5t79 37.5q22 0 39.5 -9.5t32.5 -21.5t29 -21.5t29 -9.5z" />
    <glyph glyph-name="odieresis" unicode="&#xf6;" horiz-adv-x="580" 
d="M290 511q125 0 186 -66.5t61 -181.5v-27q0 -115 -61 -181.5t-186 -66.5t-186 66.5t-61 181.5v27q0 115 61 181.5t186 66.5zM290 99q54 0 75.5 35.5t21.5 101.5v27q0 66 -21.5 101.5t-75.5 35.5t-75.5 -35.5t-21.5 -101.5v-27q0 -66 21.5 -101.5t75.5 -35.5zM182 695
q36 0 56 -18.5t20 -50.5q0 -34 -20 -52t-56 -18q-75 0 -75 70q0 32 19 50.5t56 18.5zM396 695q36 0 56 -18.5t20 -50.5q0 -34 -20 -52t-56 -18q-75 0 -75 70q0 32 19 50.5t56 18.5z" />
    <glyph glyph-name="divide" unicode="&#xf7;" horiz-adv-x="505" 
d="M252 423q-22 0 -37 6.5t-24 17t-12.5 24.5t-3.5 28t3.5 27.5t12.5 24t24 17t37 6.5t37 -6.5t24 -17t13 -24t4 -27.5t-4 -28t-13 -24.5t-24 -17t-37 -6.5zM40 261v118h424v-118h-424zM252 66q-22 0 -37 6.5t-24 17t-12.5 24.5t-3.5 28t3.5 27.5t12.5 24t24 17t37 6.5
t37 -6.5t24 -17t13 -24t4 -27.5t-4 -28t-13 -24.5t-24 -17t-37 -6.5z" />
    <glyph glyph-name="oslash" unicode="&#xf8;" horiz-adv-x="580" 
d="M290 511q65 0 116 -20l24 39h75l-46 -71q78 -65 78 -196v-27q0 -115 -61 -181.5t-186 -66.5q-35 0 -64 5.5t-53 15.5l-24 -39h-74l45 70q-39 32 -58 81.5t-19 114.5v27q0 115 61 181.5t186 66.5zM290 99q52 0 74 32.5t22 90.5q0 29 -1 56t-9 50l-136 -216q21 -13 50 -13z
M193 240q0 -42 10 -68l136 215q-19 13 -49 13q-31 0 -50 -11t-29.5 -31.5t-14 -50t-3.5 -67.5z" />
    <glyph glyph-name="ugrave" unicode="&#xf9;" horiz-adv-x="594" 
d="M208 203q0 -47 15.5 -68t54.5 -21q51 0 78 37t27 102v247h150v-500h-136l-9 87h-2q-8 -18 -21 -35.5t-32 -31.5t-45 -22.5t-60 -8.5q-88 0 -129 47t-41 145v319h150v-297zM432 611l-28 -63l-243 81l47 108z" />
    <glyph glyph-name="uacute" unicode="&#xfa;" horiz-adv-x="594" 
d="M208 203q0 -47 15.5 -68t54.5 -21q51 0 78 37t27 102v247h150v-500h-136l-9 87h-2q-8 -18 -21 -35.5t-32 -31.5t-45 -22.5t-60 -8.5q-88 0 -129 47t-41 145v319h150v-297zM384 737l48 -108l-244 -81l-27 63z" />
    <glyph glyph-name="ucircumflex" unicode="&#xfb;" horiz-adv-x="594" 
d="M208 203q0 -47 15.5 -68t54.5 -21q51 0 78 37t27 102v247h150v-500h-136l-9 87h-2q-8 -18 -21 -35.5t-32 -31.5t-45 -22.5t-60 -8.5q-88 0 -129 47t-41 145v319h150v-297zM336 715l128 -155h-95l-73 65l-72 -65h-96l128 155h80z" />
    <glyph glyph-name="udieresis" unicode="&#xfc;" horiz-adv-x="594" 
d="M208 203q0 -47 15.5 -68t54.5 -21q51 0 78 37t27 102v247h150v-500h-136l-9 87h-2q-8 -18 -21 -35.5t-32 -31.5t-45 -22.5t-60 -8.5q-88 0 -129 47t-41 145v319h150v-297zM189 695q36 0 56 -18.5t20 -50.5q0 -34 -20 -52t-56 -18q-75 0 -75 70q0 32 19 50.5t56 18.5z
M403 695q36 0 56 -18.5t20 -50.5q0 -34 -20 -52t-56 -18q-75 0 -75 70q0 32 19 50.5t56 18.5z" />
    <glyph glyph-name="yacute" unicode="&#xfd;" horiz-adv-x="556" 
d="M11 500h156l65 -189q14 -38 26 -89t22 -99h4q9 48 20.5 98.5t24.5 89.5l62 189h154l-189 -517q-18 -51 -35 -87.5t-39.5 -60t-54.5 -35t-80 -11.5q-40 0 -72 6.5t-51 17.5l22 109q15 -8 37 -13.5t48 -5.5q35 0 49.5 11.5t24.5 38.5l9 25zM365 737l48 -108l-244 -81
l-27 63z" />
    <glyph glyph-name="thorn" unicode="&#xfe;" horiz-adv-x="605" 
d="M322 397q-54 0 -82.5 -35.5t-28.5 -87.5v-20q0 -67 25 -108t84 -41q49 0 71.5 31.5t22.5 103.5v21q0 67 -20.5 101.5t-71.5 34.5zM208 419q19 38 59 64.5t107 26.5q100 0 144 -65.5t44 -183.5v-22q0 -46 -8 -90.5t-29.5 -80t-59.5 -57t-97 -21.5q-64 0 -103 29t-54 68h-2
q2 -25 2 -49.5v-49.5v-188h-149v900h149v-198q0 -21 -1.5 -41.5t-3.5 -41.5h2z" />
    <glyph glyph-name="ydieresis" unicode="&#xff;" horiz-adv-x="556" 
d="M11 500h156l65 -189q14 -38 26 -89t22 -99h4q9 48 20.5 98.5t24.5 89.5l62 189h154l-189 -517q-18 -51 -35 -87.5t-39.5 -60t-54.5 -35t-80 -11.5q-40 0 -72 6.5t-51 17.5l22 109q15 -8 37 -13.5t48 -5.5q35 0 49.5 11.5t24.5 38.5l9 25zM170 695q36 0 56 -18.5t20 -50.5
q0 -34 -20 -52t-56 -18q-75 0 -75 70q0 32 19 50.5t56 18.5zM384 695q36 0 56 -18.5t20 -50.5q0 -34 -20 -52t-56 -18q-75 0 -75 70q0 32 19 50.5t56 18.5z" />
    <glyph glyph-name="Amacron" unicode="&#x100;" horiz-adv-x="690" 
d="M436 700l242 -700h-163l-45 145h-251l-44 -145h-163l242 700h182zM401 376q-14 49 -28 95.5t-26 96.5h-4q-12 -50 -26 -96.5t-28 -95.5l-34 -112h180zM506 848v-84h-324v84h324z" />
    <glyph glyph-name="amacron" unicode="&#x101;" horiz-adv-x="548" 
d="M166 157q0 -36 20.5 -51t52.5 -15q22 0 41.5 9t33 23.5t21.5 33.5t8 40v24q-16 4 -38.5 6t-42.5 2q-51 0 -73.5 -17t-22.5 -55zM343 87q-7 -20 -19.5 -37.5t-30.5 -30.5t-42.5 -20.5t-56.5 -7.5q-33 0 -61.5 9.5t-50 29t-34 48t-12.5 66.5q0 93 54.5 131t157.5 34
q27 0 52 -3.5t43 -6.5v21q0 43 -22.5 63.5t-74.5 20.5q-45 0 -84.5 -9t-74.5 -23l-24 97q43 18 95.5 30t111.5 12q114 0 166.5 -48.5t52.5 -142.5v-320h-135l-9 87h-2zM435 648v-84h-324v84h324z" />
    <glyph glyph-name="Abreve" unicode="&#x102;" horiz-adv-x="690" 
d="M436 700l242 -700h-163l-45 145h-251l-44 -145h-163l242 700h182zM401 376q-14 49 -28 95.5t-26 96.5h-4q-12 -50 -26 -96.5t-28 -95.5l-34 -112h180zM344 757q-67 0 -109.5 36t-45.5 119h81q5 -36 23.5 -51t50.5 -15q33 0 51.5 15t23.5 51h81q-3 -83 -46 -119t-110 -36z
" />
    <glyph glyph-name="abreve" unicode="&#x103;" horiz-adv-x="548" 
d="M166 157q0 -36 20.5 -51t52.5 -15q22 0 41.5 9t33 23.5t21.5 33.5t8 40v24q-16 4 -38.5 6t-42.5 2q-51 0 -73.5 -17t-22.5 -55zM343 87q-7 -20 -19.5 -37.5t-30.5 -30.5t-42.5 -20.5t-56.5 -7.5q-33 0 -61.5 9.5t-50 29t-34 48t-12.5 66.5q0 93 54.5 131t157.5 34
q27 0 52 -3.5t43 -6.5v21q0 43 -22.5 63.5t-74.5 20.5q-45 0 -84.5 -9t-74.5 -23l-24 97q43 18 95.5 30t111.5 12q114 0 166.5 -48.5t52.5 -142.5v-320h-135l-9 87h-2zM273 557q-67 0 -109.5 36t-45.5 119h81q5 -36 23.5 -51t50.5 -15q33 0 51.5 15t23.5 51h81
q-3 -83 -46 -119t-110 -36z" />
    <glyph glyph-name="Aogonek" unicode="&#x104;" horiz-adv-x="690" 
d="M436 700l242 -700h-17q-44 -16 -57.5 -35t-13.5 -40q0 -19 10 -26.5t29 -7.5q28 0 58 15l15 -61q-18 -13 -44 -21.5t-55 -8.5q-21 0 -39.5 4.5t-32.5 15t-22.5 28t-8.5 42.5q0 38 19.5 60t45.5 35h-50l-45 145h-251l-44 -145h-163l242 700h182zM401 376q-14 49 -28 95.5
t-26 96.5h-4q-12 -50 -26 -96.5t-28 -95.5l-34 -112h180z" />
    <glyph glyph-name="aogonek" unicode="&#x105;" horiz-adv-x="548" 
d="M343 87q-7 -20 -19.5 -37.5t-30.5 -30.5t-42.5 -20.5t-56.5 -7.5q-33 0 -61.5 9.5t-50 29t-34 48t-12.5 66.5q0 93 54.5 131t157.5 34q27 0 52 -3.5t43 -6.5v21q0 43 -22.5 63.5t-74.5 20.5q-45 0 -84.5 -9t-74.5 -23l-24 97q43 18 95.5 30t111.5 12q114 0 166.5 -48.5
t52.5 -142.5v-320h-29q-44 -16 -57.5 -35t-13.5 -40q0 -19 10 -26.5t29 -7.5q28 0 58 15l15 -61q-18 -13 -44 -21.5t-55 -8.5q-21 0 -39.5 4.5t-32.5 15t-22.5 28t-8.5 42.5q0 38 19.5 60t45.5 35h-10l-9 87h-2zM166 157q0 -36 20.5 -51t52.5 -15q22 0 41.5 9t33 23.5
t21.5 33.5t8 40v24q-16 4 -38.5 6t-42.5 2q-51 0 -73.5 -17t-22.5 -55z" />
    <glyph glyph-name="Cacute" unicode="&#x106;" horiz-adv-x="613" 
d="M390 119q85 0 163 35l30 -117q-40 -20 -93 -34.5t-117 -14.5q-87 0 -148.5 24.5t-101 69.5t-58 108.5t-18.5 141.5v35q0 82 19 146t59 108t101 67t144 23q63 0 114 -13t90 -33l-30 -117q-35 15 -71.5 23t-77.5 8q-97 0 -144.5 -56t-47.5 -156v-35q0 -47 9 -86.5t31 -67.5
t58 -43.5t89 -15.5zM445 937l48 -108l-244 -81l-27 63z" />
    <glyph glyph-name="cacute" unicode="&#x107;" horiz-adv-x="489" 
d="M43 263q0 248 249 248q51 0 93.5 -12.5t71.5 -30.5l-25 -100q-26 14 -54 21t-62 7q-68 0 -95.5 -35t-27.5 -99v-24q0 -66 27.5 -100.5t94.5 -34.5q36 0 65.5 7.5t57.5 22.5l24 -100q-29 -19 -73 -32t-96 -13q-125 0 -187.5 62.5t-62.5 186.5v26zM368 737l48 -108
l-244 -81l-27 63z" />
    <glyph glyph-name="Ccircumflex" unicode="&#x108;" horiz-adv-x="613" 
d="M390 119q85 0 163 35l30 -117q-40 -20 -93 -34.5t-117 -14.5q-87 0 -148.5 24.5t-101 69.5t-58 108.5t-18.5 141.5v35q0 82 19 146t59 108t101 67t144 23q63 0 114 -13t90 -33l-30 -117q-35 15 -71.5 23t-77.5 8q-97 0 -144.5 -56t-47.5 -156v-35q0 -47 9 -86.5t31 -67.5
t58 -43.5t89 -15.5zM396 915l128 -155h-95l-73 65l-72 -65h-96l128 155h80z" />
    <glyph glyph-name="ccircumflex" unicode="&#x109;" horiz-adv-x="489" 
d="M43 263q0 248 249 248q51 0 93.5 -12.5t71.5 -30.5l-25 -100q-26 14 -54 21t-62 7q-68 0 -95.5 -35t-27.5 -99v-24q0 -66 27.5 -100.5t94.5 -34.5q36 0 65.5 7.5t57.5 22.5l24 -100q-29 -19 -73 -32t-96 -13q-125 0 -187.5 62.5t-62.5 186.5v26zM314 715l128 -155h-95
l-73 65l-72 -65h-96l128 155h80z" />
    <glyph glyph-name="Cdotaccent" unicode="&#x10a;" horiz-adv-x="613" 
d="M390 119q85 0 163 35l30 -117q-40 -20 -93 -34.5t-117 -14.5q-87 0 -148.5 24.5t-101 69.5t-58 108.5t-18.5 141.5v35q0 82 19 146t59 108t101 67t144 23q63 0 114 -13t90 -33l-30 -117q-35 15 -71.5 23t-77.5 8q-97 0 -144.5 -56t-47.5 -156v-35q0 -47 9 -86.5t31 -67.5
t58 -43.5t89 -15.5zM356 903q42 0 62 -20t20 -52q0 -34 -20 -53.5t-62 -19.5t-62 19.5t-20 53.5q0 32 20 52t62 20z" />
    <glyph glyph-name="cdotaccent" unicode="&#x10b;" horiz-adv-x="489" 
d="M43 263q0 248 249 248q51 0 93.5 -12.5t71.5 -30.5l-25 -100q-26 14 -54 21t-62 7q-68 0 -95.5 -35t-27.5 -99v-24q0 -66 27.5 -100.5t94.5 -34.5q36 0 65.5 7.5t57.5 22.5l24 -100q-29 -19 -73 -32t-96 -13q-125 0 -187.5 62.5t-62.5 186.5v26zM274 703q42 0 62 -20
t20 -52q0 -34 -20 -53.5t-62 -19.5t-62 19.5t-20 53.5q0 32 20 52t62 20z" />
    <glyph glyph-name="Ccaron" unicode="&#x10c;" horiz-adv-x="613" 
d="M390 119q85 0 163 35l30 -117q-40 -20 -93 -34.5t-117 -14.5q-87 0 -148.5 24.5t-101 69.5t-58 108.5t-18.5 141.5v35q0 82 19 146t59 108t101 67t144 23q63 0 114 -13t90 -33l-30 -117q-35 15 -71.5 23t-77.5 8q-97 0 -144.5 -56t-47.5 -156v-35q0 -47 9 -86.5t31 -67.5
t58 -43.5t89 -15.5zM316 758l-128 155h96l72 -66l73 66h95l-128 -155h-80z" />
    <glyph glyph-name="ccaron" unicode="&#x10d;" horiz-adv-x="489" 
d="M43 263q0 248 249 248q51 0 93.5 -12.5t71.5 -30.5l-25 -100q-26 14 -54 21t-62 7q-68 0 -95.5 -35t-27.5 -99v-24q0 -66 27.5 -100.5t94.5 -34.5q36 0 65.5 7.5t57.5 22.5l24 -100q-29 -19 -73 -32t-96 -13q-125 0 -187.5 62.5t-62.5 186.5v26zM234 558l-128 155h96
l72 -66l73 66h95l-128 -155h-80z" />
    <glyph glyph-name="Dcaron" unicode="&#x10e;" horiz-adv-x="688" 
d="M328 134q45 0 75.5 13.5t48.5 39.5t25.5 63t7.5 85v36q0 48 -7.5 84.5t-25.5 61t-49.5 37t-79.5 12.5h-99v-432h104zM335 700q82 0 140.5 -22t95.5 -64t54 -103t17 -140v-36q0 -81 -17.5 -143t-55 -105t-96.5 -65t-141 -22h-263v700h266zM303 758l-128 155h96l72 -66
l73 66h95l-128 -155h-80z" />
    <glyph glyph-name="dcaron" unicode="&#x10f;" horiz-adv-x="692" 
d="M290 397q-54 0 -76.5 -34.5t-22.5 -101.5v-21q0 -72 23.5 -104t71.5 -32q29 0 49.5 11.5t33 31.5t18.5 48.5t6 61.5v31q0 47 -27.5 78t-75.5 31zM240 511q62 0 99 -25t57 -59h2q-2 21 -3.5 41.5t-1.5 40.5v191h150v-700h-137l-10 87h-2q-18 -46 -60.5 -71.5t-100.5 -25.5
q-91 0 -140 61t-49 188v22q0 119 47.5 184.5t148.5 65.5zM625 719l134 -23l-77 -193l-78 18z" />
    <glyph glyph-name="Dcroat" unicode="&#x110;" horiz-adv-x="690" 
d="M338 700q82 0 140 -22t95 -64t54 -103t17 -140v-36q0 -81 -17.5 -143t-55 -105t-96.5 -65t-141 -22h-265v295h-70v92h70v313h269zM330 133q46 0 76.5 13.5t48.5 39.5t25.5 63.5t7.5 85.5v34q0 47 -7 84t-24 62t-47 38t-75 13h-110v-179h138v-92h-138v-162h105z" />
    <glyph glyph-name="dcroat" unicode="&#x111;" horiz-adv-x="605" 
d="M240 511q62 0 99 -25t57 -59h2q-2 21 -3.5 41.5t-1.5 40.5v53h-130v78h130v60h150v-60h50v-78h-50v-562h-137l-10 87h-2q-8 -19 -20.5 -37t-31.5 -31.5t-43 -21.5t-54 -8q-96 0 -148.5 58t-52.5 192v22q0 119 47.5 184.5t148.5 65.5zM290 397q-54 0 -76.5 -34.5
t-22.5 -101.5v-21q0 -72 23.5 -104t71.5 -32q29 0 49.5 11.5t33 31.5t18.5 48.5t6 61.5v31q0 47 -27.5 78t-75.5 31z" />
    <glyph glyph-name="Emacron" unicode="&#x112;" horiz-adv-x="578" 
d="M528 569h-307v-155h285v-128h-285v-156h311v-130h-464v700h460v-131zM470 848v-84h-324v84h324z" />
    <glyph glyph-name="emacron" unicode="&#x113;" horiz-adv-x="554" 
d="M307 -12q-129 0 -196.5 65t-67.5 184v26q0 117 60 182.5t184 65.5q64 0 106.5 -19.5t68 -51t36.5 -71.5t11 -82v-91h-322q5 -55 39 -80t99 -25q42 0 76 11t66 28l23 -91q-31 -20 -77.5 -35.5t-105.5 -15.5zM288 411q-57 0 -79.5 -33t-22.5 -96v-3h194v8q0 56 -19 90
t-73 34zM443 648v-84h-324v84h324z" />
    <glyph glyph-name="Ebreve" unicode="&#x114;" horiz-adv-x="578" 
d="M528 569h-307v-155h285v-128h-285v-156h311v-130h-464v700h460v-131zM315 757q-67 0 -109.5 36t-45.5 119h81q5 -36 23.5 -51t50.5 -15q33 0 51.5 15t23.5 51h81q-3 -83 -46 -119t-110 -36z" />
    <glyph glyph-name="ebreve" unicode="&#x115;" horiz-adv-x="554" 
d="M307 -12q-129 0 -196.5 65t-67.5 184v26q0 117 60 182.5t184 65.5q64 0 106.5 -19.5t68 -51t36.5 -71.5t11 -82v-91h-322q5 -55 39 -80t99 -25q42 0 76 11t66 28l23 -91q-31 -20 -77.5 -35.5t-105.5 -15.5zM288 411q-57 0 -79.5 -33t-22.5 -96v-3h194v8q0 56 -19 90
t-73 34zM281 557q-67 0 -109.5 36t-45.5 119h81q5 -36 23.5 -51t50.5 -15q33 0 51.5 15t23.5 51h81q-3 -83 -46 -119t-110 -36z" />
    <glyph glyph-name="Edotaccent" unicode="&#x116;" horiz-adv-x="578" 
d="M528 569h-307v-155h285v-128h-285v-156h311v-130h-464v700h460v-131zM315 903q42 0 62 -20t20 -52q0 -34 -20 -53.5t-62 -19.5t-62 19.5t-20 53.5q0 32 20 52t62 20z" />
    <glyph glyph-name="edotaccent" unicode="&#x117;" horiz-adv-x="554" 
d="M307 -12q-129 0 -196.5 65t-67.5 184v26q0 117 60 182.5t184 65.5q64 0 106.5 -19.5t68 -51t36.5 -71.5t11 -82v-91h-322q5 -55 39 -80t99 -25q42 0 76 11t66 28l23 -91q-31 -20 -77.5 -35.5t-105.5 -15.5zM288 411q-57 0 -79.5 -33t-22.5 -96v-3h194v8q0 56 -19 90
t-73 34zM287 703q42 0 62 -20t20 -52q0 -34 -20 -53.5t-62 -19.5t-62 19.5t-20 53.5q0 32 20 52t62 20z" />
    <glyph glyph-name="Eogonek" unicode="&#x118;" horiz-adv-x="578" 
d="M528 569h-307v-155h285v-128h-285v-156h311v-130h-33q-44 -16 -57.5 -35t-13.5 -40q0 -19 10 -26.5t29 -7.5q28 0 58 15l15 -61q-18 -13 -44 -21.5t-55 -8.5q-21 0 -39.5 4.5t-32.5 15t-22.5 28t-8.5 42.5q0 38 19.5 60t45.5 35h-335v700h460v-131z" />
    <glyph glyph-name="eogonek" unicode="&#x119;" horiz-adv-x="554" 
d="M490 39q-18 -12 -42 -22.5t-53 -17.5q-41 -16 -53.5 -34.5t-12.5 -39.5q0 -19 10 -26.5t29 -7.5q28 0 58 15l15 -61q-18 -13 -44 -21.5t-55 -8.5q-21 0 -39.5 4.5t-32.5 15t-22.5 28t-8.5 42.5q0 30 13 50t32 34q-118 6 -179.5 70t-61.5 178v26q0 117 60 182.5t184 65.5
q64 0 106.5 -19.5t68 -51t36.5 -71.5t11 -82v-91h-322q5 -55 39 -80t99 -25q42 0 76 11t66 28zM288 411q-57 0 -79.5 -33t-22.5 -96v-3h194v8q0 56 -19 90t-73 34z" />
    <glyph glyph-name="Ecaron" unicode="&#x11a;" horiz-adv-x="578" 
d="M528 569h-307v-155h285v-128h-285v-156h311v-130h-464v700h460v-131zM275 758l-128 155h96l72 -66l73 66h95l-128 -155h-80z" />
    <glyph glyph-name="ecaron" unicode="&#x11b;" horiz-adv-x="554" 
d="M307 -12q-129 0 -196.5 65t-67.5 184v26q0 117 60 182.5t184 65.5q64 0 106.5 -19.5t68 -51t36.5 -71.5t11 -82v-91h-322q5 -55 39 -80t99 -25q42 0 76 11t66 28l23 -91q-31 -20 -77.5 -35.5t-105.5 -15.5zM288 411q-57 0 -79.5 -33t-22.5 -96v-3h194v8q0 56 -19 90
t-73 34zM247 558l-128 155h96l72 -66l73 66h95l-128 -155h-80z" />
    <glyph glyph-name="Gcircumflex" unicode="&#x11c;" horiz-adv-x="682" 
d="M382 117q25 0 51 3t47 9v164h-132v114h273v-363q-43 -25 -106.5 -40.5t-132.5 -15.5q-173 0 -254 90t-81 254v35q0 164 83 254t253 90q70 0 128.5 -14.5t97.5 -34.5l-31 -117q-34 17 -80 27t-93 10q-56 0 -94.5 -14.5t-62.5 -42t-34.5 -67.5t-10.5 -91v-35q0 -51 9.5 -91
t31 -67.5t55.5 -42t83 -14.5zM412 915l128 -155h-95l-73 65l-72 -65h-96l128 155h80z" />
    <glyph glyph-name="gcircumflex" unicode="&#x11d;" horiz-adv-x="558" 
d="M55 329q0 92 54 131.5t163 39.5h258v-85l-78 -1q13 -14 24 -35.5t11 -49.5v-9q0 -94 -54.5 -132.5t-160.5 -38.5q-26 0 -43 2.5t-35 8.5l-35 -43q0 -12 5.5 -18.5t14 -10t18.5 -4.5t20 -1h66q55 0 96.5 -6.5t69.5 -23t42 -43.5t14 -68q0 -80 -59 -116.5t-174 -36.5
q-50 0 -92.5 7t-73.5 23.5t-48.5 45t-17.5 72.5q0 35 16 56t37 36q-19 11 -33.5 34.5t-13.5 59.5l64 70q-26 23 -40.5 54t-14.5 73v9zM195 320q0 -44 18 -60t59 -16q39 0 58 16t19 60l-2 9q0 42 -18 58.5t-57 16.5q-40 0 -58.5 -16t-18.5 -59v-9zM178 -58q0 -17 3.5 -28
t13.5 -17t28.5 -8.5t48.5 -2.5q29 0 47 2t28.5 8t14 17t3.5 29q0 31 -15.5 39t-49.5 8h-105q-8 -11 -12.5 -21.5t-4.5 -25.5zM318 715l128 -155h-95l-73 65l-72 -65h-96l128 155h80z" />
    <glyph glyph-name="Gbreve" unicode="&#x11e;" horiz-adv-x="682" 
d="M382 117q25 0 51 3t47 9v164h-132v114h273v-363q-43 -25 -106.5 -40.5t-132.5 -15.5q-173 0 -254 90t-81 254v35q0 164 83 254t253 90q70 0 128.5 -14.5t97.5 -34.5l-31 -117q-34 17 -80 27t-93 10q-56 0 -94.5 -14.5t-62.5 -42t-34.5 -67.5t-10.5 -91v-35q0 -51 9.5 -91
t31 -67.5t55.5 -42t83 -14.5zM372 757q-67 0 -109.5 36t-45.5 119h81q5 -36 23.5 -51t50.5 -15q33 0 51.5 15t23.5 51h81q-3 -83 -46 -119t-110 -36z" />
    <glyph glyph-name="gbreve" unicode="&#x11f;" horiz-adv-x="558" 
d="M55 329q0 92 54 131.5t163 39.5h258v-85l-78 -1q13 -14 24 -35.5t11 -49.5v-9q0 -94 -54.5 -132.5t-160.5 -38.5q-26 0 -43 2.5t-35 8.5l-35 -43q0 -12 5.5 -18.5t14 -10t18.5 -4.5t20 -1h66q55 0 96.5 -6.5t69.5 -23t42 -43.5t14 -68q0 -80 -59 -116.5t-174 -36.5
q-50 0 -92.5 7t-73.5 23.5t-48.5 45t-17.5 72.5q0 35 16 56t37 36q-19 11 -33.5 34.5t-13.5 59.5l64 70q-26 23 -40.5 54t-14.5 73v9zM195 320q0 -44 18 -60t59 -16q39 0 58 16t19 60l-2 9q0 42 -18 58.5t-57 16.5q-40 0 -58.5 -16t-18.5 -59v-9zM178 -58q0 -17 3.5 -28
t13.5 -17t28.5 -8.5t48.5 -2.5q29 0 47 2t28.5 8t14 17t3.5 29q0 31 -15.5 39t-49.5 8h-105q-8 -11 -12.5 -21.5t-4.5 -25.5zM278 557q-67 0 -109.5 36t-45.5 119h81q5 -36 23.5 -51t50.5 -15q33 0 51.5 15t23.5 51h81q-3 -83 -46 -119t-110 -36z" />
    <glyph glyph-name="Gdotaccent" unicode="&#x120;" horiz-adv-x="682" 
d="M382 117q25 0 51 3t47 9v164h-132v114h273v-363q-43 -25 -106.5 -40.5t-132.5 -15.5q-173 0 -254 90t-81 254v35q0 164 83 254t253 90q70 0 128.5 -14.5t97.5 -34.5l-31 -117q-34 17 -80 27t-93 10q-56 0 -94.5 -14.5t-62.5 -42t-34.5 -67.5t-10.5 -91v-35q0 -51 9.5 -91
t31 -67.5t55.5 -42t83 -14.5zM372 903q42 0 62 -20t20 -52q0 -34 -20 -53.5t-62 -19.5t-62 19.5t-20 53.5q0 32 20 52t62 20z" />
    <glyph glyph-name="gdotaccent" unicode="&#x121;" horiz-adv-x="558" 
d="M55 329q0 92 54 131.5t163 39.5h258v-85l-78 -1q13 -14 24 -35.5t11 -49.5v-9q0 -94 -54.5 -132.5t-160.5 -38.5q-26 0 -43 2.5t-35 8.5l-35 -43q0 -12 5.5 -18.5t14 -10t18.5 -4.5t20 -1h66q55 0 96.5 -6.5t69.5 -23t42 -43.5t14 -68q0 -80 -59 -116.5t-174 -36.5
q-50 0 -92.5 7t-73.5 23.5t-48.5 45t-17.5 72.5q0 35 16 56t37 36q-19 11 -33.5 34.5t-13.5 59.5l64 70q-26 23 -40.5 54t-14.5 73v9zM195 320q0 -44 18 -60t59 -16q39 0 58 16t19 60l-2 9q0 42 -18 58.5t-57 16.5q-40 0 -58.5 -16t-18.5 -59v-9zM178 -58q0 -17 3.5 -28
t13.5 -17t28.5 -8.5t48.5 -2.5q29 0 47 2t28.5 8t14 17t3.5 29q0 31 -15.5 39t-49.5 8h-105q-8 -11 -12.5 -21.5t-4.5 -25.5zM278 703q42 0 62 -20t20 -52q0 -34 -20 -53.5t-62 -19.5t-62 19.5t-20 53.5q0 32 20 52t62 20z" />
    <glyph glyph-name="Gcommaaccent" unicode="&#x122;" horiz-adv-x="682" 
d="M382 117q25 0 51 3t47 9v164h-132v114h273v-363q-43 -25 -106.5 -40.5t-132.5 -15.5q-173 0 -254 90t-81 254v35q0 164 83 254t253 90q70 0 128.5 -14.5t97.5 -34.5l-31 -117q-34 17 -80 27t-93 10q-56 0 -94.5 -14.5t-62.5 -42t-34.5 -67.5t-10.5 -91v-35q0 -51 9.5 -91
t31 -67.5t55.5 -42t83 -14.5zM314 -53l134 -23l-77 -193l-78 18z" />
    <glyph glyph-name="gcommaaccent" unicode="&#x123;" horiz-adv-x="558" 
d="M55 329q0 92 54 131.5t163 39.5h258v-85l-78 -1q13 -14 24 -35.5t11 -49.5v-9q0 -94 -54.5 -132.5t-160.5 -38.5q-26 0 -43 2.5t-35 8.5l-35 -43q0 -12 5.5 -18.5t14 -10t18.5 -4.5t20 -1h66q55 0 96.5 -6.5t69.5 -23t42 -43.5t14 -68q0 -80 -59 -116.5t-174 -36.5
q-50 0 -92.5 7t-73.5 23.5t-48.5 45t-17.5 72.5q0 35 16 56t37 36q-19 11 -33.5 34.5t-13.5 59.5l64 70q-26 23 -40.5 54t-14.5 73v9zM195 320q0 -44 18 -60t59 -16q39 0 58 16t19 60l-2 9q0 42 -18 58.5t-57 16.5q-40 0 -58.5 -16t-18.5 -59v-9zM178 -58q0 -17 3.5 -28
t13.5 -17t28.5 -8.5t48.5 -2.5q29 0 47 2t28.5 8t14 17t3.5 29q0 31 -15.5 39t-49.5 8h-105q-8 -11 -12.5 -21.5t-4.5 -25.5zM338.007 562.997l-133.992 22.998l76.9961 192.988l77.9951 -17.999z" />
    <glyph glyph-name="Hcircumflex" unicode="&#x124;" horiz-adv-x="696" 
d="M628 0h-156v282h-248v-282h-156v700h156v-282h248v282h156v-700zM388 915l128 -155h-95l-73 65l-72 -65h-96l128 155h80z" />
    <glyph glyph-name="hcircumflex" unicode="&#x125;" horiz-adv-x="614" 
d="M404 285q0 54 -16 77.5t-61 23.5q-57 0 -86.5 -36.5t-29.5 -104.5v-245h-149v700h149v-190q0 -20 -1 -47.5t-3 -49.5h2q8 18 22 35.5t35 31.5t49.5 22.5t65.5 8.5q93 0 133.5 -50t40.5 -153v-308h-151v285zM346 915l128 -155h-95l-73 65l-72 -65h-96l128 155h80z" />
    <glyph glyph-name="Hbar" unicode="&#x126;" horiz-adv-x="697" 
d="M69 622v78h156v-78h247v78h156v-78h60v-79h-60v-543h-156v282h-247v-282h-156v543h-60v79h60zM472 418v125h-247v-125h247z" />
    <glyph glyph-name="hbar" unicode="&#x127;" horiz-adv-x="614" 
d="M14 562v78h48v60h149v-60h135v-78h-135v-52q0 -22 -1 -48t-3 -49h2q8 18 22.5 35.5t35.5 31.5t49.5 22.5t65.5 8.5q53 0 86.5 -15t53 -45.5t26.5 -76.5t7 -108v-266h-151v285q0 54 -16 77.5t-61 23.5q-62 0 -89 -42t-27 -119v-225h-149v562h-48z" />
    <glyph glyph-name="Itilde" unicode="&#x128;" horiz-adv-x="296" 
d="M225 0h-155v700h155v-700zM210 850q15 0 23 13.5t10 46.5h77q-2 -76 -26 -114t-79 -38q-21 0 -39 10t-33.5 21.5t-29.5 21.5t-28 10q-15 0 -23.5 -14t-10.5 -46h-77q3 76 27 113.5t79 37.5q22 0 39.5 -9.5t32.5 -21.5t29 -21.5t29 -9.5z" />
    <glyph glyph-name="itilde" unicode="&#x129;" horiz-adv-x="272" 
d="M199 650q15 0 23 13.5t10 46.5h77q-2 -76 -26 -114t-79 -38q-21 0 -39 10t-33.5 21.5t-29.5 21.5t-28 10q-15 0 -23.5 -14t-10.5 -46h-77q3 76 27 113.5t79 37.5q22 0 39.5 -9.5t32.5 -21.5t29 -21.5t29 -9.5zM211 0h-150v500h150v-500z" />
    <glyph glyph-name="Imacron" unicode="&#x12a;" horiz-adv-x="296" 
d="M225 0h-155v700h155v-700zM309 848v-84h-324v84h324z" />
    <glyph glyph-name="imacron" unicode="&#x12b;" horiz-adv-x="272" 
d="M298 648v-84h-324v84h324zM211 0h-150v500h150v-500z" />
    <glyph glyph-name="Ibreve" unicode="&#x12c;" horiz-adv-x="296" 
d="M225 0h-155v700h155v-700zM147 757q-67 0 -109.5 36t-45.5 119h81q5 -36 23.5 -51t50.5 -15q33 0 51.5 15t23.5 51h81q-3 -83 -46 -119t-110 -36z" />
    <glyph glyph-name="ibreve" unicode="&#x12d;" horiz-adv-x="272" 
d="M136 557q-67 0 -109.5 36t-45.5 119h81q5 -36 23.5 -51t50.5 -15q33 0 51.5 15t23.5 51h81q-3 -83 -46 -119t-110 -36zM211 0h-150v500h150v-500z" />
    <glyph glyph-name="Iogonek" unicode="&#x12e;" horiz-adv-x="296" 
d="M225 0h-12q-44 -16 -57.5 -35t-13.5 -40q0 -19 10 -26.5t29 -7.5q28 0 58 15l15 -61q-18 -13 -44 -21.5t-55 -8.5q-21 0 -39.5 4.5t-32.5 15t-22.5 28t-8.5 42.5q0 38 19.5 60t45.5 35h-47v700h155v-700z" />
    <glyph glyph-name="iogonek" unicode="&#x12f;" horiz-adv-x="272" 
d="M211 0h-14q-44 -16 -57.5 -35t-13.5 -40q0 -19 10 -26.5t29 -7.5q28 0 58 15l15 -61q-18 -13 -44 -21.5t-55 -8.5q-21 0 -39.5 4.5t-32.5 15t-22.5 28t-8.5 42.5q0 38 19.5 60t45.5 35h-40v500h150v-500zM136 716q48 0 70.5 -20.5t22.5 -56.5q0 -37 -22.5 -58t-70.5 -21
t-70.5 21t-22.5 58q0 36 22.5 56.5t70.5 20.5z" />
    <glyph glyph-name="Idotaccent" unicode="&#x130;" horiz-adv-x="296" 
d="M225 0h-155v700h155v-700zM147 903q42 0 62 -20t20 -52q0 -34 -20 -53.5t-62 -19.5t-62 19.5t-20 53.5q0 32 20 52t62 20z" />
    <glyph glyph-name="dotlessi" unicode="&#x131;" horiz-adv-x="272" 
d="M211 0h-150v500h150v-500z" />
    <glyph glyph-name="IJ" unicode="&#x132;" horiz-adv-x="621" 
d="M309 700h249v-444q0 -142 -72 -205.5t-212 -63.5q-60 0 -115 12t-90 30v131q36 -17 83 -27.5t96 -10.5q45 0 75 10t47 31t24 53.5t7 77.5v276h-92v130zM224 242h-155v458h155v-458z" />
    <glyph glyph-name="ij" unicode="&#x133;" horiz-adv-x="578" 
d="M284 500h228v-470q0 -64 -15 -109.5t-47 -74.5t-81 -42.5t-117 -13.5q-56 0 -104.5 8.5t-84.5 24.5v113q34 -14 76 -23t89 -9q42 0 68 9t41 26t20.5 41.5t5.5 56.5v355h-79v108zM211 0h-149v500h149v-500zM136 716q48 0 70.5 -20.5t22.5 -56.5q0 -37 -22.5 -58t-70.5 -21
t-70.5 21t-22.5 58q0 36 22.5 56.5t70.5 20.5zM437 716q49 0 71.5 -20.5t22.5 -56.5q0 -37 -22.5 -58t-71.5 -21q-48 0 -70.5 21t-22.5 58q0 36 22.5 56.5t70.5 20.5z" />
    <glyph glyph-name="Jcircumflex" unicode="&#x134;" horiz-adv-x="512" 
d="M161 700h287v-452q0 -71 -17 -120t-48 -80.5t-75 -45.5t-98 -14q-58 0 -106.5 13t-80.5 32l30 122q26 -14 58.5 -23t67.5 -9q63 0 88 29t25 100v317h-131v131zM295 915l128 -155h-95l-73 65l-72 -65h-96l128 155h80z" />
    <glyph glyph-name="jcircumflex" unicode="&#x135;" horiz-adv-x="320" 
d="M24 500h234v-527q0 -50 -12.5 -84.5t-36 -57t-57 -32.5t-74.5 -10q-39 0 -70 7.5t-56 20.5l25 104q17 -8 35.5 -12.5t33.5 -4.5q38 0 50.5 21.5t12.5 67.5v399h-85v108zM200 715l128 -155h-95l-73 65l-72 -65h-96l128 155h80z" />
    <glyph glyph-name="Kcommaaccent" unicode="&#x136;" horiz-adv-x="679" 
d="M434 420l237 -420h-175l-170 308l-102 -117v-191h-156v700h156v-311l260 311h182zM296 -53l134 -23l-77 -193l-78 18z" />
    <glyph glyph-name="kcommaaccent" unicode="&#x137;" horiz-adv-x="577" 
d="M389 303l181 -303h-156l-123 213l-80 -86v-127h-149v700h149v-403l185 203h169zM245 -53l134 -23l-77 -193l-78 18z" />
    <glyph glyph-name="kgreenlandic" unicode="&#x138;" horiz-adv-x="576" 
d="M388 303l181 -303h-156l-123 213l-80 -86v-127h-149v500h149v-203l185 203h169z" />
    <glyph glyph-name="Lacute" unicode="&#x139;" horiz-adv-x="536" 
d="M224 700v-566h283v-134h-439v700h156zM356 937l48 -108l-244 -81l-27 63z" />
    <glyph glyph-name="lacute" unicode="&#x13a;" horiz-adv-x="273" 
d="M211 0h-149v700h149v-700zM223 937l48 -108l-244 -81l-27 63z" />
    <glyph glyph-name="Lcommaaccent" unicode="&#x13b;" horiz-adv-x="536" 
d="M224 700v-566h283v-134h-439v700h156zM243 -53l134 -23l-77 -193l-78 18z" />
    <glyph glyph-name="lcommaaccent" unicode="&#x13c;" horiz-adv-x="273" 
d="M211 0h-149v700h149v-700zM71 -53l134 -23l-77 -193l-78 18z" />
    <glyph glyph-name="Lcaron" unicode="&#x13d;" horiz-adv-x="541" 
d="M224 700v-566h283v-134h-439v700h156zM337 719l134 -23l-77 -193l-78 18z" />
    <glyph glyph-name="lcaron" unicode="&#x13e;" horiz-adv-x="459" 
d="M211 0h-149v700h149v-700zM330 728l128 -26l-73 -214l-91 20z" />
    <glyph glyph-name="Ldot" unicode="&#x13f;" horiz-adv-x="550" 
d="M224 700v-566h283v-134h-439v700h156zM388.12 224.929q-24.2539 0 -40.2617 6.79102q-16.0068 6.79004 -26.1943 18.4316q-10.1865 11.6406 -14.5518 26.1924q-4.36621 14.5518 -4.36621 31.043q0 15.5215 4.36621 30.5576q4.36523 15.0371 14.5518 26.6777
q10.1875 11.6416 26.1943 18.4316q16.0078 6.79102 40.2617 6.79102t40.7461 -6.79102q16.4932 -6.79004 26.1943 -18.4316q9.70117 -11.6406 14.0674 -26.6777q4.36523 -15.0361 4.36523 -30.5576q0 -16.4912 -4.36523 -31.043q-4.36621 -14.5518 -14.0674 -26.1924
q-9.70117 -11.6416 -26.1943 -18.4316q-16.4922 -6.79102 -40.7461 -6.79102z" />
    <glyph glyph-name="ldot" unicode="&#x140;" horiz-adv-x="431" 
d="M211 0h-149v700h149v-700zM344 203q-25 0 -41.5 7t-27 19t-15 27t-4.5 32q0 16 4.5 31.5t15 27.5t27 19t41.5 7t42 -7t27 -19t14.5 -27.5t4.5 -31.5q0 -17 -4.5 -32t-14.5 -27t-27 -19t-42 -7z" />
    <glyph glyph-name="Lslash" unicode="&#x141;" horiz-adv-x="537" 
d="M226 367v-232h283v-135h-439v273l-61 -37v96l61 37v331h156v-237l136 83v-96z" />
    <glyph glyph-name="lslash" unicode="&#x142;" horiz-adv-x="275" 
d="M212 485l57 37v-96l-57 -37v-389h-149v295l-57 -36v97l57 35v309h149v-215z" />
    <glyph glyph-name="Nacute" unicode="&#x143;" horiz-adv-x="719" 
d="M500 0l-175 276q-34 54 -64.5 112t-52.5 112h-3q6 -60 8.5 -124t2.5 -127v-249h-148v700h157l183 -294q30 -49 58.5 -103.5t50.5 -103.5h3q-7 60 -9.5 124t-2.5 127v250h148v-700h-156zM447 937l48 -108l-244 -81l-27 63z" />
    <glyph glyph-name="nacute" unicode="&#x144;" horiz-adv-x="611" 
d="M402 285q0 54 -16 77.5t-61 23.5q-57 0 -86 -37t-29 -106v-243h-150v500h137l8 -89h2q8 18 22 36t35 32.5t49.5 23t65.5 8.5q92 0 132.5 -50t40.5 -153v-308h-150v285zM392 737l48 -108l-244 -81l-27 63z" />
    <glyph glyph-name="Ncommaaccent" unicode="&#x145;" horiz-adv-x="719" 
d="M500 0l-175 276q-34 54 -64.5 112t-52.5 112h-3q6 -60 8.5 -124t2.5 -127v-249h-148v700h157l183 -294q30 -49 58.5 -103.5t50.5 -103.5h3q-7 60 -9.5 124t-2.5 127v250h148v-700h-156zM308 -53l134 -23l-77 -193l-78 18z" />
    <glyph glyph-name="ncommaaccent" unicode="&#x146;" horiz-adv-x="611" 
d="M402 285q0 54 -16 77.5t-61 23.5q-57 0 -86 -37t-29 -106v-243h-150v500h137l8 -89h2q8 18 22 36t35 32.5t49.5 23t65.5 8.5q92 0 132.5 -50t40.5 -153v-308h-150v285zM253 -53l134 -23l-77 -193l-78 18z" />
    <glyph glyph-name="Ncaron" unicode="&#x147;" horiz-adv-x="719" 
d="M500 0l-175 276q-34 54 -64.5 112t-52.5 112h-3q6 -60 8.5 -124t2.5 -127v-249h-148v700h157l183 -294q30 -49 58.5 -103.5t50.5 -103.5h3q-7 60 -9.5 124t-2.5 127v250h148v-700h-156zM319 758l-128 155h96l72 -66l73 66h95l-128 -155h-80z" />
    <glyph glyph-name="ncaron" unicode="&#x148;" horiz-adv-x="611" 
d="M402 285q0 54 -16 77.5t-61 23.5q-57 0 -86 -37t-29 -106v-243h-150v500h137l8 -89h2q8 18 22 36t35 32.5t49.5 23t65.5 8.5q92 0 132.5 -50t40.5 -153v-308h-150v285zM264 558l-128 155h96l72 -66l73 66h95l-128 -155h-80z" />
    <glyph glyph-name="napostrophe" unicode="&#x149;" horiz-adv-x="672" 
d="M463 285q0 54 -16 77.5t-61 23.5q-57 0 -86 -37t-29 -106v-243h-150v500h137l8 -89h2q8 18 22 36t35 32.5t49.5 23t65.5 8.5q92 0 132.5 -50t40.5 -153v-308h-150v285zM4 723l134 -23l-77 -193l-78 18z" />
    <glyph glyph-name="Eng" unicode="&#x14a;" horiz-adv-x="719" 
d="M650 -2q0 -56 -17 -95.5t-47.5 -64.5t-72 -37t-90.5 -12q-52 0 -94 10t-72 25l30 117q24 -12 49.5 -18t55.5 -6q43 0 68.5 18t32.5 67l-179 292q-31 51 -58.5 100.5t-47.5 99.5h-3q6 -63 8.5 -126.5t2.5 -129.5v-238h-148v700h157q37 -60 76.5 -122t77.5 -124.5
t72 -124.5t60 -123h3q-8 63 -10 126t-2 129v239h148v-702z" />
    <glyph glyph-name="eng" unicode="&#x14b;" horiz-adv-x="611" 
d="M402 285q0 54 -16 77.5t-61 23.5q-57 0 -86 -37t-29 -106v-243h-150v500h137l8 -89h2q17 37 55.5 66t107.5 33q97 5 139.5 -47t42.5 -155v-320q0 -107 -45.5 -153t-130.5 -46q-39 0 -72 7.5t-58 20.5l25 104q37 -17 71 -17t47 18t13 57v306v0z" />
    <glyph glyph-name="Omacron" unicode="&#x14c;" horiz-adv-x="704" 
d="M352 118q43 0 71.5 14.5t45.5 42.5t24.5 67.5t7.5 89.5v35q0 50 -7.5 90t-24.5 67.5t-45.5 42.5t-71.5 15t-71.5 -15t-46 -42.5t-24.5 -67.5t-7 -90v-35q0 -50 7 -89.5t24.5 -67.5t46 -42.5t71.5 -14.5zM352 711q79 0 137 -23.5t95 -67.5t55 -108t18 -145v-35
q0 -81 -18 -144.5t-55 -108t-95 -68t-137 -23.5q-80 0 -137.5 23.5t-94.5 68t-55 108t-18 144.5v35q0 81 18 145t55 108t94.5 67.5t137.5 23.5zM514 848v-84h-324v84h324z" />
    <glyph glyph-name="omacron" unicode="&#x14d;" horiz-adv-x="580" 
d="M290 511q125 0 186 -66.5t61 -181.5v-27q0 -115 -61 -181.5t-186 -66.5t-186 66.5t-61 181.5v27q0 115 61 181.5t186 66.5zM290 99q54 0 75.5 35.5t21.5 101.5v27q0 66 -21.5 101.5t-75.5 35.5t-75.5 -35.5t-21.5 -101.5v-27q0 -66 21.5 -101.5t75.5 -35.5zM451 648v-84
h-324v84h324z" />
    <glyph glyph-name="Obreve" unicode="&#x14e;" horiz-adv-x="704" 
d="M352 118q43 0 71.5 14.5t45.5 42.5t24.5 67.5t7.5 89.5v35q0 50 -7.5 90t-24.5 67.5t-45.5 42.5t-71.5 15t-71.5 -15t-46 -42.5t-24.5 -67.5t-7 -90v-35q0 -50 7 -89.5t24.5 -67.5t46 -42.5t71.5 -14.5zM352 711q79 0 137 -23.5t95 -67.5t55 -108t18 -145v-35
q0 -81 -18 -144.5t-55 -108t-95 -68t-137 -23.5q-80 0 -137.5 23.5t-94.5 68t-55 108t-18 144.5v35q0 81 18 145t55 108t94.5 67.5t137.5 23.5zM351 757q-67 0 -109.5 36t-45.5 119h81q5 -36 23.5 -51t50.5 -15q33 0 51.5 15t23.5 51h81q-3 -83 -46 -119t-110 -36z" />
    <glyph glyph-name="obreve" unicode="&#x14f;" horiz-adv-x="580" 
d="M290 511q125 0 186 -66.5t61 -181.5v-27q0 -115 -61 -181.5t-186 -66.5t-186 66.5t-61 181.5v27q0 115 61 181.5t186 66.5zM290 99q54 0 75.5 35.5t21.5 101.5v27q0 66 -21.5 101.5t-75.5 35.5t-75.5 -35.5t-21.5 -101.5v-27q0 -66 21.5 -101.5t75.5 -35.5zM289 557
q-67 0 -109.5 36t-45.5 119h81q5 -36 23.5 -51t50.5 -15q33 0 51.5 15t23.5 51h81q-3 -83 -46 -119t-110 -36z" />
    <glyph glyph-name="Ohungarumlaut" unicode="&#x150;" horiz-adv-x="704" 
d="M352 118q43 0 71.5 14.5t45.5 42.5t24.5 67.5t7.5 89.5v35q0 50 -7.5 90t-24.5 67.5t-45.5 42.5t-71.5 15t-71.5 -15t-46 -42.5t-24.5 -67.5t-7 -90v-35q0 -50 7 -89.5t24.5 -67.5t46 -42.5t71.5 -14.5zM352 711q79 0 137 -23.5t95 -67.5t55 -108t18 -145v-35
q0 -81 -18 -144.5t-55 -108t-95 -68t-137 -23.5q-80 0 -137.5 23.5t-94.5 68t-55 108t-18 144.5v35q0 81 18 145t55 108t94.5 67.5t137.5 23.5zM263 948l116 -39l-86 -159l-75 33zM450 948l116 -39l-87 -159l-74 33z" />
    <glyph glyph-name="ohungarumlaut" unicode="&#x151;" horiz-adv-x="580" 
d="M290 511q125 0 186 -66.5t61 -181.5v-27q0 -115 -61 -181.5t-186 -66.5t-186 66.5t-61 181.5v27q0 115 61 181.5t186 66.5zM290 99q54 0 75.5 35.5t21.5 101.5v27q0 66 -21.5 101.5t-75.5 35.5t-75.5 -35.5t-21.5 -101.5v-27q0 -66 21.5 -101.5t75.5 -35.5zM188 748
l116 -39l-86 -159l-75 33zM375 748l116 -39l-87 -159l-74 33z" />
    <glyph glyph-name="OE" unicode="&#x152;" horiz-adv-x="1008" 
d="M517 69q-24 -34 -69 -57.5t-112 -23.5q-75 0 -129.5 25t-90 70.5t-52.5 109t-17 139.5v36q0 81 17 144.5t52 108t88.5 68t127.5 23.5q69 0 114.5 -23t70.5 -58l4 69h437v-131h-300v-155h279v-128h-279v-156h304v-130h-441zM203 332q0 -49 7 -89t24.5 -68t46 -43t71.5 -15
t72 15t47 43t25.5 68t7.5 89v36q0 49 -7.5 89t-25.5 68t-47 43t-72 15t-71.5 -15t-46 -43t-24.5 -68t-7 -89v-36z" />
    <glyph glyph-name="oe" unicode="&#x153;" horiz-adv-x="897" 
d="M637 512q60 0 101 -19t66.5 -50t36.5 -71t11 -82v-95h-320q5 -54 36 -79t98 -25q43 0 77.5 11.5t67.5 29.5l22 -93q-31 -21 -78 -36.5t-107 -15.5q-66 0 -113.5 25.5t-70.5 67.5h-2q-21 -43 -66 -68t-107 -25q-123 0 -184.5 66.5t-61.5 182.5v25q0 118 59.5 184.5
t179.5 66.5q64 0 109.5 -25t66.5 -64h2q22 38 65.5 63.5t111.5 25.5zM290 101q54 0 75.5 34.5t21.5 100.5v27q0 65 -21.5 100t-75.5 35t-75 -35t-21 -100v-27q0 -64 21 -99.5t75 -35.5zM632 410q-30 0 -49.5 -9.5t-31 -26.5t-16.5 -41t-5 -54h187v10q0 28 -3.5 50.5t-13 38
t-26 24t-42.5 8.5z" />
    <glyph glyph-name="Racute" unicode="&#x154;" horiz-adv-x="660" 
d="M223 242v-242h-155v700h304q128 0 186 -55t58 -176q0 -91 -36.5 -141t-94.5 -68l147 -260h-160l-134 242h-115zM464 468q0 33 -6.5 54t-21.5 32.5t-39.5 16t-60.5 4.5h-115v-214h139q57 0 80.5 23.5t23.5 83.5zM417 937l48 -108l-244 -81l-27 63z" />
    <glyph glyph-name="racute" unicode="&#x155;" horiz-adv-x="411" 
d="M391 361h-22q-47 0 -77.5 -10.5t-49 -32t-26 -54t-7.5 -76.5v-188h-149v500h135l10 -112h2q7 24 20 46t33.5 38t48 25.5t64.5 9.5h18v-146zM292 737l48 -108l-244 -81l-27 63z" />
    <glyph glyph-name="Rcommaaccent" unicode="&#x156;" horiz-adv-x="660" 
d="M223 242v-242h-155v700h304q128 0 186 -55t58 -176q0 -91 -36.5 -141t-94.5 -68l147 -260h-160l-134 242h-115zM464 468q0 33 -6.5 54t-21.5 32.5t-39.5 16t-60.5 4.5h-115v-214h139q57 0 80.5 23.5t23.5 83.5zM283 -53l134 -23l-77 -193l-78 18z" />
    <glyph glyph-name="rcommaaccent" unicode="&#x157;" horiz-adv-x="411" 
d="M391 361h-22q-47 0 -77.5 -10.5t-49 -32t-26 -54t-7.5 -76.5v-188h-149v500h135l10 -112h2q7 24 20 46t33.5 38t48 25.5t64.5 9.5h18v-146zM69 -53l134 -23l-77 -193l-78 18z" />
    <glyph glyph-name="Rcaron" unicode="&#x158;" horiz-adv-x="660" 
d="M223 242v-242h-155v700h304q128 0 186 -55t58 -176q0 -91 -36.5 -141t-94.5 -68l147 -260h-160l-134 242h-115zM464 468q0 33 -6.5 54t-21.5 32.5t-39.5 16t-60.5 4.5h-115v-214h139q57 0 80.5 23.5t23.5 83.5zM295 758l-128 155h96l72 -66l73 66h95l-128 -155h-80z" />
    <glyph glyph-name="rcaron" unicode="&#x159;" horiz-adv-x="411" 
d="M391 361h-22q-47 0 -77.5 -10.5t-49 -32t-26 -54t-7.5 -76.5v-188h-149v500h135l10 -112h2q7 24 20 46t33.5 38t48 25.5t64.5 9.5h18v-146zM174 558l-128 155h96l72 -66l73 66h95l-128 -155h-80z" />
    <glyph glyph-name="Sacute" unicode="&#x15a;" horiz-adv-x="584" 
d="M271 115q35 0 58.5 4t37 13.5t19 24t5.5 35.5q0 22 -7.5 38t-23.5 28t-41.5 21.5t-61.5 20.5q-42 13 -80.5 29.5t-67.5 41.5t-46 61t-17 89q0 93 58 141.5t193 48.5q67 0 125.5 -13t103.5 -32l-31 -116q-46 17 -92.5 26t-95.5 9q-60 0 -85 -14.5t-25 -47.5q0 -20 9 -34
t28 -25.5t48 -21.5t69 -23q45 -14 80.5 -31.5t61 -43t39 -61t13.5 -86.5q0 -105 -64 -157t-200 -52q-82 0 -139 13t-106 36l32 121q46 -20 96.5 -31.5t106.5 -11.5zM379 937l48 -108l-244 -81l-27 63z" />
    <glyph glyph-name="sacute" unicode="&#x15b;" horiz-adv-x="470" 
d="M213 92q37 0 60.5 9t23.5 33q0 25 -22.5 37.5t-68.5 29.5q-34 12 -64.5 25t-53 31.5t-36 45t-13.5 66.5q0 74 49.5 108t145.5 34q55 0 102 -10.5t82 -24.5l-25 -96q-68 27 -141 27q-37 0 -56.5 -7.5t-19.5 -27.5q0 -13 8 -22.5t21 -16.5t30.5 -13.5t37.5 -13.5
q38 -14 67.5 -27.5t50 -32t31.5 -44t11 -64.5q0 -41 -15.5 -69.5t-43 -46.5t-65 -26t-81.5 -8q-54 0 -104.5 10t-88.5 29l24 98q33 -15 72 -24t82 -9zM322 737l48 -108l-244 -81l-27 63z" />
    <glyph glyph-name="Scircumflex" unicode="&#x15c;" horiz-adv-x="584" 
d="M271 115q35 0 58.5 4t37 13.5t19 24t5.5 35.5q0 22 -7.5 38t-23.5 28t-41.5 21.5t-61.5 20.5q-42 13 -80.5 29.5t-67.5 41.5t-46 61t-17 89q0 93 58 141.5t193 48.5q67 0 125.5 -13t103.5 -32l-31 -116q-46 17 -92.5 26t-95.5 9q-60 0 -85 -14.5t-25 -47.5q0 -20 9 -34
t28 -25.5t48 -21.5t69 -23q45 -14 80.5 -31.5t61 -43t39 -61t13.5 -86.5q0 -105 -64 -157t-200 -52q-82 0 -139 13t-106 36l32 121q46 -20 96.5 -31.5t106.5 -11.5zM331 915l128 -155h-95l-73 65l-72 -65h-96l128 155h80z" />
    <glyph glyph-name="scircumflex" unicode="&#x15d;" horiz-adv-x="470" 
d="M213 92q37 0 60.5 9t23.5 33q0 25 -22.5 37.5t-68.5 29.5q-34 12 -64.5 25t-53 31.5t-36 45t-13.5 66.5q0 74 49.5 108t145.5 34q55 0 102 -10.5t82 -24.5l-25 -96q-68 27 -141 27q-37 0 -56.5 -7.5t-19.5 -27.5q0 -13 8 -22.5t21 -16.5t30.5 -13.5t37.5 -13.5
q38 -14 67.5 -27.5t50 -32t31.5 -44t11 -64.5q0 -41 -15.5 -69.5t-43 -46.5t-65 -26t-81.5 -8q-54 0 -104.5 10t-88.5 29l24 98q33 -15 72 -24t82 -9zM274 715l128 -155h-95l-73 65l-72 -65h-96l128 155h80z" />
    <glyph glyph-name="Scedilla" unicode="&#x15e;" horiz-adv-x="584" 
d="M395 -125q0 -26 -9 -42.5t-24 -26.5t-34.5 -14t-40.5 -4q-27 0 -48.5 4t-40.5 12l13 54q31 -12 57 -12q18 0 29.5 6.5t11.5 21.5q0 14 -10 21t-33 7h-46v44l30 43q-69 2 -119.5 14.5t-94.5 33.5l32 121q46 -20 96.5 -31.5t106.5 -11.5q35 0 58.5 4t37 13.5t19 24
t5.5 35.5q0 22 -7.5 38t-23.5 28t-41.5 21.5t-61.5 20.5q-42 13 -80.5 29.5t-67.5 41.5t-46 61t-17 89q0 93 58 141.5t193 48.5q67 0 125.5 -13t103.5 -32l-31 -116q-46 17 -92.5 26t-95.5 9q-60 0 -85 -14.5t-25 -47.5q0 -20 9 -34t28 -25.5t48 -21.5t69 -23
q45 -14 80.5 -31.5t61 -43t39 -61t13.5 -86.5q0 -100 -57 -151.5t-179 -56.5l-16 -35q46 2 74 -19t28 -60z" />
    <glyph glyph-name="scedilla" unicode="&#x15f;" horiz-adv-x="470" 
d="M344 -125q0 -26 -9 -42.5t-24 -26.5t-34.5 -14t-40.5 -4q-27 0 -48.5 4t-40.5 12l13 54q31 -12 57 -12q18 0 29.5 6.5t11.5 21.5q0 14 -10 21t-33 7h-46v44l30 43q-46 2 -88.5 11.5t-75.5 26.5l24 98q33 -15 72 -24t82 -9q37 0 60.5 9t23.5 33q0 25 -22.5 37.5
t-68.5 29.5q-34 12 -64.5 25t-53 31.5t-36 45t-13.5 66.5q0 74 49.5 108t145.5 34q55 0 102 -10.5t82 -24.5l-25 -96q-68 27 -141 27q-37 0 -56.5 -7.5t-19.5 -27.5q0 -13 8 -22.5t21 -16.5t30.5 -13.5t37.5 -13.5q38 -14 67.5 -27.5t50 -32t31.5 -44t11 -64.5
q0 -37 -13 -64t-36.5 -45t-55.5 -27.5t-70 -12.5l-16 -35q46 2 74 -19t28 -60z" />
    <glyph glyph-name="Scaron" unicode="&#x160;" horiz-adv-x="584" 
d="M271 115q35 0 58.5 4t37 13.5t19 24t5.5 35.5q0 22 -7.5 38t-23.5 28t-41.5 21.5t-61.5 20.5q-42 13 -80.5 29.5t-67.5 41.5t-46 61t-17 89q0 93 58 141.5t193 48.5q67 0 125.5 -13t103.5 -32l-31 -116q-46 17 -92.5 26t-95.5 9q-60 0 -85 -14.5t-25 -47.5q0 -20 9 -34
t28 -25.5t48 -21.5t69 -23q45 -14 80.5 -31.5t61 -43t39 -61t13.5 -86.5q0 -105 -64 -157t-200 -52q-82 0 -139 13t-106 36l32 121q46 -20 96.5 -31.5t106.5 -11.5zM251 758l-128 155h96l72 -66l73 66h95l-128 -155h-80z" />
    <glyph glyph-name="scaron" unicode="&#x161;" horiz-adv-x="470" 
d="M213 92q37 0 60.5 9t23.5 33q0 25 -22.5 37.5t-68.5 29.5q-34 12 -64.5 25t-53 31.5t-36 45t-13.5 66.5q0 74 49.5 108t145.5 34q55 0 102 -10.5t82 -24.5l-25 -96q-68 27 -141 27q-37 0 -56.5 -7.5t-19.5 -27.5q0 -13 8 -22.5t21 -16.5t30.5 -13.5t37.5 -13.5
q38 -14 67.5 -27.5t50 -32t31.5 -44t11 -64.5q0 -41 -15.5 -69.5t-43 -46.5t-65 -26t-81.5 -8q-54 0 -104.5 10t-88.5 29l24 98q33 -15 72 -24t82 -9zM194 558l-128 155h96l72 -66l73 66h95l-128 -155h-80z" />
    <glyph glyph-name="Tcommaaccent" unicode="&#x162;" 
d="M574 700v-134q-51 0 -100 0.5t-100 0.5v-567h-156v567q-51 0 -100.5 -0.5t-100.5 -0.5v134h557zM236 -53l134 -23l-77 -193l-78 18z" />
    <glyph glyph-name="tcommaaccent" unicode="&#x163;" horiz-adv-x="435" 
d="M8 500h89l26 174h121v-174h157v-105h-157v-210q0 -44 15 -61t55 -17t84 19l21 -102q-27 -14 -62 -24t-81 -10q-99 0 -139.5 49.5t-40.5 144.5v211h-88v105zM174 -53l134 -23l-77 -193l-78 18z" />
    <glyph glyph-name="Tcaron" unicode="&#x164;" horiz-adv-x="595" 
d="M574 700v-134q-51 0 -100 0.5t-100 0.5v-567h-156v567q-51 0 -100.5 -0.5t-100.5 -0.5v134h557zM258 758l-128 155h96l72 -66l73 66h95l-128 -155h-80z" />
    <glyph glyph-name="tcaron" unicode="&#x165;" horiz-adv-x="441" 
d="M8 500h89l26 174h121v-174h157v-105h-157v-210q0 -44 15 -61.5t54 -17.5q41 0 85 19l21 -101q-27 -15 -61.5 -25t-79.5 -10q-101 0 -141.5 50.5t-40.5 157.5v198h-88v105zM340 787l134 -25l-77 -202l-81 19z" />
    <glyph glyph-name="Tbar" unicode="&#x166;" 
d="M574 700v-134q-51 0 -100 0.5t-100 0.5v-176h120v-80h-120v-311h-156v311h-121v80h121v176q-51 0 -100.5 -0.5t-100.5 -0.5v134h557z" />
    <glyph glyph-name="tbar" unicode="&#x167;" horiz-adv-x="435" 
d="M8 500h89l26 174h121v-174h157v-105h-157v-87h137v-80h-137v-43q0 -44 15 -61t55 -17t84 19l21 -102q-27 -14 -62 -24t-81 -10q-99 0 -139.5 49.5t-40.5 144.5v44h-67v80h67v87h-88v105z" />
    <glyph glyph-name="Utilde" unicode="&#x168;" horiz-adv-x="688" 
d="M344 -12q-75 0 -128.5 19t-87 56.5t-49 93.5t-15.5 131v412h156v-408q0 -46 6 -78.5t20.5 -52.5t38 -29.5t59.5 -9.5t59.5 9.5t38 29.5t20.5 52.5t6 78.5v408h156v-412q0 -75 -15.5 -131t-49 -93.5t-87 -56.5t-128.5 -19zM407 850q15 0 23 13.5t10 46.5h77
q-2 -76 -26 -114t-79 -38q-21 0 -39 10t-33.5 21.5t-29.5 21.5t-28 10q-15 0 -23.5 -14t-10.5 -46h-77q3 76 27 113.5t79 37.5q22 0 39.5 -9.5t32.5 -21.5t29 -21.5t29 -9.5z" />
    <glyph glyph-name="utilde" unicode="&#x169;" horiz-adv-x="594" 
d="M208 203q0 -47 15.5 -68t54.5 -21q51 0 78 37t27 102v247h150v-500h-136l-9 87h-2q-8 -18 -21 -35.5t-32 -31.5t-45 -22.5t-60 -8.5q-88 0 -129 47t-41 145v319h150v-297zM359 650q15 0 23 13.5t10 46.5h77q-2 -76 -26 -114t-79 -38q-21 0 -39 10t-33.5 21.5t-29.5 21.5
t-28 10q-15 0 -23.5 -14t-10.5 -46h-77q3 76 27 113.5t79 37.5q22 0 39.5 -9.5t32.5 -21.5t29 -21.5t29 -9.5z" />
    <glyph glyph-name="Umacron" unicode="&#x16a;" horiz-adv-x="688" 
d="M344 -12q-75 0 -128.5 19t-87 56.5t-49 93.5t-15.5 131v412h156v-408q0 -46 6 -78.5t20.5 -52.5t38 -29.5t59.5 -9.5t59.5 9.5t38 29.5t20.5 52.5t6 78.5v408h156v-412q0 -75 -15.5 -131t-49 -93.5t-87 -56.5t-128.5 -19zM506 848v-84h-324v84h324z" />
    <glyph glyph-name="umacron" unicode="&#x16b;" horiz-adv-x="594" 
d="M208 203q0 -47 15.5 -68t54.5 -21q51 0 78 37t27 102v247h150v-500h-136l-9 87h-2q-8 -18 -21 -35.5t-32 -31.5t-45 -22.5t-60 -8.5q-88 0 -129 47t-41 145v319h150v-297zM458 648v-84h-324v84h324z" />
    <glyph glyph-name="Ubreve" unicode="&#x16c;" horiz-adv-x="688" 
d="M344 -12q-75 0 -128.5 19t-87 56.5t-49 93.5t-15.5 131v412h156v-408q0 -46 6 -78.5t20.5 -52.5t38 -29.5t59.5 -9.5t59.5 9.5t38 29.5t20.5 52.5t6 78.5v408h156v-412q0 -75 -15.5 -131t-49 -93.5t-87 -56.5t-128.5 -19zM344 757q-67 0 -109.5 36t-45.5 119h81
q5 -36 23.5 -51t50.5 -15q33 0 51.5 15t23.5 51h81q-3 -83 -46 -119t-110 -36z" />
    <glyph glyph-name="ubreve" unicode="&#x16d;" horiz-adv-x="594" 
d="M208 203q0 -47 15.5 -68t54.5 -21q51 0 78 37t27 102v247h150v-500h-136l-9 87h-2q-8 -18 -21 -35.5t-32 -31.5t-45 -22.5t-60 -8.5q-88 0 -129 47t-41 145v319h150v-297zM296 557q-67 0 -109.5 36t-45.5 119h81q5 -36 23.5 -51t50.5 -15q33 0 51.5 15t23.5 51h81
q-3 -83 -46 -119t-110 -36z" />
    <glyph glyph-name="Uring" unicode="&#x16e;" horiz-adv-x="688" 
d="M344 -12q-75 0 -128.5 19t-87 56.5t-49 93.5t-15.5 131v412h156v-408q0 -46 6 -78.5t20.5 -52.5t38 -29.5t59.5 -9.5t59.5 9.5t38 29.5t20.5 52.5t6 78.5v408h156v-412q0 -75 -15.5 -131t-49 -93.5t-87 -56.5t-128.5 -19zM344 966q48 0 78.5 -25t30.5 -79
q0 -55 -30.5 -80t-78.5 -25t-78.5 25t-30.5 80q0 54 30.5 79t78.5 25zM344 817q20 0 30 10.5t10 34.5q0 44 -40 44t-40 -44q0 -24 10 -34.5t30 -10.5z" />
    <glyph glyph-name="uring" unicode="&#x16f;" horiz-adv-x="594" 
d="M208 203q0 -47 15.5 -68t54.5 -21q51 0 78 37t27 102v247h150v-500h-136l-9 87h-2q-8 -18 -21 -35.5t-32 -31.5t-45 -22.5t-60 -8.5q-88 0 -129 47t-41 145v319h150v-297zM296 766q48 0 78.5 -25t30.5 -79q0 -55 -30.5 -80t-78.5 -25t-78.5 25t-30.5 80q0 54 30.5 79
t78.5 25zM296 617q20 0 30 10.5t10 34.5q0 44 -40 44t-40 -44q0 -24 10 -34.5t30 -10.5z" />
    <glyph glyph-name="Uhungarumlaut" unicode="&#x170;" horiz-adv-x="688" 
d="M344 -12q-75 0 -128.5 19t-87 56.5t-49 93.5t-15.5 131v412h156v-408q0 -46 6 -78.5t20.5 -52.5t38 -29.5t59.5 -9.5t59.5 9.5t38 29.5t20.5 52.5t6 78.5v408h156v-412q0 -75 -15.5 -131t-49 -93.5t-87 -56.5t-128.5 -19zM240 948l116 -39l-86 -159l-75 33zM427 948
l116 -39l-87 -159l-74 33z" />
    <glyph glyph-name="uhungarumlaut" unicode="&#x171;" horiz-adv-x="594" 
d="M208 203q0 -47 15.5 -68t54.5 -21q51 0 78 37t27 102v247h150v-500h-136l-9 87h-2q-8 -18 -21 -35.5t-32 -31.5t-45 -22.5t-60 -8.5q-88 0 -129 47t-41 145v319h150v-297zM190 748l116 -39l-86 -159l-75 33zM377 748l116 -39l-87 -159l-74 33z" />
    <glyph glyph-name="Uogonek" unicode="&#x172;" horiz-adv-x="688" 
d="M624 288q0 -128 -46.5 -201t-152.5 -92q-35 -15 -46 -32.5t-11 -37.5q0 -19 10 -26.5t29 -7.5q28 0 58 15l15 -61q-18 -13 -44 -21.5t-55 -8.5q-21 0 -39.5 4.5t-32.5 15t-22.5 28t-8.5 42.5q0 30 13 50t32 34q-70 3 -119 23t-80 57.5t-45.5 92t-14.5 126.5v412h156v-408
q0 -46 6 -78.5t20.5 -52.5t38 -29.5t59.5 -9.5t59.5 9.5t38 29.5t20.5 52.5t6 78.5v408h156v-412v0z" />
    <glyph glyph-name="uogonek" unicode="&#x173;" horiz-adv-x="594" 
d="M208 203q0 -47 15.5 -68t54.5 -21q51 0 78 37t27 102v247h150v-500h-10q-44 -16 -57.5 -35t-13.5 -40q0 -19 10 -26.5t29 -7.5q28 0 58 15l15 -61q-18 -13 -44 -21.5t-55 -8.5q-21 0 -39.5 4.5t-32.5 15t-22.5 28t-8.5 42.5q0 38 19.5 60t45.5 35h-30l-9 87h-2
q-8 -18 -21 -35.5t-32 -31.5t-45 -22.5t-60 -8.5q-88 0 -129 47t-41 145v319h150v-297z" />
    <glyph glyph-name="Wcircumflex" unicode="&#x174;" horiz-adv-x="1022" 
d="M669 414q18 -62 30.5 -125.5t23.5 -134.5h4q8 71 18 134.5t26 125.5l72 286h159l-184 -700h-170l-94 337q-29 103 -41 204h-4q-12 -101 -41 -204l-94 -337h-170l-184 700h159l72 -286q16 -62 26 -125.5t18 -134.5h4q11 71 23.5 134.5t30.5 125.5l82 286h152zM551 915
l128 -155h-95l-73 65l-72 -65h-96l128 155h80z" />
    <glyph glyph-name="wcircumflex" unicode="&#x175;" horiz-adv-x="820" 
d="M476 500l68 -237q10 -33 17 -66t11 -68h3q2 36 7 69t13 65l58 237h150l-135 -500h-168l-49 171q-15 52 -24 101.5t-16 103.5h-2q-7 -54 -16 -103.5t-24 -101.5l-49 -171h-168l-135 500h150l58 -237q8 -32 13 -65t7 -69h3q4 35 11 68t17 66l68 237h132zM450 715l128 -155
h-95l-73 65l-72 -65h-96l128 155h80z" />
    <glyph glyph-name="Ycircumflex" unicode="&#x176;" horiz-adv-x="666" 
d="M411 0h-156v255l-245 445h168l97 -189q18 -35 31.5 -70t24.5 -69h3q22 70 57 139l96 189h169l-245 -445v-255zM372 915l128 -155h-95l-73 65l-72 -65h-96l128 155h80z" />
    <glyph glyph-name="ycircumflex" unicode="&#x177;" horiz-adv-x="556" 
d="M11 500h156l65 -189q14 -38 26 -89t22 -99h4q9 48 20.5 98.5t24.5 89.5l62 189h154l-189 -517q-18 -51 -35 -87.5t-39.5 -60t-54.5 -35t-80 -11.5q-40 0 -72 6.5t-51 17.5l22 109q15 -8 37 -13.5t48 -5.5q35 0 49.5 11.5t24.5 38.5l9 25zM317 715l128 -155h-95l-73 65
l-72 -65h-96l128 155h80z" />
    <glyph glyph-name="Ydieresis" unicode="&#x178;" horiz-adv-x="666" 
d="M411 0h-156v255l-245 445h168l97 -189q18 -35 31.5 -70t24.5 -69h3q22 70 57 139l96 189h169l-245 -445v-255zM225 895q36 0 56 -18.5t20 -50.5q0 -34 -20 -52t-56 -18q-75 0 -75 70q0 32 19 50.5t56 18.5zM439 895q36 0 56 -18.5t20 -50.5q0 -34 -20 -52t-56 -18
q-75 0 -75 70q0 32 19 50.5t56 18.5z" />
    <glyph glyph-name="Zacute" unicode="&#x179;" horiz-adv-x="618" 
d="M47 0v114l332 463l-322 -3v126h502v-114l-332 -464l342 3v-125h-522zM396 937l48 -108l-244 -81l-27 63z" />
    <glyph glyph-name="zacute" unicode="&#x17a;" horiz-adv-x="480" 
d="M35 95l235 302l-227 -2v105h393v-96l-235 -302l242 2v-104h-408v95zM327 737l48 -108l-244 -81l-27 63z" />
    <glyph glyph-name="Zdotaccent" unicode="&#x17b;" horiz-adv-x="618" 
d="M47 0v114l332 463l-322 -3v126h502v-114l-332 -464l342 3v-125h-522zM308 903q42 0 62 -20t20 -52q0 -34 -20 -53.5t-62 -19.5t-62 19.5t-20 53.5q0 32 20 52t62 20z" />
    <glyph glyph-name="zdotaccent" unicode="&#x17c;" horiz-adv-x="480" 
d="M35 95l235 302l-227 -2v105h393v-96l-235 -302l242 2v-104h-408v95zM239 703q42 0 62 -20t20 -52q0 -34 -20 -53.5t-62 -19.5t-62 19.5t-20 53.5q0 32 20 52t62 20z" />
    <glyph glyph-name="Zcaron" unicode="&#x17d;" horiz-adv-x="618" 
d="M47 0v114l332 463l-322 -3v126h502v-114l-332 -464l342 3v-125h-522zM268 758l-128 155h96l72 -66l73 66h95l-128 -155h-80z" />
    <glyph glyph-name="zcaron" unicode="&#x17e;" horiz-adv-x="480" 
d="M35 95l235 302l-227 -2v105h393v-96l-235 -302l242 2v-104h-408v95zM199 558l-128 155h96l72 -66l73 66h95l-128 -155h-80z" />
    <glyph glyph-name="florin" unicode="&#x192;" horiz-adv-x="647" 
d="M234 321h-84v96h97l11 84q7 52 22.5 91t42 65t66 39.5t93.5 13.5q34 0 66 -5.5t54 -13.5l-15 -104q-17 5 -38.5 8.5t-39.5 3.5q-23 0 -41 -5t-31 -17t-21 -32.5t-11 -52.5l-9 -75h152v-96h-165l-40 -322q-13 -104 -64.5 -150.5t-132.5 -48.5q-44 -1 -75.5 7.5t-54.5 21.5
l36 103q19 -10 34.5 -14t34.5 -4q34 0 51 18.5t22 63.5z" />
    <glyph glyph-name="Aringacute" unicode="&#x1fa;" horiz-adv-x="690" 
d="M344 856q48 0 78.5 -25t30.5 -79q0 -19 -4 -34t-11 -26l240 -692h-163l-45 145h-251l-44 -145h-163l238 690q-15 24 -15 62q0 54 30.5 79t78.5 25zM401 376q-14 49 -28 95.5t-26 96.5h-4q-12 -50 -26 -96.5t-28 -95.5l-34 -112h180zM432 1053l48 -108l-244 -81l-27 63z
M344 707q20 0 30 10.5t10 34.5q0 44 -40 44t-40 -44q0 -24 10 -34.5t30 -10.5z" />
    <glyph glyph-name="aringacute" unicode="&#x1fb;" horiz-adv-x="548" 
d="M166 157q0 -36 20.5 -51t52.5 -15q22 0 41.5 9t33 23.5t21.5 33.5t8 40v24q-16 4 -38.5 6t-42.5 2q-51 0 -73.5 -17t-22.5 -55zM343 87q-7 -20 -19.5 -37.5t-30.5 -30.5t-42.5 -20.5t-56.5 -7.5q-33 0 -61.5 9.5t-50 29t-34 48t-12.5 66.5q0 93 54.5 131t157.5 34
q27 0 52 -3.5t43 -6.5v21q0 43 -22.5 63.5t-74.5 20.5q-45 0 -84.5 -9t-74.5 -23l-24 97q43 18 95.5 30t111.5 12q114 0 166.5 -48.5t52.5 -142.5v-320h-135l-9 87h-2zM273 763q48 0 78.5 -25t30.5 -79q0 -55 -30.5 -80t-78.5 -25t-78.5 25t-30.5 80q0 54 30.5 79t78.5 25z
M273 614q20 0 30 10.5t10 34.5q0 44 -40 44t-40 -44q0 -24 10 -34.5t30 -10.5zM361 968l48 -108l-244 -81l-27 63z" />
    <glyph glyph-name="AEacute" unicode="&#x1fc;" horiz-adv-x="916" 
d="M867 569h-275v-155h253v-128h-253v-156h278v-130h-429v144h-200l-80 -144h-160l408 700h458v-131zM441 251v291h-3q-10 -28 -22.5 -58.5t-31.5 -67.5l-83 -165h140zM553 934l48 -108l-244 -81l-27 63z" />
    <glyph glyph-name="aeacute" unicode="&#x1fd;" horiz-adv-x="877" 
d="M628 -12q-67 0 -116 25.5t-68 73.5h-3q-19 -46 -67.5 -72.5t-118.5 -26.5q-58 0 -98 17t-64.5 46t-35.5 67t-11 79v94h320v10q-5 51 -37 80.5t-98 29.5q-44 0 -78.5 -10.5t-66.5 -27.5l-21 87q32 21 78 36.5t106 15.5q66 0 114.5 -25.5t68.5 -75.5h3q19 48 67.5 74.5
t118.5 26.5q58 0 98 -17.5t65 -46.5t35.5 -67t10.5 -79v-94h-320q4 -56 35.5 -87.5t100.5 -31.5q44 0 78 10.5t66 27.5l22 -88q-31 -20 -77.5 -35.5t-106.5 -15.5zM263 87q54 0 76 30t24 91h-193v-10q0 -27 4 -47.5t14.5 -35t28.5 -21.5t46 -7zM613 412q-54 0 -75.5 -30
t-23.5 -90h192v9q0 55 -19 83t-74 28zM526 737l48 -108l-244 -81l-27 63z" />
    <glyph glyph-name="Oslashacute" unicode="&#x1fe;" horiz-adv-x="705" 
d="M440 937l48 -108l-244 -81l-27 63zM352 711q50 0 90.5 -9.5t73.5 -26.5l29 45h94l-60 -95q40 -45 59 -109.5t19 -148.5v-35q0 -81 -18 -144.5t-55 -108t-95 -68t-137 -23.5q-91 0 -157 32l-31 -50h-94l61 96q-44 45 -64 111.5t-20 154.5v35q0 81 18 145t55 108t94.5 67.5
t137.5 23.5zM203 332q0 -38 4 -69.5t13 -56.5l221 349q-17 13 -38.5 20t-50.5 7q-43 0 -71.5 -15t-46 -42.5t-24.5 -67.5t-7 -90v-35zM352 118q43 0 71.5 14.5t45.5 42.5t24.5 67.5t7.5 89.5v35q0 68 -13 114l-218 -343q32 -20 82 -20z" />
    <glyph glyph-name="oslashacute" unicode="&#x1ff;" horiz-adv-x="580" 
d="M377 737l48 -108l-244 -81l-27 63zM290 511q65 0 116 -20l24 39h75l-46 -71q78 -65 78 -196v-27q0 -115 -61 -181.5t-186 -66.5q-35 0 -64 5.5t-53 15.5l-24 -39h-74l45 70q-39 32 -58 81.5t-19 114.5v27q0 115 61 181.5t186 66.5zM290 99q52 0 74 32.5t22 90.5
q0 29 -1 56t-9 50l-136 -216q21 -13 50 -13zM193 240q0 -42 10 -68l136 215q-19 13 -49 13q-31 0 -50 -11t-29.5 -31.5t-14 -50t-3.5 -67.5z" />
    <glyph glyph-name="Scommaaccent" unicode="&#x218;" horiz-adv-x="584" 
d="M271 115q35 0 58.5 4t37 13.5t19 24t5.5 35.5q0 22 -7.5 38t-23.5 28t-41.5 21.5t-61.5 20.5q-42 13 -80.5 29.5t-67.5 41.5t-46 61t-17 89q0 93 58 141.5t193 48.5q67 0 125.5 -13t103.5 -32l-31 -116q-46 17 -92.5 26t-95.5 9q-60 0 -85 -14.5t-25 -47.5q0 -20 9 -34
t28 -25.5t48 -21.5t69 -23q45 -14 80.5 -31.5t61 -43t39 -61t13.5 -86.5q0 -105 -64 -157t-200 -52q-82 0 -139 13t-106 36l32 121q46 -20 96.5 -31.5t106.5 -11.5zM234 -53l134 -23l-77 -193l-78 18z" />
    <glyph glyph-name="scommaaccent" unicode="&#x219;" horiz-adv-x="470" 
d="M213 92q37 0 60.5 9t23.5 33q0 25 -22.5 37.5t-68.5 29.5q-34 12 -64.5 25t-53 31.5t-36 45t-13.5 66.5q0 74 49.5 108t145.5 34q55 0 102 -10.5t82 -24.5l-25 -96q-68 27 -141 27q-37 0 -56.5 -7.5t-19.5 -27.5q0 -13 8 -22.5t21 -16.5t30.5 -13.5t37.5 -13.5
q38 -14 67.5 -27.5t50 -32t31.5 -44t11 -64.5q0 -41 -15.5 -69.5t-43 -46.5t-65 -26t-81.5 -8q-54 0 -104.5 10t-88.5 29l24 98q33 -15 72 -24t82 -9zM178 -53l134 -23l-77 -193l-78 18z" />
    <glyph glyph-name="uni021A" unicode="&#x21a;" 
d="M574 700v-134q-51 0 -100 0.5t-100 0.5v-567h-156v567q-51 0 -100.5 -0.5t-100.5 -0.5v134h557zM235 -53l134 -23l-77 -193l-78 18z" />
    <glyph glyph-name="uni021B" unicode="&#x21b;" horiz-adv-x="435" 
d="M8 500h89l26 174h121v-174h157v-105h-157v-210q0 -44 15 -61t55 -17t84 19l21 -102q-27 -14 -62 -24t-81 -10q-99 0 -139.5 49.5t-40.5 144.5v211h-88v105zM179 -53l134 -23l-77 -193l-78 18z" />
    <glyph glyph-name="dotlessj" unicode="&#x237;" horiz-adv-x="320" 
d="M24 500h234v-527q0 -50 -12.5 -84.5t-36 -57t-57 -32.5t-74.5 -10q-39 0 -70 7.5t-56 20.5l25 104q17 -8 35.5 -12.5t33.5 -4.5q38 0 50.5 21.5t12.5 67.5v399h-85v108z" />
    <glyph glyph-name="circumflex" unicode="&#x2c6;" horiz-adv-x="333" 
d="M206 715l128 -155h-95l-73 65l-72 -65h-96l128 155h80z" />
    <glyph glyph-name="caron" unicode="&#x2c7;" horiz-adv-x="333" 
d="M126 558l-128 155h96l72 -66l73 66h95l-128 -155h-80z" />
    <glyph glyph-name="uni02C9" unicode="&#x2c9;" horiz-adv-x="333" 
d="M328 647v-84h-323v84h323z" />
    <glyph glyph-name="breve" unicode="&#x2d8;" horiz-adv-x="333" 
d="M166 557q-67 0 -109.5 36t-45.5 119h81q5 -36 23.5 -51t50.5 -15q33 0 51.5 15t23.5 51h81q-3 -83 -46 -119t-110 -36z" />
    <glyph glyph-name="dotaccent" unicode="&#x2d9;" horiz-adv-x="333" 
d="M166 703q42 0 62 -20t20 -52q0 -34 -20 -53.5t-62 -19.5t-62 19.5t-20 53.5q0 32 20 52t62 20z" />
    <glyph glyph-name="ring" unicode="&#x2da;" horiz-adv-x="333" 
d="M166 766q48 0 78.5 -25t30.5 -79q0 -55 -30.5 -80t-78.5 -25t-78.5 25t-30.5 80q0 54 30.5 79t78.5 25zM166 617q20 0 30 10.5t10 34.5q0 44 -40 44t-40 -44q0 -24 10 -34.5t30 -10.5z" />
    <glyph glyph-name="ogonek" unicode="&#x2db;" horiz-adv-x="333" 
d="M225 0q-44 -16 -57.5 -35t-13.5 -40q0 -19 10 -26.5t29 -7.5q28 0 58 15l15 -61q-18 -13 -44 -21.5t-55 -8.5q-21 0 -39.5 4.5t-32.5 15t-22.5 28t-8.5 42.5q0 27 11 46.5t27.5 32t35.5 20.5t36 13z" />
    <glyph glyph-name="tilde" unicode="&#x2dc;" horiz-adv-x="333" 
d="M229 650q15 0 23 13.5t10 46.5h77q-2 -76 -26 -114t-79 -38q-21 0 -39 10t-33.5 21.5t-29.5 21.5t-28 10q-15 0 -23.5 -14t-10.5 -46h-77q3 76 27 113.5t79 37.5q22 0 39.5 -9.5t32.5 -21.5t29 -21.5t29 -9.5z" />
    <glyph glyph-name="hungarumlaut" unicode="&#x2dd;" horiz-adv-x="333" 
d="M75 748l116 -39l-86 -159l-75 33zM262 748l116 -39l-87 -159l-74 33z" />
    <glyph glyph-name="uni0394" unicode="&#x394;" horiz-adv-x="671" 
d="M380 386q-11 36 -23 78t-20 76h-3q-9 -34 -20.5 -76t-22.5 -78l-87 -273h263zM31 0l248 704h113l248 -704h-609z" />
    <glyph glyph-name="uni03A9" unicode="&#x3a9;" horiz-adv-x="741" 
d="M370 586q-86 0 -136.5 -46t-50.5 -141q0 -96 42.5 -156t109.5 -77l-11 -166h-230v99h132v22q-28 13 -60.5 36t-60 57t-46 81t-18.5 110q0 71 22.5 127.5t65 96.5t103.5 61t138 21t138 -21t103.5 -61t65 -96.5t22.5 -127.5q0 -63 -18.5 -110t-46 -81t-59.5 -57t-60 -36
v-22h131v-99h-230l-12 166q68 17 110.5 77t42.5 156q0 95 -50.5 141t-136.5 46z" />
    <glyph glyph-name="uni03BC" unicode="&#x3bc;" horiz-adv-x="593" 
d="M384 500h150v-320q0 -97 -41 -144t-129 -47q-33 0 -59 8.5t-45 23t-32 32t-20 35.5h-2l4 -87v-201h-150v700h150v-247q0 -65 26.5 -102t78.5 -37q39 0 54 21t15 67v298z" />
    <glyph glyph-name="pi" unicode="&#x3c0;" horiz-adv-x="627" 
d="M486 156q0 -29 8.5 -41.5t31.5 -12.5q27 0 53 10l22 -101q-23 -11 -51.5 -16.5t-54.5 -5.5q-43 0 -70.5 10.5t-43 32t-21 54.5t-5.5 77v223h-99l-40 -386h-141l46 386l-89 6v108h549v-114h-95v-230z" />
    <glyph glyph-name="Wgrave" unicode="&#x1e80;" horiz-adv-x="1022" 
d="M669 414q18 -62 30.5 -125.5t23.5 -134.5h4q8 71 18 134.5t26 125.5l72 286h159l-184 -700h-170l-94 337q-29 103 -41 204h-4q-12 -101 -41 -204l-94 -337h-170l-184 700h159l72 -286q16 -62 26 -125.5t18 -134.5h4q11 71 23.5 134.5t30.5 125.5l82 286h152zM646 811
l-28 -63l-243 81l47 108z" />
    <glyph glyph-name="wgrave" unicode="&#x1e81;" horiz-adv-x="820" 
d="M476 500l68 -237q10 -33 17 -66t11 -68h3q2 36 7 69t13 65l58 237h150l-135 -500h-168l-49 171q-15 52 -24 101.5t-16 103.5h-2q-7 -54 -16 -103.5t-24 -101.5l-49 -171h-168l-135 500h150l58 -237q8 -32 13 -65t7 -69h3q4 35 11 68t17 66l68 237h132zM546 611l-28 -63
l-243 81l47 108z" />
    <glyph glyph-name="Wacute" unicode="&#x1e82;" horiz-adv-x="1022" 
d="M669 414q18 -62 30.5 -125.5t23.5 -134.5h4q8 71 18 134.5t26 125.5l72 286h159l-184 -700h-170l-94 337q-29 103 -41 204h-4q-12 -101 -41 -204l-94 -337h-170l-184 700h159l72 -286q16 -62 26 -125.5t18 -134.5h4q11 71 23.5 134.5t30.5 125.5l82 286h152zM598 937
l48 -108l-244 -81l-27 63z" />
    <glyph glyph-name="wacute" unicode="&#x1e83;" horiz-adv-x="820" 
d="M476 500l68 -237q10 -33 17 -66t11 -68h3q2 36 7 69t13 65l58 237h150l-135 -500h-168l-49 171q-15 52 -24 101.5t-16 103.5h-2q-7 -54 -16 -103.5t-24 -101.5l-49 -171h-168l-135 500h150l58 -237q8 -32 13 -65t7 -69h3q4 35 11 68t17 66l68 237h132zM498 737l48 -108
l-244 -81l-27 63z" />
    <glyph glyph-name="Wdieresis" unicode="&#x1e84;" horiz-adv-x="1022" 
d="M669 414q18 -62 30.5 -125.5t23.5 -134.5h4q8 71 18 134.5t26 125.5l72 286h159l-184 -700h-170l-94 337q-29 103 -41 204h-4q-12 -101 -41 -204l-94 -337h-170l-184 700h159l72 -286q16 -62 26 -125.5t18 -134.5h4q11 71 23.5 134.5t30.5 125.5l82 286h152zM403 895
q36 0 56 -18.5t20 -50.5q0 -34 -20 -52t-56 -18q-75 0 -75 70q0 32 19 50.5t56 18.5zM617 895q36 0 56 -18.5t20 -50.5q0 -34 -20 -52t-56 -18q-75 0 -75 70q0 32 19 50.5t56 18.5z" />
    <glyph glyph-name="wdieresis" unicode="&#x1e85;" horiz-adv-x="820" 
d="M476 500l68 -237q10 -33 17 -66t11 -68h3q2 36 7 69t13 65l58 237h150l-135 -500h-168l-49 171q-15 52 -24 101.5t-16 103.5h-2q-7 -54 -16 -103.5t-24 -101.5l-49 -171h-168l-135 500h150l58 -237q8 -32 13 -65t7 -69h3q4 35 11 68t17 66l68 237h132zM303 695
q36 0 56 -18.5t20 -50.5q0 -34 -20 -52t-56 -18q-75 0 -75 70q0 32 19 50.5t56 18.5zM517 695q36 0 56 -18.5t20 -50.5q0 -34 -20 -52t-56 -18q-75 0 -75 70q0 32 19 50.5t56 18.5z" />
    <glyph glyph-name="Ygrave" unicode="&#x1ef2;" horiz-adv-x="666" 
d="M411 0h-156v255l-245 445h168l97 -189q18 -35 31.5 -70t24.5 -69h3q22 70 57 139l96 189h169l-245 -445v-255zM468 811l-28 -63l-243 81l47 108z" />
    <glyph glyph-name="ygrave" unicode="&#x1ef3;" horiz-adv-x="556" 
d="M11 500h156l65 -189q14 -38 26 -89t22 -99h4q9 48 20.5 98.5t24.5 89.5l62 189h154l-189 -517q-18 -51 -35 -87.5t-39.5 -60t-54.5 -35t-80 -11.5q-40 0 -72 6.5t-51 17.5l22 109q15 -8 37 -13.5t48 -5.5q35 0 49.5 11.5t24.5 38.5l9 25zM413 611l-28 -63l-243 81l47 108
z" />
    <glyph glyph-name="endash" unicode="&#x2013;" horiz-adv-x="580" 
d="M26 269v121h528v-121h-528z" />
    <glyph glyph-name="emdash" unicode="&#x2014;" horiz-adv-x="777" 
d="M25 269v121h726v-121h-726z" />
    <glyph glyph-name="quoteleft" unicode="&#x2018;" horiz-adv-x="243" 
d="M165 476l-125 29l72 229l97 -20z" />
    <glyph glyph-name="quoteright" unicode="&#x2019;" horiz-adv-x="243" 
d="M77 734l125 -29l-71 -229l-98 20z" />
    <glyph glyph-name="quotesinglbase" unicode="&#x201a;" horiz-adv-x="243" 
d="M77 137l125 -28l-71 -229l-98 19z" />
    <glyph glyph-name="quotedblleft" unicode="&#x201c;" horiz-adv-x="421" 
d="M344 476l-125 29l72 229l97 -20zM165 476l-126 29l73 229l96 -20z" />
    <glyph glyph-name="quotedblright" unicode="&#x201d;" horiz-adv-x="421" 
d="M77 734l125 -29l-72 -229l-97 20zM256 734l126 -29l-73 -229l-97 20z" />
    <glyph glyph-name="quotedblbase" unicode="&#x201e;" horiz-adv-x="421" 
d="M77 137l125 -28l-72 -229l-97 19zM257 137l125 -28l-73 -229l-97 19z" />
    <glyph glyph-name="dagger" unicode="&#x2020;" horiz-adv-x="459" 
d="M296 -147h-133v571h-131v109h131v167h133v-167h131v-109h-131v-571z" />
    <glyph glyph-name="daggerdbl" unicode="&#x2021;" horiz-adv-x="459" 
d="M296 533h131v-109h-131v-295h131v-110h-131v-166h-133v166h-131v110h131v295h-131v109h131v167h133v-167z" />
    <glyph glyph-name="bullet" unicode="&#x2022;" horiz-adv-x="313" 
d="M156 164q-32 0 -54.5 9.5t-36.5 26t-20 37t-6 43.5t6 44t20 37t36.5 25.5t54.5 9.5t54.5 -9.5t36.5 -25.5t20 -37t6 -44t-6 -43.5t-20 -37t-36.5 -26t-54.5 -9.5z" />
    <glyph glyph-name="ellipsis" unicode="&#x2026;" horiz-adv-x="780" 
d="M130 -8q-26 0 -43 7.5t-27.5 19.5t-15 27.5t-4.5 32.5q0 16 4.5 31.5t15 27.5t27.5 19.5t43 7.5q25 0 42 -7.5t27.5 -19.5t15 -27.5t4.5 -31.5q0 -34 -19.5 -60.5t-69.5 -26.5zM390 -8q-26 0 -43 7.5t-27 19.5t-14.5 27.5t-4.5 32.5q0 16 4.5 31.5t14.5 27.5t27 19.5
t43 7.5q25 0 42 -7.5t27.5 -19.5t15 -27.5t4.5 -31.5q0 -34 -19.5 -60.5t-69.5 -26.5zM650 -8q-26 0 -43 7.5t-27 19.5t-14.5 27.5t-4.5 32.5q0 16 4.5 31.5t14.5 27.5t27 19.5t43 7.5q25 0 42 -7.5t27.5 -19.5t15 -27.5t4.5 -31.5q0 -34 -19.5 -60.5t-69.5 -26.5z" />
    <glyph glyph-name="perthousand" unicode="&#x2030;" horiz-adv-x="1055" 
d="M215 0h-117l410 700h117zM173 708q74 0 110 -44.5t36 -125.5t-36 -125.5t-110 -44.5q-75 0 -111 44.5t-36 125.5t36 125.5t111 44.5zM173 449q26 0 37 23t11 66t-11 66t-37 23q-28 0 -38 -23t-10 -66t10 -66t38 -23zM550 332q74 0 110.5 -44.5t36.5 -125.5t-36.5 -125
t-110.5 -44t-110.5 44t-36.5 125t36.5 125.5t110.5 44.5zM550 73q26 0 37 23.5t11 65.5q0 43 -11 66t-37 23q-27 0 -37.5 -23t-10.5 -66q0 -42 10.5 -65.5t37.5 -23.5zM885 332q74 0 110.5 -44.5t36.5 -125.5t-36.5 -125t-110.5 -44t-110.5 44t-36.5 125t36.5 125.5
t110.5 44.5zM885 73q27 0 37.5 23.5t10.5 65.5q0 43 -10.5 66t-37.5 23t-37.5 -23t-10.5 -66q0 -42 10.5 -65.5t37.5 -23.5z" />
    <glyph glyph-name="guilsinglleft" unicode="&#x2039;" horiz-adv-x="338" 
d="M148 533h145l-125 -201l125 -200h-145l-123 200z" />
    <glyph glyph-name="guilsinglright" unicode="&#x203a;" horiz-adv-x="338" 
d="M312 332l-122 -200h-146l124 200l-124 201h146z" />
    <glyph glyph-name="fraction" unicode="&#x2044;" horiz-adv-x="208" 
d="M-43 0h-116l410 700h116z" />
    <glyph glyph-name="Euro" unicode="&#x20ac;" horiz-adv-x="647" 
d="M284 243q15 -55 54.5 -92t102.5 -37q38 0 72 15.5t63 42.5l31 -112q-29 -30 -78 -51t-115 -21q-61 0 -109.5 18t-85.5 51t-61 80t-35 106h-84v79h74q-2 14 -2 27.5t2 27.5h-74v79h84q11 58 35 105t60 80.5t85 51.5t109 18q66 0 114 -21t78 -50l-33 -112
q-26 25 -58.5 40.5t-74.5 15.5q-58 0 -97.5 -34t-56.5 -94h203v-79h-217q-2 -14 -2 -27.5t2 -27.5h183v-79h-169z" />
    <glyph glyph-name="afii61289" unicode="&#x2113;" horiz-adv-x="422" 
d="M226 173q0 -36 13.5 -49.5t42.5 -13.5q14 0 31 3.5t33 11.5l18 -110q-24 -11 -53 -18.5t-66 -7.5q-41 0 -71 9.5t-49.5 30.5t-29 54.5t-9.5 82.5v21q-12 -5 -24.5 -10.5t-23.5 -10.5l-34 83q41 16 81 38v185q0 55 7.5 99t27 75t52.5 48t84 17q69 0 106 -52t34 -146
q-1 -50 -16 -89.5t-38.5 -71t-54 -57t-61.5 -47.5v-75zM225 363q24 26 43.5 65.5t19.5 91.5q0 32 -7 55t-23 23q-19 0 -26 -27.5t-7 -76.5v-131z" />
    <glyph glyph-name="trademark" unicode="&#x2122;" horiz-adv-x="696" 
d="M280 620l-86 1v-196h-94v196l-86 -1v80h266v-80zM475 477l-29 50q-8 13 -16 28.5t-13 27.5q2 -14 2 -29.5v-29.5v-99h-91v275h92l73 -126l73 126h92v-275h-91v99v29.5t2 29.5q-5 -12 -13 -27.5t-16 -28.5l-29 -50h-36z" />
    <glyph glyph-name="Omega" unicode="&#x2126;" horiz-adv-x="741" 
d="M370 586q-86 0 -136.5 -46t-50.5 -141q0 -96 42.5 -156t109.5 -77l-11 -166h-230v99h140l-14 22q-28 13 -59.5 36t-58 57t-44 81t-17.5 110q0 71 22.5 127.5t65 96.5t103.5 61t138 21t138 -21t103.5 -61t65 -96.5t22.5 -127.5q0 -63 -17.5 -110t-44 -81t-57.5 -57
t-59 -36l-14 -22h139v-99h-230l-12 166q68 17 110.5 77t42.5 156q0 95 -50.5 141t-136.5 46z" />
    <glyph glyph-name="estimated" unicode="&#x212e;" horiz-adv-x="906" 
d="M203 335q-5 0 -5 -4v-185q0 -11 2 -17.5t6 -11.5q47 -51 112.5 -73.5t141.5 -22.5q82 0 149 27t118 82h61q-57 -63 -142 -101t-187 -38q-88 0 -164 28t-132.5 77t-88.5 114t-32 139q0 75 31.5 140t87 114t131 77t162.5 28q88 0 163.5 -28t131 -77t87 -114t31.5 -140v-14
h-664zM712 551q0 15 -2.5 22t-9.5 14q-49 45 -109.5 68t-135.5 23q-150 0 -248 -97q-9 -9 -9 -29v-187q0 -6 5 -6h503q6 0 6 6v186z" />
    <glyph glyph-name="partialdiff" unicode="&#x2202;" horiz-adv-x="602" 
d="M281 347q-54 0 -77 -29t-23 -90q0 -59 26.5 -91t81.5 -32q60 0 89.5 51t30.5 136q-23 24 -56.5 39.5t-71.5 15.5zM244 592q-36 0 -69 -8t-64 -23l-28 112q35 17 79 28t91 11q150 0 228 -93.5t78 -289.5q0 -161 -68.5 -251t-203.5 -90q-56 0 -102 15.5t-78.5 46.5
t-50.5 76.5t-18 105.5q0 59 15.5 101.5t43.5 69.5t65 39.5t81 12.5q54 0 96.5 -17.5t68.5 -43.5q-1 46 -9.5 83t-27.5 62.5t-50 39t-77 13.5z" />
    <glyph glyph-name="Delta" unicode="&#x2206;" horiz-adv-x="671" 
d="M380 386q-11 36 -23 78t-20 76h-3q-9 -34 -20.5 -76t-22.5 -78l-87 -273h263zM31 0l248 704h113l248 -704h-609z" />
    <glyph glyph-name="product" unicode="&#x220f;" horiz-adv-x="635" 
d="M562 -154h-144v739h-203v-739h-142v862h489v-862z" />
    <glyph glyph-name="summation" unicode="&#x2211;" horiz-adv-x="537" 
d="M24 -154v102l185 338l-177 320v102h463v-121h-300l162 -301l-169 -318h316v-122h-480z" />
    <glyph glyph-name="minus" unicode="&#x2212;" horiz-adv-x="505" 
d="M40 261v118h424v-118h-424z" />
    <glyph glyph-name="uni2215" unicode="&#x2215;" horiz-adv-x="208" 
d="M-43 0h-116l410 700h116z" />
    <glyph glyph-name="uni2219" unicode="&#x2219;" horiz-adv-x="261" 
d="M130 203q-25 0 -41.5 7t-27 19t-15 27t-4.5 32q0 16 4.5 31.5t15 27.5t27 19t41.5 7t42 -7t27 -19t14.5 -27.5t4.5 -31.5q0 -17 -4.5 -32t-14.5 -27t-27 -19t-42 -7z" />
    <glyph glyph-name="radical" unicode="&#x221a;" horiz-adv-x="557" 
d="M308 -70h-117l-92 261h-78v118h162l54 -190l150 587h137z" />
    <glyph glyph-name="infinity" unicode="&#x221e;" horiz-adv-x="739" 
d="M217 232q28 0 53 19t45 54q-20 33 -45.5 52t-52.5 19q-32 0 -48.5 -18.5t-16.5 -52.5q0 -73 65 -73zM370 382q31 48 76 74t93 26q36 0 65.5 -11.5t51.5 -34t34 -55.5t12 -75q0 -81 -42 -129.5t-121 -48.5q-52 0 -95 26t-75 74q-32 -48 -76 -74t-91 -26q-73 0 -119.5 46
t-46.5 131q0 81 42 129t121 48q53 0 95.5 -26t75.5 -74zM522 377q-28 0 -53.5 -18.5t-45.5 -52.5q20 -34 45.5 -53t53.5 -19q32 0 48 18.5t16 53.5q0 71 -64 71z" />
    <glyph glyph-name="integral" unicode="&#x222b;" horiz-adv-x="400" 
d="M130 524q0 99 35.5 142.5t109.5 43.5q35 0 60.5 -5.5t49.5 -16.5l-15 -108q-27 9 -55 9q-25 0 -35.5 -13t-10.5 -51v-508q0 -99 -36 -143t-109 -44q-35 0 -60.5 6t-49.5 16l15 108q14 -4 28 -6.5t28 -2.5q25 0 35 13.5t10 51.5v508z" />
    <glyph glyph-name="approxequal" unicode="&#x2248;" horiz-adv-x="505" 
d="M339 175q30 0 48.5 21t32.5 52l67 -56q-11 -24 -25.5 -46t-32.5 -38.5t-39 -26.5t-45 -10q-29 0 -51 12t-41 27t-36.5 27t-36.5 12q-31 0 -50.5 -21t-33.5 -51l-67 55q11 24 26 46t33 39t39 27t44 10q28 0 50.5 -12.5t42 -27t37.5 -27t38 -12.5zM339 374q30 0 48.5 20.5
t32.5 52.5l67 -57q-11 -24 -25.5 -45.5t-32.5 -38.5t-39 -27t-45 -10q-29 0 -51 12.5t-41 27t-36.5 27t-36.5 12.5q-31 0 -50.5 -21t-33.5 -53l-67 56q11 24 26 46t33 39t39 27t44 10q28 0 50.5 -12t42 -27t37.5 -27t38 -12z" />
    <glyph glyph-name="notequal" unicode="&#x2260;" horiz-adv-x="505" 
d="M361 405h102v-100h-147l-41 -92h188v-100h-233l-56 -127h-84l55 127h-103v100h148l41 92h-189v100h234l54 122h85z" />
    <glyph glyph-name="lessequal" unicode="&#x2264;" horiz-adv-x="505" 
d="M23 432l431 235v-139l-278 -138l278 -136v-140l-431 235v83zM23 0v77h431v-77h-431z" />
    <glyph glyph-name="greaterequal" unicode="&#x2265;" horiz-adv-x="505" 
d="M51 0v77h431v-77h-431zM51 114v140l278 136l-278 138v139l431 -235v-84z" />
    <glyph glyph-name="lozenge" unicode="&#x25ca;" horiz-adv-x="635" 
d="M317 135l132 213l-132 213l-132 -213zM272 700h90l236 -352l-236 -352h-90l-236 352z" />
    <glyph glyph-name="commaaccent" unicode="&#xf6c3;" horiz-adv-x="333" 
d="M112 -53l134 -23l-77 -193l-78 18z" />
    <glyph glyph-name="uniF8FF" unicode="&#xf8ff;" horiz-adv-x="2236" 
d="M197 426q0 12 -16.5 19t-36.5 14q-16 6 -30.5 11.5t-25.5 14t-17.5 20t-6.5 29.5q0 29 24 50.5t69 21.5q35 0 64 -21t33 -59h-58q-2 13 -14 20t-26 7q-17 0 -25.5 -5t-8.5 -13q0 -11 13.5 -16.5t28.5 -11.5q19 -6 35.5 -13t29 -15.5t19.5 -20.5t7 -29q0 -18 -8 -32.5
t-21 -24.5t-30.5 -15t-36.5 -5q-39 0 -68.5 22t-34.5 60h60q2 -16 15 -23t30 -7t26.5 5.5t9.5 16.5zM467 549h-73v-193h-59v193h-73v53h205v-53zM684 356h-61l-19 44h-100l-20 -44h-60l109 246h42zM582 450l-28 70l-29 -70h57zM905 440l52 162h61l-80 -246h-53l-58 156
l-56 -156h-53l-81 246h61l52 -162l54 162h47zM1093 356h-58v246h58v-246zM1229 439l-57 -83h-66l90 127l-84 119h67l50 -74l52 74h67l-84 -119l90 -127h-66zM128 170v-43h112v-53h-112v-98h-59v246h176v-52h-117zM509 99q0 -26 -9.5 -49t-26.5 -40t-40 -27t-49 -10
q-27 0 -49.5 10t-39 27t-25.5 40t-9 49t9 49t25.5 40.5t39 27.5t49.5 10q26 0 49 -10t40 -27.5t26.5 -40.5t9.5 -49zM449 99q0 34 -19.5 53.5t-45.5 19.5t-45.5 -19.5t-19.5 -53.5q0 -33 19.5 -53t45.5 -20t45.5 20t19.5 53zM694 222h58v-141q0 -50 -29 -79t-81 -29
t-81.5 29t-29.5 79v141h59v-141q0 -26 13 -40.5t39 -14.5t39 14.5t13 40.5v141zM1010 -24h-58l-111 154v-154h-58v246h53l115 -157v157h59v-246zM1040 222h103q60 0 91 -34t31 -88q0 -56 -30 -90t-90 -34h-105v246zM1145 30q33 0 47 19t14 51q0 31 -15 50t-48 19h-44v-139
h46zM1348 -24h-59v246h110q39 0 66 -21t27 -59q0 -29 -16 -49t-41 -25l64 -92h-64l-62 88h-25v-88zM1400 116q14 0 24 6t10 20t-10.5 21t-24.5 7h-51v-54h52zM1599 131l55 91h63l-88 -143v-103h-60v103l-88 143h63zM59 -200q-3 0 -6 2.5t-3 6.5t3 6.5t6 2.5h2119q8 0 8 -9
t-8 -9h-2119zM59 782q-3 0 -6 2.5t-3 6.5t3 6.5t6 2.5h2119q8 0 8 -9t-8 -9h-2119z" />
    <glyph glyph-name="a.superior" horiz-adv-x="372" 
d="M120 478q0 -20 11.5 -27t32.5 -7q26 0 45 16.5t19 44.5v10q-10 2 -24.5 3.5t-26.5 1.5q-32 0 -44.5 -9.5t-12.5 -32.5zM228 429q-11 -25 -33 -43t-65 -18q-19 0 -37.5 5.5t-33.5 18t-24 32t-9 46.5q0 60 35.5 85t98.5 25q20 0 38.5 -2.5t29.5 -5.5v2v10q0 24 -13.5 36
t-46.5 12q-29 0 -57 -6t-52 -16l-15 68q28 13 65 21.5t79 8.5q78 0 109.5 -36t31.5 -102v-194h-93l-7 53h-1z" />
    <glyph glyph-name="o.superior" horiz-adv-x="387" 
d="M194 708q81 0 122 -43t41 -118v-19q0 -75 -41 -118t-122 -43t-122.5 43t-41.5 118v19q0 75 41.5 118t122.5 43zM194 448q31 0 44 19.5t13 60.5v19q0 41 -13 60.5t-44 19.5q-32 0 -45 -19.5t-13 -60.5v-19q0 -41 13 -60.5t45 -19.5z" />
    <glyph glyph-name="one.superior" horiz-adv-x="232" 
d="M105 702h81v-324h-92v230l-63 -29l-22 61z" />
    <glyph glyph-name="two.superior" horiz-adv-x="302" 
d="M25 377v63l112 104q16 15 26.5 29.5t10.5 32.5q0 15 -11.5 22t-29.5 7q-23 0 -45.5 -5t-44.5 -13l-16 66q23 11 56 18.5t64 7.5q54 0 86.5 -23t32.5 -74q0 -38 -22 -65t-48 -51l-49 -45h126v-74h-248z" />
    <glyph glyph-name="three.superior" horiz-adv-x="298" 
d="M127 635q-24 0 -46.5 -5.5t-40.5 -13.5l-17 67q24 11 52 18t63 7q57 0 90.5 -22t33.5 -70q0 -27 -14 -44t-32 -25q23 -8 37.5 -26.5t14.5 -49.5q0 -54 -36 -78t-98 -24q-36 0 -64 7t-51 18l16 69q42 -19 87 -19q57 0 57 35q0 20 -14.5 27t-37.5 7h-41v61h44q21 0 33 8.5
t12 23.5q0 29 -48 29z" />
    <glyph glyph-name="zero.tab" horiz-adv-x="647" 
d="M323 112q31 0 55 12.5t40.5 40.5t25 73.5t8.5 111.5t-8.5 111.5t-25 73.5t-40.5 40.5t-55 12.5t-55 -12.5t-40.5 -40.5t-25 -73.5t-8.5 -111.5t8.5 -111.5t25 -73.5t40.5 -40.5t55 -12.5zM323 712q62 0 114.5 -20t90.5 -63.5t59.5 -112t21.5 -166.5t-21.5 -167
t-59.5 -112.5t-90.5 -63.5t-114.5 -20t-114.5 20t-90.5 63.5t-59 112.5t-21 167t21 166.5t59 112t90.5 63.5t114.5 20z" />
    <glyph glyph-name="one.tab" horiz-adv-x="647" 
d="M302 700h135v-700h-153v541l-127 -65l-36 101z" />
    <glyph glyph-name="two.tab" horiz-adv-x="647" 
d="M78 0v111l241 241q17 17 33 36t27.5 40t17 42.5t2.5 44.5q-3 36 -31 52t-73 16q-47 0 -94 -11t-89 -28l-30 118q45 22 104.5 36t125.5 14q115 0 177.5 -49.5t62.5 -150.5q0 -44 -13.5 -79t-35.5 -66t-49.5 -59t-55.5 -57l-123 -125h288v-126h-485z" />
    <glyph glyph-name="three.tab" horiz-adv-x="647" 
d="M276 585q-51 0 -95 -11t-81 -28l-29 116q48 23 105.5 36t122.5 13q56 0 101 -11t77 -34.5t49.5 -60.5t17.5 -88q0 -31 -8 -55.5t-21 -43t-30 -31.5t-35 -21v-1q49 -14 79 -54t30 -112q0 -57 -20 -97t-55.5 -65.5t-85.5 -37t-110 -11.5q-69 0 -124 12t-103 35l30 117
q75 -32 152 -35q13 -1 25 -0.5t24 2.5q26 3 47.5 13.5t36 26t22 35.5t5.5 41q-4 40 -33 53.5t-82 13.5h-91v116h87q60 0 87.5 21.5t27.5 63.5q0 45 -31.5 63.5t-91.5 18.5z" />
    <glyph glyph-name="four.tab" horiz-adv-x="647" 
d="M379 122h-333v99q2 4 2.5 7t2.5 7l204 465h154l-200 -458h170l17 222h133v-222h84v-120h-84v-122h-150v122z" />
    <glyph glyph-name="five.tab" horiz-adv-x="647" 
d="M284 114q66 0 105.5 26.5t39.5 94.5q0 60 -30 85t-79 25q-37 0 -66.5 -11.5t-50.5 -29.5h-119l21 396h434v-122h-312l-8 -154q22 11 56.5 21.5t84.5 10.5q45 0 85 -11.5t70.5 -38t48 -69.5t17.5 -105q0 -66 -21.5 -112t-59.5 -75t-89.5 -42.5t-112.5 -13.5
q-72 0 -129 12.5t-101 35.5l30 117q42 -19 90 -29.5t96 -10.5z" />
    <glyph glyph-name="six.tab" horiz-adv-x="647" 
d="M346 346q-36 0 -71.5 -13.5t-58.5 -33.5q1 -91 30.5 -142.5t90.5 -51.5q54 0 81 32t27 91q0 61 -23.5 89.5t-75.5 28.5zM382 591q-45 0 -76 -13t-50.5 -38t-28.5 -60t-10 -78q26 22 69 38.5t96 16.5q44 0 81.5 -13t65 -40.5t43 -70t15.5 -101.5q0 -60 -18 -105.5
t-50.5 -76.5t-78.5 -46.5t-101 -15.5q-135 0 -203.5 89.5t-68.5 250.5q0 196 78 289.5t227 93.5q47 0 91.5 -10.5t79.5 -27.5l-29 -112q-62 30 -132 30z" />
    <glyph glyph-name="seven.tab" horiz-adv-x="647" 
d="M79 700h477v-116l-238 -584h-163l235 572h-311v128z" />
    <glyph glyph-name="eight.tab" horiz-adv-x="647" 
d="M323 712q69 0 117 -14t77.5 -39t42.5 -59.5t13 -75.5q0 -33 -8 -58.5t-21 -44t-29.5 -31t-34.5 -19.5v-1q21 -7 41 -21t36 -35.5t25.5 -50.5t9.5 -65q0 -56 -19.5 -96t-54.5 -65.5t-84.5 -37t-110.5 -11.5q-60 0 -110 11.5t-85 37t-54.5 65.5t-19.5 96q0 36 9.5 65
t25.5 50.5t36.5 35.5t41.5 21v1q-18 7 -34.5 19.5t-29.5 31t-21 44t-8 58.5q0 41 13 75.5t42.5 59.5t77 39t116.5 14zM340 416q45 0 66.5 25t21.5 67q0 44 -24 67t-81 23q-56 0 -80 -23.5t-24 -66.5q0 -42 21 -67t66 -25h34zM306 319q-49 0 -75 -27t-26 -81q0 -57 29 -83
t89 -26q61 0 90.5 26t29.5 83q0 54 -27 81t-76 27h-34z" />
    <glyph glyph-name="nine.tab" horiz-adv-x="647" 
d="M300 353q37 0 72 14t58 34q0 91 -29.5 142t-91.5 51q-54 0 -80.5 -32t-26.5 -91q0 -61 23 -89.5t75 -28.5zM265 108q45 0 76 13t50 38t28 59.5t10 78.5q-26 -21 -69 -37.5t-95 -16.5q-44 0 -81.5 13t-65.5 40t-43.5 69.5t-15.5 101.5q0 60 18 105.5t50.5 76.5t78.5 46.5
t102 15.5q136 0 203.5 -88.5t67.5 -250.5q0 -197 -77 -290.5t-227 -93.5q-48 0 -92.5 11t-79.5 28l28 111q31 -14 64 -22t70 -8z" />
    <glyph glyph-name="G.alt" horiz-adv-x="680" 
d="M381 117q26 0 51 3.5t45 9.5v272h143v-358q-43 -25 -106.5 -40.5t-132.5 -15.5q-173 0 -254 90t-81 254v35q0 164 83 254t253 90q69 0 126.5 -15t95.5 -35l-29 -117q-35 17 -80 27.5t-92 10.5q-56 0 -94 -14.5t-61.5 -42t-34 -67.5t-10.5 -91v-35q0 -51 9.5 -91
t30.5 -67.5t55 -42t83 -14.5z" />
    <glyph glyph-name="J.alt" horiz-adv-x="511" 
d="M447 700v-452q0 -71 -16.5 -120.5t-47.5 -81t-75 -45.5t-99 -14q-56 0 -105 12.5t-81 32.5l31 122q25 -14 57 -23.5t67 -9.5q63 0 88 35.5t25 118.5v425h156z" />
    <glyph glyph-name="a.alt" 
d="M292 398q-57 0 -79 -35t-22 -102v-21q0 -72 22 -104t69 -32q57 0 79 42.5t22 113.5v26q0 58 -21.5 85t-69.5 27zM289 511q124 0 184 -54t60 -166v-291h-137l-10 86h-2q-14 -38 -48.5 -67t-95.5 -29q-55 0 -92.5 18.5t-60.5 51.5t-33 78.5t-10 100.5v22q0 57 13.5 103
t43 78.5t76 50.5t112.5 18z" />
    <glyph glyph-name="g.alt" 
d="M292 398q-57 0 -79 -32.5t-22 -99.5v-19q0 -72 22 -101.5t69 -29.5q51 0 76 34.5t25 97.5v46q0 56 -22 80t-69 24zM387 96h-2q-8 -19 -20.5 -36t-31.5 -30.5t-43 -21.5t-54 -8q-53 0 -89.5 18.5t-59 51.5t-33 78t-10.5 98v20q0 57 13.5 102t43 77t76 49t112.5 17
q124 0 184 -53.5t60 -165.5v-266q0 -122 -69 -179.5t-188 -57.5q-61 0 -113 12.5t-88 31.5l24 100q32 -15 71 -24.5t78 -9.5q69 0 104 29.5t35 100.5v67z" />
    <glyph glyph-name="j.alt" horiz-adv-x="289" 
d="M227 500v-515q0 -106 -46 -151t-131 -45q-39 0 -68 7.5t-55 20.5l25 104q37 -17 69 -17t44.5 18.5t12.5 62.5v515h149zM152 716q49 0 71.5 -20.5t22.5 -56.5q0 -37 -22.5 -58t-71.5 -21q-48 0 -70.5 21t-22.5 58q0 36 22.5 56.5t70.5 20.5z" />
    <glyph glyph-name="q.alt" 
d="M292 398q-57 0 -79 -35t-22 -102v-21q0 -72 22 -104t69 -32q57 0 79 42.5t22 113.5v26q0 58 -21.5 85t-69.5 27zM289 511q124 0 184 -54t60 -166v-491h-150v200q0 44 3 86h-2q-7 -19 -19 -36.5t-29.5 -31t-41 -21.5t-53.5 -8q-54 0 -91.5 19t-61 52.5t-34 79.5t-10.5 99
v22q0 57 13.5 103t43 78.5t76 50.5t112.5 18z" />
    <glyph glyph-name="u.alt" horiz-adv-x="591" 
d="M296 -12q-118 0 -178 56.5t-60 169.5v286h150v-279q0 -57 21 -83.5t67 -26.5q88 0 88 110v279h149v-286q0 -113 -59.5 -169.5t-177.5 -56.5z" />
    <glyph glyph-name="v.alt" horiz-adv-x="572" 
d="M289 109q88 0 88 148q0 63 -22 125t-60 118h148q34 -43 57.5 -101t23.5 -130q0 -147 -61 -214t-173 -67q-113 0 -172.5 60.5t-59.5 178.5v273h150v-265q0 -126 81 -126z" />
    <glyph glyph-name="w.alt" horiz-adv-x="835" 
d="M560 110q42 0 61 35t19 113q0 62 -20.5 124t-59.5 118h148q35 -44 56.5 -101t23.5 -129q4 -145 -52 -213.5t-162 -68.5q-62 0 -102 26.5t-54 69.5h-2q-18 -45 -57.5 -70.5t-101.5 -25.5q-103 0 -151 64.5t-48 185.5v262h150v-268q0 -60 15 -91.5t53 -31.5q41 0 55 34
t14 103v254h142v-266q0 -62 17.5 -93t55.5 -31z" />
    <glyph glyph-name="y.alt" horiz-adv-x="593" 
d="M533 44q0 -130 -65.5 -192.5t-194.5 -62.5q-61 0 -113 12t-86 31l25 100q31 -14 68.5 -23.5t78.5 -9.5q69 0 105 29.5t36 102.5l1 63h-3q-8 -18 -20.5 -34.5t-31.5 -30t-44 -21.5t-58 -8q-95 0 -134 53t-39 165v282h150v-286q0 -46 15 -68t55 -22q28 0 48 11.5t32.5 32
t18 49t5.5 62.5v221h151v-456z" />
    <glyph glyph-name="Gcircumflex.alt" horiz-adv-x="680" 
d="M381 117q26 0 51 3.5t45 9.5v272h143v-358q-43 -25 -106.5 -40.5t-132.5 -15.5q-173 0 -254 90t-81 254v35q0 164 83 254t253 90q69 0 126.5 -15t95.5 -35l-29 -117q-35 17 -80 27.5t-92 10.5q-56 0 -94 -14.5t-61.5 -42t-34 -67.5t-10.5 -91v-35q0 -51 9.5 -91
t30.5 -67.5t55 -42t83 -14.5zM412 915l128 -155h-95l-73 65l-72 -65h-96l128 155h80z" />
    <glyph glyph-name="Gbreve.alt" horiz-adv-x="680" 
d="M381 117q26 0 51 3.5t45 9.5v272h143v-358q-43 -25 -106.5 -40.5t-132.5 -15.5q-173 0 -254 90t-81 254v35q0 164 83 254t253 90q69 0 126.5 -15t95.5 -35l-29 -117q-35 17 -80 27.5t-92 10.5q-56 0 -94 -14.5t-61.5 -42t-34 -67.5t-10.5 -91v-35q0 -51 9.5 -91
t30.5 -67.5t55 -42t83 -14.5zM377 757q-67 0 -109.5 36t-45.5 119h81q5 -36 23.5 -51t50.5 -15q33 0 51.5 15t23.5 51h81q-3 -83 -46 -119t-110 -36z" />
    <glyph glyph-name="Gdotaccent.alt" horiz-adv-x="680" 
d="M381 117q26 0 51 3.5t45 9.5v272h143v-358q-43 -25 -106.5 -40.5t-132.5 -15.5q-173 0 -254 90t-81 254v35q0 164 83 254t253 90q69 0 126.5 -15t95.5 -35l-29 -117q-35 17 -80 27.5t-92 10.5q-56 0 -94 -14.5t-61.5 -42t-34 -67.5t-10.5 -91v-35q0 -51 9.5 -91
t30.5 -67.5t55 -42t83 -14.5zM378 903q42 0 62 -20t20 -52q0 -34 -20 -53.5t-62 -19.5t-62 19.5t-20 53.5q0 32 20 52t62 20z" />
    <glyph glyph-name="Gcommaaccent.alt" horiz-adv-x="680" 
d="M381 117q26 0 51 3.5t45 9.5v272h143v-358q-43 -25 -106.5 -40.5t-132.5 -15.5q-173 0 -254 90t-81 254v35q0 164 83 254t253 90q69 0 126.5 -15t95.5 -35l-29 -117q-35 17 -80 27.5t-92 10.5q-56 0 -94 -14.5t-61.5 -42t-34 -67.5t-10.5 -91v-35q0 -51 9.5 -91
t30.5 -67.5t55 -42t83 -14.5zM313 -53l134 -23l-77 -193l-78 18z" />
    <glyph glyph-name="IJ.alt" horiz-adv-x="603" 
d="M224 244h-155v456h155v-456zM538 700v-447q0 -142 -69.5 -203.5t-206.5 -61.5q-55 0 -106.5 10.5t-86.5 28.5v131q36 -17 79.5 -26t88.5 -9q42 0 70 9t44.5 27.5t23 48.5t6.5 72v420h157z" />
    <glyph glyph-name="Jcircumflex.alt" horiz-adv-x="511" 
d="M447 700v-452q0 -71 -16.5 -120.5t-47.5 -81t-75 -45.5t-99 -14q-56 0 -105 12.5t-81 32.5l31 122q25 -14 57 -23.5t67 -9.5q63 0 88 35.5t25 118.5v425h156zM295 915l128 -155h-95l-73 65l-72 -65h-96l128 155h80z" />
    <glyph glyph-name="aacute.alt" 
d="M292 398q-57 0 -79 -35t-22 -102v-21q0 -72 22 -104t69 -32q57 0 79 42.5t22 113.5v26q0 58 -21.5 85t-69.5 27zM289 511q124 0 184 -54t60 -166v-291h-137l-10 86h-2q-14 -38 -48.5 -67t-95.5 -29q-55 0 -92.5 18.5t-60.5 51.5t-33 78.5t-10 100.5v22q0 57 13.5 103
t43 78.5t76 50.5t112.5 18zM383 737l48 -108l-244 -81l-27 63z" />
    <glyph glyph-name="agrave.alt" 
d="M292 398q-57 0 -79 -35t-22 -102v-21q0 -72 22 -104t69 -32q57 0 79 42.5t22 113.5v26q0 58 -21.5 85t-69.5 27zM289 511q124 0 184 -54t60 -166v-291h-137l-10 86h-2q-14 -38 -48.5 -67t-95.5 -29q-55 0 -92.5 18.5t-60.5 51.5t-33 78.5t-10 100.5v22q0 57 13.5 103
t43 78.5t76 50.5t112.5 18zM431 611l-28 -63l-243 81l47 108z" />
    <glyph glyph-name="acircumflex.alt" 
d="M292 398q-57 0 -79 -35t-22 -102v-21q0 -72 22 -104t69 -32q57 0 79 42.5t22 113.5v26q0 58 -21.5 85t-69.5 27zM289 511q124 0 184 -54t60 -166v-291h-137l-10 86h-2q-14 -38 -48.5 -67t-95.5 -29q-55 0 -92.5 18.5t-60.5 51.5t-33 78.5t-10 100.5v22q0 57 13.5 103
t43 78.5t76 50.5t112.5 18zM335 715l128 -155h-95l-73 65l-72 -65h-96l128 155h80z" />
    <glyph glyph-name="adieresis.alt" 
d="M292 398q-57 0 -79 -35t-22 -102v-21q0 -72 22 -104t69 -32q57 0 79 42.5t22 113.5v26q0 58 -21.5 85t-69.5 27zM289 511q124 0 184 -54t60 -166v-291h-137l-10 86h-2q-14 -38 -48.5 -67t-95.5 -29q-55 0 -92.5 18.5t-60.5 51.5t-33 78.5t-10 100.5v22q0 57 13.5 103
t43 78.5t76 50.5t112.5 18zM188 695q36 0 56 -18.5t20 -50.5q0 -34 -20 -52t-56 -18q-75 0 -75 70q0 32 19 50.5t56 18.5zM402 695q36 0 56 -18.5t20 -50.5q0 -34 -20 -52t-56 -18q-75 0 -75 70q0 32 19 50.5t56 18.5z" />
    <glyph glyph-name="atilde.alt" 
d="M292 398q-57 0 -79 -35t-22 -102v-21q0 -72 22 -104t69 -32q57 0 79 42.5t22 113.5v26q0 58 -21.5 85t-69.5 27zM289 511q124 0 184 -54t60 -166v-291h-137l-10 86h-2q-14 -38 -48.5 -67t-95.5 -29q-55 0 -92.5 18.5t-60.5 51.5t-33 78.5t-10 100.5v22q0 57 13.5 103
t43 78.5t76 50.5t112.5 18zM358 650q15 0 23 13.5t10 46.5h77q-2 -76 -26 -114t-79 -38q-21 0 -39 10t-33.5 21.5t-29.5 21.5t-28 10q-15 0 -23.5 -14t-10.5 -46h-77q3 76 27 113.5t79 37.5q22 0 39.5 -9.5t32.5 -21.5t29 -21.5t29 -9.5z" />
    <glyph glyph-name="aring.alt" 
d="M295 763q48 0 78.5 -25t30.5 -79q0 -55 -30.5 -80t-78.5 -25t-78.5 25t-30.5 80q0 54 30.5 79t78.5 25zM295 614q20 0 30 10.5t10 34.5q0 44 -40 44t-40 -44q0 -24 10 -34.5t30 -10.5zM292 398q-57 0 -79 -35t-22 -102v-21q0 -72 22 -104t69 -32q57 0 79 42.5t22 113.5
v26q0 58 -21.5 85t-69.5 27zM289 511q124 0 184 -54t60 -166v-291h-137l-10 86h-2q-14 -38 -48.5 -67t-95.5 -29q-55 0 -92.5 18.5t-60.5 51.5t-33 78.5t-10 100.5v22q0 57 13.5 103t43 78.5t76 50.5t112.5 18z" />
    <glyph glyph-name="amacron.alt" 
d="M292 398q-57 0 -79 -35t-22 -102v-21q0 -72 22 -104t69 -32q57 0 79 42.5t22 113.5v26q0 58 -21.5 85t-69.5 27zM289 511q124 0 184 -54t60 -166v-291h-137l-10 86h-2q-14 -38 -48.5 -67t-95.5 -29q-55 0 -92.5 18.5t-60.5 51.5t-33 78.5t-10 100.5v22q0 57 13.5 103
t43 78.5t76 50.5t112.5 18zM457 648v-84h-324v84h324z" />
    <glyph glyph-name="abreve.alt" 
d="M292 398q-57 0 -79 -35t-22 -102v-21q0 -72 22 -104t69 -32q57 0 79 42.5t22 113.5v26q0 58 -21.5 85t-69.5 27zM289 511q124 0 184 -54t60 -166v-291h-137l-10 86h-2q-14 -38 -48.5 -67t-95.5 -29q-55 0 -92.5 18.5t-60.5 51.5t-33 78.5t-10 100.5v22q0 57 13.5 103
t43 78.5t76 50.5t112.5 18zM295 557q-67 0 -109.5 36t-45.5 119h81q5 -36 23.5 -51t50.5 -15q33 0 51.5 15t23.5 51h81q-3 -83 -46 -119t-110 -36z" />
    <glyph glyph-name="aogonek.alt" 
d="M289 511q124 0 184 -54t60 -166v-291h-11q-44 -16 -57.5 -35t-13.5 -40q0 -19 10 -26.5t29 -7.5q28 0 58 15l15 -61q-18 -13 -44 -21.5t-55 -8.5q-21 0 -39.5 4.5t-32.5 15t-22.5 28t-8.5 42.5q0 38 19.5 60t45.5 35h-30l-10 86h-2q-14 -38 -48.5 -67t-95.5 -29
q-55 0 -92.5 18.5t-60.5 51.5t-33 78.5t-10 100.5v22q0 57 13.5 103t43 78.5t76 50.5t112.5 18zM292 398q-57 0 -79 -35t-22 -102v-21q0 -72 22 -104t69 -32q57 0 79 42.5t22 113.5v26q0 58 -21.5 85t-69.5 27z" />
    <glyph glyph-name="aringacute.alt" 
d="M295 756q48 0 78.5 -25t30.5 -79q0 -55 -30.5 -80t-78.5 -25t-78.5 25t-30.5 80q0 54 30.5 79t78.5 25zM295 607q20 0 30 10.5t10 34.5q0 44 -40 44t-40 -44q0 -24 10 -34.5t30 -10.5zM292 398q-57 0 -79 -35t-22 -102v-21q0 -72 22 -104t69 -32q57 0 79 42.5t22 113.5
v26q0 58 -21.5 85t-69.5 27zM289 511q124 0 184 -54t60 -166v-291h-137l-10 86h-2q-14 -38 -48.5 -67t-95.5 -29q-55 0 -92.5 18.5t-60.5 51.5t-33 78.5t-10 100.5v22q0 57 13.5 103t43 78.5t76 50.5t112.5 18zM383 956l48 -108l-244 -81l-27 63z" />
    <glyph glyph-name="gcircumflex.alt" 
d="M292 398q-57 0 -79 -32.5t-22 -99.5v-19q0 -72 22 -101.5t69 -29.5q51 0 76 34.5t25 97.5v46q0 56 -22 80t-69 24zM387 96h-2q-8 -19 -20.5 -36t-31.5 -30.5t-43 -21.5t-54 -8q-53 0 -89.5 18.5t-59 51.5t-33 78t-10.5 98v20q0 57 13.5 102t43 77t76 49t112.5 17
q124 0 184 -53.5t60 -165.5v-266q0 -122 -69 -179.5t-188 -57.5q-61 0 -113 12.5t-88 31.5l24 100q32 -15 71 -24.5t78 -9.5q69 0 104 29.5t35 100.5v67zM335 715l128 -155h-95l-73 65l-72 -65h-96l128 155h80z" />
    <glyph glyph-name="gbreve.alt" 
d="M295 557q-67 0 -109.5 36t-45.5 119h81q5 -36 23.5 -51t50.5 -15q33 0 51.5 15t23.5 51h81q-3 -83 -46 -119t-110 -36zM292 398q-57 0 -79 -32.5t-22 -99.5v-19q0 -72 22 -101.5t69 -29.5q51 0 76 34.5t25 97.5v46q0 56 -22 80t-69 24zM387 96h-2q-8 -19 -20.5 -36
t-31.5 -30.5t-43 -21.5t-54 -8q-53 0 -89.5 18.5t-59 51.5t-33 78t-10.5 98v20q0 57 13.5 102t43 77t76 49t112.5 17q124 0 184 -53.5t60 -165.5v-266q0 -122 -69 -179.5t-188 -57.5q-61 0 -113 12.5t-88 31.5l24 100q32 -15 71 -24.5t78 -9.5q69 0 104 29.5t35 100.5v67z
" />
    <glyph glyph-name="gdotaccent.alt" 
d="M292 398q-57 0 -79 -32.5t-22 -99.5v-19q0 -72 22 -101.5t69 -29.5q51 0 76 34.5t25 97.5v46q0 56 -22 80t-69 24zM387 96h-2q-8 -19 -20.5 -36t-31.5 -30.5t-43 -21.5t-54 -8q-53 0 -89.5 18.5t-59 51.5t-33 78t-10.5 98v20q0 57 13.5 102t43 77t76 49t112.5 17
q124 0 184 -53.5t60 -165.5v-266q0 -122 -69 -179.5t-188 -57.5q-61 0 -113 12.5t-88 31.5l24 100q32 -15 71 -24.5t78 -9.5q69 0 104 29.5t35 100.5v67zM295 703q42 0 62 -20t20 -52q0 -34 -20 -53.5t-62 -19.5t-62 19.5t-20 53.5q0 32 20 52t62 20z" />
    <glyph glyph-name="gcommaaccent.alt" 
d="M292 398q-57 0 -79 -32.5t-22 -99.5v-19q0 -72 22 -101.5t69 -29.5q51 0 76 34.5t25 97.5v46q0 56 -22 80t-69 24zM387 96h-2q-8 -19 -20.5 -36t-31.5 -30.5t-43 -21.5t-54 -8q-53 0 -89.5 18.5t-59 51.5t-33 78t-10.5 98v20q0 57 13.5 102t43 77t76 49t112.5 17
q124 0 184 -53.5t60 -165.5v-266q0 -122 -69 -179.5t-188 -57.5q-61 0 -113 12.5t-88 31.5l24 100q32 -15 71 -24.5t78 -9.5q69 0 104 29.5t35 100.5v67zM352.007 562.997l-133.992 22.998l76.9961 192.988l77.9951 -17.999z" />
    <glyph glyph-name="ij.alt" horiz-adv-x="559" 
d="M211 0h-149v500h149v-500zM136 716q48 0 70.5 -20.5t22.5 -56.5q0 -37 -22.5 -58t-70.5 -21t-70.5 21t-22.5 58q0 36 22.5 56.5t70.5 20.5zM497 500v-488q0 -120 -62 -172.5t-183 -52.5q-59 0 -106.5 8.5t-82.5 22.5v110q37 -11 77.5 -19t88.5 -8q39 0 62.5 9.5t36 27.5
t16.5 43t4 56v463h149zM422 716q49 0 71.5 -20.5t22.5 -56.5q0 -37 -22.5 -58t-71.5 -21q-48 0 -70.5 21t-22.5 58q0 36 22.5 56.5t70.5 20.5z" />
    <glyph glyph-name="jcircumflex.alt" horiz-adv-x="289" 
d="M183 715l128 -155h-95l-73 65l-72 -65h-96l128 155h80zM227 500v-515q0 -106 -46 -151t-131 -45q-39 0 -68 7.5t-55 20.5l25 104q37 -17 69 -17t44.5 17.5t12.5 54.5v524h149z" />
    <glyph glyph-name="dotlessj.alt" horiz-adv-x="289" 
d="M227 500v-515q0 -106 -46 -151t-131 -45q-39 0 -68 7.5t-55 20.5l25 104q37 -17 69 -17t44.5 17.5t12.5 54.5v524h149z" />
    <glyph glyph-name="uacute.alt" horiz-adv-x="591" 
d="M383 737l48 -108l-244 -81l-27 63zM296 -12q-118 0 -178 56.5t-60 169.5v286h150v-279q0 -57 21 -83.5t67 -26.5q88 0 88 110v279h149v-286q0 -113 -59.5 -169.5t-177.5 -56.5z" />
    <glyph glyph-name="ugrave.alt" horiz-adv-x="591" 
d="M431 611l-28 -63l-243 81l47 108zM296 -12q-118 0 -178 56.5t-60 169.5v286h150v-279q0 -57 21 -83.5t67 -26.5q88 0 88 110v279h149v-286q0 -113 -59.5 -169.5t-177.5 -56.5z" />
    <glyph glyph-name="ucircumflex.alt" horiz-adv-x="591" 
d="M296 -12q-118 0 -178 56.5t-60 169.5v286h150v-279q0 -57 21 -83.5t67 -26.5q88 0 88 110v279h149v-286q0 -113 -59.5 -169.5t-177.5 -56.5zM335 715l128 -155h-95l-73 65l-72 -65h-96l128 155h80z" />
    <glyph glyph-name="udieresis.alt" horiz-adv-x="591" 
d="M296 -12q-118 0 -178 56.5t-60 169.5v286h150v-279q0 -57 21 -83.5t67 -26.5q88 0 88 110v279h149v-286q0 -113 -59.5 -169.5t-177.5 -56.5zM188 695q36 0 56 -18.5t20 -50.5q0 -34 -20 -52t-56 -18q-75 0 -75 70q0 32 19 50.5t56 18.5zM402 695q36 0 56 -18.5t20 -50.5
q0 -34 -20 -52t-56 -18q-75 0 -75 70q0 32 19 50.5t56 18.5z" />
    <glyph glyph-name="utilde.alt" horiz-adv-x="591" 
d="M358 650q15 0 23 13.5t10 46.5h77q-2 -76 -26 -114t-79 -38q-21 0 -39 10t-33.5 21.5t-29.5 21.5t-28 10q-15 0 -23.5 -14t-10.5 -46h-77q3 76 27 113.5t79 37.5q22 0 39.5 -9.5t32.5 -21.5t29 -21.5t29 -9.5zM296 -12q-118 0 -178 56.5t-60 169.5v286h150v-279
q0 -57 21 -83.5t67 -26.5q88 0 88 110v279h149v-286q0 -113 -59.5 -169.5t-177.5 -56.5z" />
    <glyph glyph-name="umacron.alt" horiz-adv-x="591" 
d="M296 -12q-118 0 -178 56.5t-60 169.5v286h150v-279q0 -57 21 -83.5t67 -26.5q88 0 88 110v279h149v-286q0 -113 -59.5 -169.5t-177.5 -56.5zM457 648v-84h-324v84h324z" />
    <glyph glyph-name="ubreve.alt" horiz-adv-x="591" 
d="M295 557q-67 0 -109.5 36t-45.5 119h81q5 -36 23.5 -51t50.5 -15q33 0 51.5 15t23.5 51h81q-3 -83 -46 -119t-110 -36zM296 -12q-118 0 -178 56.5t-60 169.5v286h150v-279q0 -57 21 -83.5t67 -26.5q88 0 88 110v279h149v-286q0 -113 -59.5 -169.5t-177.5 -56.5z" />
    <glyph glyph-name="uring.alt" horiz-adv-x="591" 
d="M295 772q48 0 78.5 -25t30.5 -79q0 -55 -30.5 -80t-78.5 -25t-78.5 25t-30.5 80q0 54 30.5 79t78.5 25zM295 623q20 0 30 10.5t10 34.5q0 44 -40 44t-40 -44q0 -24 10 -34.5t30 -10.5zM296 -12q-118 0 -178 56.5t-60 169.5v286h150v-279q0 -57 21 -83.5t67 -26.5
q88 0 88 110v279h149v-286q0 -113 -59.5 -169.5t-177.5 -56.5z" />
    <glyph glyph-name="uhungarumlaut.alt" horiz-adv-x="591" 
d="M296 -12q-118 0 -178 56.5t-60 169.5v286h150v-279q0 -57 21 -83.5t67 -26.5q88 0 88 110v279h149v-286q0 -113 -59.5 -169.5t-177.5 -56.5zM192 748l116 -39l-86 -159l-75 33zM379 748l116 -39l-87 -159l-74 33z" />
    <glyph glyph-name="uogonek.alt" horiz-adv-x="591" 
d="M375 0q-44 -16 -57.5 -35t-13.5 -40q0 -19 10 -26.5t29 -7.5q28 0 58 15l15 -61q-18 -13 -44 -21.5t-55 -8.5q-21 0 -39.5 4.5t-32.5 15t-22.5 28t-8.5 42.5q0 31 13 51t33 34q-202 15 -202 224v286h150v-279q0 -57 21 -83.5t67 -26.5q88 0 88 110v279h149v-286
q0 -113 -59.5 -169.5t-177.5 -56.5q-10 0 -18.5 0.5t-17.5 1.5q16 10 32.5 16t31.5 11z" />
    <glyph glyph-name="wcircumflex.alt" horiz-adv-x="835" 
d="M560 110q42 0 61 35t19 113q0 62 -20.5 124t-59.5 118h148q35 -44 56.5 -101t23.5 -129q4 -145 -52 -213.5t-162 -68.5q-62 0 -102 26.5t-54 69.5h-2q-18 -45 -57.5 -70.5t-101.5 -25.5q-103 0 -151 64.5t-48 185.5v262h150v-268q0 -60 15 -91.5t53 -31.5q41 0 55 34
t14 103v254h142v-266q0 -62 17.5 -93t55.5 -31zM458 715l128 -155h-95l-73 65l-72 -65h-96l128 155h80z" />
    <glyph glyph-name="wgrave.alt" horiz-adv-x="835" 
d="M555 611l-28 -63l-243 81l47 108zM560 110q42 0 61 35t19 113q0 62 -20.5 124t-59.5 118h148q35 -44 56.5 -101t23.5 -129q4 -145 -52 -213.5t-162 -68.5q-62 0 -102 26.5t-54 69.5h-2q-18 -45 -57.5 -70.5t-101.5 -25.5q-103 0 -151 64.5t-48 185.5v262h150v-268
q0 -60 15 -91.5t53 -31.5q41 0 55 34t14 103v254h142v-266q0 -62 17.5 -93t55.5 -31z" />
    <glyph glyph-name="wacute.alt" horiz-adv-x="835" 
d="M507 737l48 -108l-244 -81l-27 63zM560 110q42 0 61 35t19 113q0 62 -20.5 124t-59.5 118h148q35 -44 56.5 -101t23.5 -129q4 -145 -52 -213.5t-162 -68.5q-62 0 -102 26.5t-54 69.5h-2q-18 -45 -57.5 -70.5t-101.5 -25.5q-103 0 -151 64.5t-48 185.5v262h150v-268
q0 -60 15 -91.5t53 -31.5q41 0 55 34t14 103v254h142v-266q0 -62 17.5 -93t55.5 -31z" />
    <glyph glyph-name="wdieresis.alt" horiz-adv-x="835" 
d="M560 110q42 0 61 35t19 113q0 62 -20.5 124t-59.5 118h148q35 -44 56.5 -101t23.5 -129q4 -145 -52 -213.5t-162 -68.5q-62 0 -102 26.5t-54 69.5h-2q-18 -45 -57.5 -70.5t-101.5 -25.5q-103 0 -151 64.5t-48 185.5v262h150v-268q0 -60 15 -91.5t53 -31.5q41 0 55 34
t14 103v254h142v-266q0 -62 17.5 -93t55.5 -31zM311 695q36 0 56 -18.5t20 -50.5q0 -34 -20 -52t-56 -18q-75 0 -75 70q0 32 19 50.5t56 18.5zM525 695q36 0 56 -18.5t20 -50.5q0 -34 -20 -52t-56 -18q-75 0 -75 70q0 32 19 50.5t56 18.5z" />
    <glyph glyph-name="ydieresis.alt" horiz-adv-x="593" 
d="M533 44q0 -130 -65.5 -192.5t-194.5 -62.5q-61 0 -113 12t-86 31l25 100q31 -14 68.5 -23.5t78.5 -9.5q69 0 105 29.5t36 102.5l1 63h-3q-8 -18 -20.5 -34.5t-31.5 -30t-44 -21.5t-58 -8q-95 0 -134 53t-39 165v282h150v-286q0 -46 15 -68t55 -22q28 0 48 11.5t32.5 32
t18 49t5.5 62.5v221h151v-456zM188 695q36 0 56 -18.5t20 -50.5q0 -34 -20 -52t-56 -18q-75 0 -75 70q0 32 19 50.5t56 18.5zM402 695q36 0 56 -18.5t20 -50.5q0 -34 -20 -52t-56 -18q-75 0 -75 70q0 32 19 50.5t56 18.5z" />
    <glyph glyph-name="yacute.alt" horiz-adv-x="593" 
d="M383 737l48 -108l-244 -81l-27 63zM533 44q0 -130 -65.5 -192.5t-194.5 -62.5q-61 0 -113 12t-86 31l25 100q31 -14 68.5 -23.5t78.5 -9.5q69 0 105 29.5t36 102.5l1 63h-3q-8 -18 -20.5 -34.5t-31.5 -30t-44 -21.5t-58 -8q-95 0 -134 53t-39 165v282h150v-286
q0 -46 15 -68t55 -22q28 0 48 11.5t32.5 32t18 49t5.5 62.5v221h151v-456z" />
    <glyph glyph-name="ycircumflex.alt" horiz-adv-x="593" 
d="M533 44q0 -130 -65.5 -192.5t-194.5 -62.5q-61 0 -113 12t-86 31l25 100q31 -14 68.5 -23.5t78.5 -9.5q69 0 105 29.5t36 102.5l1 63h-3q-8 -18 -20.5 -34.5t-31.5 -30t-44 -21.5t-58 -8q-95 0 -134 53t-39 165v282h150v-286q0 -46 15 -68t55 -22q28 0 48 11.5t32.5 32
t18 49t5.5 62.5v221h151v-456zM335 715l128 -155h-95l-73 65l-72 -65h-96l128 155h80z" />
    <glyph glyph-name="ygrave.alt" horiz-adv-x="593" 
d="M431 611l-28 -63l-243 81l47 108zM533 44q0 -130 -65.5 -192.5t-194.5 -62.5q-61 0 -113 12t-86 31l25 100q31 -14 68.5 -23.5t78.5 -9.5q69 0 105 29.5t36 102.5l1 63h-3q-8 -18 -20.5 -34.5t-31.5 -30t-44 -21.5t-58 -8q-95 0 -134 53t-39 165v282h150v-286
q0 -46 15 -68t55 -22q28 0 48 11.5t32.5 32t18 49t5.5 62.5v221h151v-456z" />
    </font>
</defs>
</svg>
